<svg width="22" height="24" viewBox="0 0 22 24" fill="none" xmlns="http://www.w3.org/2000/svg">
<path d="M14.2597 21.2987C13.6792 21.1669 13.0162 21.0159 12.266 19.0835C12.0878 18.6234 11.877 17.8459 11.7654 17.048C11.6806 16.4454 11.6515 15.8308 11.7339 15.33C11.82 14.8053 12.0272 14.4027 12.4199 14.2542C12.4817 14.2314 12.5472 14.2134 12.6187 14.2039C13.941 14.0218 14.8827 13.2718 15.4426 12.7171C15.4451 12.7147 15.4475 12.7123 15.4499 12.7099C15.6147 12.5458 15.7468 12.3984 15.845 12.2894L15.8644 12.2666C15.4281 12.3037 15.0875 12.414 14.8269 12.499C14.6136 12.5685 14.45 12.6212 14.313 12.6104L14.3058 12.6092C14.2088 12.5949 14.17 12.4499 14.1688 12.2283C14.1676 12.0534 14.1797 11.8209 14.2003 11.5741C14.2331 11.1632 14.2827 10.7068 14.3191 10.406C14.2597 10.5091 14.2137 10.6121 14.204 10.6433C14.1506 10.8242 14.1046 10.9835 14.0646 11.1297C13.6755 12.505 13.6307 12.6655 11.6066 12.511C11.603 12.511 11.5994 12.5098 11.597 12.5098C11.5424 12.5002 11.5073 12.4487 11.517 12.396C11.523 12.3636 11.5061 12.1971 11.4818 11.9946C11.4406 11.6592 11.3788 11.2447 11.3606 11.1488C11.3097 10.8769 11.1388 10.4659 10.9376 10.0826C10.7692 9.76267 10.5813 9.46557 10.4286 9.28704C10.3874 9.41643 10.368 9.59015 10.3656 9.77586C10.3607 10.1029 10.4056 10.4588 10.4686 10.6744C10.7486 11.6388 10.6904 11.912 10.6043 12.3169C10.5631 12.5074 10.5171 12.7303 10.5001 13.0789C10.5001 13.1052 10.4989 13.1304 10.4977 13.1556C10.4965 13.2095 10.4528 13.2526 10.3983 13.2526C10.3425 13.2526 10.2989 13.2083 10.2989 13.1544L10.3013 13.0825C10.3038 12.6452 9.9947 12.13 9.57899 11.7083C9.25538 11.3801 8.86996 11.1117 8.51606 10.9787C8.58393 11.0674 8.65181 11.1716 8.71847 11.2842C8.96208 11.6999 9.18629 12.2331 9.23234 12.4379C9.31839 12.8249 9.35111 13.0861 9.26991 13.2574C9.17901 13.4467 8.97903 13.5114 8.60695 13.4826C7.74278 13.4167 7.16103 12.8321 6.80955 12.0869C6.54412 11.5238 6.41203 10.8673 6.38898 10.2779C5.97812 11.0949 5.55996 11.198 5.15881 11.0482C4.92853 10.9619 4.71522 10.7906 4.51162 10.6277C4.26316 10.4288 4.03166 10.2431 3.84866 10.2779C3.87412 10.3881 3.97592 10.5498 4.10682 10.7175C4.32498 10.9979 4.61706 11.2818 4.78554 11.3956C5.5394 11.9048 5.69333 12.3001 5.84362 12.6859C5.95149 12.9626 6.05693 13.2334 6.41446 13.5425C6.51506 13.6288 6.66413 13.7378 6.83503 13.8624C7.5683 14.3967 8.71484 15.233 8.70758 16.2836C8.70637 16.4909 8.70879 16.7029 8.71122 16.9174C8.73061 18.3515 8.75 19.8382 7.49557 20.2874C6.52598 20.6336 5.85452 20.7594 5.24611 20.8733C4.36134 21.0386 3.60993 21.1787 2.24762 21.9563C2.88029 21.997 3.83292 22.0365 4.80372 21.9838C5.88483 21.9251 6.99138 21.7526 7.70284 21.3429C7.7804 21.2926 7.82767 21.2674 7.82767 21.2662C7.87494 21.2387 7.93675 21.2566 7.96341 21.3033C7.99008 21.3489 7.97553 21.4064 7.9319 21.4339C7.8907 21.4615 7.84706 21.4878 7.80222 21.513C7.53194 21.6879 6.88233 22.16 6.48599 22.8764C6.15632 23.4742 5.41822 23.8132 4.96373 23.9977C6.70538 24.042 7.6083 23.437 9.09406 22.4391L9.33889 22.2749C9.71946 22.021 10.8066 22.6571 11.7689 23.2214C12.4876 23.6419 13.1312 24.0193 13.2355 23.9414C13.3106 23.8851 13.0997 23.5137 12.4064 22.6044C12.2986 22.463 11.9289 21.749 11.7605 21.3405C11.7132 21.2267 11.6805 21.132 11.672 21.0757C11.638 20.8529 11.6986 20.7942 11.8926 20.9703C11.9604 21.0326 12.0877 21.1955 12.2925 21.501C12.5871 21.9395 13.1373 22.0785 13.7554 22.2342C14.3444 22.3828 14.9904 22.5457 15.5637 22.9914C15.1843 21.5082 14.7565 21.4112 14.2632 21.2986L14.2597 21.2987ZM8.46884 14.4771C8.42884 14.4399 8.42763 14.3776 8.4652 14.3381C8.50278 14.2986 8.5658 14.2974 8.60579 14.3345C8.76699 14.4867 8.91243 14.6532 9.03484 14.8892C9.15483 15.1228 9.25057 15.4235 9.3136 15.8476C9.32208 15.9016 9.2833 15.9519 9.22876 15.9591C9.17422 15.9674 9.12331 15.9291 9.11604 15.8752C9.05665 15.4751 8.96697 15.1935 8.85546 14.9779C8.74638 14.7646 8.61428 14.6149 8.46642 14.4759L8.46884 14.4771ZM8.61792 21.9001C8.54156 21.9852 8.46763 22.0666 8.40218 22.1505C8.36825 22.1936 8.30644 22.202 8.2628 22.1685C8.21917 22.1349 8.21069 22.0738 8.24462 22.0307C8.31128 21.9444 8.39006 21.8582 8.47005 21.7683C8.74518 21.464 9.05907 21.1178 9.10636 20.5164C9.10999 20.4625 9.15847 20.4217 9.21301 20.4253C9.26755 20.4289 9.30876 20.4768 9.30513 20.5308C9.25301 21.1981 8.91366 21.5718 8.61794 21.8989L8.61792 21.9001ZM9.40936 19.3627C9.40572 19.4166 9.35724 19.4573 9.3027 19.4537C9.24816 19.4501 9.20695 19.4022 9.21059 19.3483L9.30149 18.1862C9.30512 18.1323 9.3536 18.0915 9.40814 18.0951C9.46268 18.0987 9.50389 18.1466 9.50026 18.2006L9.40936 19.3627ZM11.3304 22.0379C11.2879 22.0715 11.2249 22.0655 11.1898 22.0223C10.8807 21.6437 10.785 21.3203 10.7086 21.0615C10.6698 20.9309 10.6371 20.8183 10.5826 20.7309C10.5535 20.6841 10.568 20.6242 10.6153 20.5955C10.6626 20.5667 10.7232 20.5823 10.7522 20.6278C10.8189 20.7368 10.8565 20.8614 10.8989 21.0064C10.9704 21.2484 11.0601 21.5503 11.3437 21.899C11.3776 21.9409 11.3716 22.0032 11.3279 22.0379L11.3304 22.0379ZM10.6844 17.1451C10.6844 17.0912 10.728 17.0469 10.7826 17.0457C10.8371 17.0457 10.8819 17.0888 10.8832 17.1427C10.8856 17.3584 10.9837 17.6483 11.0868 17.9526C11.2213 18.3492 11.3643 18.7721 11.3364 19.1387C11.3328 19.1926 11.2843 19.2333 11.2298 19.2297C11.1752 19.2261 11.134 19.1782 11.1377 19.1243C11.1631 18.7948 11.0274 18.3923 10.8989 18.0149C10.7898 17.695 10.688 17.3919 10.6844 17.144V17.1451ZM10.9098 15.0773C10.8965 15.2534 10.8832 15.4344 10.8516 15.6224C10.8432 15.6763 10.791 15.7123 10.7377 15.7039C10.6832 15.6955 10.6468 15.6452 10.6553 15.5913C10.6844 15.4152 10.6977 15.2379 10.711 15.0641C10.7692 14.2818 10.8201 13.5953 12.203 13.2826C12.2563 13.2706 12.3097 13.3042 12.323 13.3569C12.3351 13.4096 12.3012 13.4623 12.2479 13.4755C11.0092 13.7559 10.9632 14.374 10.911 15.0785L10.9098 15.0773ZM21.5183 7.92389C21.2432 7.34045 20.5051 6.81928 19.0822 6.71028C19.0604 6.70788 19.0385 6.6995 19.0216 6.68392C18.9816 6.64678 18.9792 6.58448 19.0167 6.54495L19.1173 6.43952C19.1258 6.42994 19.1367 6.42155 19.1488 6.41556C19.9439 6.02139 20.282 5.48467 20.3196 4.97791C20.3354 4.75747 20.2954 4.54182 20.2105 4.34654C20.1257 4.15007 19.996 3.97397 19.836 3.83258C19.4797 3.5187 18.9707 3.37731 18.4471 3.56661C18.4313 3.5726 18.4131 3.575 18.3962 3.5714C18.3416 3.56182 18.3053 3.5115 18.315 3.45759C18.4301 2.79506 18.3671 2.29668 18.1913 1.93968C18.0459 1.64256 17.8217 1.44129 17.5587 1.32269C17.2932 1.20289 16.9866 1.16695 16.6812 1.20049C16.234 1.24961 15.7916 1.44609 15.4789 1.74559C15.4668 1.75637 15.4522 1.76595 15.4353 1.76955C15.3819 1.78392 15.3274 1.75278 15.3128 1.70006C15.1032 0.945308 14.7008 0.491241 14.2402 0.255236C13.9312 0.0970964 13.593 0.0371922 13.2706 0.0515702C12.947 0.065947 12.6392 0.153403 12.3859 0.291178C12.0683 0.464896 11.8417 0.714085 11.7944 0.989623C11.7884 1.04234 11.7411 1.08068 11.6878 1.07588C11.6332 1.07229 11.592 1.02437 11.5957 0.970454C11.6284 0.551136 11.3593 0.26241 10.9775 0.116238C10.7751 0.0383637 10.5412 -0.00116977 10.3025 2.63529e-05C10.0625 2.63529e-05 9.81766 0.0407591 9.59466 0.122227C9.09047 0.305529 8.69416 0.700876 8.71356 1.32148C8.7184 1.3682 8.68689 1.41253 8.63962 1.42571C8.5863 1.44009 8.53176 1.40894 8.51721 1.35622C8.31118 0.599046 7.85789 0.218095 7.35491 0.0898952C7.10887 0.0275986 6.8483 0.0240043 6.59862 0.0683308C6.34895 0.111459 6.10898 0.202511 5.90535 0.324712C5.51509 0.558331 5.25207 0.906949 5.28723 1.26876C5.28965 1.28673 5.28602 1.3059 5.27632 1.32387C5.25087 1.37179 5.19027 1.39096 5.14179 1.3658C4.6582 1.11541 4.2219 1.06869 3.86192 1.15734C3.60134 1.22204 3.38075 1.35861 3.21228 1.53952C3.04381 1.72162 2.92988 1.94924 2.88019 2.19484C2.81232 2.53151 2.86928 2.90408 3.08138 3.24075C3.09835 3.26591 3.10199 3.29825 3.09108 3.32821C3.07169 3.37972 3.01473 3.40608 2.96261 3.38691C2.38811 3.17845 1.9421 3.19043 1.62699 3.33779C1.43913 3.42525 1.29732 3.56062 1.20399 3.72595C1.10946 3.89248 1.06219 4.08896 1.06583 4.29503C1.07067 4.6796 1.24884 5.09533 1.60638 5.41638C1.62698 5.43315 1.64153 5.45831 1.64274 5.48826C1.64517 5.54217 1.60274 5.5889 1.54821 5.59129C0.722822 5.63443 0.262286 6.05732 0.0865487 6.57248C-0.000715092 6.82887 -0.020107 7.10801 0.01989 7.37637C0.0598871 7.64473 0.158057 7.89991 0.30592 8.10717C0.568924 8.47736 0.989478 8.69542 1.51064 8.55284C1.547 8.54086 1.58821 8.55044 1.61608 8.58039C1.65365 8.62112 1.65002 8.68342 1.61002 8.71936C1.33975 8.96257 1.2246 9.4298 1.27915 9.94137C1.31793 10.2948 1.43792 10.6662 1.64518 10.9992C1.85122 11.3311 2.14574 11.6246 2.53237 11.8235C3.13473 12.1326 3.96374 12.2116 5.04364 11.8463C4.93941 11.754 4.81578 11.6594 4.66793 11.5587C4.48613 11.4365 4.17342 11.1334 3.94317 10.8387C3.75895 10.6027 3.62443 10.3643 3.63774 10.2037C3.64017 10.1678 3.66198 10.1378 3.69228 10.1235C3.99892 9.96891 4.30315 10.2121 4.63157 10.4757C4.82427 10.629 5.02546 10.7907 5.22301 10.865C5.5854 11.0016 5.97808 10.8387 6.3962 9.75444C6.40832 9.71371 6.44711 9.68375 6.49195 9.68375C6.52952 9.68375 6.56104 9.70412 6.57921 9.73407C6.81798 10.0887 7.01431 10.3163 7.24822 10.4601C7.48092 10.6027 7.75725 10.6673 8.15601 10.6985C8.15965 10.6985 8.16207 10.6985 8.16571 10.6997C8.6299 10.7308 9.12075 10.5787 9.50859 10.2349C9.85039 9.93295 10.1122 9.48131 10.2091 8.87748C10.2128 8.85232 10.2249 8.82836 10.2467 8.81159C10.2903 8.77804 10.3533 8.78643 10.3861 8.82956C10.6624 9.18177 10.866 9.43578 11.0575 9.60109C11.2405 9.75803 11.4163 9.8383 11.649 9.85507C12.1895 9.89461 12.4598 9.52083 12.6707 9.23088C12.7725 9.09071 12.861 8.96731 12.9701 8.89783C13.0161 8.86788 13.0779 8.88106 13.1082 8.92659C13.1325 8.96492 13.1288 9.01285 13.0997 9.04519C12.9773 9.18416 12.9022 9.31355 12.8622 9.43096C12.8052 9.59389 12.8173 9.73406 12.8585 9.84669C12.8998 9.9593 12.9713 10.0456 13.0331 10.0995C13.067 10.1294 13.0961 10.1462 13.1131 10.1522C13.4512 10.266 13.6173 10.0923 13.7542 9.94972C13.7991 9.903 13.8415 9.85867 13.8875 9.82273C14.0608 9.68735 14.2378 9.67297 14.5359 10.0468C14.6414 10.1797 14.8474 10.2576 15.0777 10.2996C15.3201 10.3427 15.5879 10.3463 15.8085 10.3283C15.9807 10.3151 16.1152 10.2924 16.177 10.2696C16.1915 10.2588 16.2073 10.2468 16.2218 10.2361C16.2437 10.2205 16.2703 10.2133 16.2982 10.2181C16.3527 10.2277 16.3879 10.2792 16.3782 10.3319C16.3721 10.363 16.3552 10.3894 16.3285 10.4098C16.3188 10.4182 16.3042 10.4253 16.2861 10.4337C16.0425 10.6266 15.8679 10.8686 15.7637 11.137C15.6486 11.4353 15.6195 11.7648 15.6789 12.093C15.8146 12.0751 15.96 12.0643 16.1176 12.0619C16.1734 12.0607 16.2182 12.1038 16.2206 12.1577C16.2218 12.2116 16.1782 12.2572 16.1237 12.2584C16.1055 12.2596 16.0849 12.3207 15.9928 12.4237C15.9019 12.5243 15.7831 12.6573 15.6352 12.8071C15.7419 13.0215 15.8873 13.1821 16.0546 13.2887C16.2473 13.4121 16.4703 13.4636 16.697 13.442C16.9272 13.4205 17.1624 13.3258 17.3769 13.1545C17.6435 12.9424 17.8762 12.6154 18.0302 12.1697L18.0338 12.1625C18.0556 12.1122 18.115 12.0894 18.1647 12.1122C18.2798 12.1613 18.3041 12.2057 18.3307 12.2524C18.3392 12.268 18.3489 12.2847 18.3901 12.3075C19.1731 12.7328 19.813 12.6154 20.2469 12.2656C20.4554 12.0978 20.6178 11.8774 20.7281 11.6366C20.8384 11.3958 20.8941 11.1358 20.8905 10.8914C20.8832 10.4541 20.6808 10.0659 20.2396 9.92937C20.1936 9.91499 20.1633 9.86827 20.1706 9.81915C20.179 9.76524 20.2312 9.72929 20.2845 9.73768C20.7814 9.81795 21.2044 9.57954 21.442 9.20575C21.5547 9.02724 21.6262 8.81878 21.6431 8.59952C21.6601 8.38028 21.6225 8.15027 21.5183 7.92862L21.5183 7.92389ZM6.99388 3.09706C6.86784 3.24562 6.7939 3.42772 6.80481 3.61462C6.80723 3.63618 6.80117 3.66014 6.78784 3.67931C6.75754 3.72484 6.69452 3.73682 6.64967 3.70567C6.11883 3.35106 5.70068 3.32349 5.42435 3.46606C5.29588 3.53195 5.1965 3.63618 5.12863 3.76078C5.06075 3.88777 5.02561 4.03513 5.02803 4.18847C5.03288 4.53829 5.23043 4.90851 5.66312 5.10378C5.70797 5.12295 5.73221 5.17327 5.71766 5.21999C5.70312 5.27271 5.64737 5.30266 5.59525 5.28828C5.25712 5.19364 4.9941 5.33021 4.82926 5.56623C4.72502 5.71598 4.65836 5.90648 4.63534 6.10534C4.61231 6.30542 4.6317 6.51267 4.70078 6.69838C4.82562 7.03142 5.11286 7.28902 5.59765 7.28543C5.65219 7.28543 5.69704 7.32856 5.69825 7.38247C5.69825 7.43638 5.65462 7.48071 5.60008 7.48191C5.01469 7.4867 4.66563 7.17162 4.51413 6.76549C4.43414 6.55104 4.4099 6.31142 4.43777 6.0826C4.46444 5.85257 4.54322 5.63092 4.66563 5.45362C4.80501 5.25235 5.00013 5.10858 5.24255 5.06905C4.96379 4.82824 4.83169 4.50236 4.82806 4.18968C4.82563 4.00399 4.86805 3.82309 4.95289 3.66734C5.03773 3.5092 5.1662 3.37622 5.33226 3.29115C5.64132 3.13181 6.08008 3.1366 6.61455 3.44929C6.64243 3.27438 6.72363 3.10904 6.84119 2.97007C6.96966 2.81792 7.14419 2.69572 7.34054 2.62265C7.5381 2.54957 7.75749 2.528 7.97685 2.57712C8.23864 2.63582 8.49801 2.79516 8.71495 3.08869C8.74768 3.13302 8.73798 3.19412 8.69314 3.22647C8.64829 3.25882 8.58648 3.24923 8.55376 3.2049C8.36832 2.95332 8.15016 2.81794 7.93321 2.76881C7.75384 2.72808 7.57324 2.74724 7.40963 2.80595C7.24601 2.86585 7.10178 2.96768 6.99269 3.09468L6.99388 3.09706ZM13.3907 7.23627C13.3786 7.28898 13.3253 7.32253 13.272 7.31055C13.2186 7.29857 13.1847 7.24585 13.1968 7.19314C13.2647 6.88884 13.2235 6.63844 13.1168 6.44437C13.0284 6.28503 12.895 6.16283 12.7423 6.08136C12.5884 5.99989 12.4151 5.95916 12.2466 5.96395C12.0491 5.96874 11.8612 6.03583 11.7267 6.16762C11.7109 6.18199 11.6915 6.19278 11.6685 6.19517C11.6139 6.20236 11.5643 6.16402 11.557 6.11011C11.4746 5.48233 11.2201 5.15407 10.928 5.04384C10.7922 4.99233 10.648 4.98754 10.5086 5.01988C10.3668 5.05343 10.2311 5.12531 10.1171 5.22714C9.85535 5.46196 9.70507 5.85492 9.84323 6.30418C9.85777 6.3497 9.83595 6.40002 9.79111 6.42158C9.74142 6.44435 9.68203 6.42398 9.65779 6.37486C9.50629 6.06218 9.22875 5.95674 8.94029 5.99149C8.75728 6.01305 8.56942 6.08973 8.40336 6.20354C8.23611 6.31855 8.09188 6.47071 7.99734 6.64442C7.82766 6.9571 7.8216 7.34167 8.14521 7.6975C8.18157 7.73823 8.17793 7.80053 8.13793 7.83647C8.09673 7.87242 8.0337 7.86882 7.99734 7.82929C7.60708 7.39801 7.61556 6.93195 7.82282 6.55097C7.93311 6.34969 8.09915 6.17357 8.29064 6.04178C8.48335 5.91 8.70271 5.82134 8.91845 5.79499C9.16327 5.76504 9.40203 5.81535 9.59232 5.9699C9.59111 5.6033 9.7511 5.29062 9.985 5.08097C10.1244 4.95637 10.2904 4.86771 10.4638 4.82698C10.6395 4.78505 10.8249 4.79344 10.9995 4.85933C11.3255 4.98273 11.6115 5.3122 11.7279 5.9148C11.8794 5.81896 12.0576 5.76984 12.2418 5.76624C12.443 5.76145 12.6514 5.80937 12.8357 5.90761C13.0211 6.00585 13.1835 6.15441 13.2914 6.34969C13.4198 6.58211 13.4707 6.87923 13.3908 7.23504L13.3907 7.23627ZM17.2241 8.13241C17.0108 8.5098 16.6169 8.76737 16.04 8.67392C15.9855 8.66553 15.9491 8.61402 15.9576 8.5613C15.9661 8.50739 16.017 8.47145 16.0715 8.47984C16.5503 8.55771 16.8751 8.34565 17.0496 8.03656C17.1466 7.86405 17.1987 7.66156 17.2072 7.4615C17.2156 7.26143 17.1793 7.06255 17.0993 6.89844C16.9745 6.63966 16.7357 6.46593 16.3866 6.50789C16.3321 6.51388 16.2824 6.47554 16.2763 6.42163C16.2703 6.37131 16.3042 6.32458 16.3539 6.3138C16.8084 6.18681 17.0605 5.85136 17.1187 5.50752C17.1441 5.35657 17.1332 5.20442 17.0859 5.06904C17.0387 4.93606 16.9575 4.81865 16.8399 4.73237C16.5878 4.54907 16.1709 4.51193 15.5916 4.7815C15.5419 4.80426 15.4825 4.78389 15.4595 4.73357C15.4498 4.71321 15.4485 4.69164 15.4522 4.67127C15.4934 4.48678 15.4485 4.29508 15.3467 4.12737C15.2607 3.98601 15.1322 3.86261 14.9807 3.77875C14.8292 3.69489 14.6535 3.64936 14.4705 3.66134C14.2475 3.67692 14.0123 3.77635 13.7893 3.99681C13.7506 4.03515 13.6875 4.03515 13.6487 3.99681C13.61 3.95847 13.61 3.89618 13.6487 3.85784C13.9093 3.60026 14.1905 3.48284 14.4584 3.4649C14.6826 3.44932 14.8959 3.50563 15.0801 3.60746C15.2631 3.7081 15.4158 3.85665 15.5201 4.02678C15.6158 4.18252 15.6704 4.35863 15.6692 4.53596C16.2461 4.30833 16.68 4.37063 16.9612 4.5755C17.1114 4.68572 17.2169 4.83547 17.2763 5.00439C17.3357 5.17211 17.349 5.3566 17.3175 5.53991C17.2641 5.84781 17.0836 6.14972 16.7709 6.345C17.0048 6.42047 17.1745 6.59299 17.2811 6.81342C17.3757 7.0075 17.4181 7.23752 17.4084 7.46874C17.3999 7.69996 17.3381 7.93238 17.2254 8.13247L17.2241 8.13241Z" fill="#A5B639"/>
</svg>
