<svg width="21" height="24" viewBox="0 0 21 24" fill="#A5B639" xmlns="http://www.w3.org/2000/svg">
<path fill-rule="evenodd" clip-rule="evenodd" d="M6.1761 12.4765C6.1761 12.4765 6.06381 12.6993 5.95152 12.6993C5.83922 12.6993 5.72693 12.6993 5.72693 12.9221C5.72693 13.0335 5.72693 13.1449 5.72693 13.1449C5.61464 13.2563 5.50234 13.2563 5.61464 13.4791C5.61464 13.5905 5.72693 13.8133 5.61464 13.8133C5.61464 13.9247 5.61464 13.9247 5.50234 14.0361C5.39005 14.0361 5.27776 13.9247 5.16547 13.8133C4.94088 13.5905 4.94088 13.8133 4.82859 13.9247C4.82859 13.9247 4.82859 13.8133 4.7163 13.8133C4.7163 13.7019 4.7163 13.5905 4.49171 13.5905C4.37942 13.7019 4.37942 13.8133 4.26712 13.8133L4.15483 13.7019C4.15483 13.5905 4.15483 13.3677 3.93025 13.3677C3.81795 13.3677 3.70566 13.4791 3.70566 13.4791C3.59337 13.4791 3.59337 13.4791 3.59337 13.3677C3.48108 13.3677 3.48108 13.3677 3.36878 13.2563C3.36878 13.1449 3.25649 13.1449 3.1442 13.2563C3.0319 13.3677 3.0319 13.5905 2.80732 13.7019C2.80732 13.7019 2.80732 13.7019 2.80732 13.5905C2.69503 13.5905 2.80732 13.3677 2.47044 13.4791C2.35815 13.4791 2.24585 13.5905 2.24585 13.3677C2.24585 13.3677 2.24585 13.3677 2.24585 13.2563C2.24585 13.1449 2.69503 13.0335 2.58273 12.9221C2.58273 12.6993 2.35815 12.8107 2.24585 12.8107C2.02127 12.8107 1.79668 12.8107 1.68439 12.8107C1.5721 12.8107 1.34751 12.9221 1.34751 12.8107C1.23522 12.8107 1.45981 12.6993 1.45981 12.5879C1.34751 12.4765 1.12293 12.5879 1.01063 12.5879C1.01063 12.5879 0.786049 12.6993 0.786049 12.5879C0.786049 12.3651 1.01063 12.1423 1.12293 12.0309C1.23522 12.0309 1.23522 12.0309 1.34751 12.0309C1.45981 12.0309 1.68439 12.1423 1.79668 12.0309C1.90898 11.9195 1.68439 11.8081 1.68439 11.6968C1.68439 11.6968 1.68439 11.5854 1.79668 11.5854C1.90898 11.5854 2.13356 11.6968 2.24585 11.5854C2.35815 11.474 2.24585 11.2512 2.24585 11.1398C2.35815 11.0284 2.35815 11.0284 2.47044 11.0284C2.58273 11.0284 2.58273 11.0284 2.69503 11.0284C2.80732 10.917 2.91961 10.917 2.91961 10.917H2.58273C2.35815 10.8056 2.24585 10.4714 2.13356 10.8056C2.02127 10.8056 2.02127 10.8056 1.90898 10.6942C1.79668 10.4714 1.68439 10.8056 1.45981 10.8056C1.34751 10.8056 1.23522 10.917 1.12293 10.917C1.01063 11.0284 0.673756 11.2512 0.561464 11.0284C0.449171 10.6942 0.786049 10.0258 0.449171 10.0258C0.336878 10.0258 0.112293 10.1372 0 10.0258C0 9.91439 0 9.5802 0.112293 9.4688C0.224585 9.3574 0.336878 9.246 0.336878 9.13461C0.336878 8.91181 0.224585 8.80041 0.336878 8.57762C0.336878 8.46622 0.449171 8.57762 0.561464 8.68902C0.561464 8.68902 0.786049 8.91181 0.786049 8.68902C0.898342 8.68902 0.786049 8.46622 0.898342 8.46622L1.12293 8.57762C1.23522 8.57762 1.23522 8.68902 1.34751 8.80041C1.34751 8.91181 1.45981 9.13461 1.5721 9.02321C1.68439 8.91181 1.68439 8.68902 1.90898 8.91181C1.90898 8.91181 2.02127 9.13461 2.13356 9.13461C2.24585 9.13461 2.24585 9.02321 2.24585 8.91181C2.35815 8.80041 2.35815 8.80041 2.47044 8.80041C2.69503 8.68902 2.69503 8.91181 2.80732 9.13461C2.91961 9.13461 3.0319 9.13461 3.0319 9.02321C3.1442 8.91181 3.1442 8.91181 3.36878 8.91181C3.25649 8.80041 3.25649 8.57762 3.25649 8.35482C3.1442 8.35482 3.0319 8.35482 3.0319 8.24342C2.91961 8.13203 2.91961 8.13203 2.80732 8.13203C2.80732 8.24342 2.58273 8.35482 2.58273 8.24342C2.47044 8.24342 2.47044 7.79783 2.13356 8.02063C2.02127 8.13203 2.02127 8.13203 1.90898 8.13203C1.79668 8.02063 2.02127 7.68644 1.79668 7.68644C1.68439 7.68644 1.5721 7.79783 1.45981 7.79783C1.34751 7.79783 1.5721 7.46364 1.45981 7.46364C1.23522 7.46364 0.898342 7.68644 0.786049 7.46364C0.561464 7.24085 0.898342 7.01805 0.786049 6.79526C0.786049 6.68386 0.786049 6.57246 0.786049 6.34967C0.786049 5.90407 1.12293 6.01547 1.34751 6.01547C1.68439 6.12687 1.79668 5.79268 2.02127 5.79268C2.35815 5.90407 2.47044 6.23827 2.69503 6.12687C2.80732 6.12687 2.91961 6.12687 2.91961 6.12687C3.1442 6.23827 3.1442 6.57246 3.25649 6.46106C3.36878 6.46106 3.36878 6.23827 3.48108 6.12687C3.48108 6.01547 3.59337 5.90407 3.70566 5.90407C3.81795 5.79268 3.81795 5.79268 3.93025 5.90407C4.04254 5.90407 4.04254 6.01547 4.04254 6.12687C3.93025 6.12687 3.93025 6.34967 3.93025 6.46106L4.15483 6.23827C4.26712 6.23827 4.37942 6.12687 4.49171 6.12687C4.49171 6.23827 4.49171 6.23827 4.49171 6.34967C4.49171 6.34967 4.37942 6.46106 4.37942 6.57246C4.26712 6.79526 4.604 6.46106 4.604 6.46106C4.7163 6.34967 4.82859 6.46106 4.94088 6.57246C5.05317 6.57246 5.05317 6.68386 5.05317 6.79526C5.05317 6.79526 4.94088 7.12945 5.05317 7.12945C5.05317 7.24085 5.16547 7.24085 5.16547 7.12945C5.27776 7.12945 5.27776 6.90665 5.39005 6.90665C5.50234 6.79526 5.61464 6.90665 5.61464 7.01805C5.72693 7.01805 5.83922 7.12945 5.83922 7.01805C5.95152 6.79526 5.83922 6.68386 5.95152 6.57246C6.06381 6.46106 6.1761 6.46106 6.28839 6.57246C6.40069 6.57246 6.40069 6.79526 6.51298 6.79526C6.62527 6.79526 6.62527 6.68386 6.62527 6.57246C6.62527 6.46106 6.73756 6.46106 6.73756 6.46106C6.84986 6.46106 6.84986 6.46106 6.84986 6.46106C7.07444 6.57246 6.96215 6.68386 7.07444 6.79526C7.18674 7.01805 7.29903 6.68386 7.41132 6.68386C7.41132 6.57246 7.52361 6.68386 7.52361 6.68386C7.52361 6.57246 7.52361 6.34967 7.52361 6.23827C7.52361 6.23827 7.18674 6.34967 7.07444 6.34967C6.96215 6.34967 6.96215 6.34967 6.96215 6.23827C6.84986 6.12687 6.84986 6.01547 6.84986 6.01547C6.73756 6.01547 6.62527 6.12687 6.62527 6.23827C6.51298 6.23827 6.51298 6.34967 6.40069 6.34967C6.40069 6.34967 6.1761 6.34967 6.1761 6.23827V6.12687C6.1761 6.01547 6.06381 5.90407 5.95152 5.90407C5.95152 6.01547 5.83922 6.12687 5.72693 6.23827C5.72693 6.34967 5.61464 6.34967 5.50234 6.34967C5.39005 6.34967 5.27776 6.34967 5.27776 6.34967C5.27776 6.23827 5.27776 6.23827 5.27776 6.23827C5.27776 6.12687 5.61464 6.01547 5.61464 5.90407C5.50234 5.79268 5.27776 5.79268 5.16547 5.79268C5.05317 5.79268 4.94088 5.79268 4.94088 5.56988C4.82859 5.45848 4.82859 5.34709 4.82859 5.23569C4.49171 5.23569 4.604 5.23569 4.26712 5.34709C3.93025 5.56988 3.81795 5.45848 3.70566 5.34709C3.59337 5.23569 3.59337 5.23569 3.48108 5.34709C3.36878 5.34709 3.25649 5.56988 3.0319 5.34709C2.91961 5.34709 2.91961 5.34709 2.80732 5.34709C2.58273 5.45848 2.35815 5.45848 2.13356 5.34709C1.90898 5.23569 2.02127 4.9015 2.13356 4.6787C2.24585 4.5673 2.13356 4.5673 2.02127 4.45591C1.90898 4.45591 1.68439 4.45591 1.68439 4.34451C1.5721 4.23311 1.90898 4.12171 2.02127 4.12171C2.02127 4.12171 2.13356 4.12171 2.13356 4.01031V3.89892C2.13356 3.89892 2.13356 3.89892 2.13356 3.78752C2.13356 3.56472 2.35815 3.56472 2.58273 3.56472C2.69503 3.56472 2.69503 3.45333 2.69503 3.45333C2.69503 3.34193 2.47044 3.11913 2.58273 3.00774C2.80732 2.89634 3.0319 3.34193 3.1442 3.23053C3.25649 3.23053 3.25649 3.11913 3.25649 3.11913C3.36878 3.00774 3.36878 3.00774 3.48108 3.00774C3.59337 3.00774 3.59337 2.67354 3.81795 2.78494C3.93025 2.78494 3.93025 3.11913 4.15483 3.11913C4.26712 3.11913 4.37942 3.23053 4.49171 3.23053C4.604 3.23053 4.7163 3.23053 4.94088 3.23053C4.82859 3.11913 4.82859 3.11913 4.7163 3.00774C4.7163 2.89634 4.7163 2.89634 4.604 2.89634C4.49171 2.78494 4.15483 2.78494 4.04254 2.67354C4.04254 2.56215 4.26712 2.56215 4.37942 2.45075C4.37942 2.33935 4.26712 2.33935 4.37942 2.11655C4.49171 1.78236 5.16547 2.11655 5.27776 1.78236C5.27776 1.67096 5.27776 1.55957 5.27776 1.44817C5.50234 1.22537 6.06381 1.55957 6.28839 1.55957C6.51298 1.67096 6.73756 1.67096 6.84986 1.55957C7.07444 1.33677 6.96215 1.00258 7.41132 1.33677C7.52361 1.33677 7.63591 1.44817 7.7482 1.44817C7.86049 1.44817 7.97278 1.11398 8.08508 1.44817C8.19737 1.55957 8.19737 1.67096 8.19737 1.78236C8.30966 1.78236 8.30966 1.78236 8.42196 1.78236C8.53425 1.78236 8.64654 1.89376 8.75883 2.00516C8.98342 2.11655 9.09571 2.11655 9.208 2.33935C9.3203 2.45075 9.3203 2.67354 9.3203 2.89634V3.00774L9.65718 2.89634C9.76947 2.89634 9.65718 2.78494 9.65718 2.67354C9.65718 2.67354 9.65718 2.56215 9.76947 2.56215C9.76947 2.45075 9.99405 2.67354 9.99405 2.67354C10.1063 2.78494 10.3309 2.89634 10.4432 3.00774C10.6678 3.00774 10.7801 3.00774 10.8924 2.89634C11.0047 2.89634 11.117 2.89634 11.117 3.00774C11.2293 3.11913 11.2293 3.23053 11.4539 3.23053L11.7907 3.34193C11.7907 3.34193 11.7907 3.34193 11.7907 3.23053C11.6784 3.23053 11.4539 3.23053 11.3416 3.11913C11.3416 3.00774 11.3416 2.89634 11.2293 2.89634C11.117 2.67354 11.0047 2.78494 10.7801 2.78494C10.6678 2.78494 10.6678 2.67354 10.5555 2.67354C10.5555 2.56215 10.5555 2.56215 10.5555 2.45075C10.3309 2.45075 10.1063 2.33935 9.88176 2.33935C9.88176 2.33935 9.76947 2.33935 9.76947 2.22795C9.76947 2.11655 9.88176 1.89376 9.76947 1.89376C9.65718 1.78236 9.54488 2.00516 9.54488 2.00516C9.43259 2.11655 9.3203 2.22795 9.3203 2.11655C9.208 2.11655 8.98342 2.00516 8.98342 1.89376C8.87113 1.78236 9.208 1.55957 9.09571 1.55957C8.98342 1.55957 8.75883 1.67096 8.53425 1.55957C8.53425 1.44817 8.42196 1.44817 8.42196 1.33677C8.30966 1.33677 8.30966 1.33677 8.30966 1.22537C8.19737 1.11398 7.86049 1.00258 7.97278 0.779783H8.08508C8.19737 0.668386 8.30966 0.668386 8.42196 0.668386C8.53425 0.668386 8.53425 0.556988 8.53425 0.556988C8.64654 0.445591 8.64654 0.334193 8.75883 0.334193C8.87113 0.445591 8.98342 0.779783 9.09571 0.668386L9.208 0.556988C9.208 0.445591 9.09571 0.334193 9.208 0.111398C9.3203 -0.111398 9.88176 0.111398 10.1063 0.222795C10.2186 0.222795 10.4432 0.334193 10.5555 0.222795C10.6678 0.111398 10.6678 0.111398 10.7801 0C11.0047 0 11.3416 0.222795 11.4539 0.334193C11.6784 0.556988 11.6784 0.556988 11.903 0.445591C12.2399 0.222795 12.4645 0 12.6891 0.445591C12.6891 0.668386 12.6891 0.668386 12.9137 0.779783C13.026 0.779783 13.026 0.779783 13.026 0.779783C13.3628 0.891181 13.026 1.11398 12.9137 1.11398C12.6891 1.22537 12.6891 1.33677 12.4645 1.22537C12.3522 1.22537 12.2399 1.22537 12.3522 1.33677C12.3522 1.44817 12.4645 1.55957 12.3522 1.67096C12.3522 1.67096 12.3522 1.67096 12.2399 1.78236C12.4645 1.89376 12.5768 1.89376 12.8014 1.78236C13.026 1.67096 13.026 1.55957 13.1383 1.44817C13.2505 1.33677 13.3628 1.44817 13.4751 1.55957C13.4751 1.55957 13.4751 1.55957 13.5874 1.55957C13.6997 1.55957 13.812 1.55957 13.812 1.67096C13.9243 1.78236 13.6997 2.11655 13.6997 2.11655C13.6997 2.22795 13.6997 2.22795 13.812 2.22795C13.9243 2.11655 13.9243 2.00516 14.0366 2.00516C14.1489 1.78236 14.1489 1.55957 14.1489 1.44817C14.1489 1.33677 14.1489 1.11398 14.2612 1.11398C14.3735 1.22537 14.3735 1.44817 14.4858 1.44817C14.5981 1.44817 14.5981 1.44817 14.5981 1.44817C14.8226 1.33677 14.9349 1.33677 15.0472 1.33677C15.1595 1.44817 15.2718 1.44817 15.2718 1.44817C15.721 1.67096 15.8333 1.11398 15.8333 1.22537C15.8333 1.33677 15.8333 1.44817 15.9456 1.44817C16.0579 1.55957 16.1702 1.44817 16.2824 1.44817C16.3947 1.44817 16.3947 1.44817 16.507 1.33677C16.8439 1.33677 16.6193 1.67096 16.507 1.78236C16.507 2.00516 16.7316 1.89376 16.7316 1.89376C16.8439 1.89376 16.9562 1.78236 16.9562 1.89376V2.00516C16.9562 2.33935 17.1808 2.22795 17.2931 2.22795C17.5177 2.11655 17.63 2.11655 17.8545 2.11655C17.9668 2.22795 18.0791 2.22795 18.0791 2.33935C18.0791 2.45075 17.7423 2.56215 17.63 2.56215C17.4054 2.67354 17.7423 2.78494 17.5177 2.78494C17.2931 2.78494 17.1808 2.78494 17.1808 3.00774C17.1808 3.11913 17.1808 3.11913 17.0685 3.23053C16.9562 3.23053 16.9562 3.23053 16.9562 3.23053C17.1808 3.34193 17.4054 3.34193 17.63 3.34193C17.7423 3.23053 17.9668 3.34193 18.0791 3.34193V3.45333C18.1914 3.56472 18.1914 3.56472 18.3037 3.56472C18.416 3.56472 18.5283 3.56472 18.5283 3.56472C18.5283 3.67612 18.1914 3.78752 18.5283 3.89892C18.6406 3.89892 18.7529 4.01031 18.7529 4.01031C18.7529 4.12171 18.5283 4.12171 18.416 4.12171C18.3037 4.12171 18.0791 4.01031 18.0791 4.12171C17.9668 4.12171 18.0791 4.23311 18.1914 4.34451C18.1914 4.34451 18.416 4.45591 18.3037 4.45591C18.3037 4.5673 18.0791 4.5673 17.9668 4.5673C17.8545 4.5673 17.8545 4.6787 17.8545 4.7901C17.9668 4.9015 17.9668 4.9015 17.8545 5.01289C17.9668 5.01289 18.0791 5.01289 18.3037 5.01289L18.416 5.12429C18.5283 5.23569 18.5283 5.23569 18.5283 5.23569C18.6406 5.23569 18.7529 5.01289 18.7529 4.9015C18.8652 4.7901 18.9775 4.6787 19.0898 4.6787C19.3144 4.6787 19.2021 4.7901 19.2021 4.9015L19.0898 5.12429C19.2021 5.23569 19.4266 5.12429 19.4266 5.12429C19.5389 5.12429 19.6512 5.12429 19.7635 5.23569L19.6512 5.34709C19.5389 5.45848 19.4266 5.56988 19.5389 5.56988C19.6512 5.68128 19.9881 5.45848 19.8758 5.68128C19.8758 5.79268 19.7635 5.90407 19.7635 6.01547C19.7635 6.12687 19.7635 6.12687 19.6512 6.12687C19.5389 6.23827 19.4266 6.34967 19.6512 6.34967C19.7635 6.34967 20.2127 6.34967 20.2127 6.57246L19.9881 6.68386C19.8758 6.68386 19.7635 6.68386 19.7635 6.79526C19.4266 6.79526 19.4266 6.68386 19.2021 6.57246C18.8652 6.57246 18.9775 6.79526 18.8652 6.79526L18.7529 6.90665C18.8652 7.01805 18.8652 7.01805 18.9775 7.12945C19.0898 7.24085 19.2021 7.24085 19.3144 7.24085C19.4266 7.24085 19.7635 7.24085 19.6512 7.35224C19.6512 7.46364 19.4266 7.57504 19.4266 7.68644V7.79783C19.4266 7.90923 19.3144 7.90923 19.3144 8.02063C19.2021 8.13203 19.3144 8.24342 19.2021 8.35482C19.0898 8.35482 18.8652 8.35482 18.8652 8.46622C18.8652 8.57762 18.8652 8.57762 18.7529 8.57762C18.7529 8.68902 18.7529 8.68902 18.7529 8.68902C18.5283 8.68902 18.416 8.57762 18.3037 8.57762C18.1914 8.68902 18.1914 8.80041 17.9668 8.68902C17.9668 8.68902 17.8545 8.57762 17.7423 8.57762C17.7423 8.57762 17.7423 8.57762 17.63 8.68902C17.5177 8.80041 17.4054 8.68902 17.2931 8.57762C17.0685 8.35482 16.8439 8.35482 16.6193 8.35482C16.507 8.35482 16.507 8.35482 16.3947 8.35482C16.3947 8.35482 16.2824 8.35482 16.3947 8.46622C16.3947 8.46622 16.6193 8.46622 16.7316 8.46622C16.9562 8.46622 17.0685 8.57762 17.1808 8.80041V8.91181C17.1808 9.02321 17.0685 9.13461 16.9562 9.13461C16.8439 9.02321 16.6193 8.80041 16.507 8.91181V9.02321C16.507 8.80041 16.8439 9.13461 16.8439 9.13461C16.9562 9.246 17.0685 9.246 17.1808 9.246C17.4054 9.13461 17.5177 9.13461 17.7423 9.13461C17.8545 9.13461 17.8545 9.02321 17.9668 9.02321C18.1914 9.02321 18.416 9.02321 18.5283 9.02321C18.6406 8.91181 18.9775 8.91181 19.0898 8.91181C19.2021 8.91181 19.2021 9.02321 19.4266 9.13461C19.6512 9.246 19.8758 9.246 19.8758 9.4688C19.8758 9.5802 19.8758 9.5802 19.8758 9.69159C19.8758 9.80299 19.7635 9.91439 19.8758 10.0258C19.9881 10.36 20.2127 10.5828 20.2127 10.8056C20.325 11.1398 19.9881 11.1398 19.8758 11.1398C19.7635 11.0284 19.6512 11.0284 19.6512 11.0284C19.5389 11.0284 19.6512 11.3626 19.4266 11.3626C19.3144 11.3626 19.0898 10.917 18.9775 11.0284C18.8652 11.1398 18.9775 11.2512 18.9775 11.2512C18.9775 11.3626 19.0898 11.5854 18.9775 11.5854C18.8652 11.6968 18.6406 11.474 18.5283 11.5854C18.5283 11.5854 18.5283 11.5854 18.416 11.5854C18.3037 11.6968 18.3037 11.6968 18.1914 11.6968C17.9668 11.8081 17.9668 11.474 17.7423 11.474C17.7423 11.474 17.7423 11.5854 17.63 11.474C17.4054 11.474 17.5177 11.1398 17.2931 11.0284C17.2931 11.0284 17.2931 11.0284 17.1808 11.0284C17.1808 11.0284 17.0685 11.2512 16.8439 11.1398C16.7316 11.0284 16.7316 10.8056 16.6193 10.6942C16.507 10.6942 16.507 10.6942 16.3947 10.5828C16.2824 10.8056 16.0579 10.917 15.9456 11.0284C15.8333 11.1398 15.721 11.1398 15.721 11.2512C15.6087 11.3626 15.4964 11.3626 15.3841 11.3626C15.2718 11.2512 15.1595 11.3626 15.0472 11.3626C14.9349 11.3626 14.9349 11.474 15.0472 11.474C15.2718 11.474 15.2718 11.3626 15.4964 11.474C15.6087 11.474 15.6087 11.474 15.8333 11.474C15.9456 11.3626 15.9456 11.474 16.0579 11.474C16.2824 11.474 16.507 11.3626 16.6193 11.474C16.6193 11.5854 16.6193 11.5854 16.7316 11.6968L16.8439 11.8081C16.9562 11.9195 17.0685 11.8081 17.1808 11.9195C17.2931 11.9195 17.1808 12.1423 17.1808 12.1423C17.0685 12.2537 17.0685 12.3651 17.1808 12.3651C17.2931 12.4765 17.5177 12.4765 17.4054 12.5879C17.4054 12.6993 17.2931 12.8107 17.2931 12.8107C17.2931 12.9221 17.2931 12.9221 17.2931 13.0335C17.2931 13.0335 17.2931 13.0335 17.1808 13.1449C17.0685 13.1449 17.0685 13.1449 16.9562 13.1449C16.8439 13.2563 16.8439 13.1449 16.7316 13.1449C16.6193 13.1449 16.507 13.0335 16.3947 13.1449C16.3947 13.2563 16.3947 13.3677 16.3947 13.3677C16.507 13.4791 16.6193 13.5905 16.507 13.7019C16.507 13.7019 16.2824 13.7019 16.1702 13.7019C16.1702 13.7019 16.1702 13.7019 16.0579 13.8133C15.9456 13.8133 16.0579 13.8133 15.9456 13.9247C15.8333 14.0361 15.721 13.8133 15.6087 13.8133C15.6087 13.7019 15.4964 13.4791 15.4964 13.4791C15.3841 13.4791 15.3841 13.7019 15.3841 13.7019C15.3841 13.9247 15.2718 13.9247 15.1595 13.8133C15.0472 13.5905 15.0472 13.3677 15.0472 13.2563C14.9349 13.1449 14.9349 13.1449 14.8226 13.0335C14.5981 13.2563 14.5981 13.4791 14.3735 13.8133C13.9243 14.5931 13.4751 15.0387 12.8014 15.7071C12.1276 16.2641 11.903 16.5982 11.7907 17.378C11.6784 17.4894 11.6784 17.6008 11.6784 17.7122C11.6784 18.0464 11.6784 18.3806 11.6784 18.6034C11.6784 18.8262 11.5662 18.9376 11.5662 19.049C11.5662 19.049 11.6784 19.2718 11.5662 19.2718C11.5662 19.3832 11.5662 19.2718 11.4539 19.2718C11.4539 19.1604 11.4539 18.8262 11.4539 18.7148C11.3416 18.3806 11.3416 18.1578 11.3416 17.8236C11.3416 17.7122 11.3416 17.4894 11.3416 17.378C11.3416 17.1552 11.2293 16.821 11.117 16.7096C11.0047 16.4868 10.7801 16.2641 10.5555 16.3755C10.4432 16.3755 10.4432 16.3755 10.2186 16.4868H10.1063C10.1063 16.4868 10.1063 16.5982 10.2186 16.4868C10.4432 16.4868 10.4432 16.3755 10.6678 16.3755C10.7801 16.3755 11.0047 16.5982 11.117 16.7096C11.2293 16.9324 11.2293 17.2666 11.2293 17.4894C11.2293 17.8236 11.2293 18.1578 11.2293 18.6034C11.2293 18.7148 11.2293 18.9376 11.3416 19.1604C11.4539 19.3832 11.4539 19.3832 11.6784 19.606C11.6784 19.606 11.6784 19.606 11.6784 19.7174C11.7907 19.7174 11.7907 19.8288 11.7907 19.9402C11.903 20.0516 11.903 20.163 12.0153 20.163C12.1276 20.3858 12.3522 20.4972 12.5768 20.4972C13.2505 20.72 13.9243 20.6086 14.5981 20.9428C14.9349 21.0542 15.1595 21.1656 15.3841 21.3883C15.721 21.6111 15.8333 21.3883 16.1702 21.3883C16.2824 21.3883 16.3947 21.3883 16.3947 21.3883C16.8439 21.3883 17.1808 21.4997 17.63 21.7225C17.9668 21.9453 18.0791 22.1681 18.6406 22.3909C18.8652 22.3909 19.0898 22.5023 19.3144 22.6137C19.4266 22.6137 19.9881 22.8365 19.9881 22.8365L19.8758 22.9479C19.6512 22.8365 19.3144 22.7251 19.2021 22.7251C18.6406 22.5023 18.416 22.5023 17.9668 22.1681C17.63 21.9453 17.2931 21.7225 16.8439 21.6111C16.6193 21.6111 16.2824 21.7225 16.3947 21.9453C16.507 22.1681 16.8439 22.3909 17.0685 22.3909C17.2931 22.6137 17.4054 22.6137 17.63 22.8365C17.7423 22.9479 17.8545 23.0593 17.8545 23.0593V23.1707C17.9668 23.2821 18.0791 23.2821 18.1914 23.3935C18.1914 23.5049 18.1914 23.8391 17.8545 23.3935C17.5177 22.9479 17.4054 22.7251 16.8439 22.6137C16.6193 22.6137 16.507 22.5023 16.3947 22.3909C16.1702 22.2795 16.1702 22.1681 15.9456 22.1681C15.721 22.0567 15.6087 22.1681 15.3841 21.9453C15.1595 21.8339 15.1595 21.8339 14.8226 21.7225C14.7103 21.7225 14.5981 21.7225 14.4858 21.6111C14.3735 21.6111 14.2612 21.6111 14.1489 21.4997C14.0366 21.4997 14.0366 21.4997 13.9243 21.4997C13.6997 21.4997 13.5874 21.4997 13.3628 21.4997C13.2505 21.4997 13.026 21.4997 13.1383 21.7225C13.3628 21.8339 13.5874 21.9453 13.6997 22.0567C13.9243 22.1681 14.0366 22.2795 14.2612 22.5023C14.5981 22.7251 15.0472 23.0593 15.3841 23.3935C15.8333 23.7277 16.1702 23.5049 16.7316 23.6163C17.1808 23.6163 17.2931 23.7277 17.63 23.9505C17.2931 23.9505 17.1808 23.9505 16.8439 23.9505C16.6193 23.8391 16.507 23.8391 16.1702 23.9505C15.9456 24.0619 15.6087 23.9505 15.3841 23.9505C15.2718 23.9505 15.2718 23.9505 15.1595 23.9505C15.1595 23.9505 15.1595 23.9505 15.1595 23.8391C15.0472 23.8391 14.9349 23.7277 14.8226 23.6163H14.7103C14.3735 23.3935 14.2612 23.1707 14.0366 23.6163C14.0366 23.7277 14.0366 23.8391 14.0366 23.9505H13.812C13.5874 23.6163 13.6997 23.3935 13.5874 22.9479C13.4751 22.7251 13.1383 22.7251 12.9137 22.6137C12.8014 22.5023 12.4645 22.3909 12.2399 22.5023C12.0153 22.6137 12.1276 22.9479 12.2399 23.1707C12.3522 23.3935 12.4645 23.6163 12.4645 23.8391C12.5768 23.9505 12.5768 23.9505 12.4645 23.8391C12.1276 23.7277 12.0153 23.7277 11.6784 23.8391C11.6784 23.9505 11.5662 23.9505 11.4539 23.9505C11.5662 23.6163 11.3416 23.5049 11.2293 23.2821C11.117 23.0593 11.0047 22.9479 10.8924 22.8365C10.7801 22.7251 10.5555 22.6137 10.4432 22.5023C10.1063 22.1681 9.76947 22.0567 9.65718 22.6137C9.65718 22.8365 9.65718 23.6163 9.65718 23.7277C9.76947 23.9505 9.88176 24.0619 9.65718 23.9505C9.208 23.7277 9.208 23.6163 8.75883 23.8391C8.75883 23.9505 8.64654 23.9505 8.64654 23.9505C8.75883 23.7277 8.64654 23.5049 8.53425 23.2821C8.53425 23.1707 8.53425 23.0593 8.42196 22.9479C8.19737 22.8365 7.86049 23.2821 7.7482 23.3935C7.63591 23.6163 7.52361 23.7277 7.52361 23.9505C7.29903 23.9505 7.29903 23.9505 7.18674 23.8391C7.18674 23.7277 7.18674 23.6163 7.29903 23.5049C7.29903 23.2821 7.41132 23.0593 7.41132 22.9479V22.8365C7.41132 22.8365 7.41132 22.7251 7.52361 22.7251C7.52361 22.6137 7.63591 22.2795 7.52361 22.1681C7.29903 22.1681 6.96215 22.3909 6.73756 22.3909C6.28839 22.5023 6.40069 22.5023 6.06381 22.8365C5.95152 22.9479 5.83922 22.9479 5.72693 23.0593C5.50234 23.3935 5.27776 23.6163 5.16547 23.9505C5.16547 23.9505 5.16547 23.9505 5.05317 23.9505C4.7163 23.9505 4.82859 23.7277 4.7163 23.6163C4.49171 23.5049 4.15483 23.7277 3.93025 23.8391C3.70566 24.0619 3.48108 23.9505 3.1442 23.9505C2.69503 23.9505 2.13356 23.9505 1.68439 23.9505C2.02127 23.8391 2.24585 23.7277 2.69503 23.7277C3.48108 23.7277 3.81795 23.5049 4.49171 22.9479C4.604 22.9479 4.82859 22.8365 4.94088 22.7251C5.16547 22.5023 5.16547 22.6137 5.27776 22.2795C5.39005 22.1681 5.72693 21.9453 5.95152 21.9453C5.95152 21.8339 6.06381 21.8339 6.06381 21.8339C6.06381 21.8339 6.1761 21.8339 6.1761 21.7225C6.28839 21.7225 6.28839 21.6111 6.1761 21.6111C5.95152 21.8339 5.61464 21.8339 5.39005 21.8339C5.16547 21.9453 5.05317 21.9453 4.7163 21.9453C4.604 21.9453 4.604 21.9453 4.49171 21.9453C4.15483 22.0567 3.81795 22.1681 3.48108 22.2795C3.48108 22.3909 3.36878 22.3909 3.36878 22.3909C3.25649 22.5023 3.36878 22.5023 3.25649 22.6137C2.91961 22.7251 3.0319 22.6137 2.80732 22.7251C2.47044 22.9479 2.24585 23.0593 1.90898 23.1707C1.68439 23.2821 1.45981 23.3935 1.23522 23.5049L1.01063 23.6163C0.898342 23.5049 1.34751 23.2821 1.45981 23.2821C1.90898 23.0593 2.35815 22.8365 2.69503 22.6137C3.0319 22.3909 2.80732 22.3909 2.58273 22.3909C2.35815 22.3909 2.13356 22.5023 1.90898 22.5023C1.68439 22.6137 1.45981 22.6137 1.12293 22.6137C1.01063 22.7251 0.449171 22.8365 0.336878 22.8365C0.336878 22.8365 0.224585 22.7251 0.336878 22.7251C0.786049 22.6137 1.12293 22.5023 1.68439 22.3909C2.13356 22.2795 2.35815 22.1681 2.80732 21.9453C3.36878 21.7225 3.81795 21.8339 4.37942 21.6111C4.604 21.4997 4.7163 21.3883 4.94088 21.2769C5.27776 21.1656 5.50234 21.0542 5.95152 20.9428C6.06381 20.9428 6.1761 20.9428 6.1761 20.9428H6.28839H6.40069C6.73756 20.8314 7.41132 20.72 7.63591 20.6086C7.86049 20.4972 8.08508 20.2744 8.19737 20.0516C8.30966 19.7174 8.42196 19.3832 8.42196 18.9376L8.53425 18.6034C8.64654 18.492 8.75883 18.6034 8.75883 18.7148C8.87113 18.9376 8.87113 18.9376 8.87113 19.1604C8.98342 19.2718 8.98342 19.3832 9.09571 19.3832C9.208 19.3832 9.208 19.3832 9.3203 19.3832C9.3203 19.4946 9.3203 19.4946 9.3203 19.4946C9.54488 19.606 9.54488 19.2718 9.65718 19.1604C9.65718 19.1604 9.76947 19.049 9.88176 19.049C9.99405 18.9376 10.1063 18.7148 10.1063 18.6034C10.2186 18.3806 10.2186 18.0464 10.1063 17.8236C10.1063 17.7122 9.99405 17.6008 9.99405 17.4894C10.1063 17.4894 10.1063 17.4894 10.1063 17.4894C9.99405 17.4894 9.99405 17.4894 9.99405 17.6008C9.99405 17.7122 10.1063 17.8236 10.1063 18.0464C10.1063 18.2692 10.1063 18.6034 9.99405 18.8262C9.88176 18.9376 9.76947 18.9376 9.65718 19.049C9.54488 19.1604 9.54488 19.2718 9.43259 19.3832C9.3203 19.606 9.3203 19.2718 9.208 19.2718C9.208 19.2718 9.09571 19.3832 8.98342 19.1604C8.98342 18.9376 8.98342 18.8262 8.98342 18.7148C8.87113 18.492 8.87113 18.3806 8.75883 18.2692C8.75883 17.7122 8.87113 17.935 8.98342 17.8236C9.09571 17.7122 8.98342 17.4894 9.09571 17.2666C9.09571 17.1552 9.208 16.9324 9.3203 17.0438C9.43259 17.1552 9.43259 17.2666 9.54488 17.2666C9.65718 17.2666 9.76947 17.378 9.76947 17.4894C9.76947 17.6008 9.76947 17.6008 9.76947 17.7122C9.76947 17.8236 9.76947 17.8236 9.76947 17.935C9.76947 18.0464 9.76947 18.1578 9.76947 18.1578C9.76947 18.2692 9.76947 18.492 9.65718 18.6034C9.54488 18.7148 9.43259 18.6034 9.43259 18.492C9.43259 18.492 9.3203 18.1578 9.208 18.2692H9.3203C9.3203 18.3806 9.43259 18.7148 9.54488 18.7148C9.65718 18.7148 9.65718 18.6034 9.76947 18.492C9.88176 18.3806 9.88176 18.1578 9.88176 18.0464C9.88176 17.935 9.88176 17.8236 9.76947 17.7122C9.76947 17.6008 9.76947 17.378 9.76947 17.378C9.76947 17.2666 9.65718 17.2666 9.54488 17.2666C9.43259 17.1552 9.43259 17.1552 9.43259 17.1552C9.3203 17.0438 9.3203 16.9324 9.208 17.0438C9.09571 17.0438 8.98342 17.1552 8.98342 17.2666C8.87113 17.378 8.98342 17.6008 8.87113 17.7122C8.87113 17.8236 8.64654 17.6008 8.64654 17.8236C8.64654 17.935 8.64654 18.0464 8.64654 18.1578C8.64654 18.2692 8.64654 18.3806 8.53425 18.3806V18.2692C8.53425 18.0464 8.42196 17.935 8.53425 17.7122C8.53425 17.7122 8.42196 17.4894 8.53425 17.4894C8.53425 17.378 8.53425 17.378 8.64654 17.2666C8.64654 17.1552 8.75883 17.0438 8.75883 16.9324C8.87113 16.9324 8.98342 16.821 8.98342 16.7096C9.09571 16.7096 9.208 16.821 9.43259 16.5982H9.54488C9.76947 16.821 9.76947 17.0438 9.99405 17.1552C10.1063 17.2666 10.1063 17.2666 10.2186 17.378C10.2186 17.4894 10.3309 17.6008 10.3309 17.7122C10.3309 17.935 10.4432 18.1578 10.4432 18.2692C10.3309 18.3806 10.3309 18.7148 10.3309 18.8262C10.3309 18.7148 10.3309 18.7148 10.3309 18.6034C10.4432 18.2692 10.4432 18.2692 10.4432 17.935C10.4432 17.8236 10.3309 17.6008 10.3309 17.378C10.2186 17.2666 10.2186 17.1552 9.99405 17.1552C9.88176 17.0438 9.76947 16.9324 9.76947 16.821C9.65718 16.5982 9.54488 16.3755 9.3203 16.4868C9.3203 16.4868 9.208 16.5982 9.09571 16.5982C8.98342 16.4868 8.87113 16.5982 8.75883 16.7096C8.64654 16.821 8.64654 16.821 8.53425 16.9324C8.53425 17.0438 8.53425 17.0438 8.53425 17.1552C8.42196 16.821 8.42196 16.5982 8.30966 16.2641C7.97278 15.2615 7.18674 14.1475 6.62527 13.1449C6.51298 13.0335 6.40069 12.9221 6.40069 12.6993C6.28839 12.6993 6.28839 12.5879 6.1761 12.4765ZM14.7103 11.0284C14.7103 10.6942 14.8226 10.2486 14.8226 9.91439C14.7103 9.91439 14.5981 10.0258 14.4858 10.1372C14.3735 10.1372 14.3735 10.0258 14.3735 10.0258C14.2612 9.91439 14.3735 9.69159 14.3735 9.69159C14.4858 9.5802 14.7103 9.69159 14.8226 9.4688C14.9349 9.3574 15.0472 9.246 15.0472 9.246C15.0472 9.13461 15.0472 9.13461 15.0472 9.13461C14.9349 9.13461 14.9349 9.246 14.9349 9.246C14.8226 9.4688 14.7103 9.5802 14.4858 9.5802C14.1489 9.5802 14.2612 9.5802 14.0366 9.80299C13.9243 9.91439 13.9243 9.91439 14.0366 10.0258C14.0366 10.2486 14.0366 10.36 13.812 10.36C13.5874 10.36 13.6997 10.36 13.5874 10.4714C13.4751 10.5828 13.2505 10.4714 13.1383 10.4714C13.026 10.36 13.026 10.4714 12.9137 10.5828C12.8014 10.6942 12.6891 10.4714 12.6891 10.4714C12.5768 10.36 12.5768 10.2486 12.4645 10.2486C12.4645 10.8056 12.4645 11.2512 12.4645 11.8081C12.4645 11.9195 12.5768 11.9195 12.6891 12.0309C12.6891 12.1423 12.5768 12.0309 12.5768 12.0309C12.4645 11.9195 12.4645 11.8081 12.5768 11.6968C12.5768 11.5854 12.6891 11.5854 12.6891 11.474C12.8014 11.474 12.8014 11.3626 12.6891 11.2512C12.6891 11.1398 12.6891 11.0284 12.8014 11.0284C13.026 11.0284 13.1383 11.2512 13.3628 11.1398V11.0284C13.3628 10.917 13.4751 10.8056 13.5874 10.8056C13.6997 10.8056 13.812 11.0284 14.0366 11.0284C14.0366 11.0284 14.1489 10.917 14.1489 10.8056C14.1489 10.6942 14.2612 10.5828 14.3735 10.6942C14.4858 10.8056 14.4858 11.0284 14.5981 11.0284C14.7103 11.0284 14.7103 11.0284 14.7103 11.0284ZM14.0366 13.0335C13.9243 13.0335 13.9243 13.0335 13.6997 13.0335C13.5874 13.1449 13.4751 13.1449 13.3628 13.0335C13.3628 12.8107 13.3628 12.8107 13.2505 12.8107C13.026 12.6993 12.9137 12.6993 12.8014 12.5879C12.8014 12.4765 12.6891 12.4765 12.6891 12.3651C12.6891 12.2537 12.6891 12.2537 12.6891 12.1423C12.6891 12.2537 12.5768 12.3651 12.5768 12.4765H12.6891C12.6891 12.5879 12.6891 12.5879 12.6891 12.6993C12.8014 12.9221 12.9137 13.1449 13.026 13.3677C13.3628 13.9247 13.4751 13.9247 14.0366 13.0335ZM3.59337 10.6942C3.81795 10.6942 3.93025 10.8056 4.04254 10.6942C4.15483 10.6942 4.15483 10.8056 4.26712 10.8056C4.37942 10.917 4.49171 11.0284 4.604 10.8056C4.7163 10.6942 4.7163 10.6942 4.82859 10.8056C4.94088 10.8056 5.05317 10.8056 5.16547 10.8056C5.27776 10.917 5.39005 10.917 5.16547 10.8056C4.94088 10.5828 4.82859 10.4714 4.604 10.2486C4.49171 10.2486 4.49171 10.1372 4.37942 10.1372C4.26712 10.2486 4.26712 10.2486 4.15483 10.2486C3.93025 10.2486 3.81795 10.2486 3.93025 10.4714C3.93025 10.5828 3.93025 10.5828 3.70566 10.6942H3.59337ZM10.6678 9.246C10.6678 9.02321 10.6678 9.02321 10.8924 9.02321C11.0047 8.91181 11.0047 8.91181 11.117 8.91181C11.2293 8.91181 11.3416 8.91181 11.4539 9.02321C11.4539 9.02321 11.5662 9.13461 11.6784 9.13461L11.5662 9.02321C11.4539 8.91181 11.3416 8.80041 11.2293 8.80041C11.117 8.80041 11.117 8.80041 11.0047 8.80041C10.7801 8.80041 10.6678 8.68902 10.5555 8.57762C10.5555 8.57762 10.4432 8.46622 10.4432 8.57762C10.2186 8.57762 10.2186 8.68902 9.99405 8.68902C9.99405 8.57762 9.99405 8.57762 9.99405 8.68902C10.1063 8.80041 10.1063 8.80041 10.1063 8.80041C10.2186 8.91181 10.2186 9.02321 10.2186 9.13461C10.3309 9.13461 10.4432 9.13461 10.5555 9.246C10.5555 9.246 10.5555 9.246 10.6678 9.246ZM12.1276 10.2486C12.2399 10.5828 12.0153 10.917 11.7907 11.0284C11.6784 11.1398 11.6784 11.2512 11.7907 11.3626C11.7907 11.474 11.7907 11.474 11.6784 11.5854C11.5662 11.6968 11.6784 11.6968 11.5662 11.9195C11.5662 12.0309 11.2293 11.9195 11.117 11.8081C11.0047 11.8081 11.0047 11.8081 10.8924 11.9195C10.6678 12.0309 10.6678 11.5854 10.5555 11.5854H10.4432C10.3309 13.1449 9.65718 15.4843 11.6784 14.9273C13.5874 14.4817 11.6784 13.3677 12.2399 10.2486H12.1276ZM9.76947 11.5854C9.3203 11.5854 9.43259 11.5854 9.208 11.8081C9.09571 11.9195 8.98342 12.0309 8.98342 11.8081C8.87113 11.6968 8.75883 11.6968 8.64654 11.8081C8.64654 11.8081 8.53425 11.8081 8.53425 11.9195C8.42196 11.9195 8.30966 11.8081 8.30966 11.6968C8.30966 11.5854 8.42196 11.474 8.30966 11.3626C8.30966 11.2512 8.19737 11.3626 8.19737 11.3626C8.08508 11.3626 7.97278 11.474 7.97278 11.3626C7.86049 11.2512 7.97278 11.0284 7.86049 10.917C7.7482 10.917 7.7482 10.8056 7.7482 10.8056C6.73756 12.3651 6.62527 12.3651 8.30966 14.0361C9.09571 14.7045 9.76947 11.6968 9.76947 11.5854ZM6.84986 10.6942C6.73756 10.6942 6.73756 10.5828 6.62527 10.4714L6.51298 10.2486C6.40069 10.1372 6.28839 10.2486 6.1761 10.36C6.1761 10.4714 6.1761 10.4714 5.95152 10.4714C6.06381 10.6942 6.1761 11.3626 6.51298 11.474C6.73756 11.5854 7.18674 11.1398 7.29903 10.917C7.41132 10.917 7.41132 10.8056 7.41132 10.6942C7.52361 10.5828 7.52361 10.5828 7.63591 10.5828V10.4714C7.63591 10.4714 7.63591 10.36 7.63591 10.2486C7.52361 10.36 7.52361 10.36 7.41132 10.2486C7.29903 10.1372 7.18674 10.1372 7.18674 10.1372C7.07444 10.36 7.18674 10.6942 6.96215 10.8056C6.96215 10.8056 6.84986 10.8056 6.84986 10.6942ZM8.30966 8.80041C8.42196 9.02321 8.42196 9.13461 8.64654 9.3574C8.87113 9.246 9.208 9.13461 9.43259 9.13461C9.54488 9.13461 9.65718 9.13461 9.76947 9.13461C9.43259 9.02321 9.43259 8.91181 9.208 8.91181C8.98342 8.91181 8.87113 8.80041 8.87113 8.68902C8.98342 8.57762 8.98342 8.46622 8.87113 8.46622C8.75883 8.35482 8.64654 8.35482 8.64654 8.24342C8.64654 8.13203 8.75883 8.02063 8.75883 7.90923C8.75883 7.79783 8.75883 7.79783 8.87113 7.68644C8.98342 7.68644 9.09571 7.57504 9.208 7.57504C9.208 7.46364 9.09571 7.46364 9.09571 7.46364C8.98342 7.46364 8.75883 7.46364 8.53425 7.46364C8.53425 7.46364 8.64654 7.79783 8.53425 7.79783C8.53425 7.90923 8.19737 7.79783 8.19737 8.02063C8.19737 8.13203 8.19737 8.24342 8.08508 8.24342C8.19737 8.46622 8.19737 8.57762 8.30966 8.80041ZM16.507 5.23569C16.3947 5.23569 15.9456 5.23569 15.9456 5.23569C15.8333 5.12429 15.9456 4.9015 15.8333 4.9015C15.721 4.7901 15.3841 5.12429 15.2718 5.01289C15.1595 4.9015 15.0472 4.9015 15.0472 4.7901C14.9349 4.9015 14.9349 4.9015 14.8226 4.9015C15.0472 5.01289 15.0472 5.01289 15.1595 5.12429C15.3841 5.12429 15.6087 5.01289 15.6087 5.12429V5.23569C15.6087 5.45848 15.721 5.45848 15.6087 5.56988C15.6087 5.68128 15.4964 5.68128 15.3841 5.79268C15.3841 5.79268 15.1595 5.90407 15.2718 5.90407C15.3841 5.90407 15.6087 5.90407 15.721 6.01547C15.8333 6.01547 15.8333 6.12687 15.8333 6.12687C15.721 6.34967 15.6087 6.23827 15.4964 6.34967C15.3841 6.34967 15.4964 6.57246 15.3841 6.57246C15.2718 6.57246 15.0472 6.57246 15.0472 6.68386C15.0472 6.79526 15.1595 6.90665 15.1595 7.01805C15.0472 7.12945 15.0472 7.12945 15.0472 7.12945C14.9349 7.24085 14.8226 7.24085 14.7103 7.24085C14.4858 7.24085 14.2612 7.24085 14.1489 7.35224C14.0366 7.46364 14.0366 7.46364 13.9243 7.57504C13.812 7.57504 13.6997 7.46364 13.5874 7.57504C13.5874 7.57504 13.3628 7.79783 13.2505 7.68644C13.2505 7.57504 13.2505 7.24085 13.1383 7.24085C13.026 7.24085 12.8014 7.12945 12.6891 7.12945C12.5768 7.12945 12.4645 7.12945 12.3522 7.01805C12.4645 7.12945 12.4645 7.12945 12.5768 7.24085C12.6891 7.35224 12.9137 7.24085 12.9137 7.57504C12.9137 7.57504 12.9137 7.68644 13.026 7.68644C13.026 7.79783 13.026 7.79783 13.026 7.79783C13.026 7.90923 13.026 7.90923 12.9137 8.02063C12.9137 8.02063 12.8014 8.02063 12.6891 8.13203C12.6891 8.13203 12.5768 8.24342 12.4645 8.24342C12.3522 8.24342 12.2399 8.13203 12.1276 8.13203C12.0153 8.02063 11.7907 8.13203 11.6784 8.13203C11.6784 8.13203 11.4539 8.13203 11.3416 8.13203C11.3416 8.24342 11.3416 8.24342 11.4539 8.24342C11.5662 8.24342 11.7907 8.24342 11.903 8.24342C12.0153 8.24342 12.1276 8.24342 12.2399 8.24342C12.2399 8.35482 12.4645 8.46622 12.5768 8.46622C12.6891 8.46622 12.8014 8.24342 13.026 8.35482C13.1383 8.35482 13.1383 8.35482 13.3628 8.24342C13.3628 8.13203 13.4751 8.02063 13.5874 8.13203C13.6997 8.24342 13.6997 8.35482 13.6997 8.35482L13.812 8.24342C13.9243 8.24342 13.9243 8.24342 14.0366 8.02063C14.0366 7.90923 14.0366 7.68644 14.1489 7.79783C14.2612 7.79783 14.3735 7.90923 14.4858 7.90923H14.5981C14.7103 7.90923 14.7103 7.79783 14.7103 7.68644C14.8226 7.46364 14.9349 7.57504 15.0472 7.68644C15.1595 7.79783 15.2718 7.90923 15.4964 7.90923C15.3841 7.79783 15.3841 7.68644 15.3841 7.46364C15.3841 7.35224 15.1595 7.24085 15.3841 7.01805C15.4964 7.01805 15.6087 7.01805 15.6087 6.90665C15.6087 6.79526 15.6087 6.79526 15.6087 6.68386C15.721 6.57246 15.8333 6.57246 15.9456 6.68386C16.0579 6.68386 16.0579 6.68386 16.1702 6.68386C16.1702 6.68386 16.2824 6.68386 16.2824 6.57246C16.0579 6.46106 15.9456 6.34967 15.9456 6.01547C15.8333 5.90407 15.721 5.90407 15.8333 5.79268C15.9456 5.68128 15.9456 5.68128 16.0579 5.56988C16.1702 5.45848 16.2824 5.34709 16.507 5.23569ZM16.2824 10.4714C16.2824 10.2486 16.2824 10.0258 16.2824 9.80299C16.1702 9.91439 16.0579 9.91439 15.9456 10.0258C15.8333 10.0258 15.8333 10.0258 15.8333 10.1372C15.721 10.36 15.6087 10.2486 15.4964 10.1372C15.3841 10.0258 15.3841 10.0258 15.2718 9.91439C15.2718 10.36 15.2718 11.0284 15.8333 10.8056C15.9456 10.6942 16.1702 10.5828 16.2824 10.4714ZM6.06381 8.46622C5.95152 8.46622 5.83922 8.46622 5.83922 8.46622C5.72693 8.35482 5.83922 8.13203 5.50234 8.13203C5.27776 8.24342 5.27776 8.24342 5.16547 8.02063C5.05317 8.02063 5.05317 8.02063 4.94088 7.90923L4.82859 8.02063C4.7163 8.02063 4.604 7.79783 4.49171 7.79783C4.37942 7.90923 4.37942 8.02063 4.37942 8.13203C4.37942 8.24342 4.26712 8.24342 4.15483 8.24342C4.04254 8.35482 3.93025 8.02063 3.70566 8.02063C3.59337 8.13203 3.70566 8.35482 3.48108 8.35482C3.48108 8.57762 3.59337 8.91181 3.59337 9.02321C3.81795 9.02321 3.81795 9.02321 3.93025 8.91181C4.04254 8.91181 4.15483 8.80041 4.26712 8.91181C4.26712 9.02321 4.15483 9.13461 4.15483 9.246C4.26712 9.3574 4.26712 9.4688 4.15483 9.5802C4.15483 9.69159 4.26712 9.69159 4.37942 9.80299C4.37942 9.80299 4.37942 9.80299 4.37942 9.91439C4.7163 10.0258 5.05317 10.1372 5.27776 10.2486C5.16547 10.2486 4.94088 10.0258 4.82859 9.91439V9.80299C5.05317 9.5802 4.94088 9.5802 4.7163 9.4688C4.7163 9.3574 4.604 9.3574 4.7163 9.246C4.82859 9.02321 4.94088 9.02321 5.05317 9.13461C5.27776 9.13461 5.05317 8.91181 5.39005 8.91181C5.50234 8.80041 5.50234 8.80041 5.61464 8.68902C5.61464 8.57762 5.72693 8.57762 5.72693 8.57762C5.83922 8.57762 5.95152 8.57762 6.06381 8.46622ZM14.0366 3.11913C14.0366 3.11913 14.0366 3.23053 13.9243 3.23053C14.0366 3.23053 14.1489 3.34193 14.1489 3.34193C14.2612 3.45333 14.1489 3.56472 14.1489 3.56472C14.1489 3.67612 14.1489 3.78752 14.2612 3.67612C14.2612 3.56472 14.4858 3.45333 14.5981 3.45333C14.7103 3.45333 14.7103 3.45333 14.8226 3.45333C15.0472 3.34193 15.1595 3.34193 15.1595 3.56472C15.1595 3.56472 15.1595 3.56472 15.2718 3.56472C15.1595 3.45333 15.1595 3.34193 14.9349 3.34193H14.7103C14.7103 3.23053 14.7103 3.23053 14.5981 3.23053C14.5981 3.23053 14.4858 3.23053 14.4858 3.34193C14.2612 3.34193 14.3735 3.23053 14.1489 3.23053C14.1489 3.11913 14.1489 3.11913 14.0366 3.11913ZM11.2293 4.6787C11.117 4.7901 11.3416 5.01289 11.117 5.12429C11.0047 5.12429 10.8924 5.12429 10.8924 5.12429C10.6678 5.23569 10.6678 5.34709 10.4432 5.45848C10.3309 5.45848 10.3309 5.34709 10.3309 5.34709C10.2186 5.23569 10.2186 5.23569 10.2186 5.23569H9.99405C9.76947 5.23569 9.76947 5.23569 9.65718 5.34709C9.54488 5.45848 9.43259 5.68128 9.3203 5.56988C9.3203 5.45848 9.208 5.34709 9.208 5.23569C9.09571 5.23569 8.98342 5.12429 8.98342 5.12429C8.98342 5.01289 8.98342 5.01289 9.09571 5.01289C9.09571 4.9015 9.208 5.01289 9.3203 5.01289C9.54488 5.01289 9.88176 4.9015 9.99405 4.7901C10.1063 4.7901 10.4432 4.5673 10.4432 4.5673C10.4432 4.5673 10.4432 4.5673 10.3309 4.5673C10.2186 4.5673 9.99405 4.6787 9.88176 4.6787C9.76947 4.7901 9.43259 4.9015 9.3203 4.9015C9.208 4.7901 9.09571 4.6787 8.87113 4.6787C8.75883 4.6787 8.64654 4.9015 8.53425 4.7901L8.42196 4.6787C8.30966 4.5673 8.30966 4.45591 8.19737 4.34451C8.08508 4.23311 8.08508 4.12171 8.08508 3.89892C7.97278 3.89892 7.7482 3.89892 7.7482 3.89892C7.63591 3.89892 7.63591 3.56472 7.41132 3.56472C7.29903 3.56472 7.29903 4.01031 7.18674 4.01031C7.07444 4.01031 7.07444 4.01031 6.96215 4.01031C6.84986 3.89892 6.96215 3.67612 6.84986 3.56472C6.73756 3.56472 6.73756 3.67612 6.73756 3.78752C6.62527 3.89892 6.51298 4.12171 6.40069 3.89892C6.28839 3.78752 6.28839 3.56472 6.1761 3.45333C6.06381 3.34193 6.06381 3.56472 6.06381 3.67612L5.95152 3.78752C5.83922 3.78752 5.83922 3.67612 5.61464 3.67612C5.50234 3.78752 5.50234 3.78752 5.39005 3.89892C5.16547 4.01031 4.82859 3.78752 4.82859 3.89892C4.7163 3.89892 4.94088 3.89892 4.94088 4.01031C5.05317 4.01031 5.27776 4.01031 5.39005 4.01031C5.50234 3.89892 5.61464 3.89892 5.72693 3.89892C5.83922 4.01031 5.83922 4.12171 6.06381 4.12171C6.1761 4.12171 6.1761 4.23311 6.1761 4.34451C6.40069 4.34451 6.51298 4.34451 6.62527 4.45591C6.73756 4.45591 6.73756 4.45591 6.84986 4.45591C6.96215 4.45591 6.96215 4.5673 6.96215 4.6787C7.07444 5.01289 7.18674 4.6787 7.29903 4.5673C7.41132 4.45591 7.52361 4.34451 7.63591 4.34451C7.63591 4.34451 7.7482 4.34451 7.7482 4.45591C7.7482 4.5673 7.63591 4.6787 7.7482 4.6787C7.7482 4.6787 7.86049 4.6787 7.86049 4.5673C7.97278 4.5673 8.08508 4.45591 8.19737 4.5673C8.19737 4.6787 8.30966 4.6787 8.30966 4.7901C8.30966 4.9015 7.97278 5.01289 8.08508 5.12429C8.19737 5.23569 8.53425 5.12429 8.53425 5.34709C8.53425 5.45848 8.53425 5.56988 8.53425 5.56988C8.64654 5.56988 8.87113 5.45848 8.98342 5.56988C9.208 5.68128 9.3203 6.01547 9.65718 5.79268C9.65718 5.68128 9.76947 5.56988 9.88176 5.56988C10.1063 5.56988 10.1063 5.90407 10.2186 5.90407C10.3309 5.90407 10.3309 5.56988 10.4432 5.56988C10.4432 5.56988 10.6678 5.45848 10.6678 5.56988C10.7801 5.56988 10.6678 5.79268 10.6678 5.79268C10.6678 6.12687 10.7801 6.01547 11.0047 6.01547C11.2293 5.90407 11.0047 6.01547 11.117 6.12687C11.117 6.12687 11.117 6.12687 11.117 6.01547C11.2293 5.90407 11.5662 5.90407 11.5662 5.79268C11.5662 5.68128 11.2293 5.56988 11.2293 5.56988C11.117 5.56988 11.0047 5.56988 11.0047 5.45848C11.0047 5.34709 11.117 5.34709 11.117 5.34709C11.2293 5.34709 11.3416 5.23569 11.4539 5.34709C11.6784 5.34709 11.7907 5.56988 11.7907 5.23569C11.7907 5.12429 11.7907 5.01289 11.903 5.01289L12.1276 4.9015C12.2399 4.9015 12.3522 5.12429 12.4645 5.12429C12.5768 5.34709 12.8014 5.34709 13.026 5.34709C13.026 5.23569 12.8014 5.23569 12.6891 5.23569C12.5768 5.23569 12.4645 5.12429 12.3522 5.01289C12.3522 4.9015 12.2399 4.7901 12.0153 4.7901C12.0153 4.7901 12.0153 4.7901 11.903 4.7901C11.7907 4.7901 11.7907 4.9015 11.6784 4.9015C11.5662 4.9015 11.3416 4.5673 11.2293 4.6787ZM11.2293 6.34967C11.2293 6.46106 11.2293 6.68386 11.2293 6.79526C11.4539 6.79526 11.6784 6.79526 11.7907 6.90665C11.5662 6.68386 11.3416 6.57246 11.2293 6.34967ZM7.97278 8.80041C7.86049 8.68902 7.7482 8.57762 7.7482 8.46622C7.52361 8.46622 7.41132 8.24342 7.29903 8.24342C7.29903 8.35482 7.29903 8.46622 7.18674 8.57762C7.29903 8.57762 7.29903 8.46622 7.41132 8.57762C7.52361 8.68902 7.63591 8.68902 7.63591 8.68902C7.7482 8.68902 7.86049 8.80041 7.97278 8.80041Z" fill="#A5B639"/>
</svg>
