<svg width="22" height="24" viewBox="0 0 22 24" fill="none" xmlns="http://www.w3.org/2000/svg">
<path d="M21.1046 23.9999H17.5753C17.5753 23.9999 15.4079 23.0802 14.4969 22.0613C14.2986 21.8396 14.0857 21.6111 13.8604 21.3895C14.6621 20.864 16.1964 20.9921 16.6842 20.832C18.3554 20.2839 19.4943 22.9239 21.163 23.7632C21.1878 23.7763 21.2075 23.7973 21.219 23.8229C21.2305 23.8485 21.2331 23.8772 21.2264 23.9044C21.2197 23.9317 21.204 23.9559 21.182 23.9732C21.1599 23.9905 21.1326 23.9999 21.1046 23.9999Z" fill="#A5B639"/>
<path d="M16.1289 23.9997C16.1434 23.9996 16.1574 23.9946 16.1686 23.9854C16.1798 23.9762 16.1875 23.9634 16.1903 23.9492C16.1932 23.935 16.191 23.9203 16.1842 23.9075C16.1775 23.8947 16.1664 23.8846 16.1531 23.879C15.6831 23.6866 14.7991 23.2469 14.0757 22.4378C13.0373 21.2763 12.0387 20.457 11.043 20.4868C10.0472 20.5166 10.1676 20.7944 9.25315 20.0249C8.05818 19.0195 6.15901 19.4485 2.70703 22.5585C2.26161 22.9598 0.930789 23.4626 0.084133 23.7556C0.0561353 23.7654 0.0325055 23.7847 0.0174303 23.8103C0.00235507 23.8358 -0.00319251 23.8659 0.00177112 23.8951C0.00673475 23.9244 0.0218891 23.9509 0.0445485 23.97C0.0672079 23.9892 0.0959092 23.9997 0.125568 23.9997H16.1289Z" fill="#A5B639"/>
<path d="M15.3294 1.66037C15.3066 1.56796 15.2633 1.48189 15.2027 1.40854C15.142 1.33519 15.0656 1.27647 14.9791 1.23674C14.8927 1.19701 14.7983 1.17729 14.7032 1.17906C14.608 1.18083 14.5145 1.20404 14.4296 1.24696C13.3107 1.81048 11.1413 3.11015 10.2636 5.07028C9.25739 7.31782 9.91207 9.02947 10.3818 9.75119C10.4121 9.79771 11.2837 7.40163 11.4465 7.01541C11.4361 6.82079 11.3821 6.20447 11.1101 5.70594C11.0741 5.64408 11.062 5.57122 11.076 5.50106C11.0901 5.4309 11.1292 5.36828 11.1862 5.32498C11.2186 5.30202 11.2554 5.28613 11.2944 5.27836C11.3333 5.2706 11.3734 5.27112 11.4122 5.27991C11.4509 5.28869 11.4873 5.30554 11.5191 5.32935C11.5508 5.35316 11.5772 5.38339 11.5965 5.41809C11.7154 5.63691 11.8075 5.86926 11.8707 6.11012C12.0794 5.69802 12.3309 5.30906 12.6211 4.94968C12.6665 4.89345 12.7311 4.85612 12.8025 4.84496C12.8739 4.83379 12.9469 4.8496 13.0073 4.88929C13.0395 4.91173 13.0667 4.94066 13.0872 4.97422C13.1076 5.00778 13.1209 5.04524 13.126 5.0842C13.1312 5.12316 13.1281 5.16277 13.1171 5.20049C13.1061 5.23821 13.0873 5.27321 13.0619 5.30326C12.6838 5.75214 12.3257 6.39633 12.001 7.15597C11.9949 7.17624 11.9867 7.19576 11.9763 7.21417C11.9232 7.33973 11.8711 7.46831 11.82 7.59989C12.2872 7.4015 12.7856 7.28675 13.2925 7.26088C13.3296 7.25976 13.3665 7.26595 13.4012 7.27911C13.4359 7.29226 13.4677 7.31213 13.4948 7.33757C13.5218 7.363 13.5435 7.39352 13.5588 7.42736C13.574 7.46121 13.5824 7.49772 13.5836 7.53482C13.5847 7.57192 13.5785 7.60888 13.5653 7.64359C13.5522 7.67829 13.5323 7.71007 13.5069 7.7371C13.4814 7.76413 13.4509 7.78588 13.4171 7.80112C13.3832 7.81636 13.3467 7.82478 13.3096 7.8259C13.2976 7.82628 12.098 7.87299 11.5052 8.47882C10.8102 9.93759 10.3254 11.1613 10.0327 12.8979C9.63094 10.3411 8.96729 8.31383 7.94284 6.39639C7.80653 6.11639 7.64633 5.84867 7.46401 5.5962C7.41592 5.52573 7.34843 5.47073 7.2697 5.43786C7.14107 5.38513 6.92441 5.34332 6.5822 5.39976C6.54347 5.40616 6.50383 5.40442 6.46581 5.39465C6.4278 5.38489 6.39223 5.3673 6.36139 5.34303C6.33054 5.31875 6.30509 5.28831 6.28666 5.25365C6.26824 5.21899 6.25723 5.18088 6.25436 5.14173C6.25088 5.06974 6.2743 4.99903 6.32004 4.94334C6.36579 4.88765 6.43061 4.85095 6.5019 4.84038C6.68044 4.81001 6.86199 4.80124 7.04263 4.81427C6.8126 4.39364 6.56719 3.97539 6.30377 3.55565C6.2645 3.49556 6.24883 3.42308 6.25976 3.35214C6.27069 3.28119 6.30744 3.21679 6.36297 3.1713C6.39414 3.14712 6.43003 3.12973 6.46833 3.12025C6.50662 3.11078 6.54648 3.10943 6.58533 3.1163C6.62418 3.12316 6.66117 3.13809 6.6939 3.16012C6.72663 3.18215 6.75438 3.21079 6.77537 3.24419C6.87582 3.40384 6.97269 3.56324 7.06824 3.72258C7.10051 3.51404 7.14731 3.30802 7.20831 3.10601C7.23072 3.03452 7.28061 2.97485 7.34702 2.94014C7.41342 2.90543 7.49089 2.89852 7.56239 2.92094C7.63388 2.94335 7.69355 2.99324 7.72826 3.05964C7.76297 3.12605 7.76988 3.20352 7.74746 3.27502C7.66453 3.54127 7.48743 4.32878 7.66164 4.76988C7.90649 5.22906 8.133 5.69162 8.34149 6.1631C8.35541 6.14183 8.36763 6.1195 8.37803 6.0963C8.64208 5.49788 9.11984 3.98136 8.09144 2.41869C7.19732 1.06 5.45667 0.326347 4.56601 0.0253155C4.49752 0.00216349 4.4247 -0.00524215 4.35295 0.00364993C4.28121 0.012542 4.2124 0.0375027 4.15164 0.0766737C4.09088 0.115845 4.03974 0.168217 4.00202 0.229891C3.96431 0.291565 3.94099 0.360952 3.93381 0.432886C3.83763 1.37974 3.78389 3.30019 4.68089 4.66322C5.40224 5.7593 6.46524 6.17472 7.25527 6.32231C8.81982 9.12916 9.57418 12.1403 9.85048 16.7616C9.52086 16.1056 9.11311 15.4919 8.63612 14.9338C8.43265 14.6638 8.16112 14.411 7.89004 14.1517C7.76356 14.0309 7.60963 13.9425 7.44147 13.8943C7.10723 13.7983 6.58069 13.7196 6.14474 13.9811C6.09006 14.0163 6.02515 14.0322 5.9604 14.0261C5.89566 14.02 5.83483 13.9924 5.78765 13.9476C5.75726 13.9175 5.73412 13.8808 5.71997 13.8404C5.70581 13.8 5.70102 13.7569 5.70594 13.7143C5.71086 13.6718 5.72537 13.631 5.74837 13.5948C5.77138 13.5587 5.80228 13.5283 5.83875 13.5059C6.1625 13.3132 6.53601 13.2205 6.9123 13.2395C6.4417 12.8454 5.94157 12.4879 5.4163 12.1702C5.35415 12.1343 5.30746 12.0766 5.28519 12.0084C5.26292 11.9401 5.26664 11.8661 5.29564 11.8004C5.31256 11.7647 5.33677 11.733 5.36672 11.7072C5.39667 11.6815 5.43168 11.6623 5.4695 11.6509C5.50732 11.6395 5.54711 11.6362 5.58629 11.6411C5.62548 11.6461 5.66319 11.6592 5.69699 11.6796C5.99202 11.8577 6.27627 12.0457 6.54974 12.2435C6.46528 11.9078 6.42189 11.563 6.42054 11.2169C6.42057 11.1419 6.45031 11.0699 6.50326 11.0168C6.5562 10.9636 6.62804 10.9336 6.70305 10.9333C6.74033 10.9335 6.77722 10.941 6.8116 10.9555C6.84597 10.9699 6.87717 10.991 6.90341 11.0175C6.92964 11.0439 6.9504 11.0753 6.9645 11.1099C6.97859 11.1444 6.98575 11.1813 6.98556 11.2186C6.99382 11.8029 7.13117 12.3782 7.38779 12.9032C7.62502 13.1077 7.85086 13.3185 8.06532 13.5355C8.0916 13.5545 8.11433 13.578 8.1325 13.6048C8.41387 13.8937 8.67846 14.1985 8.92497 14.5176C8.93426 14.4833 8.94056 14.4482 8.94381 14.4128C9.01682 13.5624 8.96547 11.4883 7.03528 9.99396C5.35145 8.69045 2.84702 8.56847 1.6056 8.59892C1.51133 8.60111 1.41877 8.62453 1.33481 8.66744C1.25085 8.71035 1.17765 8.77165 1.12066 8.84676C1.06367 8.92188 1.02435 9.00889 1.00564 9.1013C0.986923 9.19372 0.989294 9.28916 1.01257 9.38053C1.31511 10.5693 2.0956 12.9075 3.77391 14.2068C5.38234 15.452 7.05305 15.3331 8.03142 15.0947C9.18921 16.3898 9.89148 17.8454 9.94672 19.2C9.94672 19.2076 9.94892 19.2147 9.9498 19.2222C9.96039 19.6605 9.96809 20.1122 9.9729 20.5771C9.97692 20.65 10.0095 20.7184 10.0635 20.7675C10.1176 20.8166 10.1887 20.8424 10.2617 20.8394H10.2645C10.3378 20.8418 10.4091 20.8151 10.4627 20.765C10.5163 20.7149 10.5479 20.6455 10.5504 20.5722C10.5306 18.6425 10.4625 16.949 10.3329 15.4326C10.3243 15.3319 10.3338 14.8755 10.3362 14.7107C10.3578 13.1907 10.8063 11.7191 11.4731 10.0518C12.4659 9.85164 14.276 9.25799 15.1678 7.26615C16.0435 5.31281 15.6257 2.86192 15.3294 1.66037Z" fill="#A5B639"/>
</svg>
