<svg width="15" height="24" viewBox="0 0 15 24" fill="none" xmlns="http://www.w3.org/2000/svg">
<path d="M10.0923 7.13649C10.0509 7.13289 10.0082 7.1305 9.96318 7.1281C9.91341 7.02386 9.87075 6.91963 9.84231 6.8166C9.7487 6.47991 9.76648 6.15283 9.8755 5.87009C9.98451 5.58853 10.1848 5.34891 10.4561 5.18476C10.5284 5.14043 10.6066 5.10209 10.6908 5.06974C10.6315 5.25904 10.628 5.47111 10.6244 5.69876C10.6173 6.15644 10.6019 6.67643 10.0935 7.1365L10.0923 7.13649ZM4.20671 2.42558C4.22567 2.24587 4.1842 2.06255 4.08466 1.89962C4.06689 1.87206 4.04911 1.84451 4.02778 1.81695C4.00053 1.92119 3.95076 2.02303 3.89743 2.13085C3.77183 2.38725 3.62845 2.6796 3.7979 3.08695C3.86189 3.04023 3.91758 2.9911 3.96735 2.93719C4.10954 2.78383 4.18894 2.60412 4.20671 2.42439V2.42558ZM8.48792 2.24706C8.64078 2.01463 8.70595 1.76303 8.69055 1.52219C8.67632 1.28257 8.58271 1.05255 8.41563 0.860846C8.37653 0.816516 8.33506 0.774581 8.28884 0.735042C8.28292 0.887202 8.23552 1.04296 8.18693 1.20711C8.07791 1.57015 7.95349 1.9859 8.27106 2.48552C8.33268 2.41004 8.3943 2.34654 8.4571 2.29142C8.46777 2.27705 8.47725 2.26267 8.48673 2.2471L8.48792 2.24706ZM12.8902 5.95653C12.9648 5.70133 12.9696 5.44612 12.9731 5.2077C12.9767 4.98126 12.9802 4.76799 13.0395 4.57868C12.9565 4.61103 12.8783 4.64937 12.8048 4.6937C12.5335 4.85785 12.3332 5.09747 12.2242 5.37904C12.1152 5.6618 12.0974 5.98769 12.191 6.32554C12.2277 6.45853 12.2823 6.59153 12.3534 6.72572C12.4363 6.65982 12.5086 6.59153 12.5702 6.52324C12.6579 6.28601 12.7657 6.10269 12.889 5.95651L12.8902 5.95653ZM12.7717 6.52083C12.9067 6.54959 13.0371 6.56157 13.1615 6.56157C13.5075 6.55917 13.8133 6.45254 14.0514 6.26923C14.2896 6.08591 14.4626 5.82592 14.5432 5.51681C14.5645 5.43294 14.5799 5.34668 14.5882 5.25682C14.4247 5.36585 14.2233 5.42815 14.0088 5.49405C13.6782 5.59589 13.312 5.70851 13.0252 6.0332C12.9743 6.19734 12.8949 6.36028 12.7705 6.52082L12.7717 6.52083ZM2.56327 13.0337C2.254 13.0589 1.98738 13.1751 1.78711 13.3548C1.58685 13.5345 1.44939 13.7789 1.39724 14.0605C1.38421 14.1312 1.37591 14.2043 1.37473 14.2798C1.51337 14.1755 1.68518 14.1072 1.86886 14.0354C2.26819 13.8784 2.72558 13.6999 2.93887 13.0469C2.80852 13.0277 2.68295 13.0241 2.56327 13.0337ZM3.86079 3.76036C3.93544 4.14495 4.07646 4.58466 4.28145 4.98006C4.28264 4.98126 4.28382 4.98365 4.28382 4.98485C4.33833 5.08909 4.39639 5.18853 4.4592 5.28438C4.53029 5.39221 4.60732 5.49405 4.69027 5.5863C4.96399 5.89422 5.19031 6.13506 5.37991 6.33752C5.76501 6.74727 6.0032 7.00129 6.15606 7.29602C6.15488 7.00607 6.15251 6.70414 6.14895 6.39623C5.88471 5.54796 5.60149 5.40537 5.18202 5.19331C5.10974 5.15736 5.0339 5.11902 4.94858 5.07229C4.66656 4.91893 4.38571 4.53912 4.16769 4.1126C3.9935 3.77113 3.85842 3.39853 3.79678 3.0858C3.78849 3.25713 3.80982 3.49195 3.86196 3.75794L3.86079 3.76036ZM8.2961 2.48315C8.3909 2.53347 8.48688 2.57301 8.58168 2.60056C8.84711 2.67724 9.10426 2.66526 9.32701 2.57899C9.54979 2.49273 9.73821 2.33338 9.86856 2.11533C9.89818 2.06501 9.92544 2.01109 9.94913 1.95478C9.80338 1.99432 9.64342 1.99671 9.47278 1.99791C9.15402 2.0015 8.79734 2.0051 8.46793 2.28426C8.41816 2.35255 8.36009 2.41965 8.2961 2.48315ZM1.56533 11.7458C1.59377 11.7542 1.62102 11.7649 1.64946 11.7745C1.65539 11.6847 1.66723 11.602 1.68382 11.5253C1.68382 11.5002 1.68264 11.4762 1.68145 11.451C1.66723 11.1683 1.57007 10.9226 1.41365 10.7346C1.25842 10.5477 1.04393 10.4158 0.793904 10.3607C0.73584 10.3476 0.674224 10.3392 0.612604 10.3344C0.699107 10.4626 0.753614 10.6183 0.811678 10.7849C0.933729 11.1299 1.07119 11.5229 1.56296 11.7446L1.56533 11.7458ZM2.7811 7.90227C2.7811 7.90227 2.78229 7.89987 2.78229 7.89867C2.7811 7.89987 2.77992 7.89987 2.77992 7.89987L2.7811 7.90107V7.90227ZM2.84746 3.3254C3.0655 3.37452 3.30485 3.35056 3.54068 3.24273C3.62718 3.20319 3.7125 3.15167 3.79663 3.08817C3.38426 2.71075 2.98256 2.76587 2.63182 2.815C2.47659 2.83656 2.32966 2.85693 2.19102 2.84256C2.21946 2.88808 2.25027 2.93122 2.28226 2.97195C2.43275 3.15527 2.62945 3.27747 2.84632 3.32539L2.84746 3.3254ZM3.40796 13.283C3.31317 13.21 3.20415 13.1453 3.08447 13.0901C2.91739 13.7563 3.20771 14.1565 3.46011 14.5051C3.57624 14.6657 3.68644 14.8166 3.74687 14.9796C3.78479 14.9149 3.81797 14.849 3.84404 14.7819C3.9495 14.5159 3.96372 14.2356 3.89025 13.9744C3.81678 13.7132 3.65444 13.4712 3.40677 13.2819L3.40796 13.283ZM1.50847 11.886C1.43618 11.8633 1.3639 11.8465 1.2928 11.8369C1.01552 11.795 0.758386 11.8417 0.545099 11.9591C0.331806 12.0765 0.16236 12.2622 0.060434 12.4995C0.0367343 12.5546 0.0154042 12.6133 0 12.6744C0.142196 12.6145 0.303352 12.5905 0.476354 12.5654C0.856727 12.5102 1.29161 12.4467 1.61156 11.928C1.57601 11.9148 1.54283 11.9016 1.50965 11.8872L1.50847 11.886ZM6.12275 1.46125C6.11564 1.45166 6.10735 1.44088 6.10142 1.4313C6.05758 1.38098 6.01136 1.33665 5.96397 1.29591C5.77674 1.13776 5.56582 1.05508 5.3549 1.0443C5.14516 1.03352 4.93542 1.09343 4.75411 1.22162C4.71619 1.24798 4.67946 1.27793 4.64509 1.31028C4.77307 1.33305 4.89986 1.38816 5.03374 1.44687C5.33946 1.57986 5.68783 1.73082 6.15235 1.49959C6.14524 1.4912 6.13932 1.48162 6.1334 1.47323C6.13103 1.47083 6.12866 1.46844 6.12747 1.46604C6.12629 1.46484 6.12628 1.46245 6.1251 1.46125L6.12275 1.46125ZM3.16862 6.243C3.26697 6.23462 3.3594 6.21665 3.4459 6.19029C3.68171 6.1184 3.86893 5.98301 3.99573 5.80928C4.12133 5.63555 4.18769 5.42349 4.18177 5.19584C4.18058 5.14792 4.17584 5.09999 4.16755 5.05087C4.07749 5.14791 3.96018 5.22579 3.83574 5.30846C3.55372 5.49657 3.23141 5.71103 3.16862 6.243ZM6.16777 1.51646L6.16895 1.51526H6.16777V1.51646ZM10.064 10.4294C10.2169 10.197 10.2821 9.94538 10.2666 9.70455C10.2524 9.46492 10.1588 9.2349 9.99174 9.0432C9.95263 8.99887 9.91116 8.95693 9.86494 8.9174C9.85902 9.06956 9.81162 9.22531 9.76304 9.38947C9.65402 9.7525 9.5296 10.1683 9.84717 10.6679C9.90879 10.5924 9.9704 10.5289 10.0332 10.4738C10.0439 10.4594 10.0534 10.445 10.0628 10.4294L10.064 10.4294ZM9.96922 10.7805C10.064 10.8308 10.16 10.8703 10.2548 10.8979C10.5202 10.9746 10.7774 10.9626 11.0001 10.8763C11.2229 10.79 11.4113 10.6307 11.5417 10.4126C11.5713 10.3623 11.5986 10.3084 11.6223 10.2521C11.4765 10.2916 11.3165 10.294 11.1459 10.2952C10.8271 10.2988 10.4705 10.3024 10.141 10.5816C10.0913 10.6499 10.0332 10.717 9.96922 10.7805ZM10.5487 14.527C10.5001 14.6468 10.4657 14.7655 10.4468 14.8805C10.3946 15.1824 10.4397 15.4651 10.5593 15.7012C10.679 15.936 10.8746 16.1265 11.1246 16.2451C11.1862 16.2739 11.2526 16.299 11.3213 16.3194C11.2573 16.1613 11.236 15.9815 11.2135 15.7898C11.1637 15.3705 11.1068 14.89 10.5487 14.5282L10.5487 14.527ZM9.27603 13.13C9.36254 13.0246 9.57109 13.003 9.80808 12.9791C9.91236 12.9683 10.0214 12.9575 10.1292 12.9383C10.525 12.8676 10.7537 12.6867 10.9824 12.5058C11.0997 12.4123 11.2182 12.3201 11.3568 12.2398C11.7337 12.0217 12.0797 11.8145 12.2941 11.6024C12.4529 11.4467 12.5359 11.2885 12.4991 11.122C12.2396 11.4538 11.9019 11.5976 11.6057 11.7234C11.4978 11.7689 11.3948 11.8133 11.3094 11.86C11.2514 11.8911 11.1838 11.9307 11.1163 11.969C10.7075 12.2015 10.352 12.4051 9.65995 12.4339C9.16937 12.4555 9.11368 12.1511 9.26417 11.7258C9.37556 11.4119 9.60899 11.0237 9.84955 10.6703C9.09472 10.9758 8.92763 11.576 8.79968 12.0325C8.7428 12.2362 8.69303 12.4135 8.60297 12.5369C8.4276 12.7777 8.19533 12.8976 7.92635 13.0365C7.63011 13.1899 7.28764 13.3672 6.93454 13.7638C6.95231 14.0873 6.97483 14.4132 6.99971 14.7271C7.12176 14.4803 7.28766 14.2071 7.49384 13.9926C7.64196 13.8381 7.8126 13.7135 8.00101 13.6512C8.19416 13.5877 8.40626 13.5877 8.63496 13.6847C8.79019 13.7506 8.95254 13.8608 9.12199 14.0274C9.37202 14.273 9.64931 14.3892 9.90643 14.4335C10.1956 14.4839 10.4574 14.4443 10.6281 14.3964C10.4231 14.3257 10.0948 14.1903 9.81873 13.9579C9.27364 13.5014 9.16464 13.2702 9.2784 13.1312L9.27603 13.13ZM13.3297 9.96468C13.3783 9.77777 13.4245 9.60164 13.5087 9.45426C13.4376 9.46505 13.3688 9.48062 13.3037 9.49979C13.0394 9.58127 12.8202 9.74301 12.6697 9.95868C12.5192 10.1755 12.4363 10.4487 12.4458 10.7554C12.4493 10.8729 12.4671 10.9951 12.4991 11.1197C13.101 10.8393 13.2231 10.3708 13.3297 9.96349L13.3297 9.96468ZM12.4363 6.88797C12.5003 7.02576 12.5761 7.14916 12.6602 7.25699C12.8747 7.53136 13.1461 7.70989 13.4364 7.78657C13.7255 7.86325 14.0348 7.84048 14.3263 7.71588C14.4045 7.68233 14.4815 7.6416 14.5562 7.59247C14.3701 7.52897 14.1983 7.40677 14.0146 7.27738C13.6236 6.99942 13.1733 6.67952 12.4374 6.8892L12.4363 6.88797ZM11.6482 13.8395C11.3864 13.8467 11.1197 13.9437 10.8828 14.1354C10.7915 14.2085 10.7062 14.2947 10.6256 14.3966C11.2086 14.7165 11.6518 14.5356 12.0393 14.3786C12.2171 14.3067 12.3841 14.2384 12.55 14.2193C12.5003 14.1677 12.4469 14.1222 12.3912 14.0815C12.1685 13.9161 11.909 13.8347 11.6483 13.8419L11.6482 13.8395ZM12.5571 11.2635C12.6235 11.3749 12.6969 11.4732 12.7763 11.5583C12.9849 11.7811 13.2349 11.9129 13.4944 11.9572C13.7528 12.0016 14.0206 11.956 14.2635 11.8242C14.3239 11.7919 14.3832 11.7536 14.4401 11.7092C14.2777 11.6661 14.1213 11.5762 13.9554 11.4804C13.5928 11.2695 13.178 11.0287 12.5583 11.2647L12.5571 11.2635ZM12.7562 6.67345C12.7254 6.66746 12.6934 6.66027 12.6614 6.65189C12.6495 6.66387 12.6377 6.67705 12.6247 6.69023C12.6697 6.68304 12.7135 6.67705 12.7562 6.67345ZM2.77288 7.75535H2.84516C3.08216 7.15749 2.89375 6.69621 2.72193 6.29125C2.63424 6.08398 2.55129 5.88988 2.52878 5.69339C2.46716 5.75689 2.41147 5.82399 2.36288 5.89468C2.18277 6.15587 2.09745 6.45539 2.11167 6.75613C2.12233 6.98018 2.18988 7.20541 2.3143 7.41628C2.39369 7.44863 2.47308 7.48577 2.55129 7.53729C2.61646 7.61277 2.69112 7.68586 2.7717 7.75535L2.77288 7.75535ZM2.6295 7.75535C2.68756 7.80088 2.7397 7.84521 2.78829 7.88954C2.80369 7.85839 2.81317 7.82963 2.8262 7.79968C2.80843 7.7853 2.79066 7.76972 2.77288 7.75535H2.6295ZM2.3143 7.41628C1.98844 7.28449 1.66375 7.29765 1.36513 7.31083C1.14235 7.32042 0.933793 7.33 0.744198 7.28328C0.780931 7.36475 0.823591 7.44023 0.872176 7.51092C1.04992 7.77331 1.29757 7.9602 1.58078 8.05246C1.86517 8.14472 2.1863 8.14232 2.51216 8.0273C2.60222 7.99615 2.69109 7.95302 2.78114 7.9039C2.67568 7.79008 2.56785 7.69902 2.4612 7.62713C2.40551 7.56004 2.35692 7.48935 2.31545 7.41746L2.3143 7.41628ZM6.2888 1.35028C6.29947 1.33949 6.31013 1.33231 6.3208 1.32272C6.32435 1.31673 6.32791 1.31074 6.33146 1.30355C6.44759 1.08669 6.48551 0.861446 6.4547 0.650576C6.42389 0.440906 6.32317 0.245615 6.1632 0.0910588C6.13001 0.0587091 6.09447 0.028758 6.05536 0C6.05892 0.130595 6.03048 0.26718 6.00085 0.412169C5.93686 0.723674 5.86458 1.07714 6.12528 1.46413C6.12883 1.46892 6.1312 1.47251 6.13476 1.47611C6.14661 1.49048 6.15846 1.50486 6.17031 1.51924V1.51804C6.21534 1.46292 6.25562 1.40781 6.29117 1.3503L6.2888 1.35028ZM6.16912 1.51802C6.25325 1.55396 6.33739 1.58032 6.41915 1.59829C6.65733 1.64742 6.88246 1.61986 7.07324 1.5288C7.26283 1.43774 7.41924 1.28438 7.5188 1.0843C7.54013 1.04237 7.55791 0.999237 7.57449 0.953708C7.45126 0.994443 7.3138 1.00762 7.16806 1.0196C6.89434 1.04357 6.5886 1.07351 6.3208 1.32272C6.31369 1.3347 6.30777 1.34669 6.30065 1.35747C6.25563 1.4042 6.21178 1.45691 6.16912 1.51802ZM2.78371 7.90146C2.78727 7.89907 2.79082 7.89787 2.79438 7.89547L2.78829 7.88954C2.78592 7.89313 2.78608 7.89667 2.78371 7.90026V7.90146ZM2.72328 11.261C2.856 11.0561 2.9188 10.8104 2.89747 10.5529C2.89273 10.493 2.88325 10.4319 2.86903 10.3696C2.77305 10.4906 2.64033 10.5888 2.50052 10.6931C2.23627 10.8895 1.94002 11.1112 1.83457 11.5509C1.83339 11.6324 1.82628 11.7163 1.81324 11.8013C1.92344 11.7857 2.02654 11.7606 2.12133 11.7258C2.38439 11.63 2.5894 11.4658 2.72211 11.2598L2.72328 11.261ZM7.86479 23.3583V23.3667C7.87309 23.6219 7.60765 23.8112 7.27941 23.9142C7.14907 23.955 7.00806 23.9813 6.8694 23.9933C6.74617 24.0041 6.62411 24.0017 6.5139 23.9873C6.65491 23.3044 6.5376 22.28 6.46058 21.6054C6.44044 21.4305 6.42385 21.2808 6.41437 21.1657C6.34209 20.2707 6.35157 19.8921 6.36578 19.3697C6.37171 19.1205 6.38 18.839 6.38 18.4759C6.38 18.434 6.34682 18.4004 6.30535 18.4004C6.26388 18.4004 6.2307 18.434 6.2307 18.4759C6.2307 18.8581 6.22359 19.1265 6.21767 19.3661C6.20345 19.8945 6.19397 20.2791 6.26625 21.1765C6.27573 21.2915 6.2935 21.4448 6.31365 21.6222C6.39067 22.2883 6.50561 23.3007 6.36934 23.9585C6.18804 23.9094 6.06126 23.8171 6.04821 23.6769C6.04821 23.169 5.9937 22.51 5.94038 21.8833C5.89061 21.2891 5.84321 20.7223 5.84677 20.3426C5.85269 19.7723 5.84558 18.5897 5.82189 17.5006C5.8053 16.7003 5.78041 15.9503 5.74486 15.5321C5.70931 15.0996 5.66428 14.5436 5.6394 13.9482C5.6157 13.3683 5.60859 12.7429 5.64651 12.1414C5.78633 12.1163 5.92734 12.1175 6.06953 12.1546C6.06124 12.6099 6.03161 12.9142 6.00554 13.1754C5.9617 13.6235 5.92852 13.947 6.03754 14.6838C6.04346 14.7258 6.08138 14.7533 6.12285 14.7473C6.16433 14.7413 6.19158 14.703 6.18566 14.6611C6.08019 13.941 6.11101 13.6259 6.15485 13.1886C6.1821 12.9142 6.2141 12.5931 6.22002 12.0971C6.22002 12.0755 6.21173 12.0551 6.19632 12.0408L6.19514 12.0396C6.19277 12.0372 6.1904 12.036 6.18803 12.0336L6.18684 12.0324C6.17973 12.0276 6.17262 12.024 6.16551 12.0228C5.56709 11.8323 5.02203 12.1965 4.48167 12.5572C3.83231 12.9909 3.19006 13.4198 2.51343 12.7656C2.41389 12.6698 2.2243 12.4409 2.03116 12.2085C1.902 12.0528 1.77047 11.8958 1.65907 11.77C1.89369 11.8718 2.09987 12.0048 2.29541 12.1318C2.7303 12.4134 3.1154 12.6626 3.66523 12.5008C4.03019 12.3942 4.21742 12.1797 4.41414 11.9545C4.7092 11.6166 5.02676 11.2548 6.0743 11.2548C6.11577 11.2548 6.14895 11.2213 6.14895 11.1793C6.14895 11.1374 6.11577 11.1039 6.0743 11.1039C5.96409 11.1039 5.861 11.1075 5.76503 11.1146C5.7828 11.0152 5.80176 10.917 5.82428 10.8211C5.85272 10.6965 5.88471 10.5755 5.92144 10.4593C5.93803 10.4054 5.95699 10.3562 5.97713 10.3095C5.99728 10.2628 6.02098 10.2137 6.04468 10.1645C6.05416 10.1442 6.05416 10.1214 6.04586 10.1022C6.00794 9.9956 5.90959 9.87339 5.79584 9.75957C5.65127 9.61699 5.47707 9.4852 5.36332 9.42288C5.08366 9.27072 4.77675 9.27192 4.4805 9.27311C4.15109 9.27431 3.83706 9.27551 3.62614 9.04547C3.49342 8.9005 3.40692 8.74714 3.31806 8.59018C3.19363 8.37092 3.0621 8.14209 2.79547 7.89647C2.8251 7.8797 2.85354 7.86652 2.88316 7.84854C2.86302 7.83297 2.84643 7.81739 2.82747 7.80182C2.83339 7.78624 2.8405 7.77186 2.84643 7.75749H2.99455C3.2742 7.75749 3.36664 7.90965 3.47327 8.08577C3.64983 8.37811 3.85956 8.72436 4.78739 8.70041C5.7164 8.67644 5.84794 8.88252 6.04818 9.19284C6.07188 9.22998 6.09676 9.26832 6.12402 9.30906C6.12639 9.31266 6.12757 9.31505 6.12994 9.31865L6.13824 9.33063C6.16194 9.36418 6.20815 9.37376 6.24251 9.3498C6.27451 9.32703 6.28399 9.2851 6.26503 9.25155C6.31243 8.59499 6.31598 7.53463 6.30058 6.39403V6.38445C6.28043 4.84965 6.22355 3.1688 6.18919 2.12043C6.18089 1.8856 6.17497 1.68311 6.16904 1.52138C6.28636 1.93355 6.35983 2.55417 6.42026 3.06817C6.46766 3.47074 6.50794 3.80862 6.55771 3.94759C6.58497 4.02068 6.61103 4.12492 6.6371 4.25431C6.66554 4.3909 6.6928 4.55744 6.72005 4.74675C6.72598 4.78868 6.7639 4.81744 6.80418 4.81145C6.83737 4.80666 6.86225 4.7803 6.86817 4.74915C6.95942 4.34179 7.15968 4.1381 7.39431 3.89969C7.67989 3.60974 8.01287 3.27306 8.27118 2.49191C8.25459 3.86258 7.86948 4.32744 7.49857 4.77313C7.23787 5.08823 6.9843 5.39375 6.85986 5.97845C6.85749 5.98684 6.85631 5.99642 6.85749 6.00481C6.88356 6.30074 6.90608 6.60745 6.92622 6.91659C6.94636 7.2269 6.96295 7.5396 6.9748 7.84632V7.84752C6.9748 7.85591 6.97717 7.86309 6.97954 7.87028V7.87148L6.98073 7.87268L6.98191 7.87508C6.98547 7.88346 6.99021 7.89185 6.99732 7.89904C7.00798 7.90982 7.01983 7.91701 7.03287 7.91941H7.03405H7.03524H7.03642H7.03761H7.03998C7.04235 7.91941 7.04472 7.9206 7.04709 7.9206C7.05657 7.9218 7.06723 7.91941 7.07671 7.91581H7.0779L7.08027 7.91342C7.08856 7.90982 7.09686 7.90503 7.10397 7.89784C7.46301 7.5468 7.94292 7.3467 8.43231 7.23769C8.98096 7.11548 9.54025 7.10949 9.9633 7.13345C9.97752 7.16341 9.98937 7.19216 10.0048 7.22092C10.038 7.19456 10.0628 7.167 10.0913 7.14064C10.2121 7.15023 10.3212 7.16101 10.4077 7.17179C10.7549 7.21492 11.2632 7.15382 11.7218 7.01005C11.9529 6.93696 12.1733 6.84351 12.3557 6.73088C12.1519 6.95733 11.8569 7.21252 11.7858 7.27482L11.7692 7.2892C11.2478 7.76007 10.3721 7.75286 9.60898 7.74688C9.16463 7.74329 8.75581 7.74089 8.46313 7.82955C7.52226 8.1171 7.26159 8.59276 7.08501 8.91506C7.06249 8.957 7.04116 8.99654 7.01865 9.03248C7.01035 9.04566 7.0068 9.06123 7.00798 9.07561C7.01035 9.53449 6.9985 9.95504 6.97243 10.2977C6.94873 10.6056 6.912 10.8465 6.86104 10.9926C6.73425 11.3532 6.71885 12.2578 6.75914 13.2606C6.78284 13.8429 6.82431 14.46 6.87289 15.0207C6.87289 15.0255 6.87289 15.0291 6.87408 15.0339C6.94162 15.8019 7.0222 16.4644 7.08737 16.7903C7.2272 17.4828 7.33858 17.9944 7.43101 18.4186C7.7936 20.0864 7.86471 20.4075 7.86471 23.3608L7.86479 23.3583ZM6.99029 17.4683C6.78292 16.7495 6.76988 16.4332 6.75211 15.9958C6.74026 15.7215 6.72722 15.4004 6.66442 14.9044C6.65968 14.8624 6.62176 14.8337 6.58147 14.8385C6.54 14.8433 6.51156 14.8816 6.5163 14.9223C6.57792 15.41 6.59214 15.7287 6.6028 16.0006C6.62176 16.4487 6.6348 16.7722 6.84691 17.5091C6.85876 17.5486 6.90023 17.5726 6.93934 17.5606C6.97963 17.5486 7.00214 17.5067 6.99029 17.4671L6.99029 17.4683ZM7.52589 21.3358C7.47849 20.7427 7.41568 20.4276 7.36236 20.1544C7.29719 19.8237 7.24505 19.5554 7.24505 18.9131C7.24505 18.8712 7.21187 18.8377 7.1704 18.8377C7.12892 18.8377 7.09575 18.8712 7.09575 18.9131C7.09575 19.5685 7.15026 19.8441 7.21661 20.1831C7.26994 20.4527 7.33037 20.763 7.37777 21.3477C7.40384 21.6688 7.35644 22.0954 7.31141 22.5027C7.27705 22.8118 7.24387 23.1102 7.24387 23.3474C7.24387 23.3893 7.27705 23.4229 7.31852 23.4229C7.35999 23.4229 7.39317 23.3893 7.39317 23.3474C7.39317 23.1162 7.42516 22.8226 7.45953 22.5195C7.50574 22.1049 7.55314 21.67 7.52707 21.3357L7.52589 21.3358Z" fill="#A5B639"/>
</svg>
