<svg width="19" height="24" viewBox="0 0 19 24" fill="none" xmlns="http://www.w3.org/2000/svg">
<path d="M12.6345 23.2008C12.5258 23.1708 12.373 23.0929 12.1868 22.9995C11.7342 22.7718 11.1098 22.4555 10.3803 22.4555C10.3696 22.4555 10.3588 22.4579 10.3481 22.4615C10.2956 22.4794 10.2681 22.5358 10.286 22.5885C10.3481 22.7694 10.4818 22.9132 10.6322 23.0749C10.8328 23.2906 11.0668 23.5434 11.1659 23.9485C11.1206 23.8706 11.0704 23.8011 11.0155 23.7388C10.8519 23.553 10.6442 23.4308 10.3803 23.3386C9.94574 23.1864 9.63891 23.0774 9.39775 22.9108C9.17449 22.7562 9.00136 22.5477 8.82705 22.1967C8.9751 22.0241 9.09688 21.8037 9.16137 21.4706C9.17211 21.4166 9.13629 21.3639 9.08137 21.3531C9.02765 21.3423 8.97511 21.3783 8.96437 21.4334C8.86527 21.9475 8.60261 22.1619 8.3304 22.3836C7.95669 22.688 7.56867 23.0043 7.49345 24L7.3072 23.6597C7.14244 23.3074 7.19497 23.1169 7.24989 22.912C7.30362 22.7155 7.35973 22.507 7.27616 22.1667C7.42421 22.0936 7.57464 22.005 7.72747 21.8959C7.77284 21.8636 7.78239 21.8013 7.75135 21.7557C7.71911 21.7102 7.65703 21.7006 7.61166 21.7318C7.00872 22.1643 6.42252 22.2602 5.86496 22.3512C5.38858 22.4291 4.93369 22.5034 4.49552 22.7718C4.5779 21.933 5.21666 21.8168 6.03569 21.6682C6.47148 21.5892 6.95501 21.5017 7.43977 21.3004C8.34836 20.9241 8.34475 20.7133 8.32565 19.7032C8.32326 19.5558 8.31968 19.3893 8.31968 19.1688C8.31968 18.5337 8.38654 17.8663 8.4534 17.1893C8.5907 15.803 8.73158 14.3831 8.32326 13.1431C8.21939 12.8291 7.81583 12.0431 7.42066 11.456C7.12815 11.021 6.82847 10.6891 6.62669 10.7047C6.57177 10.7095 6.52998 10.7574 6.53475 10.8125C6.53595 10.8245 6.53953 10.8365 6.54431 10.8473C6.75563 11.3577 6.72936 11.7495 6.58132 12.0251C6.50371 12.1701 6.39148 12.2827 6.26372 12.363C6.13477 12.4433 5.98912 12.49 5.84584 12.5032C5.60586 12.5248 5.37066 12.4517 5.22978 12.2815C5.19516 12.2384 5.13188 12.2324 5.0889 12.2684C5.06502 12.2887 5.05308 12.3163 5.05308 12.3462C5.05308 12.8854 4.8334 13.1958 4.54327 13.3252C4.42268 13.3791 4.28896 13.4031 4.15286 13.3995C4.01556 13.3959 3.87587 13.3647 3.74575 13.3096C3.39236 13.1598 3.10701 12.8303 3.10701 12.3858C3.10701 12.3307 3.06164 12.2851 3.00672 12.2851C2.97568 12.2851 2.94703 12.2995 2.92911 12.3223C2.45393 12.8555 1.93577 12.9406 1.50597 12.7872C1.31494 12.7189 1.13944 12.6039 0.992578 12.4601C0.845725 12.3163 0.726334 12.1438 0.647536 11.9592C0.479192 11.5674 0.498295 11.1277 0.823043 10.8293C0.863635 10.7922 0.866023 10.7287 0.829012 10.6879C0.812297 10.6699 0.792002 10.6592 0.769317 10.6568C0.532919 10.6232 0.347863 10.4674 0.226094 10.2518C0.123415 10.072 0.0649154 9.85036 0.0529738 9.62031C0.0422282 9.38905 0.0792396 9.15182 0.169977 8.93851C0.297728 8.64015 0.534123 8.39213 0.892308 8.29027C0.946035 8.27469 0.975884 8.21957 0.961556 8.16685C0.95081 8.12731 0.91738 8.10095 0.88037 8.09496C0.5198 8.03265 0.236835 7.71153 0.0959627 7.3257C0.0291029 7.14237 -0.00432553 6.94586 0.000448642 6.75534C0.00522465 6.56842 0.0482053 6.3875 0.136555 6.23293C0.28699 5.96692 0.574728 5.77521 1.03558 5.75723C1.0905 5.75484 1.13348 5.7093 1.13229 5.65299C1.13109 5.63382 1.12513 5.61584 1.11557 5.60146C0.845747 5.18328 0.71799 4.84059 0.696503 4.5686C0.679789 4.3613 0.725158 4.19836 0.814703 4.07612C0.904248 3.9539 1.04035 3.87002 1.20272 3.82329C1.4236 3.75979 1.69224 3.76339 1.96802 3.82929C2.04205 3.84726 2.08384 3.8173 2.10055 3.74541C2.10891 3.70946 2.10294 3.66273 2.09458 3.60043C2.0707 3.43028 2.02414 3.09598 2.26173 2.92464C2.47544 2.76887 2.67123 2.71136 2.83481 2.70656C3.01151 2.70177 3.15 2.75809 3.23478 2.82039C3.11061 3.04326 3.04256 3.30087 3.04256 3.57888C3.04256 3.91317 3.13927 4.27862 3.35297 4.65368C3.37088 4.68483 3.40192 4.7028 3.43535 4.704C3.38998 4.78788 3.35655 4.88133 3.33984 4.98079C3.30044 5.20246 3.33745 5.45649 3.49147 5.72369C3.20134 5.77042 3.01151 5.91061 2.90405 6.09034C2.83599 6.20657 2.80256 6.33837 2.80018 6.47377C2.79779 6.60557 2.82405 6.74097 2.8742 6.86677C2.953 7.06448 3.09269 7.2394 3.27417 7.34366C3.10821 7.44072 2.99121 7.58211 2.92078 7.74148C2.85631 7.88527 2.82885 8.04343 2.83601 8.19681C2.84318 8.35138 2.88377 8.50116 2.9566 8.62815C3.03421 8.76475 3.14643 8.87499 3.29091 8.93609C3.14645 9.1314 3.1357 9.36866 3.21808 9.59391C3.26704 9.72691 3.34942 9.85512 3.45567 9.96414C3.56193 10.0732 3.69207 10.1642 3.83773 10.2266C4.16129 10.3632 4.55768 10.3536 4.92778 10.0648C4.99942 10.3056 5.20119 10.4842 5.43879 10.5741C5.54505 10.6148 5.65967 10.6364 5.77188 10.64C5.8865 10.6424 5.99992 10.6244 6.10378 10.5836C6.3175 10.4986 6.48703 10.32 6.53719 10.0301C6.66733 10.0948 6.82612 10.1163 6.9837 10.0948C6.98967 10.0936 6.99564 10.0924 7.00281 10.0924C7.30845 10.2697 7.67617 10.6507 8.00569 11.0929C8.3555 11.5614 8.65876 12.0946 8.79966 12.5295C8.81638 12.5823 8.87249 12.611 8.92503 12.5942C8.97756 12.5775 9.00621 12.5212 8.9895 12.4684C8.92861 12.2791 8.83787 12.0718 8.72684 11.8609C8.75191 11.8513 8.7734 11.8322 8.78414 11.8058C9.57812 9.93298 9.31902 9.48605 9.05397 9.02594C9.01099 8.95165 8.96801 8.87736 8.931 8.79588C8.98353 8.68804 9.01219 8.56822 9.01099 8.44362C9.18053 8.53947 9.34888 8.59579 9.50528 8.62095C9.52319 8.73119 9.56497 8.90134 9.61393 9.10383C9.72496 9.55677 9.87659 10.181 9.87659 10.5968C9.87659 10.6519 9.92196 10.6975 9.97688 10.6975C9.98166 10.6975 9.98643 10.6975 9.99121 10.6963C10.3243 10.6663 10.9869 10.3979 11.5553 10.0816C12.0567 9.80239 12.4925 9.48009 12.582 9.24043C12.588 9.22485 12.5916 9.20807 12.5892 9.1913C12.5832 9.13618 12.5343 9.09544 12.4806 9.10143C12.3934 9.10982 12.2549 9.06189 12.0865 9.00318C11.8275 8.91331 11.5087 8.80188 11.1505 8.81745C10.9189 8.82704 10.7135 8.87257 10.5261 8.91331C10.23 8.97802 9.98405 9.03194 9.79779 8.90253C9.78823 8.89534 9.77749 8.89055 9.76674 8.88815C9.74286 8.7875 9.72257 8.70243 9.71063 8.63772C9.84554 8.63652 9.96852 8.61016 10.0748 8.56822C10.1798 8.52509 10.2694 8.46398 10.3362 8.39089C10.4067 8.3142 10.4532 8.22554 10.47 8.12848C10.4938 7.99068 10.4568 7.84211 10.3434 7.70192C10.8341 7.61805 11.1183 7.34966 11.2389 7.03212C11.2986 6.87635 11.3177 6.70979 11.3021 6.54565C11.2866 6.38269 11.2377 6.22333 11.1601 6.08434C11.0072 5.81115 10.7458 5.61223 10.4151 5.59668C10.4545 5.46487 10.4461 5.32708 10.4007 5.19169C10.3482 5.03472 10.2431 4.88375 10.1046 4.75672C9.96852 4.63211 9.79899 4.53026 9.61511 4.46915C9.38826 4.39486 9.13873 4.38288 8.89755 4.46675C8.93217 4.26545 8.88202 4.04857 8.77457 3.85446C8.69816 3.71667 8.59071 3.58966 8.46535 3.48901C8.3376 3.38716 8.18956 3.31167 8.02956 3.27573C7.7669 3.21821 7.47916 3.26974 7.20933 3.495C7.10546 3.23978 6.98487 3.05525 6.85472 2.92943C6.7031 2.78324 6.53954 2.71494 6.37596 2.70775C6.21359 2.69937 6.05479 2.75209 5.91153 2.84914C5.76946 2.945 5.6429 3.08399 5.545 3.24935C4.8776 3.06363 4.6042 3.3488 4.49673 3.6891C4.43584 3.88201 4.43465 4.08931 4.44181 4.22949C4.28183 4.18636 4.1111 4.19954 3.95229 4.25825C3.80544 4.31217 3.66814 4.40683 3.5607 4.53024C3.55115 4.54103 3.5416 4.55301 3.53204 4.56499C3.53085 4.5626 3.52966 4.5602 3.52846 4.559C3.33385 4.21631 3.2455 3.88441 3.2455 3.58245C3.2455 3.32843 3.30878 3.09718 3.42459 2.89946L3.42579 2.89706C3.42937 2.89466 3.43295 2.89227 3.43534 2.88987C3.45444 2.8731 3.46638 2.85033 3.46996 2.82756C3.58338 2.66221 3.73621 2.52202 3.92247 2.41536C4.17439 2.27158 4.4884 2.1901 4.84775 2.1901C4.90267 2.1901 4.94804 2.14456 4.94804 2.08945C4.94804 2.07028 4.94207 2.0523 4.93252 2.03672C4.70925 1.61734 4.80954 1.21355 5.07459 0.916404C5.21548 0.758241 5.40172 0.628832 5.61066 0.542545C5.82079 0.456273 6.05241 0.413136 6.28403 0.426317C6.79742 0.455074 7.30962 0.766618 7.56511 1.5059C7.58302 1.55862 7.63913 1.58618 7.69167 1.56821C7.72748 1.55622 7.75136 1.52507 7.75733 1.49032C7.82419 1.09971 7.97821 0.752235 8.19073 0.489815C8.36743 0.271739 8.58474 0.11476 8.8247 0.0428899C9.0611 -0.0278053 9.32257 -0.0146245 9.5912 0.108791C9.85506 0.22981 10.1273 0.457466 10.3911 0.814547C10.4234 0.85888 10.4866 0.868466 10.5308 0.834916C10.5559 0.816943 10.569 0.789383 10.5714 0.760626C10.5845 0.536559 10.8711 0.322075 11.2364 0.223825C11.3952 0.180687 11.5683 0.161516 11.7403 0.172301C11.911 0.183085 12.0817 0.225024 12.2369 0.304105C12.6441 0.512596 12.9557 0.988297 12.9187 1.88095C12.9163 1.93607 12.9593 1.9828 13.0142 1.9852C13.044 1.98639 13.0715 1.97441 13.0918 1.95284C13.53 1.48193 14.0004 1.39567 14.3824 1.52868C14.5448 1.58619 14.6929 1.68325 14.8158 1.80666C14.9388 1.93128 15.0367 2.08226 15.1 2.24761C15.2516 2.64542 15.1967 3.12471 14.8003 3.50455C14.7597 3.5429 14.7585 3.6064 14.7967 3.64594C14.8218 3.6723 14.8576 3.68189 14.8911 3.6747C15.4176 3.55368 15.7793 3.70585 15.9752 3.95628C16.0683 4.07491 16.1244 4.2163 16.1423 4.36008C16.1614 4.50387 16.1423 4.65005 16.0862 4.78066C15.9787 5.02988 15.728 5.2204 15.328 5.2204C15.2731 5.2204 15.2278 5.26594 15.2278 5.32105C15.2278 5.37378 15.2683 5.41811 15.3209 5.4217C15.7256 5.45765 16.1841 5.90099 16.4121 6.40184C16.4432 6.47014 16.4694 6.53843 16.4909 6.60793C16.4921 6.61033 16.4921 6.61273 16.4933 6.61392C16.5267 6.72176 16.547 6.8308 16.5518 6.93625C16.5602 7.104 16.5279 7.26217 16.4456 7.39756C16.2844 7.65877 15.925 7.83851 15.2791 7.83851C15.2242 7.83851 15.1788 7.88404 15.1788 7.93916C15.1788 8.43642 15.0964 8.85221 14.9484 9.17451C14.8326 9.42733 14.6762 9.62143 14.4863 9.75204C14.2989 9.88145 14.078 9.94855 13.8309 9.94855C13.5921 9.94855 13.3294 9.88624 13.0477 9.75563C12.9975 9.73287 12.9378 9.75444 12.9151 9.80476C12.9127 9.80956 12.9116 9.81435 12.9092 9.81914C12.7408 10.296 12.0842 10.6507 11.5111 10.9611C11.1446 11.1588 10.8102 11.3397 10.6347 11.535C10.2276 11.9891 9.78226 12.859 9.68913 13.0399C9.68316 13.0519 9.70227 13.0364 9.69152 13.0471C9.54467 13.1945 9.65212 15.2818 9.73092 16.7952C9.76554 17.465 9.7942 18.0198 9.7942 18.2343C9.7942 21.0645 10.7852 21.5091 11.6173 21.883C12.145 22.1203 12.6023 22.3252 12.6381 23.207L12.6345 23.2008ZM3.66929 5.90808C3.36006 5.91887 3.17142 6.03509 3.0771 6.19326C3.02695 6.27833 3.00188 6.37659 2.99949 6.47844C2.9971 6.58268 3.01859 6.69172 3.05919 6.79236C3.14873 7.01642 3.33379 7.20333 3.56781 7.23809C3.60721 7.24408 3.63945 7.27283 3.65019 7.31357C3.66332 7.36749 3.63109 7.42141 3.57736 7.43579C3.33738 7.4957 3.18336 7.64548 3.10218 7.82401C3.05084 7.93784 3.02935 8.06485 3.03532 8.18826C3.04129 8.31048 3.07352 8.42911 3.12964 8.52857C3.20605 8.66397 3.32783 8.76222 3.48782 8.78379C3.51289 8.78618 3.53796 8.79936 3.55588 8.81973C3.5905 8.86287 3.58453 8.92638 3.54155 8.96112C3.35888 9.1109 3.33142 9.32419 3.40544 9.52427C3.44484 9.63092 3.5117 9.73516 3.59886 9.82383C3.68721 9.91489 3.79466 9.99038 3.91526 10.0419C4.21135 10.1665 4.58505 10.139 4.92413 9.80106C4.94204 9.77949 4.9695 9.76631 4.99935 9.76631C5.05427 9.76631 5.09964 9.81185 5.09964 9.86697C5.09964 10.115 5.28231 10.2995 5.50914 10.3858C5.5951 10.4181 5.68584 10.4361 5.77539 10.4385C5.86374 10.4409 5.95089 10.4265 6.02969 10.3954C6.21356 10.3223 6.35206 10.1474 6.35206 9.843C6.35206 9.81544 6.3628 9.78908 6.38429 9.76991C6.42489 9.73276 6.48816 9.73396 6.52518 9.7747C6.62069 9.87894 6.78903 9.91729 6.9562 9.89452C7.05052 9.88134 7.14484 9.84899 7.22602 9.79627C7.30482 9.74594 7.37168 9.67525 7.41347 9.58778C7.4863 9.4368 7.48869 9.22591 7.36333 8.95751L7.36213 8.95511C7.34064 8.90598 7.36213 8.84727 7.41108 8.82451C7.44929 8.80653 7.49346 8.81492 7.52331 8.84368C7.72031 9.02101 7.93163 9.09411 8.12385 9.09051C8.26115 9.08812 8.39009 9.04857 8.49756 8.98028C8.59427 8.92036 8.67306 8.83888 8.72799 8.74543C8.73037 8.74183 8.73157 8.73824 8.73396 8.73584C8.73873 8.72865 8.74231 8.72026 8.74589 8.71307C8.81156 8.58127 8.82947 8.4255 8.77933 8.26734C8.76261 8.21462 8.79127 8.15831 8.8438 8.14153C8.87604 8.13194 8.90827 8.13794 8.93334 8.15591C9.16496 8.32725 9.393 8.40993 9.59479 8.4303C9.60076 8.4303 9.60554 8.4315 9.61151 8.4315C9.75716 8.44348 9.8885 8.42311 9.99714 8.37878C10.0759 8.34642 10.1404 8.30329 10.187 8.25177C10.2311 8.20384 10.2598 8.14872 10.2694 8.0912C10.2896 7.97138 10.2288 7.83239 10.0544 7.70299C10.0103 7.67064 10.0007 7.60713 10.033 7.5628C10.0521 7.53644 10.0807 7.52325 10.1106 7.52206C10.6442 7.4933 10.9368 7.25126 11.049 6.95648C11.0967 6.82947 11.1135 6.69287 11.1003 6.55986C11.0884 6.42566 11.0466 6.29506 10.9821 6.17883C10.8412 5.9272 10.5857 5.75466 10.2646 5.80138C10.2096 5.80977 10.1595 5.77142 10.1511 5.71631C10.1476 5.68995 10.1547 5.66358 10.169 5.64322C10.2467 5.52459 10.2514 5.3868 10.2061 5.25261C10.1643 5.1268 10.0783 5.00458 9.96489 4.90034C9.84907 4.7949 9.7058 4.70743 9.5482 4.65591C9.29867 4.57443 9.01809 4.58282 8.76737 4.74697C8.72081 4.77693 8.65872 4.76375 8.62887 4.71702C8.60738 4.68347 8.60858 4.64153 8.62768 4.60918C8.74707 4.41626 8.71603 4.16584 8.59425 3.94778C8.52978 3.83275 8.44143 3.72611 8.33517 3.64223C8.2301 3.55836 8.11071 3.49725 7.98178 3.46849C7.74538 3.41577 7.48034 3.47927 7.23439 3.73569C7.19618 3.77523 7.1329 3.77643 7.0935 3.73809C7.08037 3.72491 7.07082 3.70933 7.06604 3.69376C6.96336 3.39899 6.84158 3.19649 6.70905 3.06947C6.59563 2.96043 6.47623 2.90891 6.35924 2.90292C6.24223 2.89693 6.12403 2.93767 6.01539 3.01076C5.88286 3.10062 5.76466 3.23842 5.6763 3.40498C5.65601 3.45052 5.60347 3.47448 5.55452 3.4589C4.98382 3.27677 4.76055 3.48766 4.68056 3.74408C4.61012 3.96695 4.634 4.22696 4.64236 4.32521V4.3276C4.65668 4.47378 4.66265 4.55406 4.50147 4.46659L4.4967 4.4642C4.34984 4.38272 4.17433 4.38152 4.01436 4.44143C3.89735 4.48457 3.7899 4.55886 3.70394 4.65711C3.61918 4.75417 3.55709 4.87638 3.53202 5.01419C3.49501 5.22508 3.54515 5.4767 3.73857 5.7439C3.7517 5.76068 3.76006 5.78104 3.76006 5.80381C3.76245 5.85893 3.71827 5.90566 3.66335 5.90686L3.66929 5.90808ZM18.2376 7.06794C18.1456 6.86784 18.0023 6.69169 17.8221 6.57427C17.5272 6.38135 17.132 6.34661 16.6998 6.6198C16.726 6.72045 16.7427 6.8223 16.7475 6.92175C16.7571 7.12785 16.7165 7.32555 16.6114 7.4981C16.4252 7.80124 16.0395 8.01453 15.3733 8.0337C15.3626 8.51658 15.2754 8.92758 15.125 9.2535C14.9936 9.53867 14.8134 9.76033 14.5949 9.91131C14.374 10.0635 14.1149 10.1438 13.826 10.1438C13.5872 10.1438 13.3281 10.0886 13.0547 9.97361C12.9162 10.2684 12.6333 10.5116 12.3085 10.7237C12.3109 10.7261 12.3133 10.7285 12.3145 10.7309C12.3419 10.7644 12.3754 10.8243 12.4207 10.9046C12.5533 11.1383 12.7885 11.5565 13.1443 11.7985C13.3819 11.9615 13.6899 12.0549 13.986 12.0549C14.1507 12.0549 14.3107 12.0262 14.4504 11.9627C14.5877 11.9016 14.7083 11.8081 14.7966 11.6775C14.8993 11.5277 14.9602 11.3252 14.9602 11.0664C14.9602 11.0269 14.9829 10.9897 15.0211 10.9741C15.0724 10.9526 15.1309 10.9765 15.1524 11.0281C15.3566 11.5169 15.6909 11.7099 16.018 11.7122C16.172 11.7134 16.326 11.6727 16.4657 11.602C16.6066 11.5301 16.732 11.4283 16.8287 11.3049C17.0352 11.0436 17.1093 10.689 16.9099 10.3475C16.8991 10.3319 16.8932 10.3127 16.8932 10.2924C16.8932 10.2372 16.9385 10.1917 16.9934 10.1917C17.3791 10.1917 17.662 10.0563 17.834 9.86459C17.9271 9.76155 17.9868 9.64173 18.0142 9.51831C18.0405 9.39609 18.0345 9.27028 17.9939 9.15405C17.9295 8.97312 17.7814 8.81256 17.5414 8.71789C17.5104 8.70711 17.4865 8.68195 17.477 8.6484C17.4626 8.59448 17.4949 8.54056 17.5486 8.52618C18.0596 8.39078 18.2996 8.06128 18.345 7.7042C18.3712 7.49211 18.3318 7.26924 18.2387 7.06915L18.2376 7.06794Z" fill="#A5B639"/>
</svg>
