<svg width="13" height="13" viewBox="0 0 13 13" fill="none" xmlns="http://www.w3.org/2000/svg">
<path fill-rule="evenodd" clip-rule="evenodd" d="M6.4997 13C8.00351 13.0001 9.46082 12.4787 10.6233 11.5248C11.7858 10.5708 12.5816 9.24327 12.875 7.76836C13.1685 6.29346 12.9414 4.76244 12.2326 3.43616C11.5238 2.10989 10.377 1.07042 8.98768 0.494884C7.59836 -0.0806557 6.05246 -0.156662 4.61339 0.279817C3.17432 0.716296 1.93111 1.63825 1.09559 2.8886C0.26007 4.13894 -0.11606 5.64031 0.0312872 7.13689C0.178634 8.63346 0.840341 10.0327 1.90366 11.096C3.12258 12.315 4.77582 12.9999 6.4997 13ZM9.5119 5.44917C9.65725 5.29542 9.7369 5.09105 9.73391 4.87949C9.73092 4.66794 9.64552 4.46589 9.49588 4.31632C9.34624 4.16675 9.14415 4.08145 8.9326 4.07856C8.72104 4.07566 8.5167 4.15541 8.36303 4.30083L5.6872 6.97613L4.63636 5.92583C4.48234 5.78231 4.27863 5.70418 4.06813 5.70789C3.85764 5.71161 3.65681 5.79688 3.50794 5.94574C3.35908 6.09461 3.27381 6.29544 3.27009 6.50593C3.26638 6.71643 3.34451 6.92014 3.48803 7.07417L5.11303 8.69917C5.2654 8.85149 5.47202 8.93706 5.68747 8.93706C5.90291 8.93706 6.10954 8.85149 6.2619 8.69917L9.5119 5.44917Z" fill="#A5B639"/>
</svg>
