<svg width="109" height="21" viewBox="0 0 109 21" fill="none" xmlns="http://www.w3.org/2000/svg">
<rect x="18.5" width="22" height="21" rx="10.5" fill="#F2A62A"/>
<path d="M25.3767 11.316H23.3847C23.3527 11.156 23.3367 10.976 23.3367 10.776C23.3367 10.584 23.3527 10.408 23.3847 10.248H25.3767V8.064C25.4647 8.048 25.5487 8.036 25.6287 8.028C25.7167 8.02 25.8087 8.016 25.9047 8.016C25.9927 8.016 26.0807 8.02 26.1687 8.028C26.2567 8.036 26.3487 8.048 26.4447 8.064V10.248H28.4247C28.4407 10.336 28.4527 10.424 28.4607 10.512C28.4687 10.6 28.4727 10.688 28.4727 10.776C28.4727 10.864 28.4687 10.956 28.4607 11.052C28.4527 11.14 28.4407 11.228 28.4247 11.316H26.4447V13.488C26.3487 13.504 26.2567 13.516 26.1687 13.524C26.0807 13.532 25.9927 13.536 25.9047 13.536C25.7047 13.536 25.5287 13.52 25.3767 13.488V11.316ZM31.144 9.612C31.032 9.476 30.944 9.34 30.88 9.204C30.816 9.068 30.752 8.908 30.688 8.724L33.88 7.2H34.06V13.98H35.776C35.8 14.164 35.812 14.332 35.812 14.484C35.812 14.652 35.8 14.824 35.776 15H31.084C31.052 14.84 31.036 14.668 31.036 14.484C31.036 14.308 31.052 14.14 31.084 13.98H32.884V8.82L31.144 9.612Z" fill="#F6F6F6"/>
<path d="M48.8139 15.144H48.7179C48.4539 15.144 48.2179 15.136 48.0099 15.12C47.8019 15.104 47.6019 15.076 47.4099 15.036C47.2259 15.004 47.0419 14.96 46.8579 14.904C46.6739 14.848 46.4819 14.78 46.2819 14.7C46.3059 14.468 46.3499 14.236 46.4139 14.004C46.4779 13.764 46.5539 13.516 46.6419 13.26C46.9779 13.396 47.2939 13.492 47.5899 13.548C47.8859 13.596 48.2019 13.62 48.5379 13.62C49.0419 13.62 49.4299 13.536 49.7019 13.368C49.9819 13.192 50.1219 12.912 50.1219 12.528C50.1219 12.336 50.0819 12.18 50.0019 12.06C49.9299 11.932 49.8339 11.828 49.7139 11.748C49.6019 11.668 49.4739 11.6 49.3299 11.544C49.1859 11.488 49.0459 11.428 48.9099 11.364L48.2739 11.088C48.0099 10.976 47.7699 10.86 47.5539 10.74C47.3379 10.612 47.1499 10.464 46.9899 10.296C46.8379 10.12 46.7179 9.916 46.6299 9.684C46.5499 9.452 46.5099 9.168 46.5099 8.832C46.5099 8.112 46.7139 7.544 47.1219 7.128C47.5299 6.712 48.0939 6.46 48.8139 6.372V5.1C48.9819 5.052 49.1539 5.028 49.3299 5.028C49.4979 5.028 49.6739 5.052 49.8579 5.1V6.336C50.1779 6.36 50.4859 6.408 50.7819 6.48C51.0779 6.544 51.3899 6.632 51.7179 6.744C51.6699 7.208 51.5419 7.664 51.3339 8.112C51.2139 8.064 51.0899 8.016 50.9619 7.968C50.8419 7.92 50.7099 7.88 50.5659 7.848C50.4299 7.816 50.2739 7.792 50.0979 7.776C49.9219 7.752 49.7219 7.74 49.4979 7.74C49.3619 7.74 49.2219 7.752 49.0779 7.776C48.9419 7.792 48.8179 7.832 48.7059 7.896C48.5939 7.96 48.5019 8.052 48.4299 8.172C48.3579 8.284 48.3219 8.432 48.3219 8.616C48.3219 8.776 48.3499 8.912 48.4059 9.024C48.4619 9.136 48.5379 9.232 48.6339 9.312C48.7299 9.384 48.8379 9.448 48.9579 9.504C49.0779 9.56 49.1979 9.612 49.3179 9.66L50.0379 9.96C50.3419 10.088 50.6179 10.216 50.8659 10.344C51.1139 10.472 51.3219 10.628 51.4899 10.812C51.6659 10.988 51.8019 11.208 51.8979 11.472C51.9939 11.728 52.0419 12.052 52.0419 12.444C52.0419 13.1 51.8539 13.656 51.4779 14.112C51.1099 14.56 50.5699 14.864 49.8579 15.024V16.416C49.6899 16.464 49.5179 16.488 49.3419 16.488C49.1659 16.488 48.9899 16.464 48.8139 16.416V15.144ZM53.7892 6.372C54.1412 6.332 54.4692 6.3 54.7732 6.276C55.0852 6.244 55.4292 6.228 55.8052 6.228C56.2452 6.228 56.6772 6.268 57.1012 6.348C57.5332 6.428 57.9212 6.572 58.2652 6.78C58.6092 6.98 58.8852 7.256 59.0932 7.608C59.3092 7.952 59.4172 8.392 59.4172 8.928C59.4172 9.248 59.3772 9.532 59.2972 9.78C59.2172 10.02 59.1132 10.232 58.9852 10.416C58.8652 10.6 58.7332 10.76 58.5892 10.896C58.4452 11.024 58.3092 11.128 58.1812 11.208L57.9772 11.34L60.0772 14.988C59.9172 15.004 59.7492 15.02 59.5732 15.036C59.3972 15.052 59.2172 15.06 59.0332 15.06C58.7292 15.06 58.4292 15.036 58.1332 14.988L55.8772 10.98L56.1652 10.836C56.2772 10.78 56.4132 10.708 56.5732 10.62C56.7332 10.532 56.8852 10.424 57.0292 10.296C57.1812 10.16 57.3092 10 57.4132 9.816C57.5172 9.624 57.5692 9.4 57.5692 9.144C57.5692 8.64 57.4252 8.272 57.1372 8.04C56.8492 7.8 56.4772 7.68 56.0212 7.68C55.8452 7.68 55.6852 7.692 55.5412 7.716V15C55.3972 15.016 55.2532 15.028 55.1092 15.036C54.9652 15.052 54.8252 15.06 54.6892 15.06C54.5532 15.06 54.4092 15.056 54.2572 15.048C54.1052 15.04 53.9492 15.024 53.7892 15V6.372ZM64.44 15.144C63.792 15.144 63.232 15.032 62.76 14.808C62.288 14.584 61.9 14.276 61.596 13.884C61.292 13.484 61.064 13.016 60.912 12.48C60.768 11.936 60.696 11.344 60.696 10.704C60.696 10.064 60.768 9.472 60.912 8.928C61.064 8.376 61.292 7.9 61.596 7.5C61.9 7.1 62.288 6.788 62.76 6.564C63.232 6.34 63.792 6.228 64.44 6.228C65.088 6.228 65.648 6.34 66.12 6.564C66.592 6.788 66.98 7.1 67.284 7.5C67.588 7.9 67.812 8.376 67.956 8.928C68.108 9.472 68.184 10.064 68.184 10.704C68.184 11.344 68.108 11.936 67.956 12.48C67.812 13.016 67.588 13.484 67.284 13.884C66.98 14.276 66.592 14.584 66.12 14.808C65.648 15.032 65.088 15.144 64.44 15.144ZM64.44 13.68C65.68 13.68 66.3 12.688 66.3 10.704C66.3 9.712 66.148 8.968 65.844 8.472C65.548 7.976 65.084 7.728 64.452 7.728C63.196 7.728 62.568 8.72 62.568 10.704C62.568 12.688 63.192 13.68 64.44 13.68ZM73.147 15.144C72.499 15.144 71.939 15.032 71.467 14.808C70.995 14.584 70.607 14.276 70.303 13.884C69.999 13.484 69.771 13.016 69.619 12.48C69.475 11.936 69.403 11.344 69.403 10.704C69.403 10.064 69.475 9.472 69.619 8.928C69.771 8.376 69.999 7.9 70.303 7.5C70.607 7.1 70.995 6.788 71.467 6.564C71.939 6.34 72.499 6.228 73.147 6.228C73.795 6.228 74.355 6.34 74.827 6.564C75.299 6.788 75.687 7.1 75.991 7.5C76.295 7.9 76.519 8.376 76.663 8.928C76.815 9.472 76.891 10.064 76.891 10.704C76.891 11.344 76.815 11.936 76.663 12.48C76.519 13.016 76.295 13.484 75.991 13.884C75.687 14.276 75.299 14.584 74.827 14.808C74.355 15.032 73.795 15.144 73.147 15.144ZM73.147 13.68C74.387 13.68 75.007 12.688 75.007 10.704C75.007 9.712 74.855 8.968 74.551 8.472C74.255 7.976 73.791 7.728 73.159 7.728C71.903 7.728 71.275 8.72 71.275 10.704C71.275 12.688 71.899 13.68 73.147 13.68ZM79.561 7.86H77.413C77.365 7.62 77.341 7.368 77.341 7.104C77.341 6.856 77.365 6.612 77.413 6.372H83.473C83.521 6.612 83.545 6.856 83.545 7.104C83.545 7.368 83.521 7.62 83.473 7.86H81.325V15C81.181 15.016 81.037 15.028 80.893 15.036C80.749 15.052 80.609 15.06 80.473 15.06C80.337 15.06 80.189 15.056 80.029 15.048C79.877 15.04 79.721 15.024 79.561 15V7.86ZM86.1444 11.004C85.8724 10.9 85.6284 10.788 85.4124 10.668C85.1964 10.54 85.0124 10.392 84.8604 10.224C84.7084 10.048 84.5884 9.84 84.5004 9.6C84.4204 9.36 84.3804 9.072 84.3804 8.736C84.3804 8.328 84.4484 7.968 84.5844 7.656C84.7284 7.344 84.9284 7.084 85.1844 6.876C85.4404 6.66 85.7484 6.5 86.1084 6.396C86.4684 6.284 86.8724 6.228 87.3204 6.228C87.7284 6.228 88.1084 6.264 88.4604 6.336C88.8204 6.408 89.1964 6.512 89.5884 6.648C89.5404 7.112 89.4124 7.568 89.2044 8.016C89.0844 7.968 88.9604 7.92 88.8324 7.872C88.7124 7.824 88.5804 7.784 88.4364 7.752C88.3004 7.72 88.1444 7.696 87.9684 7.68C87.7924 7.656 87.5924 7.644 87.3684 7.644C87.2324 7.644 87.0924 7.656 86.9484 7.68C86.8124 7.704 86.6884 7.748 86.5764 7.812C86.4644 7.876 86.3724 7.972 86.3004 8.1C86.2284 8.22 86.1924 8.38 86.1924 8.58C86.1924 8.74 86.2204 8.876 86.2764 8.988C86.3324 9.092 86.4084 9.184 86.5044 9.264C86.6004 9.336 86.7084 9.4 86.8284 9.456C86.9484 9.504 87.0684 9.552 87.1884 9.6L87.9084 9.876C88.2124 9.996 88.4884 10.12 88.7364 10.248C88.9844 10.376 89.1924 10.536 89.3604 10.728C89.5364 10.912 89.6724 11.14 89.7684 11.412C89.8644 11.676 89.9124 12.004 89.9124 12.396C89.9124 12.804 89.8364 13.176 89.6844 13.512C89.5404 13.848 89.3284 14.136 89.0484 14.376C88.7684 14.616 88.4204 14.804 88.0044 14.94C87.5964 15.076 87.1244 15.144 86.5884 15.144C86.3244 15.144 86.0884 15.136 85.8804 15.12C85.6724 15.104 85.4724 15.076 85.2804 15.036C85.0964 15.004 84.9124 14.96 84.7284 14.904C84.5444 14.848 84.3524 14.78 84.1524 14.7C84.1764 14.468 84.2204 14.228 84.2844 13.98C84.3484 13.724 84.4244 13.468 84.5124 13.212C84.8484 13.348 85.1644 13.452 85.4604 13.524C85.7564 13.588 86.0724 13.62 86.4084 13.62C86.9124 13.62 87.3084 13.528 87.5964 13.344C87.8844 13.152 88.0284 12.864 88.0284 12.48C88.0284 12.288 87.9924 12.128 87.9204 12C87.8564 11.872 87.7684 11.764 87.6564 11.676C87.5524 11.588 87.4324 11.516 87.2964 11.46C87.1604 11.396 87.0204 11.336 86.8764 11.28L86.1444 11.004Z" fill="#F2A62A"/>
</svg>
