<svg width="161" height="201" viewBox="0 0 161 201" fill="none" xmlns="http://www.w3.org/2000/svg">
<path d="M0.00014378 80.2479C-0.0824582 36.3243 35.4364 -0.0618725 80.3512 7.89927e-05C124.998 0.0620304 160.558 36.1384 160.496 80.3718C160.413 124.481 124.977 160.682 79.8969 160.516C35.0647 160.351 -0.0618077 123.965 0.00014378 80.2479ZM8.6114 80.1033C8.32229 119.153 39.9795 151.864 80.0621 151.946C120.434 152.029 151.822 119.401 151.946 80.5163C152.091 41.1978 120.351 8.59068 80.3305 8.54938C40.2066 8.50808 8.46684 41.1358 8.6114 80.1033Z" fill="#F2A62A"/>
<path d="M84.2746 124.667C85.9473 126.195 88.033 128.054 89.7057 129.561C93.4228 132.783 92.287 132.122 96.6442 135.57C97.1398 136.004 97.9452 136.458 98.5647 136.665C101.621 137.656 104.078 136.087 104.016 132.865C103.975 130.986 102.819 130.139 101.662 129.086C98.3995 126.092 95.1161 123.531 91.8533 120.537C89.5198 118.41 87.207 116.283 84.8528 114.177C84.13 113.536 83.7583 112.876 83.7583 111.864C83.7996 106.267 83.5931 99.7418 83.6138 94.1456C83.6138 93.8565 83.5312 93.6706 83.6138 93.3195C83.6551 93.1543 83.8409 93.0717 83.9855 93.1543C84.5224 93.4641 84.6669 93.7119 84.9974 94.001C87.7026 96.6649 90.986 100.031 93.7532 102.612C97.4289 106.04 100.94 109.613 104.595 113.061C108.126 116.386 110.996 119.319 114.507 122.664C115.126 123.263 115.787 123.841 116.531 124.275C119.174 125.803 122.478 123.965 122.602 120.929C122.664 119.67 122.251 118.844 121.487 117.894C121.136 117.46 120.64 116.964 120.227 116.572C118.761 115.209 117.708 114.177 116.2 112.793C112.173 109.097 108.518 105.421 104.533 101.662C101.043 98.3583 97.5735 95.0335 94.0836 91.7295C92.4728 90.222 90.8208 88.7351 89.21 87.2277C87.62 85.7408 86.0505 84.2333 84.4604 82.7465C83.9442 82.2715 83.717 81.7346 83.7583 81.0532C83.779 80.6608 83.7583 80.2891 83.7583 79.9174C83.8616 61.7037 83.5725 43.5106 83.9855 25.2969C84.0474 22.4678 83.8409 19.6593 83.779 16.8508C83.7583 15.7563 83.5105 14.6825 82.5399 13.9391C80.0206 11.998 76.4894 13.1957 75.7666 16.2726C75.4775 17.491 75.3949 18.73 75.3949 19.969C75.3949 22.8601 75.4155 25.7512 75.4155 28.6422C75.4155 45.5963 75.3949 62.571 75.3949 79.5457C75.3949 79.8554 75.3742 80.1445 75.3949 80.4543C75.4155 80.9912 75.2297 81.3836 74.8167 81.7346C71.9875 84.1301 69.4888 86.8353 66.8043 89.334C63.5621 92.349 60.4026 95.4465 57.1812 98.4822C54.352 101.167 51.5642 103.913 48.7558 106.618C48.4873 106.887 48.2188 107.155 47.9504 107.403C44.3159 110.831 40.6814 114.259 37.1502 117.79C35.9731 118.967 35.7046 120.372 36.2003 121.941C36.7165 123.573 37.9142 124.46 39.5663 124.729C41.0531 124.977 42.2922 124.378 43.3453 123.366C44.7496 122.003 46.1744 120.661 47.5787 119.319C51.1306 115.911 54.6618 112.504 58.2343 109.117C62.8187 104.739 67.3825 100.32 71.9463 95.9215C72.8549 95.0542 73.8048 94.1869 74.7341 93.3195C74.8786 93.1956 75.0025 93.0511 75.271 93.113C75.4362 93.3195 75.3949 93.588 75.3949 93.8358C75.3949 94.5792 75.3949 95.3433 75.3949 96.0867C75.3742 101.373 75.3742 106.68 75.3949 111.967C75.3949 112.793 75.1884 113.412 74.4863 113.867C74.0939 114.135 73.7222 114.466 73.3505 114.775C68.6009 118.637 63.8513 122.478 59.1016 126.34C57.6561 127.517 56.1693 128.653 54.8063 129.954C53.2369 131.461 53.175 133.671 54.4966 135.385C55.7563 136.995 58.0691 137.408 59.8864 136.314C60.32 136.066 60.7124 135.777 61.0841 135.467C64.161 133.01 67.2173 130.511 70.2736 128.033C71.6158 126.939 72.9375 125.844 74.2798 124.75L78.4925 121.156C79.0707 120.661 79.9173 120.681 80.4749 121.198L84.2746 124.667Z" fill="#F2A62A"/>
<path d="M63.7477 32.0704C63.9542 41.9207 63.9542 52.8861 64.0575 63.8515C64.0782 66.6186 64.0988 69.4065 64.2227 72.1736C64.3053 73.9289 63.7271 75.2712 62.3435 76.3863C60.8567 77.584 59.5144 78.9676 58.1308 80.2893C54.868 83.3868 51.6053 86.4844 48.3218 89.582C44.5634 93.1339 40.8051 96.6857 37.0054 100.217C34.3621 102.674 31.7395 105.132 29.1375 107.63C28.1463 108.601 27.0312 109.303 25.5443 109.262C22.3848 109.179 20.485 105.793 22.0751 103.087C22.4055 102.53 22.8185 102.055 23.2728 101.621C25.2346 99.804 27.1757 97.9867 29.1169 96.1695C33.66 91.9155 38.2031 87.6615 42.7462 83.4075C43.8613 82.3543 44.9765 81.2805 46.1122 80.248C49.0653 77.5221 51.9563 74.7343 54.8887 72.0084C55.5289 71.4302 55.7767 70.79 55.756 69.9434C55.6528 64.058 55.6941 58.1519 55.5082 52.2666C55.3017 45.6171 55.4256 38.9883 55.3223 32.3388C55.281 29.5304 55.3017 26.7013 55.3017 23.8928C55.3017 23.17 55.3223 22.4679 55.4875 21.7658C55.9832 19.7007 57.5732 18.565 59.9481 18.6269C61.7653 18.6682 63.1489 19.9279 63.5412 21.9103C63.6858 22.6125 63.7271 23.3146 63.7271 24.0373C63.7477 26.3089 63.7477 28.6424 63.7477 32.0704Z" fill="#F2A62A"/>
<path d="M96.8713 32.0704C96.6648 41.9207 96.6648 52.8861 96.5616 63.8515C96.5409 66.6186 96.5203 69.4065 96.3964 72.1736C96.3138 73.9289 96.892 75.2712 98.2756 76.3863C99.7624 77.584 101.105 78.9676 102.488 80.2893C105.751 83.3868 109.014 86.4844 112.297 89.582C116.056 93.1339 119.814 96.6857 123.614 100.217C126.257 102.674 128.88 105.132 131.482 107.63C132.473 108.601 133.588 109.303 135.075 109.262C138.234 109.179 140.134 105.793 138.544 103.087C138.214 102.53 137.801 102.055 137.346 101.621C135.385 99.804 133.443 97.9867 131.502 96.1695C126.959 91.9155 122.416 87.6615 117.873 83.4075C116.758 82.3543 115.643 81.2805 114.507 80.248C111.554 77.5221 108.663 74.7343 105.73 72.0084C105.09 71.4302 104.842 70.79 104.863 69.9434C104.966 64.058 104.925 58.1519 105.111 52.2666C105.317 45.6171 105.193 38.9883 105.297 32.3388C105.338 29.5304 105.317 26.7013 105.317 23.8928C105.317 23.17 105.297 22.4679 105.132 21.7658C104.636 19.7007 103.046 18.565 100.671 18.6269C98.8538 18.6682 97.4702 19.9279 97.0778 21.9103C96.9333 22.6125 96.892 23.3146 96.892 24.0373C96.8713 26.3089 96.8713 28.6424 96.8713 32.0704Z" fill="#F2A62A"/>
<path d="M116.221 61.931C116.489 54.3522 116.366 46.7735 116.489 39.1948C116.51 37.3156 116.572 35.4364 116.634 33.5778C116.717 31.3682 118.245 29.6956 120.392 29.4891C122.375 29.3032 124.192 30.6248 124.75 32.6692C125.039 33.7018 125.039 34.7549 124.935 35.8081C124.853 36.7167 124.832 37.6047 124.812 38.5133C124.791 42.2717 124.812 46.0301 124.75 49.7678C124.667 54.5794 124.543 59.3703 124.543 64.1819C124.543 65.0285 124.832 65.6068 125.41 66.2469C126.897 67.9609 128.095 69.0141 129.355 70.2531C131.316 72.1736 133.113 73.7637 135.075 75.6842C135.323 75.932 135.55 76.1591 135.777 76.407C137.264 78.0177 137.388 80.2686 136.066 81.838C134.6 83.5933 132.411 83.9237 130.511 82.6847C130.139 82.4369 129.788 82.1478 129.458 81.838C125.885 78.3481 122.313 74.8582 118.74 71.3682C118.369 70.9965 118.018 70.6042 117.646 70.2325C116.613 69.1793 116.18 67.899 116.18 66.4534C116.221 64.9459 116.221 63.4384 116.221 61.931Z" fill="#F2A62A"/>
<path d="M42.8708 61.931C42.6023 54.3522 42.7262 46.7735 42.6023 39.1948C42.5816 37.3156 42.5197 35.4364 42.4577 33.5778C42.3751 31.3682 40.847 29.6956 38.6994 29.4891C36.7169 29.3032 34.8997 30.6248 34.3421 32.6692C34.053 33.7018 34.053 34.7549 34.1562 35.8081C34.2389 36.7167 34.2595 37.6047 34.2802 38.5133C34.3008 42.2717 34.2802 46.0301 34.3421 49.7678C34.4247 54.5794 34.5486 59.3703 34.5486 64.1819C34.5486 65.0285 34.2595 65.6068 33.6813 66.2469C32.1945 67.9609 30.9967 69.0141 29.737 70.2531C27.7753 72.1736 25.9787 73.7637 24.0169 75.6842C23.7691 75.932 23.5419 76.1591 23.3147 76.407C21.8279 78.0177 21.704 80.2686 23.0256 81.838C24.4918 83.5933 26.6808 83.9237 28.5806 82.6847C28.9523 82.4369 29.3034 82.1478 29.6338 81.838C33.2063 78.3481 36.7789 74.8582 40.3514 71.3682C40.7231 70.9965 41.0742 70.6042 41.4459 70.2325C42.4784 69.1793 42.9121 67.899 42.9121 66.4534C42.8708 64.9459 42.8708 63.4384 42.8708 61.931Z" fill="#F2A62A"/>
<path d="M25.1115 198.844L20.0315 191.244C19.7424 190.811 19.2468 190.542 18.7305 190.542H16.2937C15.4264 190.542 14.7243 191.244 14.7243 192.112V197.956C14.7243 198.823 14.0222 199.525 13.1549 199.525H10.1192C9.25192 199.525 8.5498 198.823 8.5498 197.956V173.031C8.5498 172.163 9.25192 171.461 10.1192 171.461H21.3738C24.7191 171.461 27.3211 172.267 29.1796 173.898C31.0382 175.529 31.9675 177.801 31.9675 180.713V180.795C31.9675 183.067 31.4099 184.925 30.2948 186.35C29.5307 187.341 28.6014 188.147 27.5276 188.766C26.7222 189.221 26.4744 190.253 26.9907 191.017L31.1208 197.068C31.8436 198.1 31.0795 199.525 29.8198 199.525H26.4125C25.8962 199.525 25.4006 199.277 25.1115 198.844ZM25.7104 181.043C25.7104 179.701 25.2767 178.709 24.43 178.028C23.5834 177.367 22.3856 177.016 20.8575 177.016H16.2937C15.4264 177.016 14.7243 177.718 14.7243 178.586V183.5C14.7243 184.368 15.4264 185.07 16.2937 185.07H20.9814C22.5095 185.07 23.666 184.719 24.492 183.996C25.2973 183.273 25.7104 182.303 25.7104 181.105V181.043Z" fill="#F2A62A" stroke="#F2A62A" stroke-miterlimit="10"/>
<path d="M64.9871 191.141C64.2437 192.896 63.2112 194.424 61.8895 195.746C60.5679 197.068 58.9985 198.121 57.1606 198.864C55.3227 199.628 53.3402 200 51.1719 200C49.0036 200 47.0212 199.628 45.2039 198.864C43.3867 198.1 41.8172 197.068 40.4956 195.787C39.174 194.486 38.1415 192.958 37.4187 191.224C36.6753 189.468 36.3242 187.589 36.3242 185.586V185.503C36.3242 183.5 36.6959 181.621 37.4393 179.866C38.1828 178.111 39.2153 176.582 40.5369 175.261C41.8586 173.939 43.428 172.886 45.2659 172.143C47.1038 171.379 49.0862 171.007 51.2545 171.007C53.4228 171.007 55.4053 171.379 57.2225 172.143C59.0398 172.907 60.6092 173.939 61.9308 175.22C63.2525 176.521 64.285 178.049 65.0077 179.783C65.7512 181.539 66.1022 183.418 66.1022 185.421V185.503C66.1229 187.507 65.7512 189.386 64.9871 191.141ZM59.6593 185.503C59.6593 184.306 59.4528 183.17 59.0398 182.096C58.6267 181.022 58.0279 180.093 57.2845 179.288C56.5204 178.482 55.6118 177.842 54.5793 177.388C53.5467 176.913 52.3903 176.686 51.1719 176.686C49.9122 176.686 48.7765 176.913 47.7439 177.367C46.7114 177.821 45.8234 178.441 45.1007 179.246C44.3573 180.052 43.7997 180.981 43.3867 182.034C42.9737 183.087 42.7672 184.223 42.7672 185.421V185.503C42.7672 186.701 42.9737 187.837 43.3867 188.911C43.7997 189.985 44.3986 190.914 45.142 191.719C45.906 192.525 46.794 193.165 47.8265 193.619C48.8591 194.094 49.9948 194.321 51.2545 194.321C52.4936 194.321 53.6293 194.094 54.6619 193.64C55.6944 193.185 56.5823 192.566 57.3258 191.761C58.0692 190.955 58.6267 190.026 59.0398 188.973C59.4528 187.92 59.6593 186.784 59.6593 185.586V185.503Z" fill="#F2A62A" stroke="#F2A62A" stroke-miterlimit="10"/>
<path d="M99.0818 191.141C98.3384 192.896 97.3059 194.424 95.9842 195.746C94.6626 197.068 93.0932 198.121 91.2553 198.864C89.4174 199.628 87.4349 200 85.2666 200C83.0983 200 81.1159 199.628 79.2987 198.864C77.4814 198.1 75.912 197.068 74.5903 195.787C73.2687 194.486 72.2362 192.958 71.5134 191.224C70.77 189.468 70.4189 187.589 70.4189 185.586V185.503C70.4189 183.5 70.7907 181.621 71.5341 179.866C72.2775 178.111 73.31 176.582 74.6316 175.261C75.9533 173.939 77.5227 172.886 79.3606 172.143C81.1985 171.379 83.1809 171.007 85.3492 171.007C87.5175 171.007 89.5 171.379 91.3172 172.143C93.1345 172.907 94.7039 173.939 96.0255 175.22C97.3472 176.521 98.3797 178.049 99.1025 179.783C99.8459 181.539 100.197 183.418 100.197 185.421V185.503C100.197 187.507 99.8252 189.386 99.0818 191.141ZM93.7333 185.503C93.7333 184.306 93.5268 183.17 93.1138 182.096C92.7008 181.022 92.102 180.093 91.3585 179.288C90.5945 178.482 89.6859 177.842 88.6533 177.388C87.6208 176.913 86.4644 176.686 85.246 176.686C83.9863 176.686 82.8505 176.913 81.818 177.367C80.7855 177.821 79.8975 178.441 79.1748 179.246C78.4313 180.052 77.8738 180.981 77.4608 182.034C77.0478 183.087 76.8412 184.223 76.8412 185.421V185.503C76.8412 186.701 77.0478 187.837 77.4608 188.911C77.8738 189.985 78.4726 190.914 79.2161 191.719C79.9801 192.525 80.8681 193.165 81.9006 193.619C82.9331 194.094 84.0689 194.321 85.3286 194.321C86.5676 194.321 87.7034 194.094 88.7359 193.64C89.7685 193.185 90.6564 192.566 91.3998 191.761C92.1433 190.955 92.7008 190.026 93.1138 188.973C93.5268 187.92 93.7333 186.784 93.7333 185.586V185.503Z" fill="#F2A62A" stroke="#F2A62A" stroke-miterlimit="10"/>
<path d="M118.39 178.751V197.935C118.39 198.823 117.688 199.525 116.8 199.525H113.805C112.917 199.525 112.215 198.823 112.215 197.935V178.751C112.215 177.863 111.513 177.161 110.625 177.161H105.277C104.389 177.161 103.687 176.459 103.687 175.571V173.051C103.687 172.163 104.389 171.461 105.277 171.461H125.349C126.237 171.461 126.939 172.163 126.939 173.051V175.571C126.939 176.459 126.237 177.161 125.349 177.161H120C119.112 177.161 118.39 177.883 118.39 178.751Z" fill="#F2A62A" stroke="#F2A62A" stroke-miterlimit="10"/>
<path d="M151.203 194.941C150.707 196.014 149.985 196.923 149.097 197.667C148.188 198.41 147.114 198.968 145.855 199.36C144.595 199.752 143.211 199.938 141.683 199.938C139.536 199.938 137.45 199.566 135.385 198.844C133.836 198.286 132.39 197.501 131.048 196.51C130.325 195.973 130.202 194.941 130.78 194.259L132.473 192.235C132.989 191.616 133.919 191.492 134.579 191.967C135.488 192.607 136.417 193.144 137.367 193.578C138.71 194.197 140.196 194.507 141.807 194.507C143.087 194.507 144.079 194.28 144.801 193.805C145.504 193.33 145.855 192.69 145.855 191.864V191.781C145.855 191.389 145.772 191.017 145.627 190.728C145.483 190.418 145.194 190.129 144.781 189.861C144.368 189.592 143.79 189.324 143.046 189.055C142.303 188.787 141.353 188.498 140.176 188.209C138.751 187.858 137.47 187.465 136.314 187.052C135.158 186.619 134.187 186.102 133.382 185.462C132.576 184.843 131.957 184.058 131.502 183.108C131.069 182.179 130.842 181.002 130.842 179.618V179.535C130.842 178.255 131.089 177.099 131.564 176.066C132.039 175.034 132.721 174.146 133.568 173.402C134.435 172.659 135.467 172.081 136.665 171.688C137.863 171.296 139.184 171.089 140.63 171.089C142.695 171.089 144.574 171.399 146.309 172.019C147.527 172.452 148.684 173.03 149.758 173.733C150.501 174.208 150.687 175.199 150.191 175.922L148.704 178.069C148.229 178.751 147.321 178.937 146.598 178.524C145.772 178.028 144.946 177.615 144.161 177.285C142.964 176.789 141.766 176.541 140.547 176.541C139.35 176.541 138.441 176.768 137.842 177.243C137.243 177.718 136.934 178.296 136.934 178.978V179.06C136.934 179.515 137.016 179.907 137.202 180.238C137.367 180.568 137.698 180.878 138.152 181.146C138.606 181.415 139.226 181.662 140.031 181.91C140.816 182.158 141.828 182.426 143.025 182.757C144.45 183.129 145.71 183.562 146.825 184.017C147.94 184.492 148.87 185.049 149.634 185.71C150.398 186.371 150.976 187.135 151.368 188.023C151.761 188.911 151.946 189.964 151.946 191.182V191.265C151.946 192.628 151.699 193.867 151.203 194.941Z" fill="#F2A62A" stroke="#F2A62A" stroke-miterlimit="10"/>
</svg>
