<svg width="25" height="21" viewBox="0 0 25 21" fill="none" xmlns="http://www.w3.org/2000/svg">
<g clip-path="url(#clip0_308_1044)">
<path d="M2.15226 1.05884C1.45226 1.05884 0.934868 1.57399 0.934868 2.27096C0.934868 2.96793 1.45226 3.48308 2.15226 3.48308H21.0218V1.05884H2.15226ZM0.326172 3.8467V19.5134C0.326172 20.3619 0.995737 21.0285 1.84791 21.0285H23.1523C24.0044 21.0285 24.674 20.3619 24.674 19.5134V16.18H15.2392C14.4175 16.18 13.7175 15.4831 13.7175 14.6649V11.0285C13.7175 10.2103 14.4175 9.51337 15.2392 9.51337H24.674V6.18004C24.674 5.33155 24.0044 4.66489 23.1523 4.66489L1.87835 4.63459C1.26965 4.60429 0.721824 4.30125 0.326172 3.8467ZM15.2392 10.7558C15.0566 10.7558 14.9349 10.877 14.9349 11.0588V14.6952C14.9349 14.877 15.0566 14.9982 15.2392 14.9982H24.674V10.7558H15.2392ZM18.2827 11.9679C18.8001 11.9679 19.1957 12.3619 19.1957 12.877C19.1957 13.3922 18.8001 13.7861 18.2827 13.7861C17.7653 13.7861 17.3696 13.3922 17.3696 12.877C17.3696 12.3619 17.7653 11.9679 18.2827 11.9679Z" fill="#F6F6F6"/>
</g>
<defs>
<clipPath id="clip0_308_1044">
<rect width="24.3478" height="20" fill="white" transform="translate(0.326172 0.177734)"/>
</clipPath>
</defs>
</svg>
