<svg id="Alert-community" xmlns="http://www.w3.org/2000/svg" width="39.524" height="34.229" viewBox="0 0 39.524 34.229">
  <g id="Grupo_281" data-name="Grupo 281" transform="translate(12.41 15.894)">
    <path id="Trazado_261" data-name="Trazado 261" d="M922.209,349.446a3.971,3.971,0,1,1-3.971-3.991A3.981,3.981,0,0,1,922.209,349.446Z" transform="translate(-910.401 -345.455)" fill="#3f3f46" fill-rule="evenodd"/>
    <path id="Trazado_262" data-name="Trazado 262" d="M916.489,383.214a9.625,9.625,0,0,1-2.842,2.117,11.784,11.784,0,0,1-9.594,0,9.57,9.57,0,0,1-2.775-2.059.781.781,0,0,1-.173-.854l.313-.775.538-1.333a4.973,4.973,0,0,1,2.146-2.585,3.161,3.161,0,0,1,1.5-.386h6.667a3.028,3.028,0,0,1,.325.017,4.423,4.423,0,0,1,3.395,3.158l.62,1.681.067.181A.789.789,0,0,1,916.489,383.214Z" transform="translate(-901.047 -368.017)" fill="#3f3f46" fill-rule="evenodd"/>
  </g>
  <g id="Grupo_282" data-name="Grupo 282" transform="translate(25.031 12.07)">
    <path id="Trazado_263" data-name="Trazado 263" d="M962.475,336.229a3.831,3.831,0,1,1-3.831-3.85A3.841,3.841,0,0,1,962.475,336.229Z" transform="translate(-951.712 -332.379)" fill="#3f3f46" fill-rule="evenodd"/>
    <path id="Trazado_264" data-name="Trazado 264" d="M958.476,368.806a9.23,9.23,0,0,1-2.74,2.041,11.337,11.337,0,0,1-7.512.611l-.62-1.681a4.423,4.423,0,0,0-3.4-3.158l.249-.614a4.048,4.048,0,0,1,3.515-2.866h6.43c1.512,0,2.892,1.178,3.591,3.061l.661,1.8A.756.756,0,0,1,958.476,368.806Z" transform="translate(-944.21 -354.145)" fill="#3f3f46" fill-rule="evenodd"/>
  </g>
  <g id="Grupo_283" data-name="Grupo 283" transform="translate(0 12.07)">
    <path id="Trazado_265" data-name="Trazado 265" d="M879.021,336.229a3.831,3.831,0,1,1-3.831-3.85A3.841,3.841,0,0,1,879.021,336.229Z" transform="translate(-867.63 -332.379)" fill="#3f3f46" fill-rule="evenodd"/>
    <path id="Trazado_266" data-name="Trazado 266" d="M873.307,366.987a4.973,4.973,0,0,0-2.146,2.585l-.538,1.333a11.348,11.348,0,0,1-9.117-.058,9.142,9.142,0,0,1-2.675-1.985.748.748,0,0,1-.167-.825l.819-2.032A4.054,4.054,0,0,1,863,363.139h6.433c1.509,0,2.889,1.178,3.588,3.061Z" transform="translate(-858.606 -354.145)" fill="#3f3f46" fill-rule="evenodd"/>
  </g>
  <path id="exclamation-circle-filled-2" d="M918.143,297.934a6.835,6.835,0,1,1-2-4.833A6.835,6.835,0,0,1,918.143,297.934Zm-5.981,3.418a.854.854,0,1,1-.25-.6A.854.854,0,0,1,912.162,301.352Zm-.854-7.69a.854.854,0,0,0-.854.854v3.418a.854.854,0,1,0,1.709,0v-3.418A.854.854,0,0,0,911.307,293.662Z" transform="translate(-891.06 -291.099)" fill="#3f3f46" fill-rule="evenodd"/>
</svg>
