<svg id="bell" xmlns="http://www.w3.org/2000/svg" width="15.77" height="17.738" viewBox="0 0 15.77 17.738">
  <path id="bell_1_" data-name="bell (1)" d="M10.885,2A6.814,6.814,0,0,0,6.106,3.948a6.6,6.6,0,0,0-1.98,4.7v3.975l-.8.784a1.1,1.1,0,0,0-.308.568,1.092,1.092,0,0,0,.064.64,1.113,1.113,0,0,0,.415.5,1.139,1.139,0,0,0,.626.187H17.644a1.139,1.139,0,0,0,.626-.187,1.113,1.113,0,0,0,.415-.5,1.092,1.092,0,0,0,.064-.64,1.1,1.1,0,0,0-.308-.568l-.8-.784V8.652a6.6,6.6,0,0,0-1.98-4.7A6.814,6.814,0,0,0,10.885,2Zm0,17.738a3.407,3.407,0,0,1-2.39-.974,3.3,3.3,0,0,1-.99-2.352h6.759a3.3,3.3,0,0,1-.99,2.352A3.407,3.407,0,0,1,10.885,19.738Z" transform="translate(-3 -2)" fill="#19829b"/>
</svg>
