<svg xmlns="http://www.w3.org/2000/svg" width="26" height="23.333" viewBox="0 0 26 23.333">
  <defs>
    <style>
      .cls-1 {
        fill: none;
        stroke: #3f3f46;
        stroke-linecap: round;
        stroke-linejoin: round;
        stroke-width: 2px;
      }
    </style>
  </defs>
  <g id="camera" transform="translate(1 1)">
    <path id="Trazado_5" data-name="Trazado 5" class="cls-1" d="M3.781,8.781A2.667,2.667,0,0,0,3,10.667v12a2.667,2.667,0,0,0,2.667,2.667H24.333A2.667,2.667,0,0,0,27,22.667v-12A2.667,2.667,0,0,0,24.333,8h-1.24a2.666,2.666,0,0,1-2.219-1.187L19.792,5.187A2.667,2.667,0,0,0,17.573,4H12.427a2.667,2.667,0,0,0-2.219,1.187L9.125,6.813A2.667,2.667,0,0,1,6.907,8H5.667A2.667,2.667,0,0,0,3.781,8.781Z" transform="translate(-3 -4)"/>
    <path id="Trazado_6" data-name="Trazado 6" class="cls-1" d="M15.473,16.473a3.792,3.792,0,1,0-2.681,1.111A3.792,3.792,0,0,0,15.473,16.473Z" transform="translate(-0.792 -1.592)"/>
  </g>
</svg>
