<svg xmlns="http://www.w3.org/2000/svg" xmlns:xlink="http://www.w3.org/1999/xlink" width="29.174" height="41.536" viewBox="0 0 29.174 41.536">
  <defs>
    <linearGradient id="linear-gradient" x1="0.5" x2="0.5" y2="1" gradientUnits="objectBoundingBox">
      <stop offset="0" stop-color="#f4f4f5"/>
      <stop offset="1" stop-color="#f6f6f6" stop-opacity="0.851"/>
    </linearGradient>
  </defs>
  <g id="city-fire" transform="translate(-846.816 -250.979)">
    <g id="Grupo_275" data-name="Grupo 275" transform="translate(846.816 250.979)">
      <path id="Trazado_243" data-name="Trazado 243" d="M855.434,272.963c-2.278.675-2.6-1.837-1.566-2.876-.161.126-2.95,2.374-2.38,5.17a6.613,6.613,0,0,0,.4,1.316,4.823,4.823,0,0,1-5-4.229c-.57-2.8,2.22-5.046,2.38-5.17-1.03,1.039-.712,3.548,1.569,2.873s.191-5.219.012-6.794a2.5,2.5,0,0,1,1.483-2.34c-1.35,1.785,1.708,3.715,3.431,6.606C856.322,269.511,857.229,272.433,855.434,272.963Z" transform="translate(-846.816 -258.333)" fill="url(#linear-gradient)"/>
      <path id="Trazado_244" data-name="Trazado 244" d="M899.7,261.148a4.943,4.943,0,0,1-.049.712v.006a7.675,7.675,0,0,1-1.316,2.022c-1.89.13-2.081-2.2-1.073-3.218-.173.136-3.178,2.558-2.568,5.576.028.133.056.265.092.392a6.234,6.234,0,0,1-1.384-.154c-.071-2.731-2-4.769-3.4-6.452a7.534,7.534,0,0,1,2.127-2.793c-1.03,1.039-.712,3.548,1.566,2.873s.194-5.222.016-6.8a2.5,2.5,0,0,1,1.48-2.337C893.361,253.411,899.7,256.111,899.7,261.148Z" transform="translate(-878.79 -250.979)" fill="url(#linear-gradient)"/>
      <path id="Trazado_245" data-name="Trazado 245" d="M931.192,288.628a2.116,2.116,0,0,1,.043,2.913,0,0,0,0,1,0,0,.166.166,0,0,0-.031.022.447.447,0,0,1-.077.055c-.028.019-.056.034-.08.049a.027.027,0,0,1-.019.009,1.962,1.962,0,0,1-1.532.058c-2.469-.731-.21-5.647-.015-7.352a2.19,2.19,0,0,0-.518-1.726,17.319,17.319,0,0,0,1.874-2.435c.4.481.811.986,1.2,1.523-.549,1.991-1.541,5.04.293,5.583a1.8,1.8,0,0,0,1.443-.068,6.314,6.314,0,0,1-1.138,2.873A8.533,8.533,0,0,0,931.192,288.628Z" transform="translate(-907.172 -272.629)" fill="url(#linear-gradient)"/>
      <path id="Trazado_246" data-name="Trazado 246" d="M936.269,283.845a5.02,5.02,0,0,1-2.42,3.613,5.685,5.685,0,0,0-1.221-3.1,8.532,8.532,0,0,0-1.436-1.507,2.116,2.116,0,0,1,.043,2.913,0,0,0,0,1,0,0,.166.166,0,0,0-.031.022.449.449,0,0,1-.077.055c-.028.019-.056.034-.08.049a.027.027,0,0,1-.019.009,1.962,1.962,0,0,1-1.532.058c-2.469-.731-.21-5.647-.015-7.352a2.19,2.19,0,0,0-.518-1.726,17.321,17.321,0,0,0,1.874-2.435,1.724,1.724,0,0,0-.006-2.028,2.5,2.5,0,0,1,1.48,2.34,8.5,8.5,0,0,1-.277,1.212c-.549,1.991-1.541,5.04.293,5.583a1.8,1.8,0,0,0,1.443-.068,1.892,1.892,0,0,0,.123-2.805C934.049,278.8,936.839,281.049,936.269,283.845Z" transform="translate(-907.172 -266.848)" fill="url(#linear-gradient)"/>
    </g>
    <g id="Grupo_276" data-name="Grupo 276" transform="translate(848.335 266.072)">
      <path id="Trazado_247" data-name="Trazado 247" d="M885.071,309.861v3.367l-1.608-1.084a.727.727,0,0,0-1.15.484v21.566h-4.269V318.248a.792.792,0,0,0-.794-.792H871v-7.6a.767.767,0,0,1,.768-.767H884.3A.767.767,0,0,1,885.071,309.861Z" transform="translate(-866.242 -309.094)" fill="url(#linear-gradient)"/>
      <path id="Trazado_248" data-name="Trazado 248" d="M862.455,346.218h-9a.793.793,0,0,0-.792.792v16.008h10.58V347.01A.792.792,0,0,0,862.455,346.218Zm-6.285,9.536a.706.706,0,0,1-.705.705.708.708,0,0,1-.707-.705v-1.1a.706.706,0,0,1,.707-.705.709.709,0,0,1,.705.705Zm0-4.132a.706.706,0,0,1-1.413,0v-1.1a.706.706,0,0,1,1.205-.5.7.7,0,0,1,.208.5Zm2.493,4.132a.706.706,0,0,1-.706.705.7.7,0,0,1-.5-.207l-.029-.031a.7.7,0,0,1-.177-.467v-1.1a.705.705,0,0,1,1.411,0Zm0-4.132a.706.706,0,0,1-1.205.5l-.029-.031a.7.7,0,0,1-.177-.468v-1.1a.705.705,0,0,1,1.411,0Zm2.493,4.132a.706.706,0,0,1-.705.705.705.705,0,0,1-.705-.705v-1.1a.7.7,0,0,1,.705-.705.708.708,0,0,1,.705.705Zm0-4.132a.705.705,0,1,1-1.411,0v-1.1a.705.705,0,0,1,1.411,0Z" transform="translate(-852.667 -336.576)" fill="url(#linear-gradient)"/>
      <path id="Trazado_249" data-name="Trazado 249" d="M929.607,335.312a.541.541,0,0,0-.061-.048l-8.578-5.785-.435-.294a.655.655,0,0,0-1.039.437v20.7h10.3V335.7A.516.516,0,0,0,929.607,335.312Zm-6.752,7.745a.706.706,0,0,1-.705.705.708.708,0,0,1-.705-.705v-1.1a.706.706,0,0,1,.705-.705.708.708,0,0,1,.705.705Zm0-4.132a.7.7,0,0,1-1.2.5.7.7,0,0,1-.207-.5v-1.1a.7.7,0,0,1,1.2-.5.7.7,0,0,1,.207.5Zm2.493,4.132a.7.7,0,0,1-.705.705.708.708,0,0,1-.705-.705v-1.1a.706.706,0,0,1,.705-.705.705.705,0,0,1,.705.705Zm0-4.132a.705.705,0,0,1-1.411,0v-1.1a.705.705,0,1,1,1.411,0Zm2.493,4.132a.7.7,0,0,1-.705.705.708.708,0,0,1-.705-.705v-1.1a.706.706,0,0,1,.705-.705.705.705,0,0,1,.705.705Zm0-4.132a.7.7,0,0,1-1.2.5.7.7,0,0,1-.207-.5v-1.1a.705.705,0,1,1,1.411,0Z" transform="translate(-902.138 -323.879)" fill="url(#linear-gradient)"/>
    </g>
  </g>
</svg>
