<svg id="cloud-download-filled" xmlns="http://www.w3.org/2000/svg" width="24" height="27.118" viewBox="0 0 24 27.118">
  <defs>
    <style>
      .cls-1 {
        fill: #3f3f46;
        fill-rule: evenodd;
      }
    </style>
  </defs>
  <path id="cloud-download-filled-2" data-name="cloud-download-filled" class="cls-1" d="M2,13.79a5.251,5.251,0,0,0,5.251,5.251H12.5v3.88l-1.94-1.94A1.5,1.5,0,0,0,8.441,23.1l4.5,4.5a1.5,1.5,0,0,0,2.121,0l4.5-4.5a1.5,1.5,0,0,0-2.121-2.121l-1.94,1.94v-3.88h3.751A6.751,6.751,0,1,0,18.329,5.6,6,6,0,1,0,6.7,8.568,5.251,5.251,0,0,0,2,13.79Zm13.5,5.251h-3v-7.5a1.5,1.5,0,0,1,3,0Z" transform="translate(-2 -0.924)"/>
</svg>
