<svg xmlns="http://www.w3.org/2000/svg" width="38.964" height="28.25" viewBox="0 0 38.964 28.25">
  <g id="cloudy-2" transform="translate(1 1)">
    <path id="Trazado_189" data-name="Trazado 189" d="M788.43,532.536c-.029,0-.059.01-.089.01l-.091.03a9.979,9.979,0,0,0-7.689,7.84.543.543,0,0,0-.18,0,6.962,6.962,0,0,0-5.44,4.18h-.14a5.483,5.483,0,0,1-5.41-5.33,4.82,4.82,0,0,1,.019-.65,1.623,1.623,0,0,1,.04-.24,5.442,5.442,0,0,1,4.431-4.66,7.723,7.723,0,0,1,6.81-5.59q.345-.03.69-.03c.24,0,.48.01.71.03a2.717,2.717,0,0,1,.4.05l.331.06c.03.01.05.01.08.02.15.03.3.06.45.1a7.626,7.626,0,0,1,5.07,4.17A.009.009,0,0,1,788.43,532.536Z" transform="translate(-769.387 -528.096)" fill="none" stroke="#fff" stroke-linecap="round" stroke-linejoin="round" stroke-width="2"/>
    <path id="Trazado_190" data-name="Trazado 190" d="M806.351,547.816a6.975,6.975,0,0,1-6.97,6.53h-17.69a7.315,7.315,0,0,1-7.31-7.1v-.12a3.093,3.093,0,0,1,.02-.43,6.671,6.671,0,0,1,.54-2.1,6.962,6.962,0,0,1,5.44-4.18.543.543,0,0,1,.18,0,9.979,9.979,0,0,1,7.689-7.84l.091-.03c.03,0,.06-.01.089-.01a1.6,1.6,0,0,1,.211-.05.088.088,0,0,1,.05-.01,10.243,10.243,0,0,1,1.67-.14,5.349,5.349,0,0,1,.56.02,2.834,2.834,0,0,1,.41.03c.32.03.649.08.97.14.25.05.5.11.739.17a1.674,1.674,0,0,1,.22.05,10.378,10.378,0,0,1,7.4,8.65,1.251,1.251,0,0,1,.031.18A6.394,6.394,0,0,1,806.351,547.816Z" transform="translate(-769.387 -528.096)" fill="none" stroke="#fff" stroke-linecap="round" stroke-linejoin="round" stroke-width="2"/>
  </g>
</svg>
