<svg xmlns="http://www.w3.org/2000/svg" width="26" height="26" viewBox="0 0 26 26">
  <defs>
    <style>
      .cls-1 {
        fill: none;
        stroke: #3f3f46;
        stroke-linecap: round;
        stroke-linejoin: round;
        stroke-width: 2px;
      }
    </style>
  </defs>
  <g id="cog" transform="translate(1 1)">
    <path id="Trazado_7" data-name="Trazado 7" class="cls-1" d="M17.233,4.756a2.3,2.3,0,0,0-4.467,0,2.3,2.3,0,0,1-3.429,1.42,2.3,2.3,0,0,0-3.16,3.16,2.3,2.3,0,0,1-1.421,3.431,2.3,2.3,0,0,0,0,4.467,2.3,2.3,0,0,1,1.42,3.429,2.3,2.3,0,0,0,3.16,3.16,2.3,2.3,0,0,1,3.431,1.421,2.3,2.3,0,0,0,4.467,0,2.3,2.3,0,0,1,3.429-1.42,2.3,2.3,0,0,0,3.16-3.16,2.3,2.3,0,0,1,1.421-3.431,2.3,2.3,0,0,0,0-4.467,2.3,2.3,0,0,1-1.42-3.429,2.3,2.3,0,0,0-3.16-3.16,2.3,2.3,0,0,1-3.431-1.421Z" transform="translate(-3 -3)"/>
    <path id="Trazado_8" data-name="Trazado 8" class="cls-1" d="M14.121,14.121A3,3,0,1,0,12,15,3,3,0,0,0,14.121,14.121Z"/>
  </g>
</svg>
