<svg width="36" height="36" viewBox="0 0 36 36" fill="none" xmlns="http://www.w3.org/2000/svg">
<path d="M17.7778 0C14.2617 0 10.8245 1.04265 7.90098 2.9961C4.97744 4.94954 2.69882 7.72605 1.35326 10.9745C0.00770283 14.223 -0.344356 17.7975 0.341603 21.246C1.02756 24.6946 2.72073 27.8623 5.207 30.3486C7.69327 32.8348 10.861 34.528 14.3095 35.214C17.7581 35.8999 21.3326 35.5479 24.581 34.2023C27.8295 32.8567 30.606 30.5781 32.5595 27.6546C34.5129 24.731 35.5556 21.2939 35.5556 17.7778C35.5556 13.0628 33.6826 8.54097 30.3486 5.20699C27.0146 1.87301 22.4927 0 17.7778 0ZM4.96667 18.8889H2.27779C2.27779 18.5222 2.22223 18.1556 2.22223 17.7778C2.22223 17.4 2.22223 17.0333 2.27779 16.6667H4.96667V18.8889ZM16.6667 2.27778C17.0333 2.27778 17.4 2.22222 17.7778 2.22222C18.1556 2.22222 18.5222 2.22222 18.8889 2.27778V4.96667H16.6667V2.27778ZM18.8889 33.2778C18.5222 33.2778 18.1556 33.3333 17.7778 33.3333C17.4 33.3333 17.0333 33.3333 16.6667 33.2778V30.5889H18.8889V33.2778ZM30.5889 18.8889V16.6667H33.2778C33.2778 17.0333 33.3333 17.4 33.3333 17.7778C33.3333 18.1556 33.3333 18.5222 33.2778 18.8889H30.5889Z" fill="#F4F2DB"/>
</svg>
