<svg xmlns="http://www.w3.org/2000/svg" xmlns:xlink="http://www.w3.org/1999/xlink" width="39.116" height="35.229" viewBox="0 0 39.116 35.229">
  <defs>
    <linearGradient id="linear-gradient" x1="0.5" x2="0.5" y2="1" gradientUnits="objectBoundingBox">
      <stop offset="0" stop-color="#f77e6d"/>
      <stop offset="1" stop-color="#fb2558"/>
    </linearGradient>
  </defs>
  <path id="danger" d="M270.239,378.252l-14.446-25.023a5.1,5.1,0,0,0-8.839,0l-14.449,25.023a5.1,5.1,0,0,0,4.419,7.654H265.82A5.1,5.1,0,0,0,270.239,378.252Zm-13.089-5.678a5.9,5.9,0,0,1-1.045,2.533.308.308,0,0,0,0-.054,3.331,3.331,0,0,0-.318-1.083c-.071-.119-.14-.238-.205-.354-1.092-1.9-1.684-3.068-1.848-3.4a2.784,2.784,0,0,0-.943,1.676,2.618,2.618,0,0,0-.03.262,2.845,2.845,0,0,0,.137.964c.048.155.074.244.1.36a1.174,1.174,0,0,1,.015.5,1.323,1.323,0,0,1-2.625-.327,1.358,1.358,0,0,1,.211-.6,3.263,3.263,0,0,0-.268,4.47c-.08-.012-.161-.027-.241-.042a5.959,5.959,0,0,1-2.914-10.178,2.408,2.408,0,1,0,4.393,1.7,2.189,2.189,0,0,0-.03-.914c-.054-.211-.1-.369-.185-.649a5.039,5.039,0,0,1-.253-1.759c.012-.158.027-.318.054-.476a5.046,5.046,0,0,1,1.714-3.05c.3.607,1.381,2.732,3.36,6.19.125.211.247.426.375.646a5.911,5.911,0,0,1,.583,1.964A6.107,6.107,0,0,1,257.15,372.573Z" transform="translate(-231.814 -350.677)" fill="url(#linear-gradient)"/>
</svg>
