<svg id="Danger-gas" xmlns="http://www.w3.org/2000/svg" width="35.933" height="32.361" viewBox="0 0 35.933 32.361">
  <path id="Trazado_260" data-name="Trazado 260" d="M267.112,376.007l-13.27-22.986a4.688,4.688,0,0,0-8.12,0l-13.273,22.986a4.688,4.688,0,0,0,4.06,7.031h26.543A4.688,4.688,0,0,0,267.112,376.007Zm-12.024-5.216a5.423,5.423,0,0,1-.96,2.327.284.284,0,0,0,0-.049,3.06,3.06,0,0,0-.293-1c-.066-.109-.128-.219-.189-.325-1-1.747-1.547-2.819-1.7-3.125a2.557,2.557,0,0,0-.867,1.539,2.4,2.4,0,0,0-.027.241,2.614,2.614,0,0,0,.126.886c.044.142.068.224.1.331a1.079,1.079,0,0,1,.014.459,1.216,1.216,0,0,1-2.411-.3,1.247,1.247,0,0,1,.194-.555,3,3,0,0,0-.246,4.106c-.074-.011-.148-.025-.221-.038a5.474,5.474,0,0,1-2.676-9.35,2.212,2.212,0,1,0,4.035,1.561,2.011,2.011,0,0,0-.027-.839c-.049-.194-.1-.339-.169-.6a4.629,4.629,0,0,1-.232-1.616c.011-.145.025-.293.049-.437a4.635,4.635,0,0,1,1.575-2.8c.279.558,1.268,2.51,3.087,5.686.115.194.227.391.344.593a5.43,5.43,0,0,1,.536,1.8A5.61,5.61,0,0,1,255.088,370.791Z" transform="translate(-231.814 -350.677)" fill="#3f3f46"/>
</svg>
