<svg width="86" height="98" viewBox="0 0 86 98" fill="none" xmlns="http://www.w3.org/2000/svg">
<g opacity="0.8" clip-path="url(#clip0_126_608)">
<path d="M83.2567 35.0344C84.0917 33.2285 84.5688 31.1818 84.5688 29.0147C84.5688 21.0688 78.247 14.5676 70.3746 14.5676C68.824 8.18673 63.2179 3.4914 56.419 3.4914C53.6756 3.4914 51.0514 4.33415 48.9044 5.65848C46.2803 2.16708 42.1055 0 37.5729 0C30.4162 0 24.4523 5.2973 23.3787 12.2801C22.7824 12.1597 22.186 12.1597 21.5896 12.1597C13.7172 12.1597 7.27611 18.6609 7.27611 26.6069C7.27611 26.7273 7.27611 26.9681 7.27611 27.0885C2.98208 29.6167 0.119385 34.312 0.119385 39.6093C0.119385 44.0639 2.14712 48.0369 5.24837 50.6855C5.24837 51.1671 5.12909 51.769 5.12909 52.2506C5.12909 60.1966 11.5701 66.6978 19.4425 66.6978C22.3052 66.6978 24.8101 65.855 27.0764 64.4103C30.2969 67.6609 34.2331 66.5774 35.3066 70.7912C39.9585 87.887 32.5632 97.8796 32.5632 97.8796H49.8586C49.8586 97.8796 41.6284 78.0147 48.308 73.5602C49.9779 72.4767 51.7671 70.6708 53.437 68.7445C55.8226 70.43 58.6853 71.3931 61.7865 71.3931C69.6589 71.3931 76.1 65.0123 76.1 57.0663C81.8253 55.1401 86.0001 49.7224 86.0001 43.3415C86.0001 40.3317 84.9266 37.4423 83.2567 35.0344ZM34.2331 64.6511C32.0861 64.0491 30.4162 63.4472 29.1041 62.8452C31.0126 61.0393 32.5632 58.6315 33.1596 55.9828C34.7102 57.4275 36.4994 58.5111 38.4079 59.3538C39.2428 62.9656 38.885 65.9754 34.2331 64.6511ZM41.5091 65.3735C41.6284 63.5676 41.5091 61.8821 41.2706 60.5577C42.7019 60.9189 44.2525 61.1597 45.9224 61.2801C43.8947 67.059 41.2706 72.8378 41.5091 65.3735ZM44.9682 70.3096C46.9959 68.0221 48.1887 65.4939 48.7851 63.2064C49.3815 64.4103 50.0972 65.4939 50.9321 66.457C47.7116 68.6241 44.9682 70.3096 44.9682 70.3096Z" fill="white"/>
</g>
<defs>
<clipPath id="clip0_126_608">
<rect width="86" height="98" fill="white"/>
</clipPath>
</defs>
</svg>
