<svg width="83" height="99" viewBox="0 0 83 99" fill="none" xmlns="http://www.w3.org/2000/svg">
<g opacity="0.8">
<path d="M10.249 73.4791C4.03239 80.0681 0.924089 89.5762 0 93.5796L5.12449 98.0834C5.71255 90.8272 8.65283 83.9881 14.8694 76.5651C55.7814 71.7277 80.8158 67.474 83 0C27.8907 13.7617 -2.1002 16.3472 10.249 73.4791ZM67.0385 44.7047L67.2065 46.5396C60.1498 47.2068 51.917 43.537 45.0283 39.9506L32.0071 53.7957C38.8117 56.7983 46.5405 59.217 53.3451 57.7991L53.7652 59.634C46.2885 61.2187 38.0557 58.6332 30.663 55.297C26.2945 60.2179 21.8421 65.5557 17.9777 70.6434L16.4656 69.5591C18.4818 66.8902 20.498 64.3881 22.8502 61.5523C18.9018 55.6306 15.0374 48.6247 15.2055 42.0357L17.0536 42.1191C16.8856 48.1243 20.498 54.6298 24.0263 60.0511L38.2237 44.2043C33.6872 37.7821 28.8988 30.0255 28.5628 22.9362L30.4109 22.8528C30.663 29.4417 35.1994 36.8647 39.4838 42.7864L51.0769 30.943C48.7247 26.1055 47.3806 21.1847 48.5567 16.0136L50.4049 16.4306C49.3968 20.9345 50.5729 25.2715 52.5051 29.6085L71.5749 11.4264L72.835 12.7608C68.2986 16.9311 63.8461 21.1847 59.3937 25.4383C63.3421 26.1889 67.0385 26.1055 70.7348 24.2706L71.5749 25.9387C67.1225 28.1072 62.586 28.1072 57.7976 26.9396L46.0364 38.6162C52.7571 41.8689 60.4858 45.2885 67.0385 44.7047Z" fill="white"/>
</g>
</svg>
