<svg width="129" height="100" viewBox="0 0 129 100" fill="none" xmlns="http://www.w3.org/2000/svg">
<g opacity="0.8" clip-path="url(#clip0_126_516)">
<path d="M63.6042 16.7417C86.4479 16.7417 102.304 12.3312 102.304 8.37084C102.304 4.41044 86.4479 0 63.6042 0C40.7604 0 24.9042 4.41044 24.9042 8.37084C24.9042 12.3312 40.7604 16.7417 63.6042 16.7417ZM45.2396 4.32043C49.7188 2.9703 56.3479 2.16022 63.5146 2.16022C73.0104 2.16022 86.9854 3.78038 86.9854 8.37084C86.9854 12.9613 73.0104 14.5815 63.6042 14.5815C58.5875 14.5815 53.8396 14.2214 49.8083 13.5013C49.3604 13.4113 49.0021 12.9613 49.0917 12.4212C49.1812 11.8812 49.6292 11.6112 50.1667 11.7012C54.1083 12.4212 58.7667 12.7813 63.6937 12.7813C77.9375 12.7813 85.3729 9.90099 85.3729 8.37084C85.3729 6.84068 77.9375 3.9604 63.6937 3.9604C56.7958 3.9604 50.0771 4.77048 45.8667 6.0306C45.4188 6.21062 44.8812 5.94059 44.7021 5.40054C44.5229 4.95049 44.7917 4.41044 45.2396 4.32043ZM63.6042 9.27093C67.725 9.27093 70.1437 8.55085 70.4125 8.19082C70.7708 7.83078 71.3083 7.74077 71.6667 8.10081C72.025 8.46085 72.1146 9.0009 71.8458 9.36094C70.5021 11.0711 64.7687 11.1611 63.6042 11.1611C61.6333 11.1611 55.0042 10.9811 55.0042 8.46084C55.0042 5.94059 61.5437 5.76058 63.6042 5.76058C64.6792 5.76058 65.7542 5.85058 66.65 5.94059C67.1875 5.94059 67.5458 6.39064 67.4563 6.93069C67.3667 7.47075 67.0083 7.83078 66.4708 7.74077C65.575 7.65076 64.5896 7.65076 63.6042 7.65076C60.2896 7.65076 58.05 8.19082 57.1542 8.55085C58.05 8.73087 60.2896 9.27093 63.6042 9.27093ZM102.304 47.8848V61.9262C102.304 65.0765 103.2 68.1368 104.992 70.7471C107.59 74.6175 111.621 80.6481 120.669 84.4284H92.2708C91.375 84.4284 90.6583 84.7885 90.1208 85.5085C89.5833 86.1386 89.4042 87.0387 89.5833 87.8488C90.2104 90.9091 92.3604 96.0396 99.6167 99.91C89.9417 98.6499 71.3979 95.0495 65.7542 85.6886C65.3063 84.9685 64.5 84.5184 63.6937 84.5184C62.8875 84.5184 62.0813 84.9685 61.6333 85.6886C55.8104 95.4095 36.1021 98.9199 26.7854 100.09C33.2354 96.3096 36.8187 91.6292 38.5208 88.7489C39.0583 87.8488 39.0583 86.8587 38.6104 85.9586C38.1625 85.0585 37.1771 84.5184 36.1917 84.5184H6.53958C15.5875 80.7381 19.6187 74.7075 22.2167 70.8371C23.9187 68.2268 24.9042 65.1665 24.9042 62.0162V61.7462C24.9937 61.4761 24.9042 61.2061 24.725 60.9361L0 33.2133V24.2124L23.4708 38.8839C23.7396 39.0639 24.0979 39.0639 24.3667 38.8839C24.6354 38.7039 24.8146 38.4338 24.8146 38.0738V11.5212C26.9646 13.3213 30.8167 14.7615 35.7438 15.8416V15.9316V49.5049C35.7438 50.045 36.1917 50.405 36.6396 50.405C37.1771 50.405 37.5354 49.955 37.5354 49.5049V16.2016C41.4771 17.0117 45.9562 17.5518 50.6146 18.0018C50.6146 18.0918 50.6146 18.1818 50.6146 18.1818V36.9037C50.6146 37.4437 51.0625 37.8038 51.5104 37.8038C52.0479 37.8038 52.4062 37.3537 52.4062 36.9037V18.2718V18.1818C56.0792 18.4518 59.8417 18.5419 63.5146 18.5419C65.2167 18.5419 67.0083 18.5419 68.7104 18.4518V28.8929C68.7104 29.4329 69.0687 29.793 69.6062 29.793C70.1437 29.793 70.5021 29.3429 70.5021 28.8929V18.3618C76.6833 18.0918 82.775 17.4617 87.9708 16.5617V42.2142C87.9708 42.7543 88.3292 43.1143 88.8667 43.1143C89.4042 43.1143 89.7625 42.6643 89.7625 42.2142V16.2016C95.4062 15.0315 99.7958 13.5013 102.125 11.5212V24.5725C102.125 25.0225 102.483 25.4725 102.931 25.4725C103.11 25.4725 103.29 25.4725 103.469 25.3825L129 12.3312V21.4221L102.573 47.2547C102.394 47.4347 102.304 47.7048 102.304 47.8848Z" fill="white"/>
</g>
<defs>
<clipPath id="clip0_126_516">
<rect width="129" height="100" fill="white"/>
</clipPath>
</defs>
</svg>
