<svg width="10" height="23" viewBox="0 0 10 23" fill="none" xmlns="http://www.w3.org/2000/svg">
<g opacity="0.8" clip-path="url(#clip0_143_842)">
<path d="M7.93237 5.39354C7.75845 5.24803 7.58454 5.14133 7.40097 5.05402C7.21739 4.97642 7.02415 4.91821 6.80193 4.91821C6.76329 4.91821 6.7343 4.91821 6.70531 4.92791H3.29469C3.2657 4.92791 3.22705 4.91821 3.19807 4.91821C2.96618 4.91821 2.78261 4.97642 2.59903 5.05402C1.97101 5.34504 1.36232 5.98527 0.859903 7.09114C0.357488 8.197 0 9.76849 0 11.9608C0 12.3876 0.00966183 12.8339 0.0386473 13.3092C0.0676328 13.7166 0.405797 14.0367 0.811594 14.0367C0.830918 14.0367 0.84058 14.0367 0.859903 14.0367C1.28502 14.0076 1.61353 13.639 1.58454 13.2122C1.55556 12.766 1.54589 12.3585 1.54589 11.9608C1.54589 9.71999 1.95169 8.3037 2.38647 7.47916V12.8824L1.81642 21.7293C1.77778 22.3889 2.27053 22.9612 2.92754 23C3.58454 23.0388 4.15459 22.5441 4.19324 21.8845L4.68599 14.2016H5.29469L5.78744 21.8845C5.82609 22.5441 6.39613 23.0485 7.05314 23C7.71014 22.9612 8.21256 22.3889 8.16425 21.7293L7.5942 12.8824V7.46946C7.63285 7.54706 7.6715 7.62467 7.71014 7.71197C8.09662 8.56562 8.43478 9.9237 8.43478 11.9511C8.43478 12.3391 8.42512 12.7563 8.39614 13.2025C8.36715 13.6293 8.69565 13.9979 9.12077 14.027C9.1401 14.027 9.14976 14.027 9.16908 14.027C9.57488 14.027 9.91304 13.7069 9.94203 13.2995C9.97101 12.8242 9.98068 12.3779 9.98068 11.9511C9.98068 9.44837 9.51691 7.75077 8.90821 6.63521C8.61836 6.08228 8.28019 5.67486 7.93237 5.39354Z" fill="white"/>
<path d="M5.00472 4.36525C6.20534 4.36525 7.17864 3.38805 7.17864 2.18262C7.17864 0.977194 6.20534 0 5.00472 0C3.8041 0 2.83081 0.977194 2.83081 2.18262C2.83081 3.38805 3.8041 4.36525 5.00472 4.36525Z" fill="white"/>
</g>
<defs>
<clipPath id="clip0_143_842">
<rect width="10" height="23" fill="white"/>
</clipPath>
</defs>
</svg>
