<svg id="exclamation-circle-filled" xmlns="http://www.w3.org/2000/svg" width="24" height="24" viewBox="0 0 24 24">
  <defs>
    <style>
      .cls-1 {
        fill: #3f3f46;
        fill-rule: evenodd;
      }
    </style>
  </defs>
  <path id="exclamation-circle-filled-2" data-name="exclamation-circle-filled" class="cls-1" d="M26,14a12,12,0,1,1-3.515-8.485A12,12,0,0,1,26,14ZM15.5,20a1.5,1.5,0,1,1-.439-1.061A1.5,1.5,0,0,1,15.5,20ZM14,6.5A1.5,1.5,0,0,0,12.5,8v6a1.5,1.5,0,0,0,3,0V8A1.5,1.5,0,0,0,14,6.5Z" transform="translate(-2 -2)"/>
</svg>
