<svg id="exclamation-filled" xmlns="http://www.w3.org/2000/svg" width="24" height="22.029" viewBox="0 0 24 22.029">
  <defs>
    <style>
      .cls-1 {
        fill: #3f3f46;
        fill-rule: evenodd;
      }
    </style>
  </defs>
  <path id="exclamation-filled-2" data-name="exclamation-filled" class="cls-1" d="M11.659,3.693a3.164,3.164,0,0,1,5.517,0l8.83,15.7a3.164,3.164,0,0,1-2.757,4.716H5.587a3.164,3.164,0,0,1-2.758-4.716ZM16,19.362a1.583,1.583,0,1,1-.464-1.119A1.583,1.583,0,0,1,16,19.362ZM14.417,6.7a1.582,1.582,0,0,0-1.583,1.583v4.748a1.583,1.583,0,0,0,3.165,0V8.284A1.583,1.583,0,0,0,14.417,6.7Z" transform="translate(-2.417 -2.079)"/>
</svg>
