<svg id="eye-off-filled" xmlns="http://www.w3.org/2000/svg" width="23.843" height="19.959" viewBox="0 0 23.843 19.959">
  <path id="Trazado_17" data-name="Trazado 17" d="M4.115,2.363a1.235,1.235,0,0,0-1.739.015A1.256,1.256,0,0,0,2.361,4.13L19.731,21.621a1.235,1.235,0,0,0,1.739-.015,1.255,1.255,0,0,0,.015-1.751l-1.828-1.84a12.514,12.514,0,0,0,4.1-6.022A12.422,12.422,0,0,0,11.923,3.246a12.286,12.286,0,0,0-5.6,1.342L4.116,2.363ZM9.4,7.685,11.28,9.578a2.474,2.474,0,0,1,2.4.649,2.514,2.514,0,0,1,.645,2.412L16.2,14.531a5.023,5.023,0,0,0-.765-6.074A4.937,4.937,0,0,0,9.4,7.687Z" transform="translate(0.08 -2.012)" fill="white" fill-rule="evenodd"/>
  <path id="Trazado_18" data-name="Trazado 18" d="M16.61,20.2,12.97,16.561a5.386,5.386,0,0,1-5.039-5.037L2.985,6.578A13.438,13.438,0,0,0,.458,11.186,13.486,13.486,0,0,0,16.61,20.2Z" transform="translate(-0.458 -1.982)" fill="white"/>
</svg>
