<svg xmlns="http://www.w3.org/2000/svg" xmlns:xlink="http://www.w3.org/1999/xlink" width="23.243" height="38.867" viewBox="0 0 23.243 38.867">
  <defs>
    <linearGradient id="linear-gradient" x1="0.5" x2="0.5" y2="1" gradientUnits="objectBoundingBox">
      <stop offset="0" stop-color="#fd4f59"/>
      <stop offset="1" stop-color="#fe94a2"/>
      <stop offset="1" stop-color="#fb2558"/>
    </linearGradient>
    <linearGradient id="linear-gradient-2" x1="0.5" x2="0.5" y2="1" gradientUnits="objectBoundingBox">
      <stop offset="0" stop-color="#f77e6d"/>
      <stop offset="1" stop-color="#fb2558"/>
    </linearGradient>
  </defs>
  <g id="fire-map-alert" transform="translate(-998.115 -526.922)">
    <g id="Grupo_316" data-name="Grupo 316" transform="translate(998.115 526.922)">
      <path id="Trazado_270" data-name="Trazado 270" d="M1032.094,554.244v.126a11.6,11.6,0,0,1-.971,4.377,9.437,9.437,0,0,1-1.279,2.28s-.178.232-.41.541l-.82,1-2.064,2.531-1.388,1.7a1.057,1.057,0,0,1-.4-.172c-.017-.011-.028-.027-.044-.038-.033-.027-.066-.049-.093-.076a.7.7,0,0,0,.175.158c.005,0,.005.005.011.011a.86.86,0,0,1-.251-.2l-4.026-5-.677-.848c-.128-.177-.341-.466-.472-.647a0,0,0,0,1,0,0,11.76,11.76,0,0,1-1.915-6.03c-.006-.161-.009-.322-.009-.483a11.921,11.921,0,0,1,1.328-5.485s0-.008.005-.011c.142-.232.276-.466.4-.709,0,0,0-.005.006-.008a12.56,12.56,0,0,0-1.74-14.112,11.164,11.164,0,0,1,7.067,7.784.766.766,0,0,1,.027.1,10.77,10.77,0,0,1,.208,1.11c0,.005,0,.011,0,.022.008.087.02.177.027.27.008.071.02.145.028.221v.022c.005.033.005.06.011.093.017.158.038.322.054.491.011.09.017.177.027.265.017.18.033.36.055.545v.049c.082.875.144,1.8.156,2.585a8.535,8.535,0,0,0,.338,2.422,2.465,2.465,0,0,0,.137.5,2.539,2.539,0,0,0,.775,1.05,2.492,2.492,0,0,0,1.415.529h.12a2.476,2.476,0,0,0,2.471-2.253,1.525,1.525,0,0,0,.011-.229,4.356,4.356,0,0,0-.027-.567A11.592,11.592,0,0,1,1032.094,554.244Z" transform="translate(-1008.851 -533.061)" fill="url(#linear-gradient)"/>
      <path id="Trazado_271" data-name="Trazado 271" d="M1018.287,566.728l-3.909,4.789c-.027.033-.054.06-.082.087l-.005.005-.2.115a1.053,1.053,0,0,1-1.116-.066c-.016-.011-.027-.027-.043-.038-.033-.027-.065-.049-.093-.076a.686.686,0,0,0,.175.158c.005,0,.005.006.011.011a.872.872,0,0,1-.251-.2l-7.083-8.8-1.274-1.535a15.782,15.782,0,0,1-1.066-1.5c-.022-.038-.049-.092-.077-.136a11.59,11.59,0,0,1-1.3-5.346c0-.087,0-.175.006-.259a11.51,11.51,0,0,1,2.084-6.388c0-.005.005-.011.005-.016.054-.071.109-.142.158-.213s.1-.136.153-.2.1-.131.147-.191c1.055-1.367,1.644-1.8,1.912-2.2.325-.412.717-.826,1-1.2a13.324,13.324,0,0,0,1.388-1.839l.054-.087a11.14,11.14,0,0,0,1.737-5.989,11.287,11.287,0,0,0-.311-2.629c.09.03.182.06.272.092a12.577,12.577,0,0,1,1.74,14.112s0,.005-.005.008c-.139.232-.272.466-.4.709,0,0,0,.008-.005.011a11.921,11.921,0,0,0-1.328,5.485c0,.161,0,.322.008.483a11.759,11.759,0,0,0,1.915,6.03s0,0,0,0c.131.18.344.469.472.647l.677.848,4.026,5a.861.861,0,0,0,.25.2c-.005-.006-.005-.011-.011-.011a.691.691,0,0,1-.175-.158c.027.027.06.049.093.076.016.011.027.027.044.038A1.054,1.054,0,0,0,1018.287,566.728Z" transform="translate(-1001.977 -532.987)" fill="url(#linear-gradient-2)"/>
    </g>
  </g>
</svg>
