<svg id="Forest-fire" xmlns="http://www.w3.org/2000/svg" width="41.412" height="37.518" viewBox="0 0 41.412 37.518">
  <g id="Grupo_278" data-name="Grupo 278" transform="translate(-447.723 -115.98)" style="isolation: isolate">
    <path id="Trazado_230" data-name="Trazado 230" d="M463.726,130.752c-2.081.618-2.386-1.69-1.446-2.639a7.1,7.1,0,0,0-1.437,1.6l1.707,3.736a3.86,3.86,0,0,1-2.02.61.292.292,0,0,1-.087,0,4.411,4.411,0,0,1-4.546-3.884c-.54-2.639,2.186-4.738,2.186-4.738-.949.941-.662,3.257,1.428,2.639a1.268,1.268,0,0,0,.47-.244c1.289-1.1-.3-4.677-.453-5.992a2.291,2.291,0,0,1,1.359-2.142c-1.237,1.629,1.55,3.4,3.135,6.035C464.527,127.564,465.372,130.264,463.726,130.752Z" transform="translate(-1.046 -0.48)" fill="#3f3f46"/>
    <path id="Trazado_231" data-name="Trazado 231" d="M476.489,125.307a5.257,5.257,0,0,1-1.271,3.388c-1.716.1-1.89-2.029-.958-2.961a6.865,6.865,0,0,0-2.378,3.693,1.655,1.655,0,0,1,.671.749l.052.113a3.329,3.329,0,0,1-.592.052,1.287,1.287,0,0,1-.183.009,4.658,4.658,0,0,1-1.211-.148,4.567,4.567,0,0,1-1-.409,1.61,1.61,0,0,1,.749-.531,15.694,15.694,0,0,0-2.97-4.337,6.45,6.45,0,0,1,2.142-3.187c-.932.958-.636,3.24,1.446,2.621,2.1-.618.183-4.79.017-6.227a2.312,2.312,0,0,1,1.359-2.151C470.672,118.209,476.489,120.683,476.489,125.307Z" transform="translate(-2.54)" fill="#3f3f46"/>
    <path id="Trazado_232" data-name="Trazado 232" d="M464.62,138.115l-.035.078a4.408,4.408,0,0,1-3.518-2.647,4.03,4.03,0,0,1-.34-1.211,4.179,4.179,0,0,1,.74-3.135l1.707,3.736.392.862.1.209.749,1.655Z" transform="translate(-1.67 -1.965)" fill="#3f3f46"/>
    <path id="Trazado_235" data-name="Trazado 235" d="M483.124,130.769a4.367,4.367,0,0,1-.035.583,5.691,5.691,0,0,1-1.054,2.717,5.248,5.248,0,0,1-1.3,1.3,1.2,1.2,0,0,1-.174.113,4.111,4.111,0,0,1-2.229.723l.409-.88c-1.559-1.089.235-5.077.409-6.532a2.194,2.194,0,0,0-.505-1.6,17.314,17.314,0,0,0,1.724-2.229c.374.435.749.906,1.106,1.4-.366,1.324-.932,3.126-.575,4.206l1.359-2.978A6.588,6.588,0,0,1,483.124,130.769Z" transform="translate(-3.923 -1.159)" fill="#3f3f46"/>
    <path id="Trazado_236" data-name="Trazado 236" d="M485.353,133.247a4.414,4.414,0,0,1-2.229,3.318,4.308,4.308,0,0,1-2.412.566,3.993,3.993,0,0,1-2.517-.958,3.563,3.563,0,0,1-.287-.244c.122,0,.235,0,.357-.009h.044l.409-.88c-1.559-1.089.235-5.077.409-6.532a2.194,2.194,0,0,0-.505-1.6,17.314,17.314,0,0,0,1.724-2.229,1.606,1.606,0,0,0,.009-1.907,2.3,2.3,0,0,1,1.367,2.142,8.424,8.424,0,0,1-.27,1.167c-.366,1.324-.932,3.126-.575,4.206a1.218,1.218,0,0,0,.853.862,1.574,1.574,0,0,0,1.332-.078,1.731,1.731,0,0,0,.1-2.569S485.884,130.608,485.353,133.247Z" transform="translate(-3.897 -0.877)" fill="#3f3f46"/>
    <path id="Trazado_238" data-name="Trazado 238" d="M483.108,138a3.671,3.671,0,0,1-.07.967,4.781,4.781,0,0,1-3.222,3.945l-2.029-4.45L478,138l.183-.4a3.568,3.568,0,0,1-.287-.244c.122,0,.235,0,.357-.009h.044l.409-.88a1.346,1.346,0,0,0,.418.209,1.83,1.83,0,0,0,1.4-.052,1.2,1.2,0,0,0,.174-.113,1.932,1.932,0,0,0,0-2.665,7.689,7.689,0,0,1,1.3,1.367A5.244,5.244,0,0,1,483.108,138Z" transform="translate(-3.882 -2.307)" fill="#3f3f46"/>
    <g id="Grupo_277" data-name="Grupo 277" transform="translate(447.723 124.584)">
      <path id="Trazado_225" data-name="Trazado 225" d="M455.156,130.109" transform="translate(-448.683 -126.408)" fill="#3f3f46"/>
      <g id="Grupo_274" data-name="Grupo 274" transform="translate(26.182)">
        <path id="Trazado_239" data-name="Trazado 239" d="M492.2,144.619a17.218,17.218,0,0,1-6.932,2.29v2.952a.2.2,0,0,1-.131.183,2.933,2.933,0,0,1-.949.157,3.188,3.188,0,0,1-.949-.157.207.207,0,0,1-.139-.192v-2.944c-.3-.035-.662-.087-1.062-.148l-2.221-4.886-2.029-4.45.209-.453.183-.4.113-.253.409-.88.052-.122.087-.209,2.02-4.424,1.359-2.978.287-.636.087-.183a1.744,1.744,0,0,1,3.179,0l7.08,15.528A1.729,1.729,0,0,1,492.2,144.619Z" transform="translate(-477.787 -125.859)" fill="#3f3f46"/>
      </g>
      <g id="Grupo_275" data-name="Grupo 275" transform="translate(0 0.004)">
        <path id="Trazado_240" data-name="Trazado 240" d="M462.95,137.426l-.035.078-4.206,9.258c-.4.061-.766.113-1.071.148v2.944a.2.2,0,0,1-.131.192,3.188,3.188,0,0,1-.949.157,2.933,2.933,0,0,1-.949-.157.2.2,0,0,1-.131-.183V146.91a17.174,17.174,0,0,1-6.932-2.29,1.732,1.732,0,0,1-.662-2.2l7.089-15.528a1.736,1.736,0,0,1,3.17,0l.087.183.705,1.559.862,1.881,1.707,3.736.392.862.1.209.749,1.655Z" transform="translate(-447.723 -125.864)" fill="#3f3f46"/>
      </g>
      <g id="Grupo_276" data-name="Grupo 276" transform="translate(11.866 4.564)">
        <path id="Trazado_241" data-name="Trazado 241" d="M478.19,149.868a17.123,17.123,0,0,1-6.924,2.282V155.1a.186.186,0,0,1-.139.183,3.2,3.2,0,0,1-.949.165,3.14,3.14,0,0,1-.941-.165.2.2,0,0,1-.139-.183v-2.952a17.2,17.2,0,0,1-6.932-2.282,1.732,1.732,0,0,1-.653-2.2l4.32-9.484,1.733-3.806,1.028-2.247a1.59,1.59,0,0,1,.244-.383,1.61,1.61,0,0,1,.749-.531,1.687,1.687,0,0,1,1.315.044.947.947,0,0,1,.2.122,1.655,1.655,0,0,1,.671.749l.052.113.505,1.106v.009l.409.906,1.036,2.264.2.444,1.063,2.334,1.594,3.484,1.332,2.917.636,1.411.009.009.166.374.078.174c.009.009.009.009.009.017l.017.035.009.026A1.725,1.725,0,0,1,478.19,149.868Z" transform="translate(-461.349 -131.101)" fill="#3f3f46"/>
        <path id="Trazado_229" data-name="Trazado 229" d="M481.442,150.109l-.278-.61.25.547A.426.426,0,0,1,481.442,150.109Z" transform="translate(-463.907 -133.476)" fill="#3f3f46"/>
      </g>
    </g>
  </g>
</svg>
