<svg xmlns="http://www.w3.org/2000/svg" xmlns:xlink="http://www.w3.org/1999/xlink" width="50" height="50" viewBox="0 0 50 50">
  <defs>
    <linearGradient id="linear-gradient" x1="0.5" x2="0.5" y2="1" gradientUnits="objectBoundingBox">
      <stop offset="0" stop-color="#f77e6d"/>
      <stop offset="1" stop-color="#fb2558"/>
    </linearGradient>
  </defs>
  <g id="forest-fire-icon" transform="translate(-2694.616 163)">
    <rect id="Rectángulo_283" data-name="Rectángulo 283" width="50" height="50" rx="25" transform="translate(2694.616 -163)" fill="url(#linear-gradient)"/>
    <g id="Grupo_450" data-name="Grupo 450" transform="translate(2705.261 -151.737)">
      <path id="Trazado_318" data-name="Trazado 318" d="M1172.813,525.545a4.172,4.172,0,0,1-.116.454,1.224,1.224,0,0,0-2.2.046l-.06.133-.506,1.108a4.19,4.19,0,0,1-1.063-.556,5.266,5.266,0,0,1-1.434-2.632,8.115,8.115,0,0,0-.613-1.436c1.048-1.313,3.187-3.561,2.49-4.482a1.613,1.613,0,0,1,.956,1.505c-.116,1.016-1.464,3.945.008,4.381s1.674-1.184,1.009-1.853C1171.382,522.293,1173.18,523.741,1172.813,525.545Z" transform="translate(-1148.706 -518.18)" fill="#fff"/>
      <path id="Trazado_319" data-name="Trazado 319" d="M1094.611,525a2.947,2.947,0,0,1-.136.753,1.158,1.158,0,0,1-.542.3,1.285,1.285,0,0,1-1.076-2.166,5.908,5.908,0,0,0-1.313,1.5,1.222,1.222,0,0,0-1.5.652l-.909,1.993a3.468,3.468,0,0,1-1.307-2.218c-.38-1.871,1.484-3.373,1.59-3.457-.688.695-.476,2.373,1.048,1.923s.13-3.491.01-4.545a1.669,1.669,0,0,1,.991-1.562C1090.235,519.8,1094.836,522.048,1094.611,525Z" transform="translate(-1084.946 -518.18)" fill="#fff"/>
      <g id="Grupo_447" data-name="Grupo 447" transform="translate(0 7.15)">
        <path id="Trazado_320" data-name="Trazado 320" d="M1096.35,566.753" transform="translate(-1091.801 -564.152)" fill="#fff"/>
        <g id="Grupo_444" data-name="Grupo 444" transform="translate(18.406 0)">
          <path id="Trazado_321" data-name="Trazado 321" d="M1175.5,566.985a12,12,0,0,1-4.87,1.606v2.076a.134.134,0,0,1-.094.129,2.071,2.071,0,0,1-.667.112,2.142,2.142,0,0,1-.664-.112.138.138,0,0,1-.1-.13v-2.074c-.213-.024-.468-.056-.75-.1l-2.983-6.558.146-.321,0,0,.528-1.164.066-.145.217-.474,1.407-3.085.448-.984.506-1.108.06-.132a1.224,1.224,0,0,1,2.2-.046.377.377,0,0,1,.024.046l4.982,10.925A1.219,1.219,0,0,1,1175.5,566.985Z" transform="translate(-1165.377 -553.798)" fill="#fff"/>
        </g>
        <g id="Grupo_445" data-name="Grupo 445" transform="translate(0 0)">
          <path id="Trazado_322" data-name="Trazado 322" d="M1084.4,561.93l-2.983,6.559c-.283.048-.536.08-.751.1v2.074a.135.135,0,0,1-.1.13,2.14,2.14,0,0,1-.664.112,2.069,2.069,0,0,1-.666-.112.134.134,0,0,1-.095-.128v-2.076a12.013,12.013,0,0,1-4.87-1.606,1.22,1.22,0,0,1-.466-1.548l4.074-8.932.909-1.993a1.221,1.221,0,0,1,1.5-.652,1.19,1.19,0,0,1,.725.652l.06.133.783,1.716,1.06,2.327.735,1.608.066.145.53,1.164v0Z" transform="translate(-1073.693 -553.799)" fill="#fff"/>
        </g>
        <g id="Grupo_446" data-name="Grupo 446" transform="translate(8.34 3.214)">
          <path id="Trazado_323" data-name="Trazado 323" d="M1127.077,583a12.038,12.038,0,0,1-4.87,1.606v2.076a.133.133,0,0,1-.094.128,2.086,2.086,0,0,1-.669.113,2.132,2.132,0,0,1-.662-.113.135.135,0,0,1-.1-.13V584.6a12.015,12.015,0,0,1-4.872-1.606,1.22,1.22,0,0,1-.464-1.548l4.26-9.343.616-1.349.1-.231a1.2,1.2,0,0,1,.877-.693,1.223,1.223,0,0,1,1.2.436,1.185,1.185,0,0,1,.154.257l.685,1.5.867,1.9.749,1.64,2.054,4.5.451.994,0,0,.194.432.007.014A1.218,1.218,0,0,1,1127.077,583Z" transform="translate(-1115.238 -569.809)" fill="#fff"/>
          <path id="Trazado_324" data-name="Trazado 324" d="M1175.857,626.307l-.194-.432.174.383A.476.476,0,0,1,1175.857,626.307Z" transform="translate(-1163.533 -614.62)" fill="#fff"/>
        </g>
      </g>
      <path id="Trazado_325" data-name="Trazado 325" d="M1133.187,516.417v.012c0,.051,0,.1,0,.152s-.006.1-.012.144a.046.046,0,0,1,0,.014c-.01.09-.021.182-.039.269-.008.037-.018.078-.029.119s-.022.084-.033.127c-.006.022-.014.039-.019.059-.012.039-.026.078-.039.115s-.023.061-.037.09v0a.448.448,0,0,0-.022.051l-.01.022a.148.148,0,0,0-.016.033c-.023.053-.047.1-.068.15l-.007.014a.013.013,0,0,0,0,.008l-.094.166a.352.352,0,0,1-.029.053c-.011.019-.027.039-.039.061-.032.045-.059.086-.088.127s-.043.059-.066.088-.045.049-.068.07c0,0,0,0-.005.006a1.107,1.107,0,0,1-.09.074.99.99,0,0,1-.587.2h-.012a1,1,0,0,1-.992-.888.04.04,0,0,1,0-.014c0-.076,0-.156.006-.234a.017.017,0,0,1,0-.01,1.626,1.626,0,0,1,.434-.984,6.829,6.829,0,0,0-1.706,2.294,4.236,4.236,0,0,0-.121.445c-.012.058-.02.117-.027.174a3.37,3.37,0,0,0,0,.842h-.014a3.411,3.411,0,0,1-1.169-.219,3.489,3.489,0,0,1-1.345-.886l-.014-.014c-.027-.031-.054-.062-.08-.094a3.549,3.549,0,0,1-.715-1.421c-.017-.076-.033-.15-.047-.226,0-.037-.01-.072-.016-.109-.011-.076-.017-.15-.021-.228,0-.031,0-.064-.006-.1s0-.08,0-.119v-.016c0-.066,0-.133.008-.2,0-.049.006-.1.011-.149s.01-.1.018-.144a.218.218,0,0,0,0-.027c.006-.039.012-.076.019-.113a2.978,2.978,0,0,1,.082-.33.045.045,0,0,1,.008-.022c.021-.062.043-.121.068-.18s.043-.105.066-.156c.008-.02.016-.035.026-.055.018-.039.036-.076.057-.115s.037-.072.056-.107c.033-.063.067-.121.1-.178.021-.037.047-.074.07-.109a3.5,3.5,0,0,1,.287-.375c.023-.023.043-.047.064-.07s.033-.035.049-.053.033-.035.051-.049a.169.169,0,0,1,.033-.033.048.048,0,0,1,.026-.024.517.517,0,0,1,.049-.049c.018-.014.031-.029.049-.041.033-.029.066-.06.1-.088l0,0c.02-.017.039-.031.059-.047a.036.036,0,0,1,.012-.008l.031-.025.016-.01a.082.082,0,0,1,.016-.01s0,0,.006-.008,0,0,0,0a.074.074,0,0,0,.022-.014.323.323,0,0,1,.031-.021s0,0,0,0,0,0,.006,0l.02-.014a1.46,1.46,0,0,0-.123,1.878,1.158,1.158,0,0,0,1.267.224c.892-.263.871-1.339.64-2.458-.018-.07-.031-.139-.049-.209-.207-.906-.523-1.806-.58-2.306a1.826,1.826,0,0,1,1.082-1.706c-1.261,1.669,2.93,3.12,3.438,6.345.021.131.035.264.045.4,0,0,0,0,0,0C1133.185,516.257,1133.187,516.337,1133.187,516.417Z" transform="translate(-1115.439 -509.009)" fill="#fff"/>
    </g>
  </g>
</svg>
