<svg width="97" height="16" viewBox="0 0 97 16" fill="none" xmlns="http://www.w3.org/2000/svg">
<path d="M0.44228 0.999999H10.5023V2.46H2.02228V7.46H9.60228V8.9H2.02228V15H0.44228V0.999999ZM19.0393 8.14C19.5593 8.14 20.0393 8.07333 20.4793 7.94C20.9193 7.80667 21.2993 7.62 21.6193 7.38C21.9393 7.12667 22.1859 6.82667 22.3593 6.48C22.5459 6.12 22.6393 5.71333 22.6393 5.26V5.22C22.6393 4.35333 22.3259 3.68 21.6993 3.2C21.0726 2.70667 20.1926 2.46 19.0593 2.46H14.7393V8.14H19.0393ZM13.1593 0.999999H19.1793C20.0459 0.999999 20.8126 1.12667 21.4793 1.38C22.1593 1.62 22.7193 1.96 23.1593 2.4C23.5059 2.74667 23.7726 3.15333 23.9593 3.62C24.1459 4.08667 24.2393 4.6 24.2393 5.16V5.2C24.2393 5.78667 24.1459 6.31333 23.9593 6.78C23.7726 7.23333 23.5059 7.63333 23.1593 7.98C22.8259 8.31333 22.4259 8.59333 21.9593 8.82C21.4926 9.03333 20.9859 9.18667 20.4393 9.28L24.7393 15H22.7993L18.7393 9.56H18.6993H14.7393V15H13.1593V0.999999ZM33.7444 13.78C34.5444 13.78 35.2777 13.6333 35.9444 13.34C36.6244 13.0333 37.2044 12.62 37.6844 12.1C38.1644 11.58 38.5377 10.9733 38.8044 10.28C39.0844 9.58667 39.2244 8.84 39.2244 8.04V8C39.2244 7.2 39.0844 6.45333 38.8044 5.76C38.5377 5.05333 38.1577 4.44 37.6644 3.92C37.1711 3.4 36.5844 2.98667 35.9044 2.68C35.2377 2.37333 34.5044 2.22 33.7044 2.22C32.9044 2.22 32.1644 2.37333 31.4844 2.68C30.8177 2.97333 30.2444 3.38 29.7644 3.9C29.2844 4.42 28.9044 5.02667 28.6244 5.72C28.3577 6.41333 28.2244 7.16 28.2244 7.96V8C28.2244 8.8 28.3577 9.55333 28.6244 10.26C28.9044 10.9533 29.2911 11.56 29.7844 12.08C30.2777 12.6 30.8577 13.0133 31.5244 13.32C32.2044 13.6267 32.9444 13.78 33.7444 13.78ZM33.7044 15.24C32.6377 15.24 31.6644 15.0467 30.7844 14.66C29.9177 14.2733 29.1711 13.7533 28.5444 13.1C27.9177 12.4333 27.4311 11.6667 27.0844 10.8C26.7511 9.92 26.5844 9 26.5844 8.04V8C26.5844 7.04 26.7577 6.12 27.1044 5.24C27.4511 4.36 27.9377 3.59333 28.5644 2.94C29.1911 2.27333 29.9444 1.74667 30.8244 1.36C31.7044 0.96 32.6777 0.76 33.7444 0.76C34.8111 0.76 35.7777 0.953333 36.6444 1.34C37.5244 1.72667 38.2777 2.25333 38.9044 2.92C39.5311 3.57333 40.0111 4.34 40.3444 5.22C40.6911 6.08667 40.8644 7 40.8644 7.96C40.8777 7.97333 40.8777 7.98667 40.8644 8C40.8644 8.96 40.6911 9.88 40.3444 10.76C39.9977 11.64 39.5111 12.4133 38.8844 13.08C38.2577 13.7333 37.5044 14.26 36.6244 14.66C35.7444 15.0467 34.7711 15.24 33.7044 15.24ZM43.7886 0.999999H45.2686L54.0886 12.22V0.999999H55.6286V15H54.3686L45.3286 3.52V15H43.7886V0.999999ZM62.8814 2.46H58.1814V0.999999H69.1814V2.46H64.4814V15H62.8814V2.46ZM80.8221 9.88L77.6421 2.74L74.4421 9.88H80.8221ZM76.9221 0.899999H78.4021L84.7821 15H83.0821L81.4421 11.3H73.8221L72.1621 15H70.5421L76.9221 0.899999ZM87.1349 0.999999H88.7149V13.54H96.5949V15H87.1349V0.999999Z" fill="#FEFFFD"/>
</svg>
