<svg id="globe-alt-dark" xmlns="http://www.w3.org/2000/svg" width="24" height="24" viewBox="0 0 24 24">
  <defs>
    <style>
      .cls-1 {
        fill: #3f3f46;
        fill-rule: evenodd;
      }
    </style>
  </defs>
  <path id="globe-alt-dark-2" data-name="globe-alt-dark" class="cls-1" d="M5.125,12.5H8.043A20.265,20.265,0,0,1,9.3,6.323,9.006,9.006,0,0,0,5.125,12.5ZM14,2a12,12,0,1,0,8.485,3.515A12,12,0,0,0,14,2Zm0,3a1.057,1.057,0,0,0-.7.393A5.621,5.621,0,0,0,12.2,7.166,16.681,16.681,0,0,0,11.048,12.5h5.9A16.682,16.682,0,0,0,15.8,7.166,5.631,5.631,0,0,0,14.7,5.393,1.057,1.057,0,0,0,14,5Zm5.957,7.5A20.265,20.265,0,0,0,18.7,6.323,9.006,9.006,0,0,1,22.876,12.5Zm-3,3h-5.9A16.681,16.681,0,0,0,12.2,20.834,5.631,5.631,0,0,0,13.3,22.607,1.057,1.057,0,0,0,14,23a1.057,1.057,0,0,0,.7-.393A5.6,5.6,0,0,0,15.8,20.834,16.682,16.682,0,0,0,16.952,15.5ZM18.7,21.677A20.255,20.255,0,0,0,19.957,15.5h2.919A9.006,9.006,0,0,1,18.7,21.677Zm-9.4,0A20.222,20.222,0,0,1,8.045,15.5H5.125A9.006,9.006,0,0,0,9.3,21.677Z" transform="translate(-2 -2)"/>
</svg>
