<svg xmlns="http://www.w3.org/2000/svg" width="26" height="26" viewBox="0 0 26 26">
  <defs>
    <style>
      .cls-1 {
        fill: none;
        stroke: #3f3f46;
        stroke-linecap: round;
        stroke-linejoin: round;
        stroke-width: 2px;
      }
    </style>
  </defs>
  <g id="globe-alt" transform="translate(1 1)">
    <path id="globe-alt-2" data-name="globe-alt" class="cls-1" d="M27,15A12,12,0,0,1,15,27M27,15A12,12,0,0,0,15,3M27,15H3M15,27A12,12,0,0,1,3,15M15,27c2.209,0,4-5.373,4-12S17.209,3,15,3m0,24c-2.209,0-4-5.373-4-12S12.791,3,15,3m0,0A12,12,0,0,0,3,15" transform="translate(-3 -3)"/>
  </g>
</svg>
