<svg xmlns="http://www.w3.org/2000/svg" width="34" height="28" viewBox="0 0 34 28">
  <g id="hail" transform="translate(1 1)">
    <path id="Trazado_77" data-name="Trazado 77" d="M33.813,21.064a5.438,5.438,0,0,0,.247.945C37.454,22.493,40,24.472,40,28a7,7,0,0,1-7,7H15a7,7,0,0,1-1-13.93.849.849,0,0,1,.184-.006,10,10,0,0,1,19.625,0Z" transform="translate(-8 -13)" fill="none" fill-rule="evenodd"/>
    <path id="Trazado_78" data-name="Trazado 78" d="M33,35h.412a6.409,6.409,0,0,0,.9-12.773,10.4,10.4,0,0,0-20.322-1.741A7.311,7.311,0,0,0,15,34.982" transform="translate(-8 -13)" fill="none" stroke="#fff" stroke-linecap="round" stroke-linejoin="round" stroke-width="2"/>
    <path id="Trazado_79" data-name="Trazado 79" d="M21,34.5A1.5,1.5,0,1,1,19.5,33,1.5,1.5,0,0,1,21,34.5Z" transform="translate(-8 -13)" fill="#fff"/>
    <path id="Trazado_80" data-name="Trazado 80" d="M25.5,36.5A1.5,1.5,0,1,1,24,35,1.5,1.5,0,0,1,25.5,36.5Z" transform="translate(-8 -13)" fill="#fff"/>
    <path id="Trazado_81" data-name="Trazado 81" d="M25.5,31.5A1.5,1.5,0,1,1,24,30,1.5,1.5,0,0,1,25.5,31.5Z" transform="translate(-8 -13)" fill="#fff"/>
    <path id="Trazado_82" data-name="Trazado 82" d="M30,34.5A1.5,1.5,0,1,1,28.5,33,1.5,1.5,0,0,1,30,34.5Z" transform="translate(-8 -13)" fill="#fff"/>
    <path id="Trazado_83" data-name="Trazado 83" d="M21,38.5A1.5,1.5,0,1,1,19.5,37,1.5,1.5,0,0,1,21,38.5Z" transform="translate(-8 -13)" fill="#fff"/>
    <path id="Trazado_84" data-name="Trazado 84" d="M30,38.5A1.5,1.5,0,1,1,28.5,37,1.5,1.5,0,0,1,30,38.5Z" transform="translate(-8 -13)" fill="#fff"/>
  </g>
</svg>
