<svg id="heart-filled" xmlns="http://www.w3.org/2000/svg" width="24" height="19.472" viewBox="0 0 24 19.472">
  <defs>
    <style>
      .cls-1 {
        fill: #3f3f46;
        fill-rule: evenodd;
      }
    </style>
  </defs>
  <path id="heart-filled-2" data-name="heart-filled" class="cls-1" d="M3.752,5.488a6.207,6.207,0,0,1,8.458,0l1.753,1.664,1.753-1.664a6,6,0,0,1,1.942-1.274,6.273,6.273,0,0,1,4.626-.038,6.014,6.014,0,0,1,1.965,1.241,5.67,5.67,0,0,1,1.307,1.866,5.422,5.422,0,0,1-.04,4.395,5.686,5.686,0,0,1-1.341,1.845l-10.211,9.7-10.211-9.7a5.484,5.484,0,0,1,0-8.036Z" transform="translate(-2.001 -3.753)"/>
</svg>
