<svg width="23" height="23" viewBox="0 0 23 23" fill="none" xmlns="http://www.w3.org/2000/svg">
<g clip-path="url(#clip0_162_1281)">
<path d="M9.72273 0.522727C10.2455 0.209091 10.8727 0 11.5 0C12.1273 0 12.7545 0.209091 13.2773 0.522727L21.6409 6.37727C22.4773 7.00455 23 7.94545 23 8.99091V19.8636C23 21.6409 21.6409 23 19.8636 23H15.6818C15.0545 23 14.6364 22.5818 14.6364 21.9545V16.7273C14.6364 15.5773 13.6955 14.6364 12.5455 14.6364H10.4545C9.30455 14.6364 8.36364 15.5773 8.36364 16.7273V21.9545C8.36364 22.5818 7.94545 23 7.31818 23H3.13636C1.35909 23 0 21.6409 0 19.8636V8.99091C0 7.94545 0.522727 7.00455 1.35909 6.37727L9.72273 0.522727Z" fill="#949C79"/>
</g>
<defs>
<clipPath id="clip0_162_1281">
<rect width="23" height="23" fill="white"/>
</clipPath>
</defs>
</svg>
