<svg xmlns="http://www.w3.org/2000/svg" width="34" height="32" viewBox="0 0 34 32">
  <g id="isolated-thunderstroms" transform="translate(1 1)">
    <path id="Trazado_87" data-name="Trazado 87" d="M33.813,21.064a5.438,5.438,0,0,0,.247.945C37.454,22.493,40,24.472,40,28a7,7,0,0,1-7,7H15a7,7,0,0,1-1-13.93.849.849,0,0,1,.184-.006,10,10,0,0,1,19.625,0Z" transform="translate(-8 -13)" fill="none" fill-rule="evenodd"/>
    <path id="Trazado_88" data-name="Trazado 88" d="M33,35h.412a6.409,6.409,0,0,0,.9-12.773,10.4,10.4,0,0,0-20.322-1.741A7.311,7.311,0,0,0,15,34.982" transform="translate(-8 -13)" fill="none" stroke="#fff" stroke-linecap="round" stroke-linejoin="round" stroke-width="2"/>
    <path id="Trazado_89" data-name="Trazado 89" d="M28,28a3,3,0,0,0-3,3v.273a1,1,0,1,0,2,0V31a1,1,0,0,1,2,0v.5A1.5,1.5,0,0,1,27.5,33h-1a1,1,0,0,0,0,2h1A3.5,3.5,0,0,0,31,31.5V31A3,3,0,0,0,28,28Zm.5,16A3.5,3.5,0,0,1,25,40.5V40a1,1,0,0,1,2,0v.5a1.5,1.5,0,0,0,3,0V40a2,2,0,0,0-2-2H24a1,1,0,0,1,0-2h4a4,4,0,0,1,4,4v.5A3.5,3.5,0,0,1,28.5,44Z" transform="translate(-8 -13)" fill="#fff" fill-rule="evenodd"/>
    <path id="Trazado_90" data-name="Trazado 90" d="M24.981,33.187a.334.334,0,0,0-.265-.224l-3.721-.552,1.707-3.93a.352.352,0,0,0-.025-.326A.329.329,0,0,0,22.4,28H17.2a.336.336,0,0,0-.331.33l-.239,6.984a.339.339,0,0,0,.284.351l2.587.384-3.461,6.445a.349.349,0,0,0,.1.443.323.323,0,0,0,.194.064.326.326,0,0,0,.244-.111l8.337-9.356A.35.35,0,0,0,24.981,33.187Z" transform="translate(-8 -13)" fill="#fff"/>
  </g>
</svg>
