<svg xmlns="http://www.w3.org/2000/svg" xmlns:xlink="http://www.w3.org/1999/xlink" width="58.841" height="117.485" viewBox="0 0 58.841 117.485">
  <defs>
    <linearGradient id="linear-gradient" x1="1" y1="1.293" x2="1" y2="-0.435" gradientUnits="objectBoundingBox">
      <stop offset="0" stop-color="#139ebf"/>
      <stop offset="1" stop-color="#093242"/>
    </linearGradient>
    <linearGradient id="linear-gradient-2" x1="0.5" y1="-0.581" x2="0.5" y2="2.11" xlink:href="#linear-gradient"/>
  </defs>
  <g id="Isotipo-Firecatch-color" transform="translate(-388.079 -106.3)">
    <path id="Trazado_300" data-name="Trazado 300" d="M388.079,157.518a29.3,29.3,0,0,0,2.387,11.642c.023.057.046.119.074.176s.051.108.074.159c.068.148.136.29.2.432a2.03,2.03,0,0,0,.091.193c.063.131.125.256.188.381s.125.244.188.37c.125.244.256.483.387.722s.262.472.4.7c.369.614.756,1.222,1.165,1.808h-.006l1.057,1.768,23.153,34.471,22.306-33.05,1.9-3.189h-.011a29.349,29.349,0,0,0,5.281-16.832c0-.279-.006-.557-.011-.83-.006-.227-.017-.455-.034-.676-.011-.364-.04-.728-.074-1.086-.006-.091-.017-.182-.023-.273s-.017-.176-.028-.267c-.011-.142-.028-.279-.046-.421-.028-.227-.057-.449-.091-.676-.023-.21-.062-.426-.1-.637a29.517,29.517,0,0,0-.983-3.951c-.261-.813-.551-1.6-.881-2.382a7.565,7.565,0,0,1-1.268,3.229,6.35,6.35,0,0,1-2.9,2.257,11.464,11.464,0,0,0,.386-3.024,22.292,22.292,0,0,0-2.655-9.584,38.882,38.882,0,0,0-2.652-4.4c-.058-.088-.123-.179-.187-.263-.243-.322-.4-.542-.555-.734l-.074-.091c-.256-.307-.495-.6-.722-.881,0-.006,0-.011-.006-.011-.387-.483-.733-.949-1.1-1.427a41.7,41.7,0,0,1-3.49-4.633c-.006-.006-.267-.415-.267-.415-2.956-4.445-4.371-7.435-4.553-13.16a21.967,21.967,0,0,1,.267-3.883c.131-.927.3-1.847.517-2.751-.512.171-1.029.347-1.529.54-8.368,3.3-14.479,8.731-16.7,17.577a1.961,1.961,0,0,0-.068.261c-.074.3-.136.608-.2.915-.006.04-.017.08-.023.119q-.043.179-.068.358c-.034.153-.063.313-.085.466-.023.114-.04.227-.057.347-.034.193-.057.392-.085.585a.175.175,0,0,0-.006.057c-.045.4-.1.807-.148,1.239a.156.156,0,0,1-.006.051c-.045.375-.091.756-.125,1.154-.017.108-.023.216-.034.33-.057.716-.08,1.143-.091,1.9-.006.04-.011.421-.017.46-.046,2.422-.125,2.774-.29,4.752a25.029,25.029,0,0,1-.847,5.042,10.734,10.734,0,0,1-.659,1.632.021.021,0,0,1-.006.017,6.051,6.051,0,0,1-.591.995c-.1.136-.2.267-.3.392a1.9,1.9,0,0,1-.142.159c-.068.08-.137.148-.21.222a4.5,4.5,0,0,1-.512.472c0,.006,0,.006-.006.006a5.435,5.435,0,0,1-.676.46,2.179,2.179,0,0,1-.222.125c-.125.068-.25.136-.381.193a3.007,3.007,0,0,1-.369.159,6.247,6.247,0,0,1-2.249.438A6.427,6.427,0,0,1,392.313,141q0-.056.006-.113a6.4,6.4,0,0,1,.37-1.666,35.732,35.732,0,0,0-3.78,10.579v.011A39.7,39.7,0,0,0,388.079,157.518Zm24.773,16.389a12.953,12.953,0,1,1,12.682-2.012c-.006,0-.006,0-.011.006a12.948,12.948,0,0,1-12.671,2.007Z" transform="translate(0)" fill="url(#linear-gradient)"/>
    <ellipse id="Elipse_94" data-name="Elipse 94" cx="23.95" cy="1.894" rx="23.95" ry="1.894" transform="translate(393.55 219.996)" fill="url(#linear-gradient-2)"/>
  </g>
</svg>
