<svg xmlns="http://www.w3.org/2000/svg" xmlns:xlink="http://www.w3.org/1999/xlink" width="75.564" height="144.093" viewBox="0 0 75.564 144.093">
  <defs>
    <linearGradient id="linear-gradient" x1="0.5" y1="0.943" x2="0.5" y2="-0.19" gradientUnits="objectBoundingBox">
      <stop offset="0" stop-color="#fff" stop-opacity="0.4"/>
      <stop offset="0.494" stop-color="#fff" stop-opacity="0.898"/>
      <stop offset="1" stop-color="#fff"/>
    </linearGradient>
    <linearGradient id="linear-gradient-2" x1="0" y1="0.5" x2="1" y2="0.5" xlink:href="#linear-gradient"/>
    <clipPath id="clip-path">
      <ellipse id="Elipse_70" data-name="Elipse 70" cx="37.559" cy="4.846" rx="37.559" ry="4.846" fill="url(#linear-gradient)"/>
    </clipPath>
    <clipPath id="clip-path-2">
      <rect id="Rectángulo_244" data-name="Rectángulo 244" width="503.149" height="337.97" transform="translate(503.149 337.97) rotate(180)" fill="url(#linear-gradient-2)"/>
    </clipPath>
    <filter id="Elipse_68" x="-281.194" y="209.71" width="359.353" height="559.399" filterUnits="userSpaceOnUse">
      <feOffset dx="-8.504" dy="5.669" input="SourceAlpha"/>
      <feGaussianBlur stdDeviation="7.087" result="blur"/>
      <feFlood flood-opacity="0.749"/>
      <feComposite operator="in" in2="blur"/>
      <feComposite in="SourceGraphic"/>
    </filter>
    <filter id="Elipse_69" x="118.142" y="87.646" width="150.623" height="213.51" filterUnits="userSpaceOnUse">
      <feOffset dx="5.669" dy="-8.504" input="SourceAlpha"/>
      <feGaussianBlur stdDeviation="8.504" result="blur-2"/>
      <feFlood flood-opacity="0.749"/>
      <feComposite operator="in" in2="blur-2"/>
      <feComposite in="SourceGraphic"/>
    </filter>
    <linearGradient id="linear-gradient-8" x1="0.318" y1="0.508" x2="-0.583" y2="1.268" gradientUnits="objectBoundingBox">
      <stop offset="0" stop-color="#fff" stop-opacity="0.502"/>
      <stop offset="0.494" stop-color="#fff" stop-opacity="0.898"/>
      <stop offset="1" stop-color="#fff"/>
    </linearGradient>
    <linearGradient id="linear-gradient-9" x1="0.325" y1="0.861" x2="1.094" y2="0.057" xlink:href="#linear-gradient-8"/>
  </defs>
  <g id="isotype.white" transform="translate(-1001.977 -395.79)">
    <g id="Grupo_333" data-name="Grupo 333" transform="translate(1001.977 530.19)" opacity="0.9">
      <ellipse id="Elipse_67" data-name="Elipse 67" cx="37.559" cy="4.846" rx="37.559" ry="4.846" fill="url(#linear-gradient)"/>
      <g id="Grupo_332" data-name="Grupo 332" clip-path="url(#clip-path)">
        <g id="Grupo_331" data-name="Grupo 331" transform="translate(-147.877 -39.558)">
          <rect id="Rectángulo_242" data-name="Rectángulo 242" width="503.149" height="337.97" transform="translate(503.149 337.97) rotate(180)" fill="url(#linear-gradient-2)"/>
          <g id="Grupo_330" data-name="Grupo 330" transform="translate(0)" clip-path="url(#clip-path-2)">
            <rect id="Rectángulo_243" data-name="Rectángulo 243" width="436.297" height="303.108" transform="translate(486.591 305.235) rotate(180)" fill="url(#linear-gradient-2)"/>
            <g transform="matrix(1, 0, 0, 1, 147.88, -94.84)" filter="url(#Elipse_68)">
              <ellipse id="Elipse_68-2" data-name="Elipse 68" cx="158.416" cy="258.44" rx="158.416" ry="258.44" transform="translate(-251.43 225.3)" fill="url(#linear-gradient-2)"/>
            </g>
            <g transform="matrix(1, 0, 0, 1, 147.88, -94.84)" filter="url(#Elipse_69)">
              <ellipse id="Elipse_69-2" data-name="Elipse 69" cx="49.8" cy="81.243" rx="49.8" ry="81.243" transform="translate(137.98 121.66)" fill="url(#linear-gradient-2)"/>
            </g>
          </g>
        </g>
      </g>
    </g>
    <path id="Trazado_273" data-name="Trazado 273" d="M1065.04,464.525v.407a37.734,37.734,0,0,1-3.157,14.232,30.761,30.761,0,0,1-4.157,7.413s-.58.754-1.334,1.757l-2.666,3.254-6.711,8.228-4.513,5.533a3.436,3.436,0,0,1-1.294-.559c-.054-.036-.09-.089-.143-.125-.107-.089-.213-.159-.3-.248a2.289,2.289,0,0,0,.568.515c.018,0,.018.016.036.034a2.8,2.8,0,0,1-.815-.638l-13.088-16.253-2.2-2.758c-.416-.575-1.108-1.515-1.533-2.1a.009.009,0,0,1-.009-.009,38.238,38.238,0,0,1-6.225-19.6c-.018-.524-.027-1.046-.027-1.571a38.758,38.758,0,0,1,4.318-17.831c.009-.009.009-.027.018-.036.461-.752.9-1.515,1.294-2.3.009-.009.009-.018.018-.027a40.83,40.83,0,0,0-5.657-45.876,36.3,36.3,0,0,1,22.975,25.3,2.637,2.637,0,0,1,.089.338,34.827,34.827,0,0,1,.674,3.608c.016.018.016.036.016.072.027.284.063.575.089.877.027.231.063.47.09.719v.07c.016.107.016.2.034.3.054.513.125,1.045.177,1.6.036.293.054.577.089.859.054.586.107,1.171.177,1.775v.159c.267,2.847.47,5.844.506,8.4a27.778,27.778,0,0,0,1.1,7.875,7.955,7.955,0,0,0,.445,1.612,8.238,8.238,0,0,0,2.518,3.414,8.109,8.109,0,0,0,4.6,1.721h.391a8.048,8.048,0,0,0,8.032-7.324,4.893,4.893,0,0,0,.036-.745,14.123,14.123,0,0,0-.089-1.845A37.687,37.687,0,0,1,1065.04,464.525Z" transform="translate(12.502 0.135)" fill="url(#linear-gradient-8)"/>
    <path id="Trazado_274" data-name="Trazado 274" d="M1055,505.482l-12.707,15.57c-.089.107-.177.2-.266.284l-.018.018-.638.372a3.42,3.42,0,0,1-3.628-.213c-.052-.034-.089-.089-.141-.123-.107-.089-.213-.161-.3-.25a2.284,2.284,0,0,0,.568.515c.018,0,.018.018.036.036a2.841,2.841,0,0,1-.817-.64l-23.026-28.6-4.141-4.992a51.164,51.164,0,0,1-3.467-4.868c-.072-.125-.161-.3-.249-.443a37.686,37.686,0,0,1-4.23-17.379c0-.284,0-.568.018-.842a37.419,37.419,0,0,1,6.774-20.766c0-.018.018-.036.018-.054.177-.23.354-.461.513-.69.177-.231.338-.445.5-.656s.32-.427.479-.622c3.431-4.441,5.347-5.86,6.216-7.156,1.056-1.338,2.332-2.686,3.254-3.91a43.426,43.426,0,0,0,4.513-5.976l.177-.284a36.217,36.217,0,0,0,5.649-19.472,36.676,36.676,0,0,0-1.01-8.548c.293.1.593.2.886.3a40.886,40.886,0,0,1,5.657,45.876c-.009.009-.009.018-.018.027-.452.754-.885,1.517-1.294,2.3-.009.009-.009.027-.018.036a38.76,38.76,0,0,0-4.318,17.831c0,.524.009,1.047.027,1.571a38.238,38.238,0,0,0,6.225,19.6.009.009,0,0,0,.009.009c.425.586,1.117,1.525,1.533,2.1l2.2,2.758,13.088,16.253a2.8,2.8,0,0,0,.815.638c-.018-.018-.018-.034-.036-.034a2.288,2.288,0,0,1-.568-.515c.089.089.2.159.3.248.052.036.089.089.143.125A3.437,3.437,0,0,0,1055,505.482Z" transform="translate(0 0)" fill="url(#linear-gradient-9)"/>
  </g>
</svg>
