<svg xmlns="http://www.w3.org/2000/svg" xmlns:xlink="http://www.w3.org/1999/xlink" width="80.723" height="161.175" viewBox="0 0 80.723 161.175">
  <defs>
    <linearGradient id="linear-gradient" x1="1" y1="1.293" x2="1" y2="-0.435" gradientUnits="objectBoundingBox">
      <stop offset="0" stop-color="#fe94a2"/>
      <stop offset="1" stop-color="#fb2558"/>
    </linearGradient>
    <linearGradient id="linear-gradient-2" x1="0.5" y1="-0.581" x2="0.5" y2="2.11" xlink:href="#linear-gradient"/>
  </defs>
  <g id="Isotipo-color" transform="translate(-388.079 -106.3)">
    <path id="Trazado_300" data-name="Trazado 300" d="M388.079,176.565a40.2,40.2,0,0,0,3.275,15.971c.031.078.062.164.1.242s.07.148.1.218c.094.2.187.4.281.593a2.77,2.77,0,0,0,.125.265c.086.179.172.351.257.523s.172.335.257.507c.172.335.351.663.53.99s.359.647.546.967c.507.842,1.037,1.677,1.6,2.48h-.008l1.451,2.425,31.763,47.29,30.6-45.341,2.612-4.375h-.016a40.263,40.263,0,0,0,7.245-23.091c0-.382-.008-.764-.016-1.139-.008-.312-.023-.624-.047-.928-.016-.5-.055-1-.1-1.49-.008-.125-.023-.25-.031-.374s-.023-.242-.039-.367c-.016-.195-.039-.382-.062-.577-.039-.312-.078-.616-.125-.928-.031-.289-.086-.585-.133-.873a40.459,40.459,0,0,0-1.349-5.42c-.359-1.115-.756-2.2-1.209-3.268a10.38,10.38,0,0,1-1.739,4.43,8.712,8.712,0,0,1-3.977,3.1,15.726,15.726,0,0,0,.53-4.149c0-4.32-1.529-8.89-3.642-13.148a53.358,53.358,0,0,0-3.638-6.041c-.08-.121-.169-.246-.257-.361-.334-.441-.554-.744-.761-1.007-.031-.039-.062-.078-.1-.125-.351-.421-.678-.819-.99-1.209,0-.008,0-.016-.008-.016-.53-.663-1.006-1.3-1.505-1.957a57.215,57.215,0,0,1-4.788-6.356c-.008-.008-.367-.569-.367-.569-4.055-6.1-6-10.2-6.247-18.054a30.135,30.135,0,0,1,.367-5.326c.179-1.271.413-2.535.71-3.774-.7.234-1.411.476-2.1.741-11.479,4.523-19.863,11.979-22.9,24.113a2.684,2.684,0,0,0-.094.359c-.1.413-.187.834-.273,1.256-.008.055-.023.109-.031.164q-.059.246-.094.491c-.047.211-.086.429-.117.639-.031.156-.055.312-.078.476-.047.265-.078.538-.117.8a.238.238,0,0,0-.008.078c-.062.546-.133,1.107-.2,1.7a.217.217,0,0,1-.008.07c-.062.515-.125,1.037-.172,1.583-.023.148-.031.3-.047.452-.078.983-.109,1.567-.125,2.6-.008.055-.016.577-.023.632-.062,3.322-.172,3.806-.4,6.52a34.343,34.343,0,0,1-1.162,6.917,14.75,14.75,0,0,1-.9,2.238.029.029,0,0,1-.008.023,8.29,8.29,0,0,1-.811,1.365c-.133.187-.273.367-.413.538a2.6,2.6,0,0,1-.195.218c-.094.109-.187.2-.289.3a6.164,6.164,0,0,1-.7.647c0,.008,0,.008-.008.008a7.458,7.458,0,0,1-.928.632,3,3,0,0,1-.3.172c-.172.094-.343.187-.523.265a4.13,4.13,0,0,1-.507.218,8.569,8.569,0,0,1-3.086.6,8.817,8.817,0,0,1-8.761-9.227c0-.051.005-.1.009-.154a8.781,8.781,0,0,1,.507-2.285,49.024,49.024,0,0,0-5.186,14.513v.016A54.466,54.466,0,0,0,388.079,176.565Zm33.986,22.484a17.77,17.77,0,1,1,17.4-2.761c-.008,0-.008,0-.016.008a17.763,17.763,0,0,1-17.383,2.753Z" transform="translate(0 0)" fill="url(#linear-gradient)"/>
    <ellipse id="Elipse_94" data-name="Elipse 94" cx="32.856" cy="2.599" rx="32.856" ry="2.599" transform="translate(395.584 262.277)" fill="url(#linear-gradient-2)"/>
  </g>
</svg>
