<svg id="link-dark" xmlns="http://www.w3.org/2000/svg" width="24" height="24" viewBox="0 0 24 24">
  <defs>
    <style>
      .cls-1 {
        fill: #3f3f46;
        fill-rule: evenodd;
      }
    </style>
  </defs>
  <path id="link-dark-2" data-name="link-dark" class="cls-1" d="M17.9,5.854A3,3,0,1,1,22.146,10.1l-4.5,4.5a3,3,0,0,1-4.242,0,1.5,1.5,0,0,0-2.121,2.121,6,6,0,0,0,8.484,0l4.5-4.5a6,6,0,0,0-8.484-8.484l-2.25,2.25A1.5,1.5,0,1,0,15.654,8.1Zm-7.5,7.5a3,3,0,0,1,4.242,0,1.5,1.5,0,1,0,2.121-2.121,6,6,0,0,0-8.484,0l-4.5,4.5a6,6,0,1,0,8.484,8.484l2.25-2.25A1.5,1.5,0,1,0,12.4,19.846l-2.25,2.25A3,3,0,1,1,5.9,17.854Z" transform="translate(-1.951 -2.049)"/>
</svg>
