<svg id="map-filled" xmlns="http://www.w3.org/2000/svg" width="24.35" height="22.907" viewBox="0 0 24.35 22.907">
  <defs>
    <style>
      .cls-1 {
        fill: #3f3f46;
        fill-rule: evenodd;
      }
    </style>
  </defs>
  <path id="map-filled-2" data-name="map-filled" class="cls-1" d="M17.219,1.586,11.131,7.031V24.493l6.087-5.445ZM4.6,3.91a1.585,1.585,0,0,0-.779-.372,1.689,1.689,0,0,0-.879.077,1.5,1.5,0,0,0-.683.5A1.261,1.261,0,0,0,2,4.872V18.485a1.293,1.293,0,0,0,.446.962l5.642,5.046V7.031ZM25.9,6.632,20.262,1.586V19.048l3.49,3.121a1.586,1.586,0,0,0,.779.372,1.691,1.691,0,0,0,.879-.077,1.5,1.5,0,0,0,.683-.5,1.262,1.262,0,0,0,.257-.756V7.595A1.293,1.293,0,0,0,25.9,6.632Z" transform="translate(-2 -1.586)"/>
</svg>
