<svg xmlns="http://www.w3.org/2000/svg" xmlns:xlink="http://www.w3.org/1999/xlink" width="25.021" height="44.244" viewBox="0 0 25.021 44.244">
  <defs>
    <linearGradient id="linear-gradient" x1="1" y1="1.293" x2="1" y2="-0.435" gradientUnits="objectBoundingBox">
      <stop offset="0" stop-color="#f77e6d"/>
      <stop offset="1" stop-color="#fb2558"/>
    </linearGradient>
  </defs>
  <g id="map-fire-location" transform="translate(-388.079 -106.3)">
    <path id="Trazado_300" data-name="Trazado 300" d="M388.079,128.08a12.461,12.461,0,0,0,1.015,4.951c.01.024.019.051.031.075s.022.046.031.068c.029.063.058.123.087.184a.861.861,0,0,0,.039.082c.027.056.053.109.08.162s.053.1.08.157c.053.1.109.205.164.307s.111.2.169.3c.157.261.321.52.5.769h0l.45.752,9.846,14.658,9.485-14.054.81-1.356h0a12.48,12.48,0,0,0,2.246-7.158c0-.118,0-.237,0-.353,0-.1-.007-.193-.015-.288,0-.155-.017-.309-.031-.462,0-.039-.007-.077-.01-.116s-.007-.075-.012-.114c0-.06-.012-.118-.019-.179-.012-.1-.024-.191-.039-.288s-.027-.181-.041-.271a12.563,12.563,0,0,0-.418-1.68c-.111-.346-.234-.682-.375-1.013a3.216,3.216,0,0,1-.539,1.373,2.7,2.7,0,0,1-1.233.96,4.876,4.876,0,0,0,.164-1.286,9.479,9.479,0,0,0-1.129-4.076,16.53,16.53,0,0,0-1.128-1.872c-.025-.037-.052-.076-.08-.112-.1-.137-.172-.231-.236-.312l-.031-.039c-.109-.131-.21-.254-.307-.375,0,0,0,0,0,0-.164-.205-.312-.4-.467-.607a17.747,17.747,0,0,1-1.484-1.97s-.114-.176-.114-.176a9.554,9.554,0,0,1-1.823-7.247c.056-.394.128-.786.22-1.17-.218.073-.438.147-.65.23-3.558,1.4-6.157,3.713-7.1,7.474a.84.84,0,0,0-.029.111c-.031.128-.058.259-.085.389,0,.017-.007.034-.01.051-.012.051-.022.1-.029.152s-.026.133-.036.2c-.01.048-.017.1-.024.147-.015.082-.024.167-.036.249a.076.076,0,0,0,0,.024c-.019.169-.041.343-.063.527a.069.069,0,0,1,0,.022c-.019.16-.039.322-.053.491-.007.046-.01.092-.014.14-.024.3-.034.486-.039.807,0,.017,0,.179-.007.2-.019,1.03-.053,1.18-.123,2.021a10.644,10.644,0,0,1-.36,2.144,4.579,4.579,0,0,1-.28.694.009.009,0,0,1,0,.007,2.566,2.566,0,0,1-.251.423c-.041.058-.085.114-.128.167a.8.8,0,0,1-.06.068c-.029.034-.058.063-.089.094a1.923,1.923,0,0,1-.217.2s0,0,0,0a2.32,2.32,0,0,1-.288.2.93.93,0,0,1-.094.053c-.053.029-.106.058-.162.082a1.3,1.3,0,0,1-.157.068,2.656,2.656,0,0,1-.957.186,2.733,2.733,0,0,1-2.716-2.86c0-.016,0-.032,0-.048a2.716,2.716,0,0,1,.157-.708,15.191,15.191,0,0,0-1.608,4.5v0A16.884,16.884,0,0,0,388.079,128.08Zm10.535,6.969a5.508,5.508,0,1,1,5.393-.856s0,0,0,0a5.506,5.506,0,0,1-5.388.853Z" transform="translate(0)" fill="url(#linear-gradient)"/>
  </g>
</svg>
