<svg xmlns="http://www.w3.org/2000/svg" width="23.511" height="22" viewBox="0 0 23.511 22">
  <path id="map-filled-color" d="M16.695,1.586,10.817,6.815V23.586l5.878-5.229ZM4.508,3.818a1.534,1.534,0,0,0-.752-.358,1.639,1.639,0,0,0-.849.074,1.446,1.446,0,0,0-.659.481A1.207,1.207,0,0,0,2,4.742V17.815a1.239,1.239,0,0,0,.431.924l5.447,4.846V6.815ZM25.081,6.432,19.633,1.586V18.357l3.369,3a1.534,1.534,0,0,0,.752.358,1.641,1.641,0,0,0,.849-.074,1.446,1.446,0,0,0,.659-.481,1.207,1.207,0,0,0,.248-.726V7.357A1.239,1.239,0,0,0,25.081,6.432Z" transform="translate(-2 -1.586)" fill="#19829b" fill-rule="evenodd"/>
</svg>
