<svg xmlns="http://www.w3.org/2000/svg" width="26" height="24.017" viewBox="0 0 26 24.017">
  <defs>
    <style>
      .cls-1 {
        fill: none;
        stroke: #3f3f46;
        stroke-linecap: round;
        stroke-linejoin: round;
        stroke-width: 2px;
      }
    </style>
  </defs>
  <g id="map" transform="translate(1 1.342)">
    <path id="map-2" data-name="map" class="cls-1" d="M11,25.333,3.737,21.7A1.333,1.333,0,0,1,3,20.509V6.157A1.333,1.333,0,0,1,4.929,4.965L11,8m0,17.333V8m0,17.333,8-4M11,8l8-4m0,17.333,6.071,3.035A1.333,1.333,0,0,0,27,23.176V8.824a1.334,1.334,0,0,0-.737-1.192L19,4m0,17.333V4" transform="translate(-3 -4)"/>
  </g>
</svg>
