<svg width="19" height="25" viewBox="0 0 19 25" fill="none" xmlns="http://www.w3.org/2000/svg">
<g clip-path="url(#clip0_162_1221)">
<path d="M9.5 0C4.24706 0 0 4.21286 0 9.4235C0 15.6874 5.75588 22.0067 8.27059 24.5011C8.94118 25.1663 10.0029 25.1663 10.6176 24.5011C13.2441 22.0067 19 15.6874 19 9.4235C19 4.21286 14.7529 0 9.5 0ZM9.5 13.8027C7.04118 13.8027 5.02941 11.8071 5.02941 9.36807C5.02941 6.92905 7.04118 4.93348 9.5 4.93348C11.9588 4.93348 13.9706 6.92905 13.9706 9.36807C13.9706 11.8071 11.9588 13.8027 9.5 13.8027Z" fill="#E1B162"/>
</g>
<defs>
<clipPath id="clip0_162_1221">
<rect width="19" height="25" fill="white"/>
</clipPath>
</defs>
</svg>
