<svg width="43" height="54" viewBox="0 0 43 54" fill="none" xmlns="http://www.w3.org/2000/svg">
<g clip-path="url(#clip0_120_459)" filter="url(#filter0_d_120_459)">
<path d="M21.5 0C11.8235 0 4 7.75166 4 17.3392C4 28.8647 14.6029 40.4922 19.2353 45.082C20.4706 46.306 22.4265 46.306 23.5588 45.082C28.3971 40.4922 39 28.8647 39 17.3392C39 7.75166 31.1765 0 21.5 0ZM21.5 25.3969C16.9706 25.3969 13.2647 21.7251 13.2647 17.2372C13.2647 12.7494 16.9706 9.0776 21.5 9.0776C26.0294 9.0776 29.7353 12.7494 29.7353 17.2372C29.7353 21.7251 26.0294 25.3969 21.5 25.3969Z" fill="#DCD8B7"/>
</g>
<defs>
<filter id="filter0_d_120_459" x="0" y="0" width="43" height="54" filterUnits="userSpaceOnUse" color-interpolation-filters="sRGB">
<feFlood flood-opacity="0" result="BackgroundImageFix"/>
<feColorMatrix in="SourceAlpha" type="matrix" values="0 0 0 0 0 0 0 0 0 0 0 0 0 0 0 0 0 0 127 0" result="hardAlpha"/>
<feOffset dy="4"/>
<feGaussianBlur stdDeviation="2"/>
<feComposite in2="hardAlpha" operator="out"/>
<feColorMatrix type="matrix" values="0 0 0 0 0 0 0 0 0 0 0 0 0 0 0 0 0 0 0.25 0"/>
<feBlend mode="normal" in2="BackgroundImageFix" result="effect1_dropShadow_120_459"/>
<feBlend mode="normal" in="SourceGraphic" in2="effect1_dropShadow_120_459" result="shape"/>
</filter>
<clipPath id="clip0_120_459">
<rect width="35" height="46" fill="white" transform="translate(4)"/>
</clipPath>
</defs>
</svg>
