<svg id="menu-dark" xmlns="http://www.w3.org/2000/svg" width="24" height="20.571" viewBox="0 0 24 20.571">
  <defs>
    <style>
      .cls-1 {
        fill: #3f3f46;
        fill-rule: evenodd;
      }
    </style>
  </defs>
  <path id="menu-dark-2" data-name="menu-dark" class="cls-1" d="M3,5.714A1.714,1.714,0,0,1,4.714,4H25.286a1.714,1.714,0,0,1,0,3.429H4.714A1.714,1.714,0,0,1,3,5.714Zm0,8.571a1.714,1.714,0,0,1,1.714-1.714H25.286a1.714,1.714,0,0,1,0,3.429H4.714A1.714,1.714,0,0,1,3,14.286Zm0,8.571a1.714,1.714,0,0,1,1.714-1.714H25.286a1.714,1.714,0,0,1,0,3.429H4.714A1.714,1.714,0,0,1,3,22.857Z" transform="translate(-3 -4)"/>
</svg>
