<svg xmlns="http://www.w3.org/2000/svg" xmlns:xlink="http://www.w3.org/1999/xlink" width="142.391" height="108.863" viewBox="0 0 142.391 108.863">
  <defs>
    <radialGradient id="radial-gradient" cx="0.5" cy="0.5" r="0.5" gradientUnits="objectBoundingBox">
      <stop offset="0" stop-color="#bcbcbc" stop-opacity="0.941"/>
      <stop offset="0.36" stop-color="#cfcfcf" stop-opacity="0.871"/>
      <stop offset="0.535" stop-color="#dbdbdb" stop-opacity="0.859"/>
      <stop offset="0.753" stop-color="#e3e3e3" stop-opacity="0.412"/>
      <stop offset="1" stop-color="#e6e6e6" stop-opacity="0"/>
    </radialGradient>
    <linearGradient id="linear-gradient" x1="0.5" x2="0.5" y2="1" gradientUnits="objectBoundingBox">
      <stop offset="0" stop-color="#139ebf"/>
      <stop offset="1" stop-color="#115a6f"/>
    </linearGradient>
  </defs>
  <g id="new-password" transform="translate(-123 -279.956)">
    <ellipse id="Elipse_87" data-name="Elipse 87" cx="71.196" cy="11.59" rx="71.196" ry="11.59" transform="translate(123 365.638)" opacity="0.85" fill="url(#radial-gradient)"/>
    <g id="Grupo_497" data-name="Grupo 497" transform="translate(161.425 279.956)">
      <g id="lock-closed-filled" transform="translate(0 0)">
        <path id="lock-closed-filled-2" data-name="lock-closed-filled" d="M12.342,34.7V25.356a23.356,23.356,0,0,1,46.712,0V34.7A9.343,9.343,0,0,1,68.4,44.041V67.4a9.343,9.343,0,0,1-9.343,9.342H12.342A9.343,9.343,0,0,1,3,67.4V44.041A9.343,9.343,0,0,1,12.342,34.7Zm37.37-9.342V34.7H21.685V25.356a14.014,14.014,0,0,1,28.028,0Z" transform="translate(-3 -2)" fill-rule="evenodd" fill="url(#linear-gradient)"/>
      </g>
      <g id="Grupo_492" data-name="Grupo 492" transform="translate(18.398 50.65)">
        <path id="Trazado_330" data-name="Trazado 330" d="M2821.733,745.75a2.818,2.818,0,1,0,2.817,2.818A2.818,2.818,0,0,0,2821.733,745.75Z" transform="translate(-2818.915 -745.75)" fill="#fff" fill-rule="evenodd"/>
      </g>
      <g id="Grupo_495" data-name="Grupo 495" transform="translate(29.896 50.65)">
        <path id="Trazado_330-2" data-name="Trazado 330" d="M2821.733,745.75a2.818,2.818,0,1,0,2.817,2.818A2.818,2.818,0,0,0,2821.733,745.75Z" transform="translate(-2818.915 -745.75)" fill="#fff" fill-rule="evenodd"/>
      </g>
      <g id="Grupo_496" data-name="Grupo 496" transform="translate(41.394 50.65)">
        <path id="Trazado_330-3" data-name="Trazado 330" d="M2821.733,745.75a2.818,2.818,0,1,0,2.817,2.818A2.818,2.818,0,0,0,2821.733,745.75Z" transform="translate(-2818.915 -745.75)" fill="#fff" fill-rule="evenodd"/>
      </g>
    </g>
  </g>
</svg>
