<svg xmlns="http://www.w3.org/2000/svg" xmlns:xlink="http://www.w3.org/1999/xlink" width="170.642" height="130.461" viewBox="0 0 170.642 130.461">
  <defs>
    <radialGradient id="radial-gradient" cx="0.5" cy="0.5" r="0.5" gradientUnits="objectBoundingBox">
      <stop offset="0" stop-color="#bcbcbc" stop-opacity="0.941"/>
      <stop offset="0.36" stop-color="#cfcfcf" stop-opacity="0.871"/>
      <stop offset="0.535" stop-color="#dbdbdb" stop-opacity="0.859"/>
      <stop offset="0.753" stop-color="#e3e3e3" stop-opacity="0.412"/>
      <stop offset="1" stop-color="#e6e6e6" stop-opacity="0"/>
    </radialGradient>
    <linearGradient id="linear-gradient" x1="0.5" x2="0.5" y2="1" gradientUnits="objectBoundingBox">
      <stop offset="0" stop-color="#139ebf"/>
      <stop offset="1" stop-color="#115a6f"/>
    </linearGradient>
    <linearGradient id="linear-gradient-2" x1="0.5" x2="0.5" y2="1" gradientUnits="objectBoundingBox">
      <stop offset="0" stop-color="#e7e7e7"/>
      <stop offset="1" stop-color="#929292"/>
    </linearGradient>
  </defs>
  <g id="password-changed" transform="translate(-116.304 -274.837)">
    <g id="Grupo_501" data-name="Grupo 501" transform="translate(116.304 274.837)">
      <ellipse id="Elipse_87" data-name="Elipse 87" cx="85.321" cy="13.889" rx="85.321" ry="13.889" transform="translate(0 102.682)" opacity="0.85" fill="url(#radial-gradient)"/>
      <g id="Grupo_497" data-name="Grupo 497" transform="translate(46.049 0)">
        <g id="lock-closed-filled" transform="translate(0 0)">
          <path id="lock-closed-filled-2" data-name="lock-closed-filled" d="M14.2,41.186V29.99a27.99,27.99,0,0,1,55.98,0v11.2a11.2,11.2,0,0,1,11.2,11.2v27.99a11.2,11.2,0,0,1-11.2,11.2H14.2A11.2,11.2,0,0,1,3,80.373V52.382a11.2,11.2,0,0,1,11.2-11.2ZM58.98,29.99v11.2H25.392V29.99a16.794,16.794,0,0,1,33.588,0Z" transform="translate(-3 -2)" fill-rule="evenodd" fill="url(#linear-gradient)"/>
        </g>
        <g id="Grupo_492" data-name="Grupo 492" transform="translate(22.048 60.699)">
          <path id="Trazado_330" data-name="Trazado 330" d="M2822.292,745.75a3.377,3.377,0,1,0,3.376,3.377A3.377,3.377,0,0,0,2822.292,745.75Z" transform="translate(-2818.915 -745.75)" fill="#fff" fill-rule="evenodd"/>
        </g>
        <g id="Grupo_495" data-name="Grupo 495" transform="translate(35.827 60.699)">
          <path id="Trazado_330-2" data-name="Trazado 330" d="M2822.292,745.75a3.377,3.377,0,1,0,3.376,3.377A3.377,3.377,0,0,0,2822.292,745.75Z" transform="translate(-2818.915 -745.75)" fill="#fff" fill-rule="evenodd"/>
        </g>
        <g id="Grupo_496" data-name="Grupo 496" transform="translate(49.607 60.699)">
          <path id="Trazado_330-3" data-name="Trazado 330" d="M2822.292,745.75a3.377,3.377,0,1,0,3.376,3.377A3.377,3.377,0,0,0,2822.292,745.75Z" transform="translate(-2818.915 -745.75)" fill="#fff" fill-rule="evenodd"/>
        </g>
      </g>
    </g>
    <g id="Grupo_500" data-name="Grupo 500" transform="translate(220.877 339.354)">
      <path id="Trazado_330-4" data-name="Trazado 330" d="M2835.615,745.75a16.7,16.7,0,1,0,16.7,16.7A16.7,16.7,0,0,0,2835.615,745.75Z" transform="translate(-2818.915 -745.75)" fill-rule="evenodd" fill="url(#linear-gradient-2)"/>
      <path id="Trazado_331" data-name="Trazado 331" d="M2841,759.123l-7.176,7.175a1.79,1.79,0,0,1-2.54,0l-3.592-3.583a1.818,1.818,0,0,1,0-2.522,1.8,1.8,0,0,1,2.54-.017l2.322,2.322,5.905-5.914a1.8,1.8,0,0,1,2.54,2.54Z" transform="translate(-2817.642 -744.745)" fill="#fff" fill-rule="evenodd"/>
    </g>
  </g>
</svg>
