<svg xmlns="http://www.w3.org/2000/svg" width="23.278" height="22.45" viewBox="0 0 23.278 22.45">
  <defs>
    <style>
      .cls-1 {
        fill: none;
        stroke: #3f3f46;
        stroke-linecap: round;
        stroke-linejoin: round;
        stroke-width: 2px;
      }
    </style>
  </defs>
  <g id="photograph" transform="translate(1.414 1)">
    <path id="photograph-2" data-name="photograph" class="cls-1" d="M4,19.337l5.861-5.861a2.556,2.556,0,0,1,3.614,0l5.861,5.861m-2.556-2.556,2.027-2.027a2.556,2.556,0,0,1,3.614,0l2.027,2.027M16.781,9.112h.013M6.556,24.45H21.893a2.556,2.556,0,0,0,2.556-2.556V6.556A2.556,2.556,0,0,0,21.893,4H6.556A2.556,2.556,0,0,0,4,6.556V21.893A2.556,2.556,0,0,0,6.556,24.45Z" transform="translate(-4 -4)"/>
  </g>
</svg>
