<svg width="66" height="16" viewBox="0 0 66 16" fill="none" xmlns="http://www.w3.org/2000/svg">
<path d="M6.02569 15.2C4.90569 15.2 3.87902 15.02 2.94569 14.66C2.02569 14.2867 1.14569 13.72 0.305689 12.96L1.28569 11.8C2.01902 12.4667 2.75902 12.9667 3.50569 13.3C4.25236 13.62 5.11236 13.78 6.08569 13.78C7.03236 13.78 7.78569 13.56 8.34569 13.12C8.91902 12.6667 9.20569 12.0933 9.20569 11.4V11.36C9.20569 11.04 9.15236 10.7533 9.04569 10.5C8.93902 10.2333 8.75236 9.99333 8.48569 9.78C8.21902 9.56667 7.84569 9.37333 7.36569 9.2C6.89902 9.02667 6.29902 8.86 5.56569 8.7C4.76569 8.52667 4.06569 8.32667 3.46569 8.1C2.87902 7.87333 2.39236 7.6 2.00569 7.28C1.61902 6.96 1.33236 6.58667 1.14569 6.16C0.959023 5.73333 0.865689 5.23333 0.865689 4.66V4.62C0.865689 4.07333 0.979023 3.56667 1.20569 3.1C1.43236 2.63333 1.75236 2.23333 2.16569 1.9C2.57902 1.55333 3.06569 1.28667 3.62569 1.1C4.18569 0.899999 4.79902 0.799999 5.46569 0.799999C6.49236 0.799999 7.38569 0.946666 8.14569 1.24C8.91902 1.52 9.66569 1.94667 10.3857 2.52L9.46569 3.74C8.81236 3.20667 8.15236 2.82 7.48569 2.58C6.83236 2.34 6.14569 2.22 5.42569 2.22C4.50569 2.22 3.77902 2.44 3.24569 2.88C2.71236 3.30667 2.44569 3.84 2.44569 4.48V4.52C2.44569 4.85333 2.49902 5.15333 2.60569 5.42C2.71236 5.67333 2.90569 5.91333 3.18569 6.14C3.46569 6.35333 3.85236 6.55333 4.34569 6.74C4.83902 6.91333 5.47236 7.08 6.24569 7.24C7.80569 7.58667 8.95236 8.06667 9.68569 8.68C10.4324 9.29333 10.8057 10.1333 10.8057 11.2V11.24C10.8057 11.84 10.6857 12.3867 10.4457 12.88C10.2057 13.36 9.87236 13.7733 9.44569 14.12C9.03236 14.4667 8.53236 14.7333 7.94569 14.92C7.35902 15.1067 6.71902 15.2 6.02569 15.2ZM20.0107 15.24C18.9973 15.24 18.064 15.0533 17.2107 14.68C16.3573 14.3067 15.6173 13.8 14.9907 13.16C14.364 12.5067 13.8707 11.74 13.5107 10.86C13.164 9.98 12.9907 9.04 12.9907 8.04V8C12.9907 7.01333 13.164 6.08 13.5107 5.2C13.8707 4.32 14.364 3.55333 14.9907 2.9C15.6173 2.23333 16.364 1.71333 17.2307 1.34C18.0973 0.953333 19.044 0.76 20.0707 0.76C20.7107 0.76 21.284 0.813333 21.7907 0.919999C22.3107 1.02667 22.7907 1.18 23.2307 1.38C23.6707 1.56667 24.0773 1.8 24.4507 2.08C24.824 2.34667 25.184 2.64667 25.5307 2.98L24.4507 4.14C23.8507 3.58 23.204 3.12 22.5107 2.76C21.8307 2.4 21.0107 2.22 20.0507 2.22C19.2773 2.22 18.5573 2.36667 17.8907 2.66C17.2373 2.95333 16.664 3.36 16.1707 3.88C15.6907 4.4 15.3107 5.01333 15.0307 5.72C14.764 6.41333 14.6307 7.16 14.6307 7.96V8C14.6307 8.81333 14.764 9.57333 15.0307 10.28C15.3107 10.9733 15.6907 11.58 16.1707 12.1C16.664 12.62 17.2373 13.0333 17.8907 13.34C18.5573 13.6333 19.2773 13.78 20.0507 13.78C21.0107 13.78 21.8373 13.6067 22.5307 13.26C23.224 12.9 23.904 12.4 24.5707 11.76L25.6107 12.78C25.2507 13.1533 24.8707 13.4933 24.4707 13.8C24.084 14.0933 23.664 14.3467 23.2107 14.56C22.7573 14.7733 22.2707 14.94 21.7507 15.06C21.2307 15.18 20.6507 15.24 20.0107 15.24ZM37.0483 9.88L33.8683 2.74L30.6683 9.88H37.0483ZM33.1483 0.899999H34.6283L41.0083 15H39.3083L37.6683 11.3H30.0483L28.3883 15H26.7683L33.1483 0.899999ZM43.3611 0.999999H44.9411V13.54H52.8211V15H43.3611V0.999999ZM55.3359 0.999999H65.4559V2.44H56.9159V7.22H64.5559V8.66H56.9159V13.56H65.5559V15H55.3359V0.999999Z" fill="#FEFFFD"/>
</svg>
