<svg xmlns="http://www.w3.org/2000/svg" xmlns:xlink="http://www.w3.org/1999/xlink" width="129" height="109.886" viewBox="0 0 129 109.886">
  <defs>
    <linearGradient id="linear-gradient" x1="0.5" x2="0.5" y2="1" gradientUnits="objectBoundingBox">
      <stop offset="0" stop-color="#e7e7e7"/>
      <stop offset="1" stop-color="#b8b8b8"/>
    </linearGradient>
    <radialGradient id="radial-gradient" cx="0.5" cy="0.5" r="0.5" gradientUnits="objectBoundingBox">
      <stop offset="0" stop-color="#bcbcbc" stop-opacity="0.941"/>
      <stop offset="0.36" stop-color="#cfcfcf" stop-opacity="0.871"/>
      <stop offset="0.535" stop-color="#dbdbdb" stop-opacity="0.859"/>
      <stop offset="0.753" stop-color="#e3e3e3" stop-opacity="0.412"/>
      <stop offset="1" stop-color="#e6e6e6" stop-opacity="0"/>
    </radialGradient>
    <linearGradient id="linear-gradient-6" x1="1" y1="2.491" x2="0.302" y2="-3.388" gradientUnits="objectBoundingBox">
      <stop offset="0" stop-color="#fff" stop-opacity="0.2"/>
      <stop offset="1" stop-color="#fff"/>
    </linearGradient>
    <linearGradient id="linear-gradient-9" x1="0.5" x2="0.5" y2="1" gradientUnits="objectBoundingBox">
      <stop offset="0" stop-color="#139ebf"/>
      <stop offset="1" stop-color="#19829b"/>
    </linearGradient>
    <linearGradient id="linear-gradient-10" x1="0.5" x2="0.5" y2="1" gradientUnits="objectBoundingBox">
      <stop offset="0" stop-color="#fff"/>
      <stop offset="1" stop-color="#fff"/>
    </linearGradient>
  </defs>
  <g id="send-email" transform="translate(-123.04 -95.148)">
    <g id="Grupo_490" data-name="Grupo 490" transform="translate(123 95.148)">
      <g id="Grupo_387" data-name="Grupo 387" transform="translate(23.668)">
        <path id="Trazado_288" data-name="Trazado 288" d="M2442.074,1207.9v20.952l-14.157-13.048a1.346,1.346,0,0,1,.236-2.153l11.9-6.913A1.345,1.345,0,0,1,2442.074,1207.9Z" transform="translate(-2427.483 -1185.277)" fill="url(#linear-gradient)" style="isolation: isolate"/>
        <path id="Trazado_289" data-name="Trazado 289" d="M2486.35,1207.885v20.952l14.157-13.048a1.345,1.345,0,0,0-.236-2.153l-11.9-6.914A1.346,1.346,0,0,0,2486.35,1207.885Z" transform="translate(-2418.925 -1184.883)" fill="url(#linear-gradient)" style="isolation: isolate"/>
        <path id="Trazado_290" data-name="Trazado 290" d="M2495.25,1193.532h-45.084c-3.411,0-6.188,2.447-6.188,5.468l-.524,38.592,12.028,12.649h29.547l15.871-12.649.524-38.592C2501.425,1195.978,2498.662,1193.532,2495.25,1193.532Z" transform="translate(-2431.796 -1193.532)" fill="#e7e7e7" style="isolation: isolate"/>
        <path id="Trazado_291" data-name="Trazado 291" d="M2455.461,1243.911a1.593,1.593,0,0,1-.084,2.317l-13.482,11.376-12.479,10.536a1.417,1.417,0,0,1-2.3-1.2V1219.43a1.415,1.415,0,0,1,2.387-1.121l12.4,12.229Z" transform="translate(-2427.112 -1189.794)" fill="url(#linear-gradient)"/>
        <path id="Trazado_292" data-name="Trazado 292" d="M2505.624,1219.429v47.516a1.489,1.489,0,0,1-2.416,1.2l-13.086-10.536-14.137-11.376a1.545,1.545,0,0,1-.086-2.318l14.223-13.372,13-12.23A1.489,1.489,0,0,1,2505.624,1219.429Z" transform="translate(-2423.607 -1189.396)" fill="url(#linear-gradient)"/>
        <path id="Trazado_293" data-name="Trazado 293" d="M2512.561,1262.788H2434.3a1.5,1.5,0,0,1-.936-2.683l9.369-7.354,18.214-14.278a1.5,1.5,0,0,1,.935-.323h23.392a1.518,1.518,0,0,1,.942.327l17.874,14.177,9.408,7.455A1.5,1.5,0,0,1,2512.561,1262.788Z" transform="translate(-2432.788 -1183.713)" fill="url(#linear-gradient)"/>
      </g>
      <ellipse id="Elipse_87" data-name="Elipse 87" cx="64.5" cy="10.5" rx="64.5" ry="10.5" transform="translate(0.04 88.886)" opacity="0.85" fill="url(#radial-gradient)"/>
    </g>
    <rect id="Rectángulo_313" data-name="Rectángulo 313" width="35" height="4" rx="2" transform="translate(171.04 112.034)" fill="url(#linear-gradient-6)"/>
    <rect id="Rectángulo_314" data-name="Rectángulo 314" width="35" height="4" rx="2" transform="translate(171.04 119.034)" fill="url(#linear-gradient-6)"/>
    <rect id="Rectángulo_315" data-name="Rectángulo 315" width="35" height="4" rx="2" transform="translate(171.04 126.034)" fill="url(#linear-gradient-6)"/>
    <circle id="Elipse_97" data-name="Elipse 97" cx="16.5" cy="16.5" r="16.5" transform="translate(209.04 149.034)" fill="url(#linear-gradient-9)"/>
    <g id="airplane" transform="translate(216.243 158.484)">
      <path id="Trazado_328" data-name="Trazado 328" d="M2930.175,805.9a4.124,4.124,0,0,1-.5.508c-.492.476-.99.945-1.485,1.42a.962.962,0,0,1-.806.251.355.355,0,0,1-.312-.3c-.227-.747-.458-1.49-.687-2.235l-.019-.06,1.6-1.434c-.05.071-.077.135-.039.161.284.2.564.408.845.612q.651.475,1.3.953C2930.113,805.809,2930.171,805.831,2930.175,805.9Z" transform="translate(-2921.298 -794.823)" fill="url(#linear-gradient-10)"/>
      <path id="Trazado_329" data-name="Trazado 329" d="M2895.216,717.586a10.139,10.139,0,0,1-.213,1.121c-.063.324-.132.645-.2.967q-.25,1.161-.5,2.319c-.065.3-.126.606-.191.907-.01.043-.008.094-.056.121a7.685,7.685,0,0,1-.167.857q-.194.98-.392,1.961-.188.852-.372,1.706-.264,1.232-.527,2.463a1.247,1.247,0,0,1-.229.52.649.649,0,0,1-.643.251,1.4,1.4,0,0,1-.633-.269c-1.209-.9-2.687-1.993-3.9-2.887l-1.288-.953c-.278-.2-.555-.413-.835-.612-.085-.062-.078-.1-.008-.167.125-.108.246-.222.368-.331q.887-.8,1.772-1.591c.462-.418.923-.839,1.385-1.257q.908-.817,1.816-1.635c.372-.335.746-.665,1.117-1q.323-.291.645-.586l.008-.007c.012-.012.024-.024.036-.037a.2.2,0,0,0,.029-.044.129.129,0,0,0,0-.109c-.032-.082-.11-.088-.185-.084l-.053.005a.879.879,0,0,0-.091.017.651.651,0,0,0-.065.02.9.9,0,0,0-.186.09l-3.491,2.18q-2.559,1.6-5.119,3.192a1.486,1.486,0,0,1-.328.19h0l-3.529-1.1a2.525,2.525,0,0,1-.561-.217c-.325-.192-.359-.512-.028-.785a2.649,2.649,0,0,1,.556-.306l1.387-.53q.781-.3,1.563-.6l3.722-1.436,4.937-1.9c.034-.013.065-.029.1-.043l2.206-.845,1.024-.393A.768.768,0,0,1,2895.216,717.586Z" transform="translate(-2878.376 -716.67)" fill="url(#linear-gradient-10)"/>
    </g>
  </g>
</svg>
