<svg xmlns="http://www.w3.org/2000/svg" width="23.941" height="23.956" viewBox="0 0 23.941 23.956">
  <defs>
    <style>
      .cls-1 {
        fill: none;
        stroke: #3f3f46;
        stroke-linecap: round;
        stroke-linejoin: round;
        stroke-width: 2px;
      }
    </style>
  </defs>
  <g id="share" transform="translate(1 1.014)">
    <path id="share-2" data-name="share" class="cls-1" d="M9.924,15.6a3.664,3.664,0,0,0,0-3.27m0,3.27a3.655,3.655,0,1,1,0-3.27m0,3.27L18,19.638M9.924,12.329,18,8.289m0,11.349A3.656,3.656,0,1,0,20.116,17.8,3.655,3.655,0,0,0,18,19.638ZM18,8.289a3.655,3.655,0,1,0-.2-2.79A3.654,3.654,0,0,0,18,8.289Z" transform="translate(-3.001 -3)"/>
  </g>
</svg>
