<svg id="shield-exclamation-filled" xmlns="http://www.w3.org/2000/svg" width="17.667" height="18.149" viewBox="0 0 17.667 18.149">
  <path id="shield-exclamation-filled-2" data-name="shield-exclamation-filled" d="M10.833,1.944a13.2,13.2,0,0,1-8.65,3.374,13.27,13.27,0,0,0,8.65,14.7,13.256,13.256,0,0,0,8.833-12.5,13.367,13.367,0,0,0-.183-2.209A13.2,13.2,0,0,1,10.833,1.944Zm1.1,13.312a1.1,1.1,0,1,1-.323-.781A1.1,1.1,0,0,1,11.938,15.256Zm0-7.729a1.1,1.1,0,1,0-2.208,0v3.313a1.1,1.1,0,1,0,2.208,0Z" transform="translate(-2 -1.944)" fill="#19829b" fill-rule="evenodd"/>
</svg>
