<svg xmlns="http://www.w3.org/2000/svg" width="34" height="28.062" viewBox="0 0 34 28.062">
  <g id="showers" transform="translate(1 1)">
    <path id="Trazado_101" data-name="Trazado 101" d="M33.813,21.064a5.438,5.438,0,0,0,.247.945C37.454,22.493,40,24.472,40,28a7,7,0,0,1-7,7H15a7,7,0,0,1-1-13.93.849.849,0,0,1,.184-.006,10,10,0,0,1,19.625,0Z" transform="translate(-8 -13)" fill="none" fill-rule="evenodd"/>
    <path id="Trazado_102" data-name="Trazado 102" d="M33,35h.412a6.409,6.409,0,0,0,.9-12.773,10.4,10.4,0,0,0-20.322-1.741A7.311,7.311,0,0,0,15,34.982" transform="translate(-8 -13)" fill="none" stroke="#fff" stroke-linecap="round" stroke-linejoin="round" stroke-width="2"/>
    <path id="Trazado_103" data-name="Trazado 103" d="M18,37.7l2.5-4.33M23,36.7l2.5-4.33M27,38.7l2.5-4.33" transform="translate(-8 -13)" fill="none" stroke="#fff" stroke-linecap="round" stroke-linejoin="round" stroke-width="2"/>
  </g>
</svg>
