<svg xmlns="http://www.w3.org/2000/svg" width="34" height="29.297" viewBox="0 0 34 29.297">
  <g id="sleet" transform="translate(1 1)">
    <path id="Trazado_104" data-name="Trazado 104" d="M33.813,21.064a5.438,5.438,0,0,0,.247.945C37.454,22.493,40,24.472,40,28a7,7,0,0,1-7,7H15a7,7,0,0,1-1-13.93.849.849,0,0,1,.184-.006,10,10,0,0,1,19.625,0Z" transform="translate(-8 -13)" fill="none" fill-rule="evenodd"/>
    <path id="Trazado_105" data-name="Trazado 105" d="M33,35h.412a6.409,6.409,0,0,0,.9-12.773,10.4,10.4,0,0,0-20.322-1.741A7.311,7.311,0,0,0,15,34.982" transform="translate(-8 -13)" fill="none" stroke="#fff" stroke-linecap="round" stroke-linejoin="round" stroke-width="2"/>
    <path id="Trazado_106" data-name="Trazado 106" d="M25.866,36.179a1.093,1.093,0,0,1-.283-1.51l2.333-4.041a1.012,1.012,0,1,1,1.732,1l-2.333,4.041A1.093,1.093,0,0,1,25.866,36.179Z" transform="translate(-8 -13)" fill="#fff" fill-rule="evenodd"/>
    <path id="Trazado_107" data-name="Trazado 107" d="M26.866,41.179a1.093,1.093,0,0,1-.283-1.51l2.333-4.041a1.012,1.012,0,1,1,1.732,1l-2.333,4.041A1.093,1.093,0,0,1,26.866,41.179Z" transform="translate(-8 -13)" fill="#fff" fill-rule="evenodd"/>
    <path id="Trazado_108" data-name="Trazado 108" d="M20.274,32.492a.875.875,0,0,1,1.75,0V33.6l.961-.555a.875.875,0,1,1,.875,1.516l-.961.555.961.555a.875.875,0,0,1-.875,1.516l-.961-.555v1.109a.875.875,0,0,1-1.75,0V36.633l-.961.555a.875.875,0,0,1-.875-1.516l.961-.555-.961-.555a.875.875,0,0,1,.875-1.516l.961.555Z" transform="translate(-8 -13)" fill="#fff"/>
  </g>
</svg>
