<svg xmlns="http://www.w3.org/2000/svg" xmlns:xlink="http://www.w3.org/1999/xlink" width="27.736" height="45.841" viewBox="0 0 27.736 45.841">
  <defs>
    <linearGradient id="linear-gradient" x1="0.5" x2="0.5" y2="1" gradientUnits="objectBoundingBox">
      <stop offset="0" stop-color="#f4f4f5"/>
      <stop offset="1" stop-color="#f4f4f5" stop-opacity="0.651"/>
    </linearGradient>
  </defs>
  <g id="Smoke-alert" transform="translate(-498.326 -365.047)">
    <path id="Trazado_281" data-name="Trazado 281" d="M522.423,373.46c0,.1,0,.2-.009.292a4.9,4.9,0,0,1-.955,2.727h0a5.575,5.575,0,0,1-3.759,2.382,28.542,28.542,0,0,1-4.037.292h0c-.042,0-.083,0-.126,0a2.4,2.4,0,0,0-2.306,3.042,2.339,2.339,0,0,0,.1.277,3.31,3.31,0,0,1-3.169,4.258c-.06,0-.119,0-.177,0a3.146,3.146,0,0,0-2.786-4.6h-.078a3.069,3.069,0,0,0-.415.038,5.136,5.136,0,0,1-.571.064c-.179.017-.518.027-.666.031a3.007,3.007,0,0,1-3.139-2.957,3.255,3.255,0,0,1,3.25-3.448,3.22,3.22,0,0,1,.548.046h0a55.3,55.3,0,0,0,5.954-.049h0l.1,0c.077,0,.154,0,.228-.011a2.344,2.344,0,0,0,.353-.061h0a2.111,2.111,0,0,0,1.868-2.383,2.138,2.138,0,0,0-1.79-1.9,2.161,2.161,0,0,0-.421-.041c-.074,0-.148,0-.22.011h0c-.869.039-1.819.374-4.559.641a9.8,9.8,0,0,1-5.219-.65l0,0a3.979,3.979,0,0,1-.816-6.8c1.213-.848,2.507-1.441,5.849-1.394a3.226,3.226,0,0,0-1.386,2.3,2.491,2.491,0,0,0,.557,1.638,3.184,3.184,0,0,0,2.537.987,10.668,10.668,0,0,0,1.441-.071c3.892-.31,6.984-1.086,10.708.48A5.168,5.168,0,0,1,522.423,373.46Z" transform="translate(1.518 1.79)" fill="url(#linear-gradient)"/>
    <g id="Grupo_361" data-name="Grupo 361" transform="translate(511.742 383.645)">
      <path id="Trazado_282" data-name="Trazado 282" d="M562.646,456.81a16.079,16.079,0,0,1-6.516,2.148v2.778a.179.179,0,0,1-.126.172,2.792,2.792,0,0,1-.892.15,2.876,2.876,0,0,1-.89-.151.181.181,0,0,1-.128-.172v-2.776c-.286-.031-.626-.076-1.005-.139l-3.99-8.773v0l.2-.431,0,0,.708-1.557.089-.194,3.448-7.561.08-.176a1.64,1.64,0,0,1,2.983,0l6.666,14.614A1.631,1.631,0,0,1,562.646,456.81Z" transform="translate(-549.098 -439.167)" fill="url(#linear-gradient)"/>
    </g>
    <g id="Grupo_362" data-name="Grupo 362" transform="translate(498.326 387.995)">
      <path id="Trazado_283" data-name="Trazado 283" d="M514.986,473.006a16.144,16.144,0,0,1-6.516,2.15v2.776a.18.18,0,0,1-.126.173,2.836,2.836,0,0,1-.894.151,2.905,2.905,0,0,1-.889-.153.181.181,0,0,1-.128-.172v-2.774a16.094,16.094,0,0,1-6.518-2.15,1.631,1.631,0,0,1-.621-2.069l5.7-12.5.964-2.114a1.635,1.635,0,0,1,2.984,0l.915,2.007,1.161,2.546,1,2.195,2.746,6.022.6,1.329,0,0,.261.577.008.021A1.626,1.626,0,0,1,514.986,473.006Z" transform="translate(-499.146 -455.363)" fill="url(#linear-gradient)"/>
      <path id="Trazado_284" data-name="Trazado 284" d="M559.829,512.009l-.261-.577.235.514C559.813,511.966,559.821,511.987,559.829,512.009Z" transform="translate(-543.34 -496.373)" fill="url(#linear-gradient)"/>
    </g>
  </g>
</svg>
