<svg xmlns="http://www.w3.org/2000/svg" xmlns:xlink="http://www.w3.org/1999/xlink" width="44.231" height="30.75" viewBox="0 0 44.231 30.75">
  <defs>
    <linearGradient id="linear-gradient" x1="0.5" x2="0.5" y2="1" gradientUnits="objectBoundingBox">
      <stop offset="0" stop-color="#f4f4f5"/>
      <stop offset="1" stop-color="#f6f6f6" stop-opacity="0.78"/>
    </linearGradient>
  </defs>
  <g id="smoke-white" transform="translate(-1058.857 -312.382)">
    <path id="Trazado_242" data-name="Trazado 242" d="M1103.089,325.642a1.944,1.944,0,0,1-1.945,1.946h-12.823a1.945,1.945,0,0,1,1.378,3.319,1.98,1.98,0,0,1-.568.393,1.942,1.942,0,0,1-.809.177h-.882a1.944,1.944,0,1,0,0,3.887h1.522a1.945,1.945,0,0,1,.243,3.875h-5.524a1.785,1.785,0,0,0-.239.016,1.949,1.949,0,0,0-1.706,1.929,2.034,2.034,0,0,0,.041.4,1.954,1.954,0,0,0,1.736,1.535l.009.007c-4.145,0-4.547-3.085-4.582-3.875h-8.179a1.946,1.946,0,0,1,0-3.891h4.573a1.944,1.944,0,0,0,0-3.887h-13.648a1.945,1.945,0,1,1,0-3.89h5.694a1.945,1.945,0,1,1,0-3.889h6.043a1.945,1.945,0,1,0,0-3.889h-13.43a1.945,1.945,0,0,1,.808-3.714h6.748a1.857,1.857,0,0,1,0-3.714h19.434a1.857,1.857,0,0,1,0,3.714h5.535a1.947,1.947,0,0,1,1.376,3.321,1.968,1.968,0,0,1-.565.393h-6.187a1.95,1.95,0,0,0-1.945,1.945,1.947,1.947,0,0,0,1.945,1.945h14A1.943,1.943,0,0,1,1103.089,325.642Z" transform="translate(0 0)" fill="url(#linear-gradient)"/>
    <line id="Línea_34" data-name="Línea 34" x1="0.273" transform="translate(1078.94 339.257)" fill="#115a6f"/>
  </g>
</svg>
