<svg xmlns="http://www.w3.org/2000/svg" width="34" height="30.5" viewBox="0 0 34 30.5">
  <g id="snow" transform="translate(1 1)">
    <path id="Trazado_112" data-name="Trazado 112" d="M33.813,21.064a5.438,5.438,0,0,0,.247.945C37.454,22.493,40,24.472,40,28a7,7,0,0,1-7,7H15a7,7,0,0,1-1-13.93.849.849,0,0,1,.184-.006,10,10,0,0,1,19.625,0Z" transform="translate(-8 -13)" fill="none" fill-rule="evenodd"/>
    <path id="Trazado_113" data-name="Trazado 113" d="M33,35h.412a6.409,6.409,0,0,0,.9-12.773,10.4,10.4,0,0,0-20.322-1.741A7.311,7.311,0,0,0,15,34.982" transform="translate(-8 -13)" fill="none" stroke="#fff" stroke-linecap="round" stroke-linejoin="round" stroke-width="2"/>
    <path id="Trazado_114" data-name="Trazado 114" d="M19.274,28.875a.875.875,0,0,1,1.75,0v1.11l.961-.555a.875.875,0,1,1,.875,1.516L21.9,31.5l.961.555a.875.875,0,0,1-.875,1.516l-.961-.555v1.109a.875.875,0,0,1-1.75,0v-1.11l-.961.555a.875.875,0,0,1-.875-1.516L18.4,31.5l-.961-.555a.875.875,0,0,1,.875-1.516l.961.555Z" transform="translate(-8 -13)" fill="#fff"/>
    <path id="Trazado_115" data-name="Trazado 115" d="M27.274,30.875a.875.875,0,0,1,1.75,0v1.11l.961-.555a.875.875,0,0,1,.875,1.516L29.9,33.5l.961.555a.875.875,0,0,1-.875,1.516l-.961-.555v1.109a.875.875,0,0,1-1.75,0v-1.11l-.961.555a.875.875,0,0,1-.875-1.516L26.4,33.5l-.961-.555a.875.875,0,0,1,.875-1.516l.961.555Z" transform="translate(-8 -13)" fill="#fff"/>
    <path id="Trazado_116" data-name="Trazado 116" d="M21.274,36.375a.875.875,0,0,1,1.75,0v1.11l.961-.555a.875.875,0,0,1,.875,1.516L23.9,39l.961.555a.875.875,0,0,1-.875,1.516l-.961-.555v1.109a.875.875,0,0,1-1.75,0v-1.11l-.961.555a.875.875,0,0,1-.875-1.516L20.4,39l-.961-.555a.875.875,0,0,1,.875-1.516l.961.555Z" transform="translate(-8 -13)" fill="#fff"/>
  </g>
</svg>
