<svg xmlns="http://www.w3.org/2000/svg" width="45.993" height="42.231" viewBox="0 0 45.993 42.231">
  <g id="sun-showers" transform="translate(1 1)">
    <path id="Trazado_183" data-name="Trazado 183" d="M752.379,536.62a8.23,8.23,0,0,1-3.28,6.59,4.3,4.3,0,0,0-.65-.47,8.505,8.505,0,0,0-3.04-1.07,10.37,10.37,0,0,0-7.79-8.75.01.01,0,0,0-.01.01c-.19-.05-.37-.09-.56-.13-.03-.01-.014-.075-.054-.075s-.066-.057-.106-.057l-.05.092a8.249,8.249,0,0,1,15.54,3.86Z" transform="translate(-714.135 -522.623)" fill="none" stroke="#fff" stroke-width="2"/>
    <g id="Grupo_263" data-name="Grupo 263" transform="translate(-714.135 -522.623)">
      <g id="Grupo_59" data-name="Grupo 59">
        <line id="Línea_45" data-name="Línea 45" x1="2.5" transform="translate(755.628 536.873)" fill="none" stroke="#fff" stroke-linecap="round" stroke-linejoin="round" stroke-width="2"/>
      </g>
    </g>
    <g id="Grupo_264" data-name="Grupo 264" transform="translate(-714.135 -522.623)">
      <g id="Grupo_61" data-name="Grupo 61">
        <line id="Línea_47" data-name="Línea 47" x1="2.165" y1="1.25" transform="translate(753.962 542.589)" fill="none" stroke="#fff" stroke-linecap="round" stroke-linejoin="round" stroke-width="2"/>
      </g>
    </g>
    <g id="Grupo_265" data-name="Grupo 265" transform="translate(-714.135 -522.623)">
      <g id="Grupo_63" data-name="Grupo 63">
        <line id="Línea_49" data-name="Línea 49" x1="1.25" y1="2.165" transform="translate(736.912 524.624)" fill="none" stroke="#fff" stroke-linecap="round" stroke-linejoin="round" stroke-width="2"/>
      </g>
    </g>
    <g id="Grupo_266" data-name="Grupo 266" transform="translate(-714.135 -522.623)">
      <g id="Grupo_65" data-name="Grupo 65">
        <line id="Línea_51" data-name="Línea 51" y1="2.5" transform="translate(743.878 522.623)" fill="none" stroke="#fff" stroke-linecap="round" stroke-linejoin="round" stroke-width="2"/>
      </g>
    </g>
    <g id="Grupo_267" data-name="Grupo 267" transform="translate(-714.135 -522.623)">
      <g id="Grupo_67" data-name="Grupo 67">
        <line id="Línea_53" data-name="Línea 53" y1="2.165" x2="1.25" transform="translate(749.662 524.374)" fill="none" stroke="#fff" stroke-linecap="round" stroke-linejoin="round" stroke-width="2"/>
      </g>
    </g>
    <g id="Grupo_268" data-name="Grupo 268" transform="translate(-714.135 -522.623)">
      <g id="Grupo_69" data-name="Grupo 69">
        <line id="Línea_55" data-name="Línea 55" y1="1.25" x2="2.165" transform="translate(753.962 529.406)" fill="none" stroke="#fff" stroke-linecap="round" stroke-linejoin="round" stroke-width="2"/>
      </g>
    </g>
    <path id="Trazado_184" data-name="Trazado 184" d="M733.169,532.79a1.162,1.162,0,0,1-.18.04,10.375,10.375,0,0,0-7.87,7.28,7.318,7.318,0,0,0-5.58,4.76,5.482,5.482,0,0,1-5.4-5.33,4.663,4.663,0,0,1,.02-.65,1.5,1.5,0,0,1,.04-.24,5.443,5.443,0,0,1,4.43-4.66,7.725,7.725,0,0,1,6.81-5.59q.345-.03.69-.03c.24,0,.48.01.71.03.13.01.25.02.38.04A7.681,7.681,0,0,1,733.169,532.79Z" transform="translate(-714.135 -522.623)" fill="none" stroke="#fff" stroke-linecap="round" stroke-linejoin="round" stroke-width="2"/>
    <path id="Trazado_185" data-name="Trazado 185" d="M751.1,548.09a2.617,2.617,0,0,1,.01.28,6.412,6.412,0,0,1-6.57,6.25h-18.41a6.986,6.986,0,0,1-7.01-6.98.97.97,0,0,1,.01-.17,6.657,6.657,0,0,1,.56-2.6h-.15a7.318,7.318,0,0,1,5.58-4.76,10.375,10.375,0,0,1,7.87-7.28.035.035,0,0,0,.01.02.585.585,0,0,1,.18-.04,1.6,1.6,0,0,1,.21-.05c.19-.03.37-.06.56-.08a1.224,1.224,0,0,1,.19-.02c.08-.01.16-.01.23-.02.24-.02.47-.03.7-.03.35,0,.69.02,1.04.05a5.834,5.834,0,0,1,.73.1v.01c.04,0,.07.01.1.01a.359.359,0,0,1,.11.02c.19.04.37.08.56.13a.01.01,0,0,1,.01-.01,10.37,10.37,0,0,1,7.79,8.75,8.505,8.505,0,0,1,3.04,1.07,4.3,4.3,0,0,1,.65.47,5.386,5.386,0,0,1,2.03,4.41A3.59,3.59,0,0,1,751.1,548.09Z" transform="translate(-714.135 -522.623)" fill="none" stroke="#fff" stroke-linecap="round" stroke-linejoin="round" stroke-width="2"/>
    <path id="Trazado_76" data-name="Trazado 76" d="M729.128,561.488l2.5-4.33m2.5,3.33,2.5-4.33m1.5,6.33,2.5-4.33" transform="translate(-714.135 -522.623)" fill="none" stroke="#fff" stroke-linecap="round" stroke-linejoin="round" stroke-width="2"/>
  </g>
</svg>
