<svg id="temperature" xmlns="http://www.w3.org/2000/svg" width="18.067" height="33.281" viewBox="0 0 18.067 33.281">
  <path id="Trazado_67" data-name="Trazado 67" d="M23.033,8a4.713,4.713,0,0,1,4.732,4.693V24.687a9.034,9.034,0,1,1-9.464,0V12.693A4.713,4.713,0,0,1,23.033,8ZM20.452,25.99a6.883,6.883,0,1,0,5.162,0v-13.3a2.581,2.581,0,0,0-5.162,0Z" transform="translate(-14 -8)" fill="#fff" fill-rule="evenodd"/>
  <path id="Trazado_68" data-name="Trazado 68" d="M28.911,33.205A5.705,5.705,0,1,1,23.205,27.5,5.705,5.705,0,0,1,28.911,33.205Z" transform="translate(-14.172 -8.958)" fill="#fff"/>
  <path id="Trazado_69" data-name="Trazado 69" d="M24.853,24.426a1.426,1.426,0,0,0-2.853,0v6.656a1.426,1.426,0,0,0,2.853,0Z" transform="translate(-14.393 -8.737)" fill="#fff"/>
</svg>
