<svg id="trash-filled" xmlns="http://www.w3.org/2000/svg" width="22.688" height="25.93" viewBox="0 0 22.688 25.93">
  <defs>
    <style>
      .cls-1 {
        fill: #3f3f46;
        fill-rule: evenodd;
      }
    </style>
  </defs>
  <path id="trash-filled-2" data-name="trash-filled" class="cls-1" d="M12.724,2a1.621,1.621,0,0,0-1.449.9L10.1,5.241H4.621a1.621,1.621,0,1,0,0,3.241V24.688A3.241,3.241,0,0,0,7.862,27.93H20.827a3.241,3.241,0,0,0,3.241-3.241V8.482a1.621,1.621,0,0,0,0-3.241H18.587L17.414,2.9A1.621,1.621,0,0,0,15.965,2ZM9.482,11.724a1.621,1.621,0,1,1,3.241,0v9.724a1.621,1.621,0,0,1-3.241,0Zm8.1-1.621a1.621,1.621,0,0,0-1.621,1.621v9.724a1.621,1.621,0,0,0,3.241,0V11.724A1.621,1.621,0,0,0,17.585,10.1Z" transform="translate(-3 -2)"/>
</svg>
