<svg width="26" height="28" viewBox="0 0 26 28" fill="none" xmlns="http://www.w3.org/2000/svg">
<g clip-path="url(#clip0_126_591)">
<path d="M0.0316687 15.8667C0.0316687 15.8988 0.0316687 15.931 0.0316687 15.931C0.0633374 16.1241 0.0633374 16.3172 0.126675 16.5103C0.126675 16.5425 0.126675 16.5425 0.158343 16.5747C0.190012 16.7678 0.25335 16.9609 0.316687 17.1218C0.316687 17.154 0.348356 17.154 0.348356 17.1862C0.380024 17.2828 0.411693 17.3471 0.47503 17.4437C0.506699 17.5402 0.570037 17.6046 0.601705 17.7011C0.601705 17.7333 0.633374 17.7333 0.633374 17.7655C0.72838 17.9264 0.823386 18.0874 0.950061 18.2483C0.950061 18.2805 0.98173 18.2805 0.98173 18.3126C1.1084 18.4736 1.23508 18.6023 1.36175 18.731C1.39342 18.7632 1.39342 18.7632 1.42509 18.7954C1.55177 18.9241 1.71011 19.0529 1.83678 19.1494C1.86845 19.1494 1.86845 19.1816 1.90012 19.1816C2.05847 19.2782 2.21681 19.3747 2.37515 19.4713C2.40682 19.4713 2.40682 19.5034 2.43849 19.5034C2.5335 19.5356 2.59683 19.6 2.69184 19.6322C3.19854 19.8575 3.76858 19.9862 4.37028 19.9862H21.6614C22.2631 19.9862 22.8331 19.8575 23.3398 19.6322C23.4348 19.6 23.4982 19.5678 23.5932 19.5034C23.6248 19.5034 23.6248 19.4713 23.6565 19.4713C23.8149 19.3747 23.9732 19.2782 24.1315 19.1816C24.1632 19.1816 24.1632 19.1494 24.1949 19.1494C24.3532 19.0529 24.4799 18.9241 24.6066 18.7954C24.6382 18.7954 24.6382 18.7632 24.6699 18.731C24.7966 18.6023 24.9233 18.4736 25.0499 18.3126C25.0499 18.2805 25.0816 18.2805 25.0816 18.2483C25.2083 18.0874 25.3033 17.9586 25.3983 17.7655C25.3983 17.7333 25.43 17.7333 25.43 17.7011C25.4616 17.6046 25.525 17.5402 25.5566 17.4437C25.5883 17.3471 25.62 17.2828 25.6833 17.1862C25.6833 17.154 25.715 17.154 25.715 17.1218C25.7783 16.9287 25.8417 16.7678 25.8733 16.5747C25.8733 16.5425 25.8733 16.5425 25.905 16.5103C25.9367 16.3172 25.9683 16.1241 26 15.931C26 15.8988 26 15.8667 26 15.8667C26 15.7701 26 15.6736 26 15.577C26 13.3563 24.3532 11.5218 22.2631 11.2322C23.9099 9.52644 23.8782 6.75862 22.1998 5.08506C20.9013 3.76552 18.9379 3.44368 17.3544 4.18391C17.1644 1.83448 15.296 0 12.9842 0C10.6724 0 8.8039 1.83448 8.67722 4.15172C7.09379 3.41149 5.13033 3.70115 3.83191 5.05287C2.15347 6.75862 2.15347 9.49425 3.76857 11.2C1.64677 11.4897 0 13.3241 0 15.5448C0 15.6736 0 15.7701 0.0316687 15.8667Z" fill="#E1B162"/>
<path d="M14.3143 22.8506H11.1475V28H14.3143V22.8506Z" fill="#E1B162"/>
<path d="M13.6809 19.3103H11.7808V24.1379H13.6809V19.3103Z" fill="#E1B162"/>
<path d="M12.0976 26.6483C12.0976 22.4644 8.0123 19.0851 4.49707 19.0851" stroke="#E1B162" stroke-width="2" stroke-miterlimit="10"/>
<path d="M13.3643 26.2299C13.3643 22.046 17.4495 18.6667 20.9647 18.6667" stroke="#E1B162" stroke-width="2" stroke-miterlimit="10"/>
</g>
<defs>
<clipPath id="clip0_126_591">
<rect width="26" height="28" fill="white"/>
</clipPath>
</defs>
</svg>
