<svg width="48" height="63" viewBox="0 0 48 63" fill="none" xmlns="http://www.w3.org/2000/svg">
<g clip-path="url(#clip0_171_4258)">
<path d="M42.7717 27.7981C42.025 27.0643 41.1787 26.4898 40.2907 26.0435C40.5793 25.1303 40.7253 24.189 40.7253 23.2435V21.9456C40.7253 17.599 37.6836 13.924 33.6065 12.8539C33.5866 10.4001 32.6272 8.02331 30.8098 6.23755L30.7968 6.22474L30.7834 6.21225C28.9876 4.53166 26.6472 3.5 24.0344 3.5C18.7806 3.5 14.5046 7.6388 14.4622 12.8539C10.3852 13.924 7.34348 17.599 7.34348 21.9456V23.2435C7.34348 24.2016 7.47985 25.1395 7.7585 26.0314C4.6524 27.6116 2.5 30.8432 2.5 34.4925C2.5 36.9739 3.46038 39.3822 5.29705 41.1869C7.10796 42.9663 9.53626 43.9966 12.0725 43.9966H19.3054V56.702C19.3054 58.2763 20.589 59.5 22.1264 59.5H25.869C27.4064 59.5 28.69 58.2763 28.69 56.702V43.9966H35.9229C41.1945 43.9966 45.4815 39.8299 45.4954 34.5901C45.5758 32.0167 44.6066 29.601 42.7717 27.7981Z" fill="#F2A62A" stroke="white" stroke-width="3"/>
</g>
<defs>
<clipPath id="clip0_171_4258">
<rect width="47.5472" height="63" fill="white"/>
</clipPath>
</defs>
</svg>
