<svg width="71" height="15" viewBox="0 0 71 15" fill="none" xmlns="http://www.w3.org/2000/svg">
<path d="M5.10928 1.46H0.409283V-9.53674e-07H11.4093V1.46H6.70928V14H5.10928V1.46ZM19.85 7.14C20.37 7.14 20.85 7.07333 21.29 6.94C21.73 6.80667 22.11 6.62 22.43 6.38C22.75 6.12667 22.9967 5.82667 23.17 5.48C23.3567 5.12 23.45 4.71333 23.45 4.26V4.22C23.45 3.35333 23.1367 2.68 22.51 2.2C21.8834 1.70667 21.0034 1.46 19.87 1.46H15.55V7.14H19.85ZM13.97 -9.53674e-07H19.99C20.8567 -9.53674e-07 21.6234 0.126666 22.29 0.379999C22.97 0.619999 23.53 0.959999 23.97 1.4C24.3167 1.74667 24.5834 2.15333 24.77 2.62C24.9567 3.08667 25.05 3.6 25.05 4.16V4.2C25.05 4.78667 24.9567 5.31333 24.77 5.78C24.5834 6.23333 24.3167 6.63333 23.97 6.98C23.6367 7.31333 23.2367 7.59333 22.77 7.82C22.3034 8.03333 21.7967 8.18667 21.25 8.28L25.55 14H23.61L19.55 8.56H19.51H15.55V14H13.97V-9.53674e-07ZM33.6152 14.22C32.7485 14.22 31.9552 14.0933 31.2352 13.84C30.5285 13.5733 29.9152 13.1867 29.3952 12.68C28.8885 12.16 28.4952 11.52 28.2152 10.76C27.9352 10 27.7952 9.12667 27.7952 8.14V-9.53674e-07H29.3752V8.04C29.3752 9.56 29.7485 10.7267 30.4952 11.54C31.2552 12.3533 32.3085 12.76 33.6552 12.76C34.9485 12.76 35.9752 12.3733 36.7352 11.6C37.4952 10.8267 37.8752 9.67333 37.8752 8.14V-9.53674e-07H39.4552V8.02C39.4552 9.04667 39.3152 9.94667 39.0352 10.72C38.7552 11.4933 38.3552 12.14 37.8352 12.66C37.3285 13.18 36.7152 13.5733 35.9952 13.84C35.2885 14.0933 34.4952 14.22 33.6152 14.22ZM42.7829 -9.53674e-07H44.2629L53.0829 11.22V-9.53674e-07H54.6229V14H53.3629L44.3229 2.52V14H42.7829V-9.53674e-07ZM58.1757 -9.53674e-07H59.7557V8.36L67.7957 -9.53674e-07H69.8357L63.8357 6.12L70.0957 14H68.1157L62.7357 7.22L59.7557 10.24V14H58.1757V-9.53674e-07Z" fill="#FEFFFD"/>
</svg>
