<svg id="user-circle-filled" xmlns="http://www.w3.org/2000/svg" width="24.009" height="24" viewBox="0 0 24.009 24">
  <defs>
    <style>
      .cls-1 {
        fill: #3f3f46;
        fill-rule: evenodd;
      }
    </style>
  </defs>
  <path id="Trazado_166" data-name="Trazado 166" class="cls-1" d="M605.284,103.15a12,12,0,0,0-8,20.942,12,12,0,0,0,20.008-8.946A12,12,0,0,0,605.284,103.15Zm0,4.936a3.763,3.763,0,1,1-3.763,3.763A3.763,3.763,0,0,1,605.284,108.086Zm7.206,14.33a9.106,9.106,0,0,1-2.692,2,11.23,11.23,0,0,1-9.093,0,9,9,0,0,1-2.628-1.941.734.734,0,0,1-.165-.806l.806-1.987a3.975,3.975,0,0,1,3.452-2.8h6.318c1.483,0,2.839,1.154,3.525,2.994l.65,1.758A.738.738,0,0,1,612.49,122.416Z" transform="translate(-593.279 -103.15)"/>
</svg>
