<svg xmlns="http://www.w3.org/2000/svg" width="35.108" height="35.108" viewBox="0 0 35.108 35.108">
  <g id="user-location" transform="translate(-210.946 -257.946)">
    <path id="Trazado_280" data-name="Trazado 280" d="M17.554,0A17.554,17.554,0,1,1,0,17.554,17.554,17.554,0,0,1,17.554,0Z" transform="translate(210.946 257.946)" fill="#2074e7" opacity="0.2"/>
    <g id="plus-circle-filled" transform="translate(133.222 346.222)">
      <g id="Trazado_279" data-name="Trazado 279" transform="translate(87.23 -78.77)" fill="#2074e7">
        <path d="M 8.047119140625 15.09423923492432 C 4.161319255828857 15.09423923492432 0.9999991655349731 11.9329195022583 0.9999991655349731 8.047119140625 C 0.9999991655349731 4.161319255828857 4.161319255828857 0.9999991655349731 8.047119140625 0.9999991655349731 C 11.9329195022583 0.9999991655349731 15.09423923492432 4.161319255828857 15.09423923492432 8.047119140625 C 15.09423923492432 11.9329195022583 11.9329195022583 15.09423923492432 8.047119140625 15.09423923492432 Z" stroke="none"/>
        <path d="M 8.047119140625 1.999999046325684 C 4.712729454040527 1.999999046325684 1.999999046325684 4.712729454040527 1.999999046325684 8.047119140625 C 1.999999046325684 11.38150978088379 4.712729454040527 14.09423923492432 8.047119140625 14.09423923492432 C 11.38150978088379 14.09423923492432 14.09423923492432 11.38150978088379 14.09423923492432 8.047119140625 C 14.09423923492432 4.712729454040527 11.38150978088379 1.999999046325684 8.047119140625 1.999999046325684 M 8.047119140625 0 C 12.49141883850098 0 16.09423828125 3.602819442749023 16.09423828125 8.047119140625 C 16.09423828125 12.49141883850098 12.49141883850098 16.09423828125 8.047119140625 16.09423828125 C 3.602819442749023 16.09423828125 0 12.49141883850098 0 8.047119140625 C 0 3.602819442749023 3.602819442749023 0 8.047119140625 0 Z" stroke="none" fill="#fff"/>
      </g>
    </g>
  </g>
</svg>
