<svg xmlns="http://www.w3.org/2000/svg" width="44" height="44" viewBox="0 0 44 44">
  <g id="user" transform="translate(-23.945 -93.945)">
    <circle id="Elipse_21" data-name="Elipse 21" cx="22" cy="22" r="22" transform="translate(23.945 93.945)" fill="#f4f4f5"/>
    <g id="Grupo_65" data-name="Grupo 65" transform="translate(35.537 104.968)">
      <path id="Trazado_69" data-name="Trazado 69" d="M640.826,113.689a5.149,5.149,0,1,1-5.149-5.149A5.149,5.149,0,0,1,640.826,113.689Z" transform="translate(-625.518 -108.54)" fill="#b8b8b8" fill-rule="evenodd"/>
      <path id="Trazado_70" data-name="Trazado 70" d="M646.548,125.719a12.459,12.459,0,0,1-3.683,2.731,15.363,15.363,0,0,1-12.44,0,12.315,12.315,0,0,1-3.6-2.656,1,1,0,0,1-.225-1.1l1.1-2.718c.965-2.368,2.769-3.833,4.723-3.833h8.644c2.029,0,3.883,1.578,4.823,4.1l.889,2.405A1.009,1.009,0,0,1,646.548,125.719Z" transform="translate(-626.529 -106.114)" fill="#b8b8b8" fill-rule="evenodd"/>
    </g>
  </g>
</svg>
