<svg xmlns="http://www.w3.org/2000/svg" width="26" height="18" viewBox="0 0 26 18">
  <defs>
    <style>
      .cls-1 {
        fill: none;
        stroke: #3f3f46;
        stroke-linecap: round;
        stroke-linejoin: round;
        stroke-width: 2px;
      }
    </style>
  </defs>
  <g id="video-camera" transform="translate(1 1)">
    <path id="video-camera-2" data-name="video-camera" class="cls-1" d="M19,11.333,25.071,8.3A1.333,1.333,0,0,1,27,9.491v9.019A1.333,1.333,0,0,1,25.071,19.7L19,16.667ZM5.667,22H16.333A2.667,2.667,0,0,0,19,19.333V8.667A2.667,2.667,0,0,0,16.333,6H5.667A2.667,2.667,0,0,0,3,8.667V19.333A2.667,2.667,0,0,0,5.667,22Z" transform="translate(-3 -6)"/>
  </g>
</svg>
