<svg id="video-camera-filled" xmlns="http://www.w3.org/2000/svg" width="25.066" height="18.8" viewBox="0 0 25.066 18.8">
  <defs>
    <style>
      .cls-1 {
        fill: #3f3f46;
      }
    </style>
  </defs>
  <path id="video-camera-filled-2" data-name="video-camera-filled" class="cls-1" d="M2,7.133A3.133,3.133,0,0,1,5.133,4h9.4a3.133,3.133,0,0,1,3.133,3.133V19.666A3.133,3.133,0,0,1,14.533,22.8h-9.4A3.133,3.133,0,0,1,2,19.666ZM21.666,8.866a1.567,1.567,0,0,0-.866,1.4v6.267a1.567,1.567,0,0,0,.866,1.4L24.8,19.5a1.567,1.567,0,0,0,2.267-1.4V8.7A1.567,1.567,0,0,0,24.8,7.3Z" transform="translate(-2 -4)"/>
</svg>
