<svg id="volume-off-filled" xmlns="http://www.w3.org/2000/svg" width="24" height="19.75" viewBox="0 0 24 19.75">
  <defs>
    <style>
      .cls-1 {
        fill: #3f3f46;
        fill-rule: evenodd;
      }
    </style>
  </defs>
  <path id="volume-off-filled-2" data-name="volume-off-filled" class="cls-1" d="M12.826,3.107a1.411,1.411,0,0,1,.87,1.3V21.34a1.411,1.411,0,0,1-2.408,1l-5.23-5.23H2.411A1.411,1.411,0,0,1,1,15.7V10.054A1.411,1.411,0,0,1,2.411,8.643H6.059l5.23-5.23a1.411,1.411,0,0,1,1.538-.306Zm4.105,5.949a1.411,1.411,0,0,1,1.995,0L20.75,10.88l1.824-1.824a1.411,1.411,0,1,1,1.995,1.995l-1.824,1.824L24.569,14.7a1.411,1.411,0,0,1-1.995,1.995L20.75,14.87l-1.824,1.824A1.411,1.411,0,0,1,16.931,14.7l1.824-1.824-1.824-1.824a1.411,1.411,0,0,1,0-1.995Z" transform="translate(-1 -3)"/>
</svg>
