<svg xmlns="http://www.w3.org/2000/svg" width="25.068" height="21.799" viewBox="0 0 25.068 21.799">
  <defs>
    <style>
      .cls-1 {
        fill: none;
        stroke: #3f3f46;
        stroke-linecap: round;
        stroke-linejoin: round;
        stroke-width: 2px;
      }
    </style>
  </defs>
  <g id="volume-off" transform="translate(1 1.024)">
    <path id="Trazado_15" data-name="Trazado 15" class="cls-1" d="M4.358,17.575H6.513l6.393,5.809a1.379,1.379,0,0,0,2.319-.872V5.235a1.379,1.379,0,0,0-2.319-.872L6.513,10.171H4.358a1.431,1.431,0,0,0-.96.361A1.18,1.18,0,0,0,3,11.4v4.936a1.18,1.18,0,0,0,.4.873A1.431,1.431,0,0,0,4.358,17.575Z" transform="translate(-3 -3.998)"/>
    <path id="Trazado_16" data-name="Trazado 16" class="cls-1" d="M19.291,12.291l2.291,2.291m-4.582,0,2.291-2.291Zm2.291-2.291L21.582,10Zm0,0L17,10Z" transform="translate(1.071 -2.416)"/>
  </g>
</svg>
