<svg id="volume-up-filled" xmlns="http://www.w3.org/2000/svg" width="24" height="19.621" viewBox="0 0 24 19.621">
  <defs>
    <style>
      .cls-1 {
        fill: #3f3f46;
        fill-rule: evenodd;
      }
    </style>
  </defs>
  <path id="volume-up-filled-2" data-name="volume-up-filled" class="cls-1" d="M12.177,3.223A1.333,1.333,0,0,1,13,4.455v16a1.333,1.333,0,0,1-2.276.943L5.781,16.455H2.333A1.333,1.333,0,0,1,1,15.121V9.788A1.333,1.333,0,0,1,2.333,8.455H5.781l4.943-4.943a1.333,1.333,0,0,1,1.453-.289Zm7.032-.2a1.333,1.333,0,0,1,1.885,0,13.323,13.323,0,0,1,0,18.856A1.333,1.333,0,0,1,19.209,20a10.668,10.668,0,0,0,0-15.085,1.333,1.333,0,0,1,0-1.885ZM15.437,6.8a1.333,1.333,0,0,1,1.887,0,8,8,0,0,1,0,11.315,1.334,1.334,0,1,1-1.887-1.887,5.325,5.325,0,0,0,0-7.541,1.333,1.333,0,0,1,0-1.887Z" transform="translate(-1 -2.636)"/>
</svg>
