<svg width="28" height="23" viewBox="0 0 28 23" fill="none" xmlns="http://www.w3.org/2000/svg">
<g clip-path="url(#clip0_162_1272)">
<path d="M2.1 0.0131836C1.295 0.0131836 0.7 0.605608 0.7 1.40712C0.7 2.20864 1.295 2.80106 2.1 2.80106H23.8V0.0131836H2.1ZM0 3.21923V21.2359C0 22.2117 0.77 22.9783 1.75 22.9783H26.25C27.23 22.9783 28 22.2117 28 21.2359V17.4026H17.15C16.205 17.4026 15.4 16.601 15.4 15.6601V11.4783C15.4 10.5374 16.205 9.7359 17.15 9.7359H28V5.90256C28 4.92681 27.23 4.16014 26.25 4.16014L1.785 4.1253C1.085 4.09045 0.455 3.74195 0 3.21923ZM17.15 11.1647C16.94 11.1647 16.8 11.3041 16.8 11.5132V15.695C16.8 15.9041 16.94 16.0435 17.15 16.0435H28V11.1647H17.15ZM20.65 12.5586C21.245 12.5586 21.7 13.0117 21.7 13.6041C21.7 14.1965 21.245 14.6495 20.65 14.6495C20.055 14.6495 19.6 14.1965 19.6 13.6041C19.6 13.0117 20.055 12.5586 20.65 12.5586Z" fill="#E1B162"/>
</g>
<defs>
<clipPath id="clip0_162_1272">
<rect width="28" height="23" fill="white"/>
</clipPath>
</defs>
</svg>
