<svg xmlns="http://www.w3.org/2000/svg" width="41.003" height="33.999" viewBox="0 0 41.003 33.999">
  <g id="weather" transform="translate(-694.67 -133.52)">
    <path id="Trazado_129" data-name="Trazado 129" d="M721.73,153.529a5.086,5.086,0,0,1-.24-.95h-.01a10,10,0,0,0-7.14-7.71c-.07-.01-.13-.03-.19-.04-.18-.05-.36-.09-.54-.13-.08-.02-.068-.19-.148-.19a8,8,0,0,1,7.208-4.24,8.258,8.258,0,0,1,4.98,14.84c-.07.05-.15.1-.22.16a4.938,4.938,0,0,0-.64-.49,6.232,6.232,0,0,0-2.8-1.03" fill="none" stroke="#fff" stroke-width="2"/>
    <g id="Grupo_93" data-name="Grupo 93">
      <g id="Grupo_44" data-name="Grupo 44">
        <line id="Línea_30" data-name="Línea 30" x1="2.5" transform="translate(732.173 148.77)" fill="none" stroke="#fff" stroke-linecap="round" stroke-linejoin="round" stroke-width="2"/>
      </g>
    </g>
    <g id="Grupo_94" data-name="Grupo 94">
      <g id="Grupo_48" data-name="Grupo 48">
        <line id="Línea_34" data-name="Línea 34" x1="2.165" y1="1.25" transform="translate(730.507 154.486)" fill="none" stroke="#fff" stroke-linecap="round" stroke-linejoin="round" stroke-width="2"/>
      </g>
    </g>
    <g id="Grupo_95" data-name="Grupo 95">
      <g id="Grupo_50" data-name="Grupo 50">
        <line id="Línea_36" data-name="Línea 36" x1="1.25" y1="2.165" transform="translate(713.457 136.521)" fill="none" stroke="#fff" stroke-linecap="round" stroke-linejoin="round" stroke-width="2"/>
      </g>
    </g>
    <g id="Grupo_96" data-name="Grupo 96">
      <g id="Grupo_52" data-name="Grupo 52">
        <line id="Línea_38" data-name="Línea 38" y1="2.5" transform="translate(720.423 134.52)" fill="none" stroke="#fff" stroke-linecap="round" stroke-linejoin="round" stroke-width="2"/>
      </g>
    </g>
    <g id="Grupo_97" data-name="Grupo 97">
      <g id="Grupo_54" data-name="Grupo 54">
        <line id="Línea_40" data-name="Línea 40" y1="2.165" x2="1.25" transform="translate(726.207 136.271)" fill="none" stroke="#fff" stroke-linecap="round" stroke-linejoin="round" stroke-width="2"/>
      </g>
    </g>
    <g id="Grupo_98" data-name="Grupo 98">
      <g id="Grupo_56" data-name="Grupo 56">
        <line id="Línea_42" data-name="Línea 42" y1="1.25" x2="2.165" transform="translate(730.507 141.303)" fill="none" stroke="#fff" stroke-linecap="round" stroke-linejoin="round" stroke-width="2"/>
      </g>
    </g>
    <path id="Trazado_130" data-name="Trazado 130" d="M727.64,159.989a6.975,6.975,0,0,1-6.97,6.53H702.98a7.316,7.316,0,0,1-7.31-7.1v-.13a3.093,3.093,0,0,1,.02-.43,7,7,0,0,1,5.98-6.27,1.209,1.209,0,0,1,.19-.01q.09-.45.21-.87c.06-.21.13-.41.2-.61a7.99,7.99,0,0,1,.34-.8,6.184,6.184,0,0,1,.28-.58c.08-.14.15-.27.23-.4.12-.19.23-.36.35-.53a.265.265,0,0,1,.05-.06,4.911,4.911,0,0,1,.39-.51c.14-.18.29-.35.44-.51s.3-.32.46-.47c.02-.01.03-.03.04-.04.16-.14.32-.28.48-.41a9.047,9.047,0,0,1,1.09-.78c.19-.12.39-.23.59-.34s.4-.2.6-.29.41-.18.62-.25c0-.01.01-.01.02-.01.13-.05.26-.1.4-.14.07-.02.15-.05.23-.07.13-.04.27-.08.4-.11.21-.05.43-.1.65-.14a.09.09,0,0,1,.05-.01,10.36,10.36,0,0,1,1.67-.14,5.333,5.333,0,0,1,.56.02,2.966,2.966,0,0,1,.42.03,6.42,6.42,0,0,1,.75.1.925.925,0,0,1,.23.04c.18.04.36.08.54.13.06.01.12.03.19.04a10,10,0,0,1,7.14,7.71h.01a5.086,5.086,0,0,0,.24.95,1.845,1.845,0,0,1,.23.04,1.133,1.133,0,0,1,.03.18,6.232,6.232,0,0,1,2.8,1.03,4.938,4.938,0,0,1,.64.49A6.312,6.312,0,0,1,727.64,159.989Z" fill="none" stroke="#fff" stroke-linecap="round" stroke-linejoin="round" stroke-width="2"/>
  </g>
</svg>
