<svg id="wifi-filled" xmlns="http://www.w3.org/2000/svg" width="25.547" height="18.878" viewBox="0 0 25.547 18.878">
  <defs>
    <style>
      .cls-1 {
        fill: #3f3f46;
        fill-rule: evenodd;
      }
    </style>
  </defs>
  <path id="wifi-filled-2" data-name="wifi-filled" class="cls-1" d="M23.789,10.041a14.832,14.832,0,0,0-20.977,0A1.348,1.348,0,0,1,.906,8.135a17.528,17.528,0,0,1,24.79,0,1.348,1.348,0,0,1-1.907,1.907Zm-3.813,3.813a9.439,9.439,0,0,0-13.35,0,1.348,1.348,0,0,1-1.907-1.907,12.136,12.136,0,0,1,17.163,0,1.348,1.348,0,0,1-1.907,1.907ZM16.16,17.671a4.045,4.045,0,0,0-5.72,0,1.349,1.349,0,1,1-1.908-1.908,6.742,6.742,0,0,1,9.536,0,1.349,1.349,0,0,1-1.908,1.908ZM11.952,20.53A1.348,1.348,0,0,1,13.3,19.181h.013a1.348,1.348,0,0,1,0,2.7H13.3a1.348,1.348,0,0,1-1.349-1.348Z" transform="translate(-0.527 -3)"/>
</svg>
