<svg xmlns="http://www.w3.org/2000/svg" width="18.672" height="22.173" viewBox="0 0 18.672 22.173">
  <path id="wind-white" d="M21.835,29.5a3.5,3.5,0,1,1,7,0v.583a4.084,4.084,0,0,1-4.084,4.084H17.167a1.167,1.167,0,0,1,0-2.334h7.585a1.751,1.751,0,0,0,1.75-1.75V29.5a1.167,1.167,0,1,0-2.334,0v.318a1.167,1.167,0,1,1-2.334,0ZM26.5,44.088a4.084,4.084,0,0,0,8.169,0V43.5A4.668,4.668,0,0,0,30,38.837H18.334a1.167,1.167,0,1,0,0,2.334H30A2.334,2.334,0,0,1,32.338,43.5v.583a1.75,1.75,0,0,1-3.5,0V43.5a1.167,1.167,0,1,0-2.334,0Zm-7-8.752a1.167,1.167,0,0,0,0,2.334h11.67a1.167,1.167,0,0,0,0-2.334Z" transform="translate(-16 -26)" fill="#fff" fill-rule="evenodd"/>
</svg>
