<svg xmlns="http://www.w3.org/2000/svg" width="34" height="33" viewBox="0 0 34 33">
  <g id="windy" transform="translate(1 1)">
    <path id="Trazado_126" data-name="Trazado 126" d="M33.813,21.064a5.438,5.438,0,0,0,.247.945C37.454,22.493,40,24.472,40,28a7,7,0,0,1-7,7H15a7,7,0,0,1-1-13.93.849.849,0,0,1,.184-.006,10,10,0,0,1,19.625,0Z" transform="translate(-8 -13)" fill="none" fill-rule="evenodd"/>
    <path id="Trazado_127" data-name="Trazado 127" d="M33,35h.412a6.409,6.409,0,0,0,.9-12.773,10.4,10.4,0,0,0-20.322-1.741A7.311,7.311,0,0,0,15,34.982" transform="translate(-8 -13)" fill="none" stroke="#fff" stroke-linecap="round" stroke-linejoin="round" stroke-width="2"/>
    <path id="Trazado_128" data-name="Trazado 128" d="M21,29a3,3,0,0,1,6,0v.5A3.5,3.5,0,0,1,23.5,33H17a1,1,0,0,1,0-2h6.5A1.5,1.5,0,0,0,25,29.5V29a1,1,0,0,0-2,0v.273a1,1,0,0,1-2,0Zm4,12.5a3.5,3.5,0,0,0,7,0V41a4,4,0,0,0-4-4H18a1,1,0,0,0,0,2H28a2,2,0,0,1,2,2v.5a1.5,1.5,0,0,1-3,0V41a1,1,0,0,0-2,0ZM19,34a1,1,0,0,0,0,2H29a1,1,0,0,0,0-2Z" transform="translate(-8 -13)" fill="#fff" fill-rule="evenodd"/>
  </g>
</svg>
