<svg width="30" height="30" viewBox="0 0 31 32" fill="none" xmlns="http://www.w3.org/2000/svg">
<path d="M0.0617952 15.9981C0.045904 7.53663 6.87912 0.527143 15.52 0.539078C24.1091 0.551012 30.9503 7.50083 30.9384 16.022C30.9225 24.5193 24.1052 31.493 15.4326 31.4612C6.80761 31.4294 0.0494796 24.4203 0.0617952 15.9981ZM1.71845 15.9703C1.66283 23.493 7.75313 29.7943 15.4643 29.8103C23.2312 29.8262 29.2698 23.5407 29.2936 16.0499C29.3215 8.47547 23.2153 2.19399 15.516 2.18603C7.79644 2.17807 1.69064 8.46354 1.71805 15.9703H1.71845Z" fill="#F2A62A"/>
<path d="M16.2627 25.1894C16.5845 25.4838 16.9857 25.8419 17.3075 26.1323C18.0226 26.7528 17.8041 26.6255 18.6424 27.2899C18.7522 27.3813 18.8773 27.4526 19.0118 27.5007C19.5998 27.6917 20.0726 27.3893 20.0607 26.7688C20.0527 26.4067 19.8302 26.2436 19.6078 26.0408C18.9801 25.4639 18.3484 24.9706 17.7207 24.3938C17.2717 23.9841 16.8268 23.5743 16.3739 23.1685C16.2348 23.0452 16.1633 22.9179 16.1633 22.723C16.1713 21.6449 16.1316 20.3878 16.1355 19.3097C16.1355 19.254 16.1196 19.2182 16.1355 19.1506C16.1373 19.1432 16.1407 19.1364 16.1456 19.1305C16.1504 19.1247 16.1565 19.1201 16.1634 19.117C16.1703 19.1139 16.1779 19.1125 16.1854 19.1128C16.193 19.1131 16.2004 19.1152 16.207 19.1188C16.3103 19.1785 16.3381 19.2262 16.4017 19.2819C16.9221 19.7951 17.5538 20.4435 18.0862 20.9408C18.7933 21.6011 19.4687 22.2894 20.1719 22.9537C20.8512 23.5942 21.4035 24.1591 22.0788 24.8036C22.1958 24.9222 22.3265 25.0263 22.4682 25.1138C22.5843 25.181 22.7158 25.217 22.8499 25.2183C22.984 25.2197 23.1162 25.1863 23.2337 25.1215C23.3512 25.0567 23.4499 24.9626 23.5205 24.8484C23.591 24.7341 23.6308 24.6036 23.6362 24.4694C23.6481 24.2267 23.5686 24.0676 23.4216 23.8846C23.346 23.7949 23.2651 23.7099 23.1793 23.63C22.8972 23.3674 22.6946 23.1685 22.4046 22.902C21.6299 22.1899 20.9267 21.4818 20.16 20.7578C19.4886 20.1213 18.8211 19.4808 18.1497 18.8443C17.8399 18.5539 17.522 18.2675 17.2122 17.9771C16.9023 17.6867 16.6043 17.4002 16.2984 17.1138C16.2515 17.0742 16.2148 17.0239 16.1913 16.9671C16.1678 16.9104 16.1582 16.8488 16.1633 16.7876C16.1673 16.712 16.1633 16.6404 16.1633 16.5688C16.1832 13.0601 16.1276 9.55533 16.207 6.04661C16.219 5.5016 16.1792 4.96057 16.1673 4.41955C16.1633 4.2087 16.1157 4.00184 15.9289 3.85863C15.4443 3.48468 14.7649 3.71541 14.6259 4.30816C14.5744 4.54192 14.5504 4.7809 14.5544 5.02025C14.5544 5.57719 14.5583 6.13413 14.5583 6.69107C14.5583 9.95712 14.557 13.2258 14.5544 16.4972C14.5544 16.5569 14.5504 16.6126 14.5544 16.6722C14.5576 16.7193 14.5492 16.7665 14.5298 16.8096C14.5103 16.8526 14.4806 16.8902 14.4431 16.9189C13.8988 17.3803 13.4181 17.9015 12.9017 18.3828C12.2779 18.9636 11.6701 19.5604 11.0503 20.1451C10.5061 20.6623 9.96974 21.1914 9.42944 21.7125C9.3778 21.7643 9.32615 21.816 9.27451 21.8637C8.57529 22.5241 7.87608 23.1845 7.19673 23.8647C6.97028 24.0915 6.91864 24.362 7.01398 24.6643C7.1133 24.9786 7.34373 25.1497 7.66155 25.2014C7.94759 25.2491 8.18596 25.1337 8.38857 24.9388C8.65872 24.6763 8.93284 24.4177 9.203 24.1591C9.88632 23.5027 10.5657 22.8463 11.253 22.1939C12.1349 21.3505 13.0129 20.4992 13.8909 19.6519C14.0657 19.4848 14.2484 19.3177 14.4272 19.1506C14.455 19.1267 14.4789 19.0989 14.5305 19.1108C14.5623 19.1506 14.5544 19.2023 14.5544 19.2501V19.6837C14.5504 20.7021 14.5504 21.7245 14.5544 22.7429C14.5544 22.902 14.5146 23.0213 14.3796 23.1089C14.3041 23.1606 14.2326 23.2242 14.161 23.2839C13.2473 24.0278 12.3336 24.7704 11.4198 25.5117C11.1417 25.7384 10.8557 25.9572 10.5935 26.2078C10.2915 26.4982 10.2796 26.9239 10.5339 27.2541C10.6552 27.4054 10.8275 27.5071 11.0185 27.5401C11.2095 27.5731 11.4059 27.535 11.5708 27.4331C11.6522 27.3856 11.7293 27.3311 11.8012 27.27C12.3932 26.7966 12.9811 26.3152 13.5691 25.8379C13.8273 25.627 14.0816 25.4162 14.3398 25.2053L15.1495 24.5147C15.2029 24.4692 15.271 24.4446 15.3412 24.4458C15.4113 24.447 15.4786 24.4738 15.5305 24.5211L16.2627 25.1894Z" fill="#F2A62A"/>
<path d="M12.3137 7.35122C12.3534 9.2488 12.3534 11.3612 12.3733 13.4736C12.3773 14.0067 12.3812 14.5437 12.4051 15.0768C12.421 15.4149 12.3097 15.6735 12.0435 15.8883C11.7575 16.1191 11.4993 16.3856 11.2331 16.6402C10.6054 17.2369 9.97637 17.8336 9.34602 18.4304C8.62297 19.1146 7.89992 19.7988 7.16892 20.4791C6.66041 20.9525 6.15586 21.4259 5.65529 21.9072C5.46459 22.0942 5.25006 22.2295 4.96402 22.2215C4.82618 22.2193 4.69132 22.181 4.57289 22.1103C4.45447 22.0396 4.35661 21.9391 4.28908 21.8188C4.22155 21.6984 4.18671 21.5625 4.18802 21.4244C4.18934 21.2864 4.22678 21.1511 4.29659 21.0321C4.36004 20.9277 4.43758 20.8327 4.52701 20.7496C4.90443 20.3995 5.27787 20.0495 5.65131 19.6994L8.27336 17.2409C8.48789 17.038 8.70242 16.8311 8.92093 16.6322C9.48904 16.1071 10.0452 15.5701 10.6094 15.045C10.6664 14.9964 10.7113 14.9351 10.7402 14.866C10.7692 14.7969 10.7816 14.7219 10.7762 14.6471C10.7564 13.5134 10.7643 12.3756 10.7286 11.2418C10.6888 9.96088 10.7127 8.6839 10.6928 7.40294C10.6848 6.86191 10.6888 6.3169 10.6888 5.77588C10.6848 5.63837 10.6968 5.50085 10.7246 5.36613C10.8199 4.96831 11.1258 4.74952 11.5827 4.76145C11.9323 4.76941 12.1985 5.01207 12.274 5.39397C12.2998 5.52898 12.3118 5.66628 12.3097 5.80372C12.3137 6.24013 12.3137 6.69085 12.3137 7.35122Z" fill="#F2A62A"/>
<path d="M18.6861 7.35122C18.6464 9.2488 18.6464 11.3612 18.6265 13.4736C18.6226 14.0067 18.6186 14.5437 18.5947 15.0768C18.5789 15.4149 18.6901 15.6735 18.9563 15.8883C19.2423 16.1191 19.5005 16.3856 19.7667 16.6402C20.3944 17.2369 21.0234 17.8336 21.6538 18.4304C22.3768 19.1146 23.0999 19.7988 23.8309 20.4791C24.3394 20.9525 24.844 21.4259 25.3445 21.9072C25.5352 22.0942 25.7498 22.2295 26.0358 22.2215C26.1736 22.2193 26.3085 22.181 26.4269 22.1103C26.5453 22.0396 26.6432 21.9391 26.7107 21.8188C26.7783 21.6984 26.8131 21.5625 26.8118 21.4244C26.8105 21.2864 26.773 21.1511 26.7032 21.0321C26.6398 20.9277 26.5622 20.8327 26.4728 20.7496C26.0954 20.3995 25.7219 20.0495 25.3485 19.6994L22.7265 17.2409C22.5119 17.038 22.2974 16.8311 22.0789 16.6322C21.5108 16.1071 20.9546 15.5701 20.3904 15.045C20.3334 14.9964 20.2886 14.9351 20.2596 14.866C20.2306 14.7969 20.2183 14.7219 20.2236 14.6471C20.2435 13.5134 20.2355 12.3756 20.2713 11.2418C20.311 9.96088 20.2872 8.6839 20.307 7.40294C20.315 6.86191 20.311 6.3169 20.311 5.77588C20.3151 5.63837 20.3031 5.50085 20.2752 5.36613C20.1799 4.96831 19.874 4.74952 19.4171 4.76145C19.0675 4.76941 18.8013 5.01207 18.7258 5.39397C18.7 5.52898 18.688 5.66628 18.6901 5.80372C18.6861 6.24013 18.6861 6.69085 18.6861 7.35122Z" fill="#F2A62A"/>
<path d="M22.4087 13.1036C22.4604 11.6436 22.4365 10.1836 22.4604 8.72366C22.4644 8.36165 22.4763 7.99964 22.4882 7.64161C22.5041 7.21594 22.7981 6.89371 23.2112 6.85393C23.5926 6.81813 23.9422 7.07273 24.0495 7.46657C24.0987 7.66377 24.1107 7.86844 24.0849 8.07005C24.069 8.24509 24.065 8.41615 24.061 8.59119C24.057 9.31521 24.061 10.0392 24.0491 10.7593C24.0332 11.6862 24.0094 12.6091 24.0094 13.536C24.0094 13.6991 24.065 13.8105 24.1762 13.9338C24.4623 14.264 24.6927 14.4669 24.935 14.7056C25.3125 15.0756 25.6581 15.3819 26.0355 15.7518C26.0832 15.7996 26.1269 15.8433 26.1706 15.8911C26.4566 16.2014 26.4805 16.635 26.2262 16.9373C25.9441 17.2755 25.523 17.3391 25.1575 17.1004C25.0856 17.0517 25.0179 16.9972 24.9549 16.9373L22.893 14.9216C22.8215 14.85 22.754 14.7744 22.6825 14.7028C22.4838 14.4999 22.4004 14.2533 22.4004 13.9748C22.4087 13.6844 22.4087 13.394 22.4087 13.1036Z" fill="#F2A62A"/>
<path d="M8.29722 13.1036C8.24558 11.6436 8.26941 10.1836 8.24558 8.72366C8.2416 8.36165 8.22969 7.99964 8.21777 7.64161C8.20188 7.21594 7.90789 6.89371 7.49472 6.85393C7.11333 6.81813 6.76372 7.07273 6.65646 7.46657C6.60694 7.66412 6.59481 7.86922 6.6207 8.07125C6.63659 8.24628 6.64057 8.41734 6.64454 8.59238C6.64851 9.3164 6.64454 10.0404 6.65646 10.7605C6.67235 11.6874 6.69619 12.6103 6.69619 13.5372C6.69619 13.7003 6.64057 13.8117 6.52933 13.935C6.24329 14.2652 6.01286 14.4681 5.77052 14.7068C5.39311 15.0768 5.04747 15.3831 4.67006 15.753C4.62239 15.8008 4.57868 15.8445 4.53498 15.8923C4.24894 16.2026 4.22511 16.6362 4.47936 16.9385C4.76143 17.2767 5.18255 17.3403 5.54805 17.1016C5.61994 17.0529 5.68771 16.9984 5.75066 16.9385L7.81254 14.9216C7.88405 14.85 7.95159 14.7744 8.0231 14.7028C8.22174 14.4999 8.30517 14.2533 8.30517 13.9748C8.29722 13.6844 8.29722 13.394 8.29722 13.1036Z" fill="#F2A62A"/>
</svg>
