<svg width="26" height="27" viewBox="0 0 26 27" fill="none" xmlns="http://www.w3.org/2000/svg">
<path d="M13 9.2226V13.2226M13 13.2226V17.2226M13 13.2226H17M13 13.2226H9M25 13.2226C25.0001 15.9989 24.0376 18.6893 22.2765 20.8355C20.5153 22.9816 18.0645 24.4507 15.3416 24.9925C12.6187 25.5342 9.79219 25.1151 7.34368 23.8065C4.89518 22.4978 2.97617 20.3807 1.91363 17.8158C0.851097 15.2509 0.710779 12.3969 1.51659 9.74019C2.32239 7.08343 4.02447 4.78827 6.3328 3.24577C8.64112 1.70327 11.4129 1.00888 14.1758 1.28091C16.9387 1.55293 19.5218 2.77455 21.485 4.7376C23.7355 6.98792 24.9999 10.0401 25 13.2226Z" stroke="#3F3F46" stroke-width="2" stroke-linecap="round" stroke-linejoin="round"/>
</svg>
