<svg width="27" height="27" viewBox="0 0 27 27" fill="none" xmlns="http://www.w3.org/2000/svg">
<path d="M9.30512 12.061L13.3051 8.06104M13.3051 8.06104L17.3051 12.061M13.3051 8.06104V18.727M13.3051 1.39404C16.0814 1.39391 18.7718 2.35642 20.918 4.11757C23.0641 5.87872 24.5333 8.32955 25.075 11.0524C25.6167 13.7753 25.1976 16.6019 23.889 19.0504C22.5804 21.4989 20.4632 23.4179 17.8983 24.4804C15.3334 25.5429 12.4795 25.6833 9.82271 24.8775C7.16595 24.0717 4.87079 22.3696 3.32829 20.0613C1.78579 17.7529 1.0914 14.9812 1.36343 12.2183C1.63545 9.45534 2.85707 6.87223 4.82012 4.90904C7.07044 2.65857 10.1226 1.39419 13.3051 1.39404Z" stroke="#3F3F46" stroke-width="2" stroke-linecap="round" stroke-linejoin="round"/>
</svg>
