<svg width="27" height="27" viewBox="0 0 27 27" fill="none" xmlns="http://www.w3.org/2000/svg">
<path d="M17.107 14.727L13.107 18.727M13.107 18.727L9.10703 14.727M13.107 18.727V8.06105M13.107 25.394C10.3308 25.3942 7.64033 24.4317 5.49416 22.6705C3.348 20.9094 1.87888 18.4585 1.33714 15.7356C0.795401 13.0127 1.21455 10.1862 2.52317 7.73773C3.8318 5.28922 5.94892 3.37021 8.51382 2.30768C11.0787 1.24514 13.9327 1.10482 16.5894 1.91063C19.2462 2.71644 21.5414 4.41851 23.0839 6.72684C24.6264 9.03517 25.3207 11.8069 25.0487 14.5698C24.7767 17.3327 23.5551 19.9159 21.592 21.879C19.3417 24.1295 16.2896 25.3939 13.107 25.394Z" stroke="#3F3F46" stroke-width="2" stroke-linecap="round" stroke-linejoin="round"/>
</svg>
