<svg width="27" height="27" viewBox="0 0 27 27" fill="none" xmlns="http://www.w3.org/2000/svg">
<path d="M14.5322 9.3935L18.5322 13.3935M18.5322 13.3935L14.5322 17.3935M18.5322 13.3935H7.86622M25.1992 13.3935C25.1994 16.1698 24.2368 18.8602 22.4757 21.0064C20.7145 23.1525 18.2637 24.6216 15.5408 25.1634C12.8179 25.7051 9.99141 25.286 7.5429 23.9774C5.0944 22.6687 3.17539 20.5516 2.11285 17.9867C1.05032 15.4218 0.909997 12.5678 1.7158 9.91109C2.52161 7.25433 4.22369 4.95917 6.53201 3.41667C8.84034 1.87417 11.6121 1.17978 14.375 1.4518C17.1379 1.72383 19.721 2.94544 21.6842 4.9085C23.9347 7.15882 25.1991 10.211 25.1992 13.3935Z" stroke="#3F3F46" stroke-width="2" stroke-linecap="round" stroke-linejoin="round"/>
</svg>
