<svg width="27" height="27" viewBox="0 0 27 27" fill="none" xmlns="http://www.w3.org/2000/svg">
<path d="M11.8198 17.3946L7.81983 13.3946M7.81983 13.3946L11.8198 9.39462M7.81983 13.3946H18.4858M1.15283 13.3946C1.1527 10.6184 2.11521 7.92793 3.87636 5.78176C5.63751 3.6356 8.08833 2.16648 10.8112 1.62474C13.5341 1.083 16.3606 1.50215 18.8092 2.81077C21.2577 4.11939 23.1767 6.23652 24.2392 8.80142C25.3017 11.3663 25.4421 14.2203 24.6362 16.877C23.8304 19.5338 22.1284 21.829 19.82 23.3715C17.5117 24.914 14.74 25.6083 11.977 25.3363C9.21413 25.0643 6.63102 23.8427 4.66783 21.8796C2.41736 19.6293 1.15298 16.5772 1.15283 13.3946Z" stroke="#3F3F46" stroke-width="2" stroke-linecap="round" stroke-linejoin="round"/>
</svg>
