<svg width="22" height="25" viewBox="0 0 22 25" fill="none" xmlns="http://www.w3.org/2000/svg">
<path d="M11.1528 0.936035C8.79237 0.936035 6.52862 1.87371 4.85954 3.54278C3.19047 5.21186 2.25279 7.47561 2.25279 9.83603V15.156L1.20279 16.207C0.996758 16.4148 0.85673 16.6788 0.800312 16.9659C0.743893 17.253 0.773602 17.5504 0.885703 17.8206C0.997804 18.0909 1.1873 18.322 1.43036 18.4848C1.67342 18.6477 1.95921 18.7351 2.25179 18.736H20.0518C20.3452 18.7359 20.632 18.6488 20.8759 18.4857C21.1198 18.3226 21.3099 18.0909 21.4222 17.8198C21.5344 17.5488 21.5638 17.2505 21.5066 16.9627C21.4494 16.6749 21.3082 16.4106 21.1008 16.203L20.0518 15.154V9.83603C20.0518 7.47561 19.1141 5.21186 17.445 3.54278C15.776 1.87371 13.5122 0.936035 11.1518 0.936035H11.1528ZM11.1528 24.674C9.97231 24.674 8.84019 24.2051 8.00546 23.3704C7.17074 22.5356 6.70179 21.4035 6.70179 20.223H15.6018C15.6018 21.4035 15.1329 22.5356 14.2981 23.3704C13.4634 24.2051 12.3313 24.674 11.1508 24.674H11.1528Z" fill="#3F3F46"/>
</svg>
