<svg width="21" height="25" viewBox="0 0 21 25" fill="none" xmlns="http://www.w3.org/2000/svg">
<path d="M6.64496 18.3893H1.10596L2.25496 16.6713L2.98496 15.5232V11.0323C2.98478 9.51113 3.45578 8.02729 4.33321 6.78475C5.21064 5.5422 6.45141 4.60194 7.88496 4.09325V3.67525C7.91053 3.0426 8.17983 2.44436 8.6365 2.00578C9.09317 1.56719 9.70179 1.32227 10.335 1.32227C10.9681 1.32227 11.5767 1.56719 12.0334 2.00578C12.4901 2.44436 12.7594 3.0426 12.785 3.67525V4.09325C14.2187 4.60157 15.4598 5.54172 16.3373 6.78436C17.2147 8.02699 17.6856 9.51103 17.685 11.0323V14.9043C17.685 15.2316 17.7496 15.5558 17.875 15.8583C18.0079 16.1562 18.1905 16.4294 18.415 16.6663L19.665 18.3893H14.002H6.64496ZM6.64496 18.3893L6.64596 19.6152C6.64596 20.5908 7.03351 21.5265 7.72336 22.2163C8.41322 22.9062 9.34886 23.2938 10.3245 23.2938C11.3001 23.2938 12.2357 22.9062 12.9256 22.2163C13.6154 21.5265 14.003 20.5908 14.003 19.6152V18.3893" stroke="#3F3F46" stroke-width="2" stroke-linecap="round" stroke-linejoin="round"/>
</svg>
