<svg width="25" height="25" viewBox="0 0 25 25" fill="none" xmlns="http://www.w3.org/2000/svg">
<path d="M7.77018 6.28304V1.39404M17.5482 6.28304V1.39404M6.54818 11.172H18.7702M4.10318 23.394H21.2152C21.8634 23.394 22.485 23.1366 22.9433 22.6782C23.4017 22.2199 23.6592 21.5982 23.6592 20.95V6.28304C23.6592 5.63485 23.4017 5.01321 22.9433 4.55487C22.485 4.09654 21.8634 3.83904 21.2152 3.83904H4.10318C3.45499 3.83904 2.83335 4.09654 2.37501 4.55487C1.91667 5.01321 1.65918 5.63485 1.65918 6.28304V20.95C1.65918 21.5982 1.91667 22.2199 2.37501 22.6782C2.83335 23.1366 3.45499 23.394 4.10318 23.394Z" stroke="#3F3F46" stroke-width="2" stroke-linecap="round" stroke-linejoin="round"/>
</svg>
