<svg width="26" height="24" viewBox="0 0 26 24" fill="none" xmlns="http://www.w3.org/2000/svg">
<path d="M1.781 5.781C1.53336 6.02868 1.33692 6.32272 1.20292 6.64632C1.06891 6.96992 0.999962 7.31675 1 7.667V19.667C1 20.3743 1.28099 21.0527 1.78115 21.5529C2.28131 22.053 2.95967 22.334 3.667 22.334H22.333C23.0403 22.334 23.7187 22.053 24.2189 21.5529C24.719 21.0527 25 20.3743 25 19.667V7.667C25 7.31676 24.931 6.96996 24.797 6.64638C24.663 6.32281 24.4665 6.0288 24.2189 5.78115C23.9712 5.53349 23.6772 5.33704 23.3536 5.20301C23.03 5.06898 22.6832 5 22.333 5H21.093C20.654 5.00014 20.2217 4.89187 19.8346 4.6848C19.4475 4.47772 19.1175 4.17826 18.874 3.813L17.792 2.187C17.5484 1.8218 17.2184 1.52239 16.8313 1.31532C16.4442 1.10826 16.012 0.999945 15.573 1H10.427C9.98801 0.999945 9.55579 1.10826 9.1687 1.31532C8.7816 1.52239 8.45161 1.8218 8.208 2.187L7.125 3.813C6.88148 4.17806 6.55165 4.47739 6.16475 4.68444C5.77784 4.8915 5.34582 4.99989 4.907 5H3.667C3.31675 4.99996 2.96992 5.06891 2.64632 5.20292C2.32272 5.33692 2.02868 5.53336 1.781 5.781Z" stroke="#3F3F46" stroke-width="2" stroke-linecap="round" stroke-linejoin="round"/>
<path d="M15.681 15.881C16.3012 15.2606 16.6872 14.4443 16.7731 13.5712C16.8589 12.6981 16.6394 11.8222 16.1519 11.0928C15.6644 10.3635 14.9391 9.82568 14.0995 9.57114C13.2599 9.31659 12.3581 9.36104 11.5476 9.6969C10.7371 10.0328 10.0682 10.6392 9.65474 11.413C9.24131 12.1868 9.10897 13.08 9.28027 13.9404C9.45157 14.8009 9.91592 15.5753 10.5942 16.1317C11.2724 16.6881 12.1227 16.9922 13 16.992C14.0056 16.9918 14.97 16.5922 15.681 15.881Z" stroke="#3F3F46" stroke-width="2" stroke-linecap="round" stroke-linejoin="round"/>
</svg>
