<svg width="24" height="22" viewBox="0 0 24 22" fill="none" xmlns="http://www.w3.org/2000/svg">
<path fill-rule="evenodd" clip-rule="evenodd" d="M3 3.70801C2.20435 3.70801 1.44129 4.02408 0.87868 4.58669C0.316071 5.1493 0 5.91236 0 6.70801V18.708C0 19.5037 0.316071 20.2667 0.87868 20.8293C1.44129 21.3919 2.20435 21.708 3 21.708H21C21.7956 21.708 22.5587 21.3919 23.1213 20.8293C23.6839 20.2667 24 19.5037 24 18.708V6.70801C24 5.91236 23.6839 5.1493 23.1213 4.58669C22.5587 4.02408 21.7956 3.70801 21 3.70801H18.621C18.4239 3.70797 18.2288 3.66909 18.0467 3.59359C17.8647 3.51809 17.6993 3.40746 17.56 3.26801L15.879 1.58701C15.3165 1.02436 14.5536 0.708178 13.758 0.708008H10.242C9.44641 0.708178 8.68348 1.02436 8.121 1.58701L6.439 3.26801C6.15797 3.54939 5.77669 3.70766 5.379 3.70801H3ZM12 17.208C13.0411 17.208 14.05 16.847 14.8548 16.1865C15.6595 15.5261 16.2104 14.607 16.4135 13.5859C16.6166 12.5648 16.4594 11.5049 15.9686 10.5867C15.4778 9.66853 14.6839 8.94894 13.722 8.55054C12.7602 8.15213 11.6899 8.09956 10.6936 8.40179C9.69738 8.70401 8.83673 9.34232 8.25833 10.208C7.67993 11.0736 7.41958 12.113 7.52163 13.1491C7.62368 14.1852 8.08183 15.1538 8.818 15.89C9.23587 16.3079 9.73195 16.6393 10.2779 16.8655C10.8239 17.0916 11.409 17.208 12 17.208Z" fill="#3F3F46"/>
</svg>
