<svg width="25" height="25" viewBox="0 0 25 25" fill="none" xmlns="http://www.w3.org/2000/svg">
<path d="M18.2661 6.89404V17.894M12.7661 11.019V17.894M7.26611 15.144V17.894M4.51611 23.394H21.0161C21.7455 23.394 22.4449 23.1043 22.9607 22.5886C23.4764 22.0729 23.7661 21.3734 23.7661 20.644V4.14404C23.7661 3.4147 23.4764 2.71522 22.9607 2.1995C22.4449 1.68377 21.7455 1.39404 21.0161 1.39404H4.51611C3.78677 1.39404 3.08729 1.68377 2.57157 2.1995C2.05584 2.71522 1.76611 3.4147 1.76611 4.14404V20.644C1.76611 21.3734 2.05584 22.0729 2.57157 22.5886C3.08729 23.1043 3.78677 23.394 4.51611 23.394Z" stroke="#3F3F46" stroke-width="2" stroke-linecap="round" stroke-linejoin="round"/>
</svg>
