<svg width="24" height="23" viewBox="0 0 24 23" fill="none" xmlns="http://www.w3.org/2000/svg">
<path d="M24 11.375C24 17.266 18.627 22.042 12 22.042C10.0383 22.0488 8.09997 21.6165 6.327 20.777L0 22.041L1.86 17.081C0.657318 15.4209 0.00667407 13.4249 0 11.375C0 5.48401 5.373 0.708008 12 0.708008C18.627 0.708008 24 5.48401 24 11.375Z" fill="#3F3F46"/>
<path d="M7 12.708C7.55228 12.708 8 12.2603 8 11.708C8 11.1557 7.55228 10.708 7 10.708C6.44772 10.708 6 11.1557 6 11.708C6 12.2603 6.44772 12.708 7 12.708Z" fill="white"/>
<path d="M12 12.708C12.5523 12.708 13 12.2603 13 11.708C13 11.1557 12.5523 10.708 12 10.708C11.4477 10.708 11 11.1557 11 11.708C11 12.2603 11.4477 12.708 12 12.708Z" fill="white"/>
<path d="M17 12.708C17.5523 12.708 18 12.2603 18 11.708C18 11.1557 17.5523 10.708 17 10.708C16.4477 10.708 16 11.1557 16 11.708C16 12.2603 16.4477 12.708 17 12.708Z" fill="white"/>
</svg>
