<svg width="23" height="22" viewBox="0 0 23 22" fill="none" xmlns="http://www.w3.org/2000/svg">
<path d="M7.24985 8.28297H7.26085M11.6938 8.28297H11.7048M16.1378 8.28297H16.1488M8.36085 14.949H3.91585C3.32654 14.949 2.76136 14.7149 2.34466 14.2982C1.92795 13.8815 1.69385 13.3163 1.69385 12.727V3.83797C1.69385 3.24866 1.92795 2.68348 2.34466 2.26678C2.76136 1.85007 3.32654 1.61597 3.91585 1.61597H19.4718C19.7636 1.61597 20.0526 1.67344 20.3222 1.78511C20.5918 1.89677 20.8367 2.06044 21.043 2.26678C21.2494 2.47311 21.413 2.71806 21.5247 2.98764C21.6364 3.25723 21.6938 3.54617 21.6938 3.83797V12.727C21.6938 13.0188 21.6364 13.3077 21.5247 13.5773C21.413 13.8469 21.2494 14.0918 21.043 14.2982C20.8367 14.5045 20.5918 14.6682 20.3222 14.7798C20.0526 14.8915 19.7636 14.949 19.4718 14.949H13.9158L8.36085 20.505V14.949Z" stroke="#3F3F46" stroke-width="2" stroke-linecap="round" stroke-linejoin="round"/>
</svg>
