<svg width="26" height="22" viewBox="0 0 26 22" fill="none" xmlns="http://www.w3.org/2000/svg">
<path d="M4.17404 16.4021H9.23404V20.8291L15.558 16.4021H21.882C22.2143 16.4021 22.5433 16.3367 22.8502 16.2096C23.1572 16.0824 23.4361 15.8961 23.671 15.6611C23.906 15.4262 24.0923 15.1473 24.2195 14.8403C24.3466 14.5334 24.412 14.2044 24.412 13.8721V3.75314C24.412 3.08215 24.1455 2.43863 23.671 1.96416C23.1966 1.4897 22.553 1.22314 21.882 1.22314H4.17404C3.50305 1.22314 2.85953 1.4897 2.38506 1.96416C1.9106 2.43863 1.64404 3.08215 1.64404 3.75314V13.8721C1.64404 14.5431 1.9106 15.1867 2.38506 15.6611C2.85953 16.1356 3.50305 16.4021 4.17404 16.4021Z" stroke="#3F3F46" stroke-width="2" stroke-linecap="round" stroke-linejoin="round"/>
</svg>
