<svg width="22" height="20" viewBox="0 0 22 20" fill="none" xmlns="http://www.w3.org/2000/svg">
<path fill-rule="evenodd" clip-rule="evenodd" d="M21.0968 3.26594V13.3659C21.0968 13.6974 21.0315 14.0256 20.9047 14.3318C20.7779 14.6381 20.5919 14.9163 20.3576 15.1507C20.1232 15.3851 19.845 15.571 19.5387 15.6978C19.2325 15.8247 18.9043 15.8899 18.5728 15.8899H12.2618L5.95183 19.6739V15.8879H3.42683C3.09529 15.8879 2.767 15.8226 2.46071 15.6957C2.15442 15.5688 1.87613 15.3828 1.64174 15.1483C1.40735 14.9138 1.22146 14.6355 1.09467 14.3291C0.967889 14.0228 0.902701 13.6945 0.902832 13.3629V3.26594C0.902832 2.59654 1.16875 1.95455 1.64209 1.48121C2.11544 1.00786 2.75743 0.741943 3.42683 0.741943H18.5728C19.2422 0.741943 19.8842 1.00786 20.3576 1.48121C20.8309 1.95455 21.0968 2.59654 21.0968 3.26594Z" fill="#3F3F46"/>
</svg>
