<svg width="27" height="27" viewBox="0 0 27 27" fill="none" xmlns="http://www.w3.org/2000/svg">
<path d="M20.3438 6.94897H23.0108C23.7179 6.94923 24.396 7.23034 24.896 7.73047C25.3959 8.2306 25.6768 8.90881 25.6768 9.61597V17.616C25.6768 18.3233 25.3958 19.0017 24.8956 19.5018C24.3955 20.002 23.7171 20.283 23.0098 20.283H20.3438V25.616L15.0108 20.283H9.67676C9.3266 20.2834 8.97982 20.2146 8.65633 20.0805C8.33284 19.9465 8.03903 19.7499 7.79176 19.502M7.79176 19.502L12.3438 14.95H17.6768C18.3841 14.95 19.0625 14.669 19.5626 14.1688C20.0628 13.6687 20.3438 12.9903 20.3438 12.283V4.28297C20.3438 3.93273 20.2748 3.58593 20.1407 3.26235C20.0067 2.93877 19.8103 2.64477 19.5626 2.39711C19.315 2.14946 19.0209 1.95301 18.6974 1.81898C18.3738 1.68495 18.027 1.61597 17.6768 1.61597H4.34376C3.63643 1.61597 2.95806 1.89695 2.4579 2.39711C1.95774 2.89727 1.67676 3.57563 1.67676 4.28297V12.283C1.67676 12.9903 1.95774 13.6687 2.4579 14.1688C2.95806 14.669 3.63643 14.95 4.34376 14.95H7.00976V20.283L7.79176 19.502Z" stroke="#3F3F46" stroke-width="2" stroke-linecap="round" stroke-linejoin="round"/>
</svg>
