<svg width="24" height="25" viewBox="0 0 24 25" fill="none" xmlns="http://www.w3.org/2000/svg">
<path fill-rule="evenodd" clip-rule="evenodd" d="M11.9999 24.708C14.7762 24.7081 17.4666 23.7456 19.6128 21.9845C21.759 20.2233 23.2281 17.7725 23.7698 15.0496C24.3116 12.3267 23.8924 9.5002 22.5838 7.05169C21.2752 4.60319 19.1581 2.68418 16.5932 1.62164C14.0283 0.559105 11.1743 0.418786 8.51753 1.22459C5.86078 2.0304 3.56561 3.73247 2.02312 6.0408C0.480618 8.34913 -0.213776 11.1209 0.0582493 13.8838C0.330275 16.6467 1.55189 19.2298 3.51494 21.193C5.76527 23.4435 8.8174 24.7079 11.9999 24.708ZM17.5609 10.768C17.8293 10.4842 17.9763 10.1069 17.9708 9.7163C17.9653 9.32574 17.8076 8.95273 17.5314 8.6766C17.2551 8.40047 16.882 8.24299 16.4915 8.23765C16.1009 8.23231 15.7237 8.37953 15.4399 8.64801L10.4999 13.587L8.55995 11.648C8.27559 11.383 7.8995 11.2388 7.5109 11.2457C7.1223 11.2525 6.75153 11.4099 6.4767 11.6848C6.20187 11.9596 6.04445 12.3304 6.03759 12.719C6.03074 13.1076 6.17498 13.4837 6.43994 13.768L9.43994 16.768C9.72124 17.0492 10.1027 17.2072 10.5004 17.2072C10.8982 17.2072 11.2797 17.0492 11.5609 16.768L17.5609 10.768Z" fill="#3F3F46"/>
</svg>
