<svg width="24" height="25" viewBox="0 0 24 25" fill="none" xmlns="http://www.w3.org/2000/svg">
<path fill-rule="evenodd" clip-rule="evenodd" d="M11.9999 24.708C14.7762 24.7081 17.4666 23.7456 19.6128 21.9845C21.759 20.2233 23.2281 17.7725 23.7698 15.0496C24.3116 12.3267 23.8924 9.5002 22.5838 7.05169C21.2752 4.60319 19.1581 2.68418 16.5932 1.62164C14.0283 0.559105 11.1743 0.418786 8.51753 1.22459C5.86078 2.0304 3.56561 3.73247 2.02312 6.0408C0.480618 8.34913 -0.213776 11.1209 0.0582493 13.8838C0.330275 16.6467 1.55189 19.2298 3.51494 21.193C5.76527 23.4435 8.8174 24.7079 11.9999 24.708ZM17.5609 10.768C17.8342 10.4851 17.9854 10.1062 17.982 9.71291C17.9785 9.31961 17.8208 8.9434 17.5427 8.66528C17.2646 8.38717 16.8883 8.22942 16.495 8.226C16.1018 8.22258 15.7228 8.37377 15.4399 8.64701L10.4999 13.587L8.56094 11.647C8.42168 11.5077 8.25633 11.3971 8.07434 11.3217C7.89236 11.2463 7.6973 11.2074 7.5003 11.2074C7.3033 11.2073 7.10822 11.2461 6.9262 11.3214C6.74418 11.3968 6.57878 11.5072 6.43944 11.6465C6.30011 11.7858 6.18957 11.9511 6.11414 12.1331C6.03871 12.3151 5.99986 12.5102 5.99982 12.7072C5.99977 12.9042 6.03853 13.0992 6.11387 13.2813C6.18922 13.4633 6.29968 13.6287 6.43894 13.768L9.43894 16.768C9.72024 17.0492 10.1017 17.2072 10.4994 17.2072C10.8972 17.2072 11.2787 17.0492 11.5599 16.768L17.5609 10.768Z" fill="#A5B639"/>
</svg>
