<svg width="10" height="16" viewBox="0 0 10 16" fill="none" xmlns="http://www.w3.org/2000/svg">
<path fill-rule="evenodd" clip-rule="evenodd" d="M0.817774 15.185C0.674302 15.0416 0.560493 14.8712 0.482846 14.6838C0.405199 14.4963 0.365234 14.2954 0.365234 14.0925C0.365234 13.8896 0.405199 13.6887 0.482846 13.5013C0.560493 13.3138 0.674302 13.1435 0.817774 13L5.90577 7.91203L0.817774 2.82603C0.537771 2.53443 0.383216 2.14469 0.387271 1.74044C0.391326 1.33619 0.553667 0.949635 0.839463 0.663707C1.12526 0.37778 1.51174 0.215262 1.91599 0.211023C2.32024 0.206783 2.71004 0.361159 3.00177 0.641029L9.18177 6.82103C9.32525 6.9645 9.43906 7.13482 9.5167 7.32227C9.59435 7.50972 9.63432 7.71063 9.63432 7.91353C9.63432 8.11643 9.59435 8.31734 9.5167 8.50479C9.43906 8.69224 9.32525 8.86256 9.18177 9.00603L3.00177 15.186C2.85831 15.3295 2.68799 15.4433 2.50053 15.521C2.31308 15.5986 2.11217 15.6386 1.90927 15.6386C1.70638 15.6386 1.50547 15.5986 1.31802 15.521C1.13056 15.4433 0.960242 15.3295 0.816774 15.186L0.817774 15.185Z" fill="#3F3F46"/>
</svg>
