<svg width="20" height="12" viewBox="0 0 20 12" fill="none" xmlns="http://www.w3.org/2000/svg">
<path fill-rule="evenodd" clip-rule="evenodd" d="M18.5269 10.5619C18.3585 10.7305 18.1585 10.8641 17.9383 10.9554C17.7182 11.0466 17.4822 11.0935 17.2439 11.0935C17.0056 11.0935 16.7697 11.0466 16.5496 10.9554C16.3294 10.8641 16.1294 10.7305 15.9609 10.5619L9.98894 4.58692L4.01394 10.5619C3.67367 10.9022 3.21216 11.0934 2.73094 11.0934C2.24972 11.0934 1.78821 10.9022 1.44794 10.5619C1.10767 10.2216 0.916504 9.76013 0.916504 9.27892C0.916504 8.7977 1.10767 8.33619 1.44794 7.99591L8.70594 0.737916C8.8744 0.569378 9.07441 0.435681 9.29455 0.344465C9.51469 0.253248 9.75065 0.206299 9.98894 0.206299C10.2272 0.206299 10.4632 0.253248 10.6833 0.344465C10.9035 0.435681 11.1035 0.569378 11.2719 0.737916L18.5269 7.99591C18.6955 8.16437 18.8292 8.36438 18.9204 8.58453C19.0116 8.80467 19.0586 9.04062 19.0586 9.27892C19.0586 9.51721 19.0116 9.75316 18.9204 9.9733C18.8292 10.1934 18.6955 10.3935 18.5269 10.5619Z" fill="#3F3F46"/>
</svg>
