<svg width="20" height="12" viewBox="0 0 20 12" fill="none" xmlns="http://www.w3.org/2000/svg">
<path fill-rule="evenodd" clip-rule="evenodd" d="M1.46589 0.759984C1.80548 0.420704 2.26587 0.230124 2.74589 0.230124C3.22592 0.230124 3.68631 0.420704 4.02589 0.759984L9.9889 6.71898L15.9519 0.755984C16.1181 0.579562 16.318 0.438295 16.5398 0.340554C16.7616 0.242813 17.0007 0.190586 17.2431 0.186969C17.4854 0.183352 17.726 0.228418 17.9506 0.319497C18.1753 0.410576 18.3793 0.545814 18.5507 0.717197C18.7221 0.888581 18.8573 1.09262 18.9484 1.31723C19.0395 1.54184 19.0845 1.78245 19.0809 2.02479C19.0773 2.26714 19.0251 2.50629 18.9273 2.72809C18.8296 2.94988 18.6883 3.14979 18.5119 3.31598L11.2689 10.559C10.9293 10.8983 10.4689 11.0888 9.9889 11.0888C9.50887 11.0888 9.04848 10.8983 8.70889 10.559L1.46589 3.31898C1.12662 2.9794 0.936035 2.51901 0.936035 2.03898C0.936035 1.55896 1.12662 1.09957 1.46589 0.759984Z" fill="#3F3F46"/>
</svg>
