<svg width="10" height="16" viewBox="0 0 10 16" fill="none" xmlns="http://www.w3.org/2000/svg">
<path fill-rule="evenodd" clip-rule="evenodd" d="M9.1818 0.660013C9.32527 0.80348 9.43908 0.973802 9.51673 1.16125C9.59437 1.34871 9.63434 1.54962 9.63434 1.75251C9.63434 1.95541 9.59437 2.15632 9.51673 2.34377C9.43908 2.53122 9.32527 2.70155 9.1818 2.84501L4.0948 7.93201L9.1828 13.02C9.47281 13.3099 9.63579 13.7031 9.63589 14.1132C9.63598 14.5232 9.47318 14.9165 9.1833 15.2065C8.89342 15.4965 8.5002 15.6595 8.09015 15.6596C7.6801 15.6597 7.28681 15.4969 6.9968 15.207L0.816798 9.02701C0.673326 8.88354 0.559517 8.71322 0.48187 8.52577C0.404223 8.33832 0.364258 8.13741 0.364258 7.93451C0.364258 7.73162 0.404223 7.53071 0.48187 7.34325C0.559517 7.1558 0.673326 6.98548 0.816798 6.84201L6.9968 0.662013C7.14027 0.51854 7.31059 0.404731 7.49804 0.327084C7.68549 0.249437 7.8864 0.209473 8.0893 0.209473C8.29219 0.209473 8.49311 0.249437 8.68056 0.327084C8.86801 0.404731 9.03833 0.51854 9.1818 0.662013V0.660013Z" fill="#3F3F46"/>
</svg>
