<svg width="17" height="21" viewBox="0 0 17 21" fill="none" xmlns="http://www.w3.org/2000/svg">
<path d="M5.354 3.61597H3.354C2.82357 3.61597 2.31486 3.82668 1.93979 4.20175C1.56472 4.57683 1.354 5.08553 1.354 5.61597V17.616C1.354 18.1464 1.56472 18.6551 1.93979 19.0302C2.31486 19.4053 2.82357 19.616 3.354 19.616H13.354C13.8844 19.616 14.3931 19.4053 14.7682 19.0302C15.1433 18.6551 15.354 18.1464 15.354 17.616V5.61597C15.354 5.08553 15.1433 4.57683 14.7682 4.20175C14.3931 3.82668 13.8844 3.61597 13.354 3.61597H11.354M5.354 3.61597C5.354 4.1464 5.56472 4.65511 5.93979 5.03018C6.31486 5.40525 6.82357 5.61597 7.354 5.61597H9.354C9.88444 5.61597 10.3931 5.40525 10.7682 5.03018C11.1433 4.65511 11.354 4.1464 11.354 3.61597M5.354 3.61597C5.354 3.08553 5.56472 2.57683 5.93979 2.20175C6.31486 1.82668 6.82357 1.61597 7.354 1.61597H9.354C9.88444 1.61597 10.3931 1.82668 10.7682 2.20175C11.1433 2.57683 11.354 3.08553 11.354 3.61597" stroke="#3F3F46" stroke-width="2" stroke-linecap="round" stroke-linejoin="round"/>
</svg>
