<svg width="24" height="25" viewBox="0 0 24 25" fill="none" xmlns="http://www.w3.org/2000/svg">
<path d="M12 24.708C18.6274 24.708 24 19.3354 24 12.708C24 6.08059 18.6274 0.708008 12 0.708008C5.37258 0.708008 0 6.08059 0 12.708C0 19.3354 5.37258 24.708 12 24.708Z" fill="#3F3F46"/>
<path fill-rule="evenodd" clip-rule="evenodd" d="M11.597 6.17004C11.2853 6.18356 10.9916 6.32007 10.7804 6.54969C10.5691 6.7793 10.4575 7.08329 10.47 7.39504V13.653C10.4698 13.7166 10.4742 13.7801 10.483 13.843C10.4728 14.0604 10.5194 14.2767 10.6181 14.4706C10.7168 14.6645 10.8643 14.8294 11.046 14.949L16.426 18.329C16.5545 18.4087 16.6984 18.4603 16.8482 18.4807C16.998 18.5011 17.1504 18.4898 17.2955 18.4474C17.4407 18.4051 17.5753 18.3327 17.6906 18.235C17.806 18.1372 17.8994 18.0163 17.965 17.88C18.1159 17.5994 18.1572 17.2727 18.0811 16.9633C18.005 16.6539 17.8168 16.3837 17.553 16.205L12.723 13.172V7.39504C12.7355 7.08345 12.624 6.77961 12.413 6.55003C12.2019 6.32044 11.9085 6.18381 11.597 6.17004Z" fill="white"/>
</svg>
