<svg width="23" height="19" viewBox="0 0 23 19" fill="none" xmlns="http://www.w3.org/2000/svg">
<path d="M2.29996 15.924C1.73762 15.3615 1.33652 14.6584 1.1385 13.8881C0.940473 13.1177 0.952781 12.3084 1.17414 11.5444C1.39549 10.7804 1.81779 10.0899 2.39697 9.54471C2.97615 8.99956 3.691 8.6198 4.46696 8.44505C4.29428 7.72433 4.26748 6.97635 4.38815 6.24512C4.50882 5.51388 4.7745 4.81417 5.16959 4.18714C5.56467 3.56011 6.08117 3.01842 6.68869 2.59395C7.29621 2.16948 7.98249 1.8708 8.70715 1.71547C9.43181 1.56015 10.1802 1.55133 10.9083 1.68952C11.6365 1.82771 12.3296 2.11012 12.947 2.52015C13.5643 2.93018 14.0935 3.45953 14.5032 4.07707C14.913 4.69461 15.1951 5.38787 15.333 6.11605C16.0699 6.0968 16.8033 6.22438 17.4904 6.49137C18.1775 6.75836 18.8046 7.15942 19.3352 7.67118C19.8658 8.18294 20.2892 8.79516 20.5808 9.47219C20.8724 10.1492 21.0264 10.8775 21.0338 11.6146C21.0412 12.3518 20.9018 13.083 20.6237 13.7657C20.3457 14.4484 19.9346 15.069 19.4143 15.5913C18.8941 16.1135 18.2751 16.527 17.5934 16.8077C16.9118 17.0884 16.1811 17.2306 15.444 17.226H5.44396C4.86007 17.2262 4.28187 17.1113 3.7424 16.8879C3.20294 16.6645 2.71279 16.337 2.29996 15.924Z" stroke="#3F3F46" stroke-width="2" stroke-linecap="round" stroke-linejoin="round"/>
</svg>
