<svg width="24" height="28" viewBox="0 0 24 28" fill="none" xmlns="http://www.w3.org/2000/svg">
<path fill-rule="evenodd" clip-rule="evenodd" d="M0 13.5741C0 14.2637 0.135821 14.9465 0.399709 15.5836C0.663596 16.2206 1.05038 16.7995 1.53798 17.2871C2.52274 18.2719 3.85835 18.8251 5.251 18.8251H10.5V22.7051L8.56 20.7651C8.27483 20.5054 7.90059 20.3656 7.51502 20.3746C7.12944 20.3836 6.76215 20.5408 6.48944 20.8135C6.21672 21.0862 6.05953 21.4535 6.05051 21.8391C6.04149 22.2247 6.18133 22.5989 6.441 22.8841L10.941 27.3841C11.2223 27.6653 11.6038 27.8233 12.0015 27.8233C12.3992 27.8233 12.7807 27.6653 13.062 27.3841L17.562 22.8841C17.8352 22.6012 17.9864 22.2223 17.983 21.829C17.9796 21.4357 17.8218 21.0595 17.5437 20.7814C17.2656 20.5033 16.8894 20.3455 16.4961 20.3421C16.1028 20.3387 15.7239 20.4899 15.441 20.7631L13.501 22.7031V18.8231H17.252C18.1773 18.8227 19.0926 18.6321 19.9411 18.2631C20.7897 17.8942 21.5533 17.3547 22.1846 16.6783C22.8159 16.0018 23.3015 15.2028 23.611 14.3309C23.9206 13.4589 24.0477 12.5326 23.9843 11.6095C23.9209 10.6864 23.6684 9.78619 23.2425 8.96475C22.8166 8.14331 22.2264 7.41818 21.5085 6.8344C20.7907 6.25061 19.9605 5.82062 19.0694 5.57113C18.1784 5.32165 17.2456 5.25798 16.329 5.38409C16.1341 4.62052 15.7907 3.90281 15.3185 3.27194C14.8462 2.64107 14.2544 2.1094 13.5766 1.70727C12.2079 0.895148 10.5726 0.660012 9.0305 1.05359C7.4884 1.44717 6.16581 2.43723 5.35368 3.80597C4.54155 5.1747 4.30642 6.80999 4.7 8.35209C3.40991 8.48822 2.21587 9.09707 1.34804 10.0613C0.480201 11.0255 2.74393e-06 12.2768 0 13.5741ZM13.5 18.8251H10.5V11.3251C10.5 10.9273 10.658 10.5457 10.9393 10.2644C11.2206 9.98313 11.6022 9.82509 12 9.82509C12.3978 9.82509 12.7794 9.98313 13.0607 10.2644C13.342 10.5457 13.5 10.9273 13.5 11.3251V18.8251Z" fill="#3F3F46"/>
</svg>
