<svg width="22" height="25" viewBox="0 0 22 25" fill="none" xmlns="http://www.w3.org/2000/svg">
<path d="M5.44693 17.111C4.35334 17.1118 3.29787 16.7092 2.48265 15.9803C1.66742 15.2513 1.14975 14.2473 1.02875 13.1604C0.907751 12.0736 1.19194 10.9802 1.82689 10.0899C2.46184 9.1995 3.40293 8.57464 4.46993 8.33496C4.18372 6.90365 4.47246 5.4172 5.27371 4.19713C6.07496 2.97706 7.3243 2.12146 8.7515 1.81539C10.1787 1.50932 11.669 1.77738 12.9001 2.5616C14.1312 3.34582 15.0041 4.58315 15.3299 6.00596H15.4409C16.8172 6.00562 18.1446 6.51641 19.1657 7.43927C20.1868 8.36213 20.8288 9.6313 20.9671 11.0006C21.1055 12.37 20.7304 13.7419 19.9146 14.8504C19.0989 15.9589 17.9005 16.7249 16.5519 17M14.3309 13.779L11.0039 10.448M11.0039 10.448L7.66793 13.78M11.0039 10.448V23.774" stroke="#3F3F46" stroke-width="2" stroke-linecap="round" stroke-linejoin="round"/>
</svg>
