<svg width="23" height="25" viewBox="0 0 23 25" fill="none" xmlns="http://www.w3.org/2000/svg">
<path d="M5.90786 17.111C4.81428 17.1118 3.75881 16.7092 2.94359 15.9803C2.12836 15.2513 1.61068 14.2473 1.48969 13.1604C1.36869 12.0736 1.65288 10.9802 2.28783 10.0899C2.92278 9.1995 3.86387 8.57464 4.93086 8.33496C4.64465 6.90365 4.9334 5.4172 5.73465 4.19713C6.5359 2.97706 7.78524 2.12146 9.21243 1.81539C10.6396 1.50932 12.1299 1.77738 13.361 2.5616C14.5921 3.34582 15.465 4.58315 15.7909 6.00596H15.9019C17.2782 6.00562 18.6056 6.51641 19.6267 7.43927C20.6477 8.36213 21.2897 9.6313 21.4281 11.0006C21.5665 12.37 21.1914 13.7419 20.3756 14.8504C19.5598 15.9589 18.3614 16.7249 17.0129 17M8.12886 20.443L11.4649 23.774M11.4649 23.774L14.7969 20.442M11.4649 23.774V10.448" stroke="#3F3F46" stroke-width="2" stroke-linecap="round" stroke-linejoin="round"/>
</svg>
