<svg width="24" height="25" viewBox="0 0 24 25" fill="none" xmlns="http://www.w3.org/2000/svg">
<path fill-rule="evenodd" clip-rule="evenodd" d="M14.2348 2.46312C14.1131 1.96213 13.8266 1.51655 13.4213 1.19791C13.016 0.879276 12.5154 0.706055 11.9998 0.706055C11.4842 0.706055 10.9836 0.879276 10.5783 1.19791C10.173 1.51655 9.88652 1.96213 9.76481 2.46312C9.67933 2.8145 9.5122 3.14077 9.27698 3.41545C9.04176 3.69013 8.74509 3.90547 8.41105 4.04399C8.077 4.18252 7.715 4.24033 7.35443 4.21273C6.99386 4.18512 6.64488 4.07288 6.33581 3.88512C5.89566 3.6184 5.37876 3.50701 4.86782 3.56878C4.35688 3.63054 3.88142 3.86189 3.5175 4.22581C3.15358 4.58973 2.92223 5.06519 2.86047 5.57613C2.7987 6.08707 2.91009 6.60397 3.17681 7.04412C3.36499 7.35318 3.47759 7.70227 3.50548 8.06303C3.53336 8.42379 3.47573 8.78605 3.33727 9.12035C3.19882 9.45465 2.98344 9.75156 2.70865 9.98697C2.43386 10.2224 2.1074 10.3896 1.75581 10.4751C1.25621 10.5979 0.812205 10.8847 0.494792 11.2896C0.177378 11.6945 0.00488281 12.1941 0.00488281 12.7086C0.00488281 13.2231 0.177378 13.7227 0.494792 14.1276C0.812205 14.5325 1.25621 14.8193 1.75581 14.9421C2.1074 15.0276 2.43386 15.1949 2.70865 15.4303C2.98344 15.6657 3.19882 15.9626 3.33727 16.2969C3.47573 16.6312 3.53336 16.9935 3.50548 17.3542C3.47759 17.715 3.36499 18.0641 3.17681 18.3731C2.91009 18.8133 2.7987 19.3302 2.86047 19.8411C2.92223 20.3521 3.15358 20.8275 3.5175 21.1914C3.88142 21.5554 4.35688 21.7867 4.86782 21.8485C5.37876 21.9102 5.89566 21.7988 6.33581 21.5321C6.64487 21.3439 6.99396 21.2313 7.35472 21.2035C7.71549 21.1756 8.07773 21.2332 8.41203 21.3717C8.74634 21.5101 9.04325 21.7255 9.27866 22.0003C9.51406 22.2751 9.68131 22.6015 9.76681 22.9531C9.88963 23.4527 10.1764 23.8967 10.5813 24.2141C10.9862 24.5316 11.4858 24.7041 12.0003 24.7041C12.5148 24.7041 13.0144 24.5316 13.4193 24.2141C13.8242 23.8967 14.111 23.4527 14.2338 22.9531C14.3193 22.6015 14.4866 22.2751 14.722 22.0003C14.9574 21.7255 15.2543 21.5101 15.5886 21.3717C15.9229 21.2332 16.2851 21.1756 16.6459 21.2035C17.0067 21.2313 17.3558 21.3439 17.6648 21.5321C18.105 21.7988 18.6219 21.9102 19.1328 21.8485C19.6437 21.7867 20.1192 21.5554 20.4831 21.1914C20.847 20.8275 21.0784 20.3521 21.1402 19.8411C21.2019 19.3302 21.0905 18.8133 20.8238 18.3731C20.6356 18.0641 20.523 17.715 20.4951 17.3542C20.4673 16.9935 20.5249 16.6312 20.6634 16.2969C20.8018 15.9626 21.0172 15.6657 21.292 15.4303C21.5668 15.1949 21.8932 15.0276 22.2448 14.9421C22.7444 14.8193 23.1884 14.5325 23.5058 14.1276C23.8232 13.7227 23.9957 13.2231 23.9957 12.7086C23.9957 12.1941 23.8232 11.6945 23.5058 11.2896C23.1884 10.8847 22.7444 10.5979 22.2448 10.4751C21.8932 10.3896 21.5668 10.2224 21.292 9.98697C21.0172 9.75156 20.8018 9.45465 20.6634 9.12035C20.5249 8.78605 20.4673 8.42379 20.4951 8.06303C20.523 7.70227 20.6356 7.35318 20.8238 7.04412C21.0905 6.60397 21.2019 6.08707 21.1402 5.57613C21.0784 5.06519 20.847 4.58973 20.4831 4.22581C20.1192 3.86189 19.6437 3.63054 19.1328 3.56878C18.6219 3.50701 18.105 3.6184 17.6648 3.88512C17.3558 4.0733 17.0067 4.1859 16.6459 4.21379C16.2851 4.24167 15.9229 4.18404 15.5886 4.04558C15.2543 3.90713 14.9574 3.69175 14.722 3.41696C14.4866 3.14217 14.3193 2.81571 14.2338 2.46412L14.2348 2.46312ZM11.9998 17.2081C13.0409 17.2081 14.0498 16.8471 14.8546 16.1866C15.6593 15.5262 16.2102 14.6071 16.4133 13.586C16.6164 12.5649 16.4592 11.505 15.9684 10.5868C15.4776 9.66864 14.6837 8.94906 13.7218 8.55065C12.76 8.15225 11.6897 8.09968 10.6935 8.4019C9.6972 8.70412 8.83654 9.34244 8.25814 10.2081C7.67975 11.0737 7.41939 12.1131 7.52145 13.1492C7.6235 14.1853 8.08164 15.154 8.81781 15.8901C9.23568 16.308 9.73176 16.6395 10.2777 16.8656C10.8237 17.0917 11.4089 17.2081 11.9998 17.2081Z" fill="#3F3F46"/>
</svg>
