<svg width="25" height="25" viewBox="0 0 25 25" fill="none" xmlns="http://www.w3.org/2000/svg">
<path d="M14.64 2.68302C14.5256 2.2013 14.2521 1.77224 13.8637 1.46523C13.4753 1.15822 12.9946 0.991211 12.4995 0.991211C12.0044 0.991211 11.5238 1.15822 11.1353 1.46523C10.7469 1.77224 10.4734 2.2013 10.359 2.68302C10.2777 3.0201 10.1178 3.33317 9.89244 3.59671C9.66708 3.86025 9.38262 4.06679 9.06226 4.19948C8.74189 4.33217 8.3947 4.38725 8.049 4.36023C7.7033 4.33322 7.36888 4.22487 7.07302 4.04402C6.65144 3.7835 6.15426 3.67296 5.66202 3.73028C5.16977 3.78761 4.7113 4.00946 4.36088 4.35988C4.01046 4.7103 3.78861 5.16877 3.73128 5.66102C3.67396 6.15326 3.7845 6.65044 4.04502 7.07202C4.22627 7.368 4.33493 7.70268 4.36211 8.04869C4.38928 8.3947 4.33421 8.74223 4.20138 9.06288C4.06855 9.38354 3.86175 9.66821 3.59786 9.89366C3.33397 10.1191 3.02048 10.2789 2.68302 10.36C2.2013 10.4744 1.77224 10.7479 1.46523 11.1363C1.15822 11.5248 0.991211 12.0054 0.991211 12.5005C0.991211 12.9956 1.15822 13.4763 1.46523 13.8647C1.77224 14.2531 2.2013 14.5266 2.68302 14.641C3.0201 14.7224 3.33317 14.8822 3.59671 15.1076C3.86025 15.333 4.06679 15.6174 4.19948 15.9378C4.33217 16.2581 4.38725 16.6053 4.36023 16.951C4.33322 17.2967 4.22487 17.6312 4.04402 17.927C3.7835 18.3486 3.67296 18.8458 3.73028 19.338C3.78761 19.8303 4.00946 20.2887 4.35988 20.6392C4.7103 20.9896 5.16877 21.2114 5.66102 21.2688C6.15326 21.3261 6.65044 21.2155 7.07202 20.955C7.368 20.7738 7.70268 20.6651 8.04869 20.6379C8.3947 20.6108 8.74223 20.6658 9.06288 20.7987C9.38354 20.9315 9.66821 21.1383 9.89366 21.4022C10.1191 21.6661 10.2789 21.9796 10.36 22.317C10.4744 22.7987 10.7479 23.2278 11.1363 23.5348C11.5248 23.8418 12.0054 24.0088 12.5005 24.0088C12.9956 24.0088 13.4763 23.8418 13.8647 23.5348C14.2531 23.2278 14.5266 22.7987 14.641 22.317C14.7224 21.9799 14.8822 21.6669 15.1076 21.4033C15.333 21.1398 15.6174 20.9332 15.9378 20.8006C16.2581 20.6679 16.6053 20.6128 16.951 20.6398C17.2967 20.6668 17.6312 20.7752 17.927 20.956C18.3486 21.2165 18.8458 21.3271 19.338 21.2698C19.8303 21.2124 20.2887 20.9906 20.6392 20.6402C20.9896 20.2897 21.2114 19.8313 21.2688 19.339C21.3261 18.8468 21.2155 18.3496 20.955 17.928C20.7738 17.632 20.6651 17.2974 20.6379 16.9514C20.6108 16.6053 20.6658 16.2578 20.7987 15.9372C20.9315 15.6165 21.1383 15.3318 21.4022 15.1064C21.6661 14.8809 21.9796 14.7211 22.317 14.64C22.7987 14.5256 23.2278 14.2521 23.5348 13.8637C23.8418 13.4753 24.0088 12.9946 24.0088 12.4995C24.0088 12.0044 23.8418 11.5238 23.5348 11.1353C23.2278 10.7469 22.7987 10.4734 22.317 10.359C21.9799 10.2777 21.6669 10.1178 21.4033 9.89244C21.1398 9.66708 20.9332 9.38262 20.8006 9.06226C20.6679 8.74189 20.6128 8.3947 20.6398 8.049C20.6668 7.7033 20.7752 7.36888 20.956 7.07302C21.2165 6.65144 21.3271 6.15426 21.2698 5.66202C21.2124 5.16977 20.9906 4.7113 20.6402 4.36088C20.2897 4.01046 19.8313 3.78861 19.339 3.73128C18.8468 3.67396 18.3496 3.7845 17.928 4.04502C17.632 4.22627 17.2974 4.33493 16.9514 4.36211C16.6053 4.38928 16.2578 4.33421 15.9372 4.20138C15.6165 4.06855 15.3318 3.86175 15.1064 3.59786C14.8809 3.33397 14.7211 3.02048 14.64 2.68302Z" stroke="#3F3F46" stroke-width="2" stroke-linecap="round" stroke-linejoin="round"/>
<path d="M15.211 15.211C15.838 14.5839 16.2281 13.7588 16.3149 12.8764C16.4018 11.9939 16.1799 11.1086 15.6872 10.3713C15.1945 9.63403 14.4614 9.0904 13.6129 8.83303C12.7643 8.57566 11.8527 8.62047 11.0335 8.95983C10.2142 9.29919 9.53798 9.91211 9.11997 10.6941C8.70195 11.4762 8.56802 12.379 8.74099 13.2487C8.91396 14.1184 9.38313 14.9013 10.0686 15.4638C10.754 16.0264 11.6133 16.334 12.5 16.334C13.0035 16.3341 13.5021 16.2349 13.9673 16.0422C14.4324 15.8495 14.8551 15.5671 15.211 15.211Z" stroke="#3F3F46" stroke-width="2" stroke-linecap="round" stroke-linejoin="round"/>
</svg>
