<svg width="23" height="19" viewBox="0 0 23 19" fill="none" xmlns="http://www.w3.org/2000/svg">
<path d="M1.67676 7.17197H21.6768M6.12076 12.727H7.23276M11.6768 12.727H12.7878M5.00976 17.172H18.3438C18.7815 17.172 19.215 17.0857 19.6195 16.9182C20.0239 16.7506 20.3914 16.505 20.7009 16.1954C21.0104 15.8858 21.2559 15.5183 21.4233 15.1138C21.5908 14.7093 21.6769 14.2757 21.6768 13.838V4.94897C21.6768 4.065 21.3256 3.21724 20.7005 2.59218C20.0755 1.96712 19.2277 1.61597 18.3438 1.61597H5.00976C4.12579 1.61597 3.27803 1.96712 2.65297 2.59218C2.02791 3.21724 1.67676 4.065 1.67676 4.94897V13.838C1.67676 14.7219 2.02791 15.5697 2.65297 16.1948C3.27803 16.8198 4.12579 17.172 5.00976 17.172Z" stroke="#3F3F46" stroke-width="2" stroke-linecap="round" stroke-linejoin="round"/>
</svg>
