<svg width="23" height="17" viewBox="0 0 23 17" fill="none" xmlns="http://www.w3.org/2000/svg">
<path d="M3 15.519H6C7.10457 15.519 8 14.6236 8 13.519L8 3.51904C8 2.41447 7.10457 1.51904 6 1.51904H3C1.89543 1.51904 1 2.41447 1 3.51904L1 13.519C1 14.6236 1.89543 15.519 3 15.519Z" stroke="#2C3E50" stroke-width="1.5" stroke-linecap="round" stroke-linejoin="round"/>
<path d="M10 15.519H13C14.1046 15.519 15 14.6236 15 13.519L15 3.51904C15 2.41447 14.1046 1.51904 13 1.51904H10C8.89543 1.51904 8 2.41447 8 3.51904L8 13.519C8 14.6236 8.89543 15.519 10 15.519Z" stroke="#2C3E50" stroke-width="1.5" stroke-linecap="round" stroke-linejoin="round"/>
<path d="M17 15.519H20C21.1046 15.519 22 14.6236 22 13.519V3.51904C22 2.41447 21.1046 1.51904 20 1.51904H17C15.8954 1.51904 15 2.41447 15 3.51904L15 13.519C15 14.6236 15.8954 15.519 17 15.519Z" stroke="#2C3E50" stroke-width="1.5" stroke-linecap="round" stroke-linejoin="round"/>
</svg>
