<svg width="22" height="24" viewBox="0 0 22 24" fill="none" xmlns="http://www.w3.org/2000/svg">
<path d="M1.56494 6.36597V18.241C1.56494 20.865 5.81894 22.991 11.0649 22.991C16.3109 22.991 20.5649 20.865 20.5649 18.241V6.36597M1.56494 6.36597C1.56494 8.98997 5.81894 11.116 11.0649 11.116C16.3109 11.116 20.5649 8.98997 20.5649 6.36597M1.56494 6.36597C1.56494 3.74197 5.81894 1.61597 11.0649 1.61597C16.3109 1.61597 20.5649 3.74197 20.5649 6.36597M20.5649 12.303C20.5649 14.927 16.3109 17.053 11.0649 17.053C5.81894 17.053 1.56494 14.928 1.56494 12.303" stroke="#3F3F46" stroke-width="2" stroke-linecap="round" stroke-linejoin="round"/>
</svg>
