<svg width="34" height="20" viewBox="0 0 34 20" fill="none" xmlns="http://www.w3.org/2000/svg">
<path d="M9.35187 10.0183C10.1209 7.57544 11.6489 5.44148 13.714 3.92662C15.779 2.41176 18.2733 1.59497 20.8344 1.59497C23.3954 1.59497 25.8898 2.41176 27.9548 3.92662C30.0198 5.44148 31.5479 7.57544 32.3169 10.0183C31.5479 12.4612 30.0198 14.5952 27.9548 16.11C25.8898 17.6249 23.3954 18.4417 20.8344 18.4417C18.2733 18.4417 15.779 17.6249 13.714 16.11C11.6489 14.5952 10.1209 12.4612 9.35187 10.0183Z" stroke="#3F3F46" stroke-width="2" stroke-linecap="round" stroke-linejoin="round"/>
<path d="M2.22485 10.0183C3.06985 6.46733 -0.756151 3.89233 2.22485 3.89233C5.20585 3.89233 7.72485 6.46733 8.57285 10.0183C7.72485 13.5683 5.20385 16.1443 2.22485 16.1443C-0.754151 16.1443 3.06985 13.5683 2.22485 10.0183Z" stroke="#3F3F46" stroke-width="2" stroke-linecap="round" stroke-linejoin="round"/>
<path d="M26.5765 8.10066L24.6589 10.0183M24.6589 10.0183L22.7412 11.936M24.6589 10.0183L26.5765 11.936M24.6589 10.0183L22.7412 8.10066" stroke="#3F3F46" stroke-width="2" stroke-linecap="round" stroke-linejoin="round"/>
</svg>
