<svg width="17" height="21" viewBox="0 0 17 21" fill="none" xmlns="http://www.w3.org/2000/svg">
<path d="M6.13892 20H13.333C13.8775 19.9996 14.3998 19.7839 14.786 19.4C14.976 19.2105 15.1268 18.9855 15.2297 18.7377C15.3327 18.49 15.3858 18.2243 15.386 17.956V8.16998C15.3848 7.90011 15.2769 7.64164 15.0859 7.45099L9.52197 1.91498C9.32874 1.72294 9.06735 1.61511 8.79492 1.61499H3.05493C2.51033 1.61506 1.98791 1.83076 1.60193 2.21497C1.41165 2.40421 1.26069 2.62925 1.15772 2.87708C1.05474 3.1249 1.00181 3.39063 1.00195 3.659V14.893M1.7179 19.287L5.73889 15.287M5.90393 15.1219C6.2798 15.5013 6.74344 15.7821 7.25378 15.9394C7.76413 16.0967 8.30539 16.1256 8.82959 16.0236C9.35379 15.9216 9.84474 15.6919 10.2589 15.3548C10.6731 15.0177 10.9977 14.5836 11.204 14.091C11.4489 13.4992 11.5108 12.8475 11.382 12.2202C11.2531 11.5928 10.9393 11.0184 10.481 10.571C9.87034 9.97506 9.04999 9.643 8.19678 9.64636C7.34357 9.64973 6.52581 9.98826 5.91992 10.589C5.31605 11.1873 4.97458 12.0008 4.97046 12.8509C4.96633 13.7009 5.29991 14.5178 5.89795 15.1219H5.90393Z" stroke="#3F3F46" stroke-width="2" stroke-linecap="round" stroke-linejoin="round"/>
</svg>
