<svg width="17" height="21" viewBox="0 0 17 21" fill="none" xmlns="http://www.w3.org/2000/svg">
<path d="M5.67676 10.616H11.6768M5.67676 14.616H11.6768M13.6768 19.616H3.67676C3.14632 19.616 2.63762 19.4053 2.26254 19.0302C1.88747 18.6551 1.67676 18.1464 1.67676 17.616V3.61597C1.67676 3.08553 1.88747 2.57683 2.26254 2.20175C2.63762 1.82668 3.14632 1.61597 3.67676 1.61597H9.26276C9.52795 1.61602 9.78227 1.72142 9.96976 1.90897L15.3838 7.32297C15.5713 7.51046 15.6767 7.76477 15.6768 8.02997V17.616C15.6768 18.1464 15.466 18.6551 15.091 19.0302C14.7159 19.4053 14.2072 19.616 13.6768 19.616Z" stroke="#3F3F46" stroke-width="2" stroke-linecap="round" stroke-linejoin="round"/>
</svg>
