<svg width="24" height="25" viewBox="0 0 24 25" fill="none" xmlns="http://www.w3.org/2000/svg">
<path d="M24 12.7075C24.0001 15.4837 23.0376 18.1742 21.2765 20.3203C19.5153 22.4665 17.0645 23.9356 14.3416 24.4773C11.6187 25.0191 8.79219 24.5999 6.34368 23.2913C3.89518 21.9827 1.97617 19.8656 0.913633 17.3007C-0.148903 14.7358 -0.289221 11.8818 0.516586 9.22505C1.32239 6.5683 3.02447 4.27313 5.3328 2.73064C7.64112 1.18814 10.4129 0.493743 13.1758 0.765769C15.9387 1.03779 18.5218 2.25941 20.485 4.22246C22.7355 6.47278 23.9999 9.52492 24 12.7075Z" fill="#3F3F46"/>
<path d="M12 13.7075C12.5523 13.7075 13 13.2598 13 12.7075C13 12.1552 12.5523 11.7075 12 11.7075C11.4477 11.7075 11 12.1552 11 12.7075C11 13.2598 11.4477 13.7075 12 13.7075Z" fill="white"/>
<path d="M18 13.7075C18.5523 13.7075 19 13.2598 19 12.7075C19 12.1552 18.5523 11.7075 18 11.7075C17.4477 11.7075 17 12.1552 17 12.7075C17 13.2598 17.4477 13.7075 18 13.7075Z" fill="white"/>
<path d="M6 13.7075C6.55228 13.7075 7 13.2598 7 12.7075C7 12.1552 6.55228 11.7075 6 11.7075C5.44772 11.7075 5 12.1552 5 12.7075C5 13.2598 5.44772 13.7075 6 13.7075Z" fill="white"/>
</svg>
