<svg width="26" height="26" viewBox="0 0 26 26" fill="none" xmlns="http://www.w3.org/2000/svg">
<path d="M7.667 12.9995H7.68M13 12.9995H13.013M18.333 12.9995H18.346M25 12.9995C25.0001 15.7757 24.0376 18.4662 22.2765 20.6123C20.5153 22.7585 18.0645 24.2276 15.3416 24.7693C12.6187 25.3111 9.79219 24.8919 7.34368 23.5833C4.89518 22.2747 2.97617 20.1576 1.91363 17.5927C0.851097 15.0278 0.710779 12.1738 1.51659 9.51704C2.32239 6.86029 4.02447 4.56512 6.3328 3.02263C8.64112 1.48013 11.4129 0.785735 14.1758 1.05776C16.9387 1.32979 19.5218 2.5514 21.485 4.51446C23.7355 6.76478 24.9999 9.81692 25 12.9995Z" stroke="#3F3F46" stroke-width="2" stroke-linecap="round" stroke-linejoin="round"/>
</svg>
