<svg width="24" height="7" viewBox="0 0 24 7" fill="none" xmlns="http://www.w3.org/2000/svg">
<path d="M6 3.70801C6.00015 4.40208 5.75963 5.07473 5.31942 5.61135C4.87922 6.14797 4.26656 6.51535 3.58585 6.65089C2.90514 6.78643 2.19849 6.68175 1.58631 6.35468C0.974133 6.02761 0.494299 5.4984 0.228571 4.8572C-0.037156 4.21601 -0.0723352 3.50252 0.129028 2.8383C0.330391 2.17407 0.755837 1.60022 1.33287 1.21452C1.90991 0.828815 2.60284 0.655126 3.29358 0.723048C3.98432 0.790969 4.63014 1.0963 5.121 1.58701C5.68365 2.14949 5.99983 2.91242 6 3.70801ZM15 3.70801C15.0001 4.40208 14.7596 5.07473 14.3194 5.61135C13.8792 6.14797 13.2666 6.51535 12.5859 6.65089C11.9051 6.78643 11.1985 6.68175 10.5863 6.35468C9.97413 6.02761 9.4943 5.4984 9.22857 4.8572C8.96284 4.21601 8.92766 3.50252 9.12903 2.8383C9.33039 2.17407 9.75584 1.60022 10.3329 1.21452C10.9099 0.828815 11.6028 0.655126 12.2936 0.723048C12.9843 0.790969 13.6301 1.0963 14.121 1.58701C14.6836 2.14949 14.9998 2.91242 15 3.70801ZM21 6.70801C21.6941 6.70816 22.3667 6.46764 22.9033 6.02743C23.44 5.58723 23.8073 4.97457 23.9429 4.29386C24.0784 3.61315 23.9737 2.9065 23.6467 2.29432C23.3196 1.68214 22.7904 1.20231 22.1492 0.936579C21.508 0.670852 20.7945 0.635673 20.1303 0.837036C19.4661 1.0384 18.8922 1.46384 18.5065 2.04088C18.1208 2.61792 17.9471 3.31084 18.015 4.00159C18.083 4.69233 18.3883 5.33815 18.879 5.82901C19.4415 6.39166 20.2044 6.70784 21 6.70801Z" fill="#3F3F46"/>
</svg>
