<svg width="6" height="27" viewBox="0 0 6 27" fill="none" xmlns="http://www.w3.org/2000/svg">
<path d="M3.0003 3.11597V3.13097M3.0003 13.616V13.631M3.0003 24.116V24.131M3.0003 4.61597C2.65328 4.61581 2.31704 4.49533 2.04888 4.27507C1.78073 4.0548 1.59724 3.74837 1.52968 3.40799C1.46212 3.0676 1.51467 2.71432 1.67838 2.40834C1.84209 2.10236 2.10683 1.8626 2.42749 1.72993C2.74815 1.59725 3.10489 1.57986 3.43694 1.68072C3.76898 1.78158 4.05578 1.99444 4.24848 2.28305C4.44117 2.57166 4.52784 2.91815 4.49371 3.2635C4.45958 3.60884 4.30676 3.93166 4.0613 4.17697C3.92194 4.31623 3.75652 4.42668 3.57447 4.50201C3.39242 4.57733 3.19732 4.61606 3.0003 4.61597ZM3.0003 15.116C2.65328 15.1158 2.31704 14.9953 2.04888 14.7751C1.78073 14.5548 1.59724 14.2484 1.52968 13.908C1.46212 13.5676 1.51467 13.2143 1.67838 12.9083C1.84209 12.6024 2.10683 12.3626 2.42749 12.2299C2.74815 12.0972 3.10489 12.0799 3.43694 12.1807C3.76898 12.2816 4.05578 12.4944 4.24848 12.7831C4.44117 13.0717 4.52784 13.4182 4.49371 13.7635C4.45958 14.1088 4.30676 14.4317 4.0613 14.677C3.92194 14.8162 3.75652 14.9267 3.57447 15.002C3.39242 15.0773 3.19732 15.1161 3.0003 15.116ZM3.0003 25.616C2.65328 25.6158 2.31704 25.4953 2.04888 25.2751C1.78073 25.0548 1.59724 24.7484 1.52968 24.408C1.46212 24.0676 1.51467 23.7143 1.67838 23.4083C1.84209 23.1024 2.10683 22.8626 2.42749 22.7299C2.74815 22.5972 3.10489 22.5799 3.43694 22.6807C3.76898 22.7816 4.05578 22.9944 4.24848 23.2831C4.44117 23.5717 4.52784 23.9182 4.49371 24.2635C4.45958 24.6088 4.30676 24.9317 4.0613 25.177C3.92194 25.3162 3.75652 25.4267 3.57447 25.502C3.39242 25.5773 3.19732 25.6161 3.0003 25.616Z" stroke="#3F3F46" stroke-width="2" stroke-linecap="round" stroke-linejoin="round"/>
</svg>
