<svg width="26" height="6" viewBox="0 0 26 6" fill="none" xmlns="http://www.w3.org/2000/svg">
<path d="M2.5 3.11665H2.515M13 3.11665H13.015M23.5 3.11665H23.515M4 3.11665C3.99984 3.46367 3.87937 3.79991 3.6591 4.06806C3.43883 4.33622 3.1324 4.51971 2.79202 4.58727C2.45163 4.65483 2.09835 4.60228 1.79237 4.43857C1.48639 4.27486 1.24664 4.01012 1.11396 3.68946C0.981283 3.3688 0.963892 3.01206 1.06475 2.68001C1.16561 2.34797 1.37848 2.06116 1.66709 1.86847C1.95569 1.67578 2.30219 1.58911 2.64753 1.62324C2.99287 1.65737 3.3157 1.81019 3.561 2.05565C3.70027 2.19501 3.81072 2.36043 3.88604 2.54248C3.96137 2.72453 4.00009 2.91963 4 3.11665ZM14.5 3.11665C14.4998 3.46367 14.3794 3.79991 14.1591 4.06806C13.9388 4.33622 13.6324 4.51971 13.292 4.58727C12.9516 4.65483 12.5984 4.60228 12.2924 4.43857C11.9864 4.27486 11.7466 4.01012 11.614 3.68946C11.4813 3.3688 11.4639 3.01206 11.5648 2.68001C11.6656 2.34797 11.8785 2.06116 12.1671 1.86847C12.4557 1.67578 12.8022 1.58911 13.1475 1.62324C13.4929 1.65737 13.8157 1.81019 14.061 2.05565C14.2003 2.19501 14.3107 2.36043 14.386 2.54248C14.4614 2.72453 14.5001 2.91963 14.5 3.11665ZM25 3.11665C24.9998 3.46367 24.8794 3.79991 24.6591 4.06806C24.4388 4.33622 24.1324 4.51971 23.792 4.58727C23.4516 4.65483 23.0984 4.60228 22.7924 4.43857C22.4864 4.27486 22.2466 4.01012 22.114 3.68946C21.9813 3.3688 21.9639 3.01206 22.0648 2.68001C22.1656 2.34797 22.3785 2.06116 22.6671 1.86847C22.9557 1.67578 23.3022 1.58911 23.6475 1.62324C23.9929 1.65737 24.3157 1.81019 24.561 2.05565C24.7003 2.19501 24.8107 2.36043 24.886 2.54248C24.9614 2.72453 25.0001 2.91963 25 3.11665Z" stroke="#3F3F46" stroke-width="2" stroke-linecap="round" stroke-linejoin="round"/>
</svg>
