<svg width="24" height="24" viewBox="0 0 24 24" fill="none" xmlns="http://www.w3.org/2000/svg">
<path d="M6 3.9875H5.9875V4V18C5.9875 19.1115 6.88853 20.0125 8 20.0125H16C17.1115 20.0125 18.0125 19.1115 18.0125 18V11C18.0125 9.88853 17.1115 8.9875 16 8.9875H15C13.9023 8.9875 13.0125 8.09767 13.0125 7V6C13.0125 4.88853 12.1115 3.9875 11 3.9875H6ZM6 21.9875C5.45334 21.9875 4.98568 21.793 4.59634 21.4037C4.207 21.0143 4.0125 20.5467 4.0125 20V4C4.0125 3.45334 4.207 2.98568 4.59634 2.59634C4.98568 2.207 5.45334 2.0125 6 2.0125H13.1716C13.6987 2.0125 14.2042 2.2219 14.5769 2.59463L19.4054 7.42305C19.7781 7.79578 19.9875 8.30131 19.9875 8.82843V20C19.9875 20.5467 19.793 21.0143 19.4037 21.4037C19.0143 21.793 18.5467 21.9875 18 21.9875H6Z" fill="#DCD8B7" stroke="#DCD8B7" stroke-width="0.025"/>
</svg>
