<svg width="22" height="22" viewBox="0 0 22 22" fill="none" xmlns="http://www.w3.org/2000/svg">
<path d="M6.84251 5.81592H3.337C2.71719 5.81592 2.12276 6.06214 1.68449 6.50041C1.24622 6.93868 1 7.53311 1 8.15292V18.6631C1 19.2829 1.24622 19.8774 1.68449 20.3156C2.12276 20.7539 2.71719 21.0001 3.337 21.0001H13.8472C14.467 21.0001 15.0615 20.7539 15.4997 20.3156C15.938 19.8774 16.1842 19.2829 16.1842 18.6631V15.1576" stroke="#DCD8B7" stroke-width="2" stroke-linecap="round" stroke-linejoin="round"/>
<path d="M6.83984 15.1584H10.3453L20.2713 5.23152C20.7362 4.76666 20.9973 4.13617 20.9973 3.47877C20.9973 2.82136 20.7362 2.19087 20.2713 1.72601C19.8065 1.26115 19.176 1 18.5186 1C17.8612 1 17.2307 1.26115 16.7658 1.72601L6.83984 11.6547V15.1602" stroke="#DCD8B7" stroke-width="2" stroke-linecap="round" stroke-linejoin="round"/>
<path d="M15.3809 3.91992L18.0774 6.61646" stroke="#DCD8B7" stroke-width="2" stroke-linecap="round" stroke-linejoin="round"/>
</svg>
