<svg width="25" height="25" viewBox="0 0 25 25" fill="none" xmlns="http://www.w3.org/2000/svg">
<path d="M8.16406 6.35504H4.26406C3.5745 6.35504 2.91318 6.62897 2.42558 7.11656C1.93799 7.60416 1.66406 8.26548 1.66406 8.95504V20.648C1.66406 21.3376 1.93799 21.9989 2.42558 22.4865C2.91318 22.9741 3.5745 23.248 4.26406 23.248H15.9571C16.6466 23.248 17.3079 22.9741 17.7955 22.4865C18.2831 21.9989 18.5571 21.3376 18.5571 20.648V16.748" stroke="#2C3E50" stroke-width="2" stroke-linecap="round" stroke-linejoin="round"/>
<path d="M8.16113 16.749H12.0611L23.1041 5.70503C23.6213 5.18786 23.9118 4.48642 23.9118 3.75503C23.9118 3.02364 23.6213 2.3222 23.1041 1.80503C22.587 1.28786 21.8855 0.997314 21.1541 0.997314C20.4227 0.997314 19.7213 1.28786 19.2041 1.80503L8.16113 12.851V16.751" stroke="#2C3E50" stroke-width="2" stroke-linecap="round" stroke-linejoin="round"/>
<path d="M17.6641 4.24603L20.6641 7.24603" stroke="#2C3E50" stroke-width="2" stroke-linecap="round" stroke-linejoin="round"/>
</svg>
