<svg width="26" height="24" viewBox="0 0 26 24" fill="none" xmlns="http://www.w3.org/2000/svg">
<path d="M12.9999 9.06197V11.749M12.9999 17.123H13.0129M3.69088 22.5H22.3089C22.7805 22.4993 23.2436 22.3746 23.6518 22.1383C24.0599 21.902 24.3986 21.5624 24.6339 21.1537C24.8692 20.745 24.9928 20.2815 24.9923 19.8099C24.9918 19.3383 24.8671 18.8751 24.6309 18.467L15.3309 2.34397C15.095 1.9355 14.7558 1.5963 14.3474 1.36047C13.9389 1.12464 13.4755 1.00049 13.0039 1.00049C12.5322 1.00049 12.0689 1.12464 11.6604 1.36047C11.2519 1.5963 10.9127 1.9355 10.6769 2.34397L1.36388 18.467C1.12742 18.8755 1.00276 19.3391 1.00244 19.8112C1.00212 20.2832 1.12616 20.747 1.36207 21.1558C1.59797 21.5647 1.93742 21.9042 2.34625 22.1402C2.75507 22.3761 3.21884 22.5002 3.69088 22.5Z" stroke="#3F3F46" stroke-width="2" stroke-linecap="round" stroke-linejoin="round"/>
</svg>
