<svg width="13" height="14" viewBox="0 0 13 14" fill="none" xmlns="http://www.w3.org/2000/svg">
<path fill-rule="evenodd" clip-rule="evenodd" d="M13 6.9997C13.0001 8.50351 12.4787 9.96082 11.5247 11.1233C10.5708 12.2858 9.24326 13.0816 7.76835 13.375C6.29345 13.6685 4.76243 13.4414 3.43616 12.7326C2.10988 12.0238 1.07042 10.877 0.494884 9.48768C-0.0806556 8.09836 -0.156661 6.55246 0.279817 5.11339C0.716295 3.67432 1.63825 2.43111 2.88859 1.59559C4.13894 0.76007 5.6403 0.38394 7.13688 0.531287C8.63345 0.678634 10.0326 1.34034 11.096 2.40366C12.315 3.62258 12.9999 5.27582 13 6.9997ZM7.31249 10.2497C7.31241 10.4377 7.24715 10.6198 7.12784 10.765C7.00853 10.9103 6.84254 11.0097 6.65817 11.0463C6.47379 11.0829 6.28243 11.0544 6.11669 10.9657C5.95095 10.8771 5.82109 10.7337 5.74922 10.56C5.67735 10.3863 5.66793 10.193 5.72257 10.0132C5.7772 9.83332 5.8925 9.67797 6.04883 9.57359C6.20516 9.46922 6.39284 9.42228 6.5799 9.44076C6.76696 9.45925 6.94183 9.54202 7.0747 9.67498C7.15014 9.75047 7.20996 9.84007 7.25076 9.93868C7.29156 10.0373 7.31254 10.143 7.31249 10.2497ZM6.49999 2.9372C6.2845 2.9372 6.07784 3.0228 5.92547 3.17518C5.7731 3.32755 5.68749 3.53421 5.68749 3.7497V6.9997C5.68749 7.21518 5.7731 7.42185 5.92547 7.57422C6.07784 7.72659 6.2845 7.81219 6.49999 7.81219C6.71548 7.81219 6.92214 7.72659 7.07452 7.57422C7.22689 7.42185 7.31249 7.21518 7.31249 6.9997V3.7497C7.31249 3.53421 7.22689 3.32755 7.07452 3.17518C6.92214 3.0228 6.71548 2.9372 6.49999 2.9372Z" fill="#FF7C70"/>
</svg>
