<svg width="24" height="25" viewBox="0 0 24 25" fill="none" xmlns="http://www.w3.org/2000/svg">
<path fill-rule="evenodd" clip-rule="evenodd" d="M24 12.7075C24.0001 15.4837 23.0376 18.1742 21.2765 20.3203C19.5153 22.4665 17.0645 23.9356 14.3416 24.4773C11.6187 25.0191 8.79219 24.5999 6.34368 23.2913C3.89518 21.9827 1.97617 19.8656 0.913633 17.3007C-0.148903 14.7358 -0.289221 11.8818 0.516586 9.22505C1.32239 6.5683 3.02447 4.27313 5.3328 2.73064C7.64112 1.18814 10.4129 0.493743 13.1758 0.765769C15.9387 1.03779 18.5218 2.25941 20.485 4.22246C22.7355 6.47278 23.9999 9.52492 24 12.7075ZM13.5 18.7075C13.4998 19.0545 13.3794 19.3907 13.1591 19.6589C12.9388 19.927 12.6324 20.1105 12.292 20.1781C11.9516 20.2456 11.5984 20.1931 11.2924 20.0294C10.9864 19.8657 10.7466 19.6009 10.614 19.2803C10.4813 18.9596 10.4639 18.6029 10.5648 18.2708C10.6656 17.9388 10.8785 17.652 11.1671 17.4593C11.4557 17.2666 11.8022 17.1799 12.1475 17.2141C12.4929 17.2482 12.8157 17.401 13.061 17.6465C13.2003 17.7858 13.3107 17.9512 13.386 18.1333C13.4614 18.3153 13.5001 18.5104 13.5 18.7075ZM12 5.20746C11.6022 5.20746 11.2206 5.3655 10.9393 5.6468C10.658 5.92811 10.5 6.30964 10.5 6.70746V12.7075C10.5 13.1053 10.658 13.4868 10.9393 13.7681C11.2206 14.0494 11.6022 14.2075 12 14.2075C12.3978 14.2075 12.7794 14.0494 13.0607 13.7681C13.342 13.4868 13.5 13.1053 13.5 12.7075V6.70746C13.5 6.30964 13.342 5.92811 13.0607 5.6468C12.7794 5.3655 12.3978 5.20746 12 5.20746Z" fill="#3F3F46"/>
</svg>
