<svg width="24" height="23" viewBox="0 0 24 23" fill="none" xmlns="http://www.w3.org/2000/svg">
<path fill-rule="evenodd" clip-rule="evenodd" d="M9.24168 2.32206C9.51679 1.83235 9.91732 1.4247 10.4021 1.141C10.8869 0.857296 11.4385 0.707764 12.0002 0.707764C12.5619 0.707764 13.1135 0.857296 13.5982 1.141C14.083 1.4247 14.4836 1.83235 14.7587 2.32206L23.5887 18.0221C23.8597 18.5035 23.9999 19.0475 23.9954 19.5999C23.9909 20.1523 23.8418 20.694 23.563 21.1709C23.2841 21.6478 22.8853 22.0435 22.4061 22.3184C21.9269 22.5933 21.3841 22.738 20.8317 22.7381H3.16968C2.61714 22.7382 2.0742 22.5936 1.59488 22.3188C1.11557 22.0439 0.716588 21.6483 0.437652 21.1713C0.158717 20.6944 0.00954795 20.1527 0.00499047 19.6002C0.000432997 19.0476 0.140646 18.5036 0.411676 18.0221L9.24168 2.32206ZM13.5827 17.9911C13.5828 18.3573 13.456 18.7123 13.2238 18.9955C12.9916 19.2787 12.6683 19.4726 12.3091 19.5442C11.95 19.6158 11.5771 19.5607 11.254 19.3881C10.9309 19.2156 10.6777 18.9364 10.5374 18.5981C10.3971 18.2598 10.3785 17.8833 10.4847 17.5328C10.5909 17.1823 10.8153 16.8794 11.1198 16.6758C11.4242 16.4723 11.7898 16.3806 12.1543 16.4163C12.5188 16.4521 12.8596 16.6132 13.1187 16.8721C13.4156 17.1688 13.5825 17.5713 13.5827 17.9911ZM11.9997 5.32906C11.7918 5.32893 11.5858 5.36979 11.3937 5.44929C11.2016 5.5288 11.0271 5.6454 10.88 5.79242C10.733 5.93944 10.6164 6.114 10.5369 6.30612C10.4574 6.49824 10.4165 6.70414 10.4167 6.91206V11.6601C10.4271 12.0729 10.5983 12.4653 10.894 12.7536C11.1896 13.0419 11.5862 13.2033 11.9992 13.2033C12.4121 13.2033 12.8087 13.0419 13.1044 12.7536C13.4 12.4653 13.5713 12.0729 13.5817 11.6601V6.91306C13.5818 6.70518 13.541 6.49931 13.4616 6.3072C13.3821 6.11509 13.2656 5.94051 13.1187 5.79342C12.9718 5.64633 12.7974 5.52962 12.6054 5.44994C12.4134 5.37027 12.2076 5.32919 11.9997 5.32906Z" fill="#3F3F46"/>
</svg>
