<svg width="27" height="25" viewBox="0 0 27 25" fill="none" xmlns="http://www.w3.org/2000/svg">
<path d="M15.6632 20.9C12.6343 21.4734 9.50033 20.9166 6.85439 19.3349C4.20845 17.7532 2.23416 15.2564 1.30518 12.317C1.73668 10.944 2.40139 9.65546 3.27018 8.508M10.6362 9.65C11.3478 8.96299 12.3008 8.58293 13.2899 8.59164C14.279 8.60035 15.2252 8.99714 15.9246 9.69658C16.624 10.396 17.0208 11.3421 17.0295 12.3313C17.0382 13.3204 16.6582 14.2734 15.9712 14.985M10.6362 9.65L15.9722 14.985M10.6362 9.65L15.9712 14.983L20.1092 19.12M20.1092 19.12L6.50218 5.514M20.1092 19.12L24.6222 23.634M10.6382 9.649L6.50218 5.514M6.50218 5.514L1.98818 1M6.50218 5.514C8.12899 4.46809 9.97506 3.81139 11.8969 3.59492C13.8188 3.37845 15.7647 3.60806 17.5834 4.26589C19.4021 4.92372 21.0446 5.99206 22.3833 7.38788C23.722 8.7837 24.7209 10.4694 25.3022 12.314C24.4151 15.1178 22.5756 17.5233 20.1022 19.114" stroke="#3F3F46" stroke-width="2" stroke-linecap="round" stroke-linejoin="round"/>
</svg>
