<svg width="26" height="23" viewBox="0 0 26 23" fill="none" xmlns="http://www.w3.org/2000/svg">
<path fill-rule="evenodd" clip-rule="evenodd" d="M4.40295 1.089C4.14747 0.841788 3.80506 0.704885 3.44957 0.70781C3.09407 0.710734 2.75396 0.853252 2.50258 1.10463C2.2512 1.35602 2.10868 1.69612 2.10576 2.05162C2.10283 2.40711 2.23974 2.74952 2.48695 3.005L21.4619 21.98C21.7174 22.2272 22.0598 22.3641 22.4153 22.3612C22.7708 22.3583 23.1109 22.2157 23.3623 21.9644C23.6137 21.713 23.7562 21.3729 23.7591 21.0174C23.7621 20.6619 23.6252 20.3195 23.3779 20.064L21.3779 18.064C23.4891 16.3808 25.0504 14.1062 25.8619 11.531C25.2706 9.65608 24.2788 7.93213 22.955 6.4786C21.6313 5.02507 20.0074 3.87671 18.1958 3.11307C16.3842 2.34944 14.4283 1.98879 12.4635 2.05612C10.4987 2.12345 8.57201 2.61715 6.81695 3.503L4.40495 1.089H4.40295ZM10.1779 6.863L12.2299 8.916C12.6896 8.79391 13.1732 8.7947 13.6325 8.91829C14.0917 9.04188 14.5104 9.28393 14.8467 9.62022C15.183 9.9565 15.4251 10.3752 15.5487 10.8345C15.6723 11.2937 15.673 11.7774 15.5509 12.237L17.603 14.289C18.2149 13.2535 18.4651 12.0439 18.3142 10.8507C18.1632 9.6574 17.6197 8.54821 16.7692 7.69772C15.9187 6.84723 14.8095 6.30373 13.6163 6.1528C12.423 6.00186 11.2134 6.25206 10.1779 6.864V6.863Z" fill="#3F3F46"/>
<path d="M16.259 20.611L12.594 16.945C11.2762 16.8626 10.0337 16.302 9.09983 15.3685C8.16597 14.4351 7.60492 13.1928 7.522 11.875L2.542 6.896C1.39774 8.25967 0.533899 9.83579 0 11.534C1.04214 14.8346 3.30568 17.6125 6.32784 19.2997C9.35 20.9869 12.9025 21.456 16.259 20.611Z" fill="#3F3F46"/>
</svg>
