<svg width="27" height="20" viewBox="0 0 27 20" fill="none" xmlns="http://www.w3.org/2000/svg">
<path d="M15.4262 11.9241C15.9169 11.4332 16.2223 10.7874 16.2902 10.0967C16.3581 9.40594 16.1844 8.71301 15.7987 8.13597C15.413 7.55894 14.8391 7.13349 14.1749 6.93213C13.5107 6.73077 12.7972 6.76594 12.156 7.03167C11.5148 7.2974 10.9856 7.77723 10.6585 8.38941C10.3315 9.0016 10.2268 9.70824 10.3623 10.389C10.4979 11.0697 10.8653 11.6823 11.4019 12.1225C11.9385 12.5627 12.6111 12.8032 13.3052 12.8031C14.1008 12.8029 14.8637 12.4867 15.4262 11.9241Z" stroke="#3F3F46" stroke-width="2" stroke-linecap="round" stroke-linejoin="round"/>
<path d="M1.30518 9.80009C2.10855 7.24682 3.70538 5.01636 5.86349 3.43298C8.02161 1.8496 10.6285 0.99585 13.3052 0.99585C15.9818 0.99585 18.5887 1.8496 20.7469 3.43298C22.905 5.01636 24.5018 7.24682 25.3052 9.80009C24.5018 12.3533 22.905 14.5838 20.7469 16.1672C18.5887 17.7506 15.9818 18.6043 13.3052 18.6043C10.6285 18.6043 8.02161 17.7506 5.86349 16.1672C3.70538 14.5838 2.10855 12.3533 1.30518 9.80009Z" stroke="#3F3F46" stroke-width="2" stroke-linecap="round" stroke-linejoin="round"/>
</svg>
