<svg width="25" height="19" viewBox="0 0 25 19" fill="none" xmlns="http://www.w3.org/2000/svg">
<path d="M12.4348 11.9002C13.003 11.9 13.5536 11.7028 13.9927 11.3422C14.4319 10.9817 14.7324 10.48 14.8431 9.92267C14.9538 9.36536 14.8678 8.78691 14.5999 8.28587C14.3319 7.78483 13.8985 7.3922 13.3735 7.17489C12.8485 6.95757 12.2644 6.92901 11.7207 7.09408C11.177 7.25914 10.7073 7.60762 10.3918 8.08013C10.0762 8.55264 9.93422 9.11995 9.99003 9.6854C10.0458 10.2509 10.296 10.7795 10.6978 11.1812C10.926 11.4092 11.1968 11.5901 11.4948 11.7134C11.7929 11.8368 12.1123 11.9002 12.4348 11.9002Z" fill="#3F3F46"/>
<path fill-rule="evenodd" clip-rule="evenodd" d="M0.716797 9.44816C1.50164 6.95523 3.06107 4.77756 5.16843 3.23169C7.27579 1.68581 9.82124 0.852295 12.4348 0.852295C15.0484 0.852295 17.5938 1.68581 19.7012 3.23169C21.8085 4.77756 23.368 6.95523 24.1528 9.44816C23.368 11.9411 21.8085 14.1188 19.7012 15.6646C17.5938 17.2105 15.0484 18.044 12.4348 18.044C9.82124 18.044 7.27579 17.2105 5.16843 15.6646C3.06107 14.1188 1.50164 11.9411 0.716797 9.44816ZM17.3468 9.44816C17.3469 10.5846 16.953 11.6859 16.2322 12.5645C15.5114 13.443 14.5082 14.0444 13.3936 14.2663C12.2791 14.4881 11.1221 14.3166 10.1198 13.781C9.11748 13.2454 8.33191 12.3789 7.8969 11.329C7.4619 10.2791 7.40438 9.11091 7.73416 8.02338C8.06393 6.93586 8.7606 5.99632 9.70544 5.36487C10.6503 4.73341 11.7848 4.4491 12.9158 4.56039C14.0468 4.67167 15.1042 5.17166 15.9078 5.97516C16.829 6.89621 17.3466 8.14548 17.3468 9.44816Z" fill="#3F3F46"/>
</svg>
