<svg width="21" height="26" viewBox="0 0 21 26" fill="none" xmlns="http://www.w3.org/2000/svg">
<path d="M20.286 8.45001L12.591 0.973022C12.3225 0.714549 11.9637 0.571077 11.591 0.573058H3.65399C3.2862 0.567635 2.92096 0.63472 2.5791 0.770507C2.23725 0.906294 1.92551 1.10807 1.66168 1.36438C1.39785 1.62069 1.18706 1.9265 1.04144 2.26428C0.895827 2.60207 0.818203 2.96521 0.812988 3.33301V22.669C0.818203 23.0368 0.895827 23.3999 1.04144 23.7377C1.18706 24.0755 1.39785 24.3813 1.66168 24.6376C1.92551 24.8939 2.23725 25.0958 2.5791 25.2316C2.92096 25.3674 3.2862 25.4344 3.65399 25.429H17.862C18.2303 25.4344 18.5961 25.3672 18.9383 25.231C19.2805 25.0949 19.5925 24.8925 19.8564 24.6356C20.1204 24.3786 20.331 24.0721 20.4763 23.7336C20.6215 23.3951 20.6986 23.0313 20.703 22.663V9.42401C20.7022 9.24202 20.6649 9.06208 20.5933 8.89477C20.5216 8.72747 20.4172 8.5762 20.286 8.45001ZM16.32 18.5941H5.18799C4.94067 18.5941 4.7035 18.4958 4.52863 18.3209C4.35375 18.146 4.25549 17.9089 4.25549 17.6616C4.25549 17.4142 4.35375 17.177 4.52863 17.0021C4.7035 16.8273 4.94067 16.729 5.18799 16.729H16.32C16.5673 16.729 16.8045 16.8273 16.9794 17.0021C17.1542 17.177 17.2525 17.4142 17.2525 17.6616C17.2525 17.9089 17.1542 18.146 16.9794 18.3209C16.8045 18.4958 16.5673 18.5941 16.32 18.5941ZM16.32 13.621H5.18799C4.94067 13.621 4.7035 13.5228 4.52863 13.3479C4.35375 13.173 4.25549 12.9359 4.25549 12.6885C4.25549 12.4412 4.35375 12.2041 4.52863 12.0292C4.7035 11.8543 4.94067 11.756 5.18799 11.756H16.32C16.5673 11.756 16.8045 11.8543 16.9794 12.0292C17.1542 12.2041 17.2525 12.4412 17.2525 12.6885C17.2525 12.9359 17.1542 13.173 16.9794 13.3479C16.8045 13.5228 16.5673 13.621 16.32 13.621Z" fill="#3F3F46"/>
</svg>
