<svg width="23" height="22" viewBox="0 0 23 22" fill="none" xmlns="http://www.w3.org/2000/svg">
<path d="M1.63018 1.325C1.52704 1.42825 1.44525 1.5508 1.38948 1.68567C1.33372 1.82053 1.30507 1.96506 1.30518 2.111V4.984C1.3052 5.13001 1.33401 5.27458 1.38994 5.40945C1.44588 5.54432 1.52785 5.66684 1.63118 5.77L8.75718 12.9C8.8605 13.0032 8.94247 13.1257 8.99841 13.2606C9.05435 13.3954 9.08315 13.54 9.08318 13.686V21L13.5272 16.556V13.682C13.5273 13.3871 13.6446 13.1044 13.8532 12.896L20.9792 5.77C21.0825 5.66684 21.1645 5.54432 21.2204 5.40945C21.2763 5.27458 21.3052 5.13001 21.3052 4.984V2.111C21.3052 1.9651 21.2764 1.82063 21.2206 1.68584C21.1648 1.55105 21.0829 1.42857 20.9798 1.3254C20.8766 1.22224 20.7541 1.1404 20.6193 1.08457C20.4845 1.02874 20.3401 1 20.1942 1H2.41618C2.27024 0.999894 2.12571 1.02854 1.99084 1.08431C1.85598 1.14007 1.73342 1.22186 1.63018 1.325Z" stroke="#3F3F46" stroke-width="2" stroke-linecap="round" stroke-linejoin="round"/>
</svg>
