<svg width="25" height="20" viewBox="0 0 25 20" fill="none" xmlns="http://www.w3.org/2000/svg">
<path d="M1.01172 15.811V3.58804C1.01172 2.93985 1.26921 2.31821 1.72755 1.85987C2.18589 1.40153 2.80753 1.14404 3.45572 1.14404H10.7887L13.2327 3.58804H20.5657C20.8869 3.58778 21.205 3.65084 21.5018 3.7736C21.7987 3.89637 22.0684 4.07644 22.2955 4.30352C22.5227 4.5306 22.7029 4.80023 22.8258 5.097C22.9487 5.39376 23.0119 5.71184 23.0117 6.03304V15.811C23.0117 16.4592 22.7542 17.0809 22.2959 17.5392C21.8375 17.9976 21.2159 18.255 20.5677 18.255H3.45572C2.80753 18.255 2.18589 17.9976 1.72755 17.5392C1.26921 17.0809 1.01172 16.4592 1.01172 15.811Z" stroke="#3F3F46" stroke-width="2" stroke-linecap="round" stroke-linejoin="round"/>
</svg>
