<svg width="24" height="25" viewBox="0 0 24 25" fill="none" xmlns="http://www.w3.org/2000/svg">
<path fill-rule="evenodd" clip-rule="evenodd" d="M3.12509 11.208H6.04309C6.13733 9.09605 6.56146 7.01184 7.30009 5.03101C6.20351 5.70283 5.26353 6.60172 4.54338 7.66719C3.82323 8.73266 3.33963 9.94001 3.12509 11.208ZM12.0001 0.708008C9.22382 0.707878 6.5334 1.67039 4.38723 3.43154C2.24106 5.19269 0.771951 7.64351 0.230209 10.3664C-0.311533 13.0893 0.107617 15.9158 1.41624 18.3643C2.72486 20.8128 4.84199 22.7318 7.40689 23.7944C9.97178 24.8569 12.8258 24.9972 15.4825 24.1914C18.1393 23.3856 20.4344 21.6835 21.9769 19.3752C23.5194 17.0669 24.2138 14.2951 23.9418 11.5322C23.6698 8.76931 22.4481 6.18619 20.4851 4.22301C18.2348 1.97254 15.1826 0.708157 12.0001 0.708008ZM12.0001 3.70801C11.7242 3.74186 11.4727 3.88305 11.3001 4.10101C10.826 4.61818 10.4529 5.21954 10.2001 5.87401C9.5259 7.57672 9.13669 9.37883 9.04809 11.208H14.9481C14.8608 9.37905 14.4729 7.57696 13.8001 5.87401C13.5471 5.21964 13.174 4.61832 12.7001 4.10101C12.5275 3.88305 12.276 3.74186 12.0001 3.70801ZM17.9571 11.208C17.8629 9.09605 17.4387 7.01184 16.7001 5.03101C17.7969 5.70273 18.737 6.60157 19.4574 7.66705C20.1777 8.73252 20.6614 9.93992 20.8761 11.208H17.9571ZM14.9571 14.208H9.05709C9.14282 16.0367 9.52898 17.8388 10.2001 19.542C10.4531 20.1964 10.8262 20.7977 11.3001 21.315C11.4727 21.533 11.7242 21.6742 12.0001 21.708C12.276 21.6742 12.5275 21.533 12.7001 21.315C13.1746 20.7981 13.5477 20.1967 13.8001 19.542C14.4743 17.8393 14.8635 16.0372 14.9521 14.208H14.9571ZM16.7001 20.385C17.4389 18.4042 17.863 16.32 17.9571 14.208H20.8761C20.6614 15.4761 20.1777 16.6835 19.4574 17.749C18.737 18.8144 17.7969 19.7133 16.7001 20.385ZM7.30009 20.385C6.56146 18.4043 6.13799 16.3199 6.04509 14.208H3.12509C3.33963 15.476 3.82323 16.6834 4.54338 17.7488C5.26353 18.8143 6.20351 19.7132 7.30009 20.385Z" fill="#3F3F46"/>
</svg>
