<svg width="24" height="21" viewBox="0 0 24 21" fill="none" xmlns="http://www.w3.org/2000/svg">
<path fill-rule="evenodd" clip-rule="evenodd" d="M1.75072 2.44324C2.8994 1.37404 4.41043 0.779627 5.97972 0.779627C7.549 0.779627 9.06004 1.37404 10.2087 2.44324L11.9617 4.10724L13.7147 2.44324C14.2729 1.89614 14.9326 1.46336 15.6567 1.16924C17.1376 0.567677 18.7922 0.554085 20.2827 1.13124C21.0122 1.4132 21.6796 1.83474 22.2477 2.37224C22.8051 2.8994 23.2498 3.53421 23.5547 4.23824C23.8552 4.93302 24.0069 5.68302 24 6.43997C23.9931 7.19692 23.8278 7.94404 23.5147 8.63324C23.1969 9.3325 22.7407 9.96012 22.1737 10.4782L11.9627 20.1782L1.75172 10.4782C1.19914 9.96495 0.758373 9.3432 0.456968 8.65186C0.155564 7.96051 0 7.21443 0 6.46024C0 5.70604 0.155564 4.95996 0.456968 4.26861C0.758373 3.57727 1.19914 2.95552 1.75172 2.44224L1.75072 2.44324Z" fill="#3F3F46"/>
</svg>
