<svg width="26" height="23" viewBox="0 0 26 23" fill="none" xmlns="http://www.w3.org/2000/svg">
<path d="M1.45718 4.69989C1.83473 3.78824 2.43128 2.98378 3.194 2.35776C3.95672 1.73174 4.86206 1.30349 5.82982 1.11095C6.79758 0.918401 7.7979 0.967506 8.74215 1.25391C9.6864 1.54031 10.5454 2.05518 11.2432 2.75289L13.0002 4.51489L14.7572 2.75789C15.8855 1.64781 17.4067 1.02854 18.9896 1.03499C20.5724 1.04143 22.0885 1.67307 23.2078 2.7923C24.327 3.91153 24.9586 5.42769 24.9651 7.01051C24.9715 8.59333 24.3523 10.1146 23.2422 11.2429L13.0002 21.4849L2.75718 11.2429C1.91732 10.4033 1.34548 9.33346 1.11406 8.16871C0.88264 7.00396 1.00206 5.79673 1.45718 4.69989Z" stroke="#3F3F46" stroke-width="2" stroke-linecap="round" stroke-linejoin="round"/>
</svg>
