<svg width="18" height="22" viewBox="0 0 18 22" fill="none" xmlns="http://www.w3.org/2000/svg">
<path d="M9.00017 0.216064L0.847168 8.36906V20.0161C0.847168 20.1691 0.877302 20.3205 0.935848 20.4619C0.994395 20.6032 1.08021 20.7317 1.18839 20.8398C1.29657 20.948 1.425 21.0338 1.56634 21.0924C1.70769 21.1509 1.85918 21.1811 2.01217 21.1811H5.50617C5.81497 21.1808 6.11104 21.0579 6.3293 20.8395C6.54756 20.621 6.67017 20.3249 6.67017 20.0161V15.3571C6.67017 15.0481 6.79291 14.7518 7.01139 14.5333C7.22987 14.3148 7.52619 14.1921 7.83517 14.1921H10.1642C10.4731 14.1921 10.7695 14.3148 10.9879 14.5333C11.2064 14.7518 11.3292 15.0481 11.3292 15.3571V20.0161C11.3292 20.325 11.4519 20.6214 11.6704 20.8398C11.8889 21.0583 12.1852 21.1811 12.4942 21.1811H15.9882C16.297 21.1808 16.593 21.0579 16.8113 20.8395C17.0296 20.621 17.1522 20.3249 17.1522 20.0161V8.36906L9.00017 0.216064Z" fill="#3F3F46"/>
</svg>
