<svg width="20" height="22" viewBox="0 0 20 22" fill="none" xmlns="http://www.w3.org/2000/svg">
<path d="M5.5 2.74097H3.25C2.65326 2.74097 2.08097 2.97802 1.65901 3.39998C1.23705 3.82193 1 4.39423 1 4.99097V18.491C1 19.0877 1.23705 19.66 1.65901 20.082C2.08097 20.5039 2.65326 20.741 3.25 20.741H16.75C17.3467 20.741 17.919 20.5039 18.341 20.082C18.7629 19.66 19 19.0877 19 18.491V4.99097C19 4.39423 18.7629 3.82193 18.341 3.39998C17.919 2.97802 17.3467 2.74097 16.75 2.74097H14.5M10 1.61597V10.616M10 10.616L13.375 7.24097M10 10.616L6.625 7.24097M1 12.866H3.909C4.05753 12.8654 4.20469 12.8943 4.342 12.951C4.47931 13.0076 4.60404 13.0909 4.709 13.196L7.42 15.916C7.52496 16.0211 7.64969 16.1043 7.787 16.161C7.92431 16.2176 8.07147 16.2465 8.22 16.246H11.789C11.9375 16.2465 12.0847 16.2176 12.222 16.161C12.3593 16.1043 12.484 16.0211 12.589 15.916L15.3 13.196C15.405 13.0909 15.5297 13.0076 15.667 12.951C15.8043 12.8943 15.9515 12.8654 16.1 12.866H19" stroke="#3F3F46" stroke-width="2" stroke-linecap="round" stroke-linejoin="round"/>
</svg>
