<svg width="20" height="21" viewBox="0 0 20 21" fill="none" xmlns="http://www.w3.org/2000/svg">
<path d="M19 11.741V3.86597C19 3.26923 18.7629 2.69693 18.341 2.27498C17.919 1.85302 17.3467 1.61597 16.75 1.61597H3.25C2.65326 1.61597 2.08097 1.85302 1.65901 2.27498C1.23705 2.69693 1 3.26923 1 3.86597V11.741M19 11.741V17.366C19 17.9627 18.7629 18.535 18.341 18.957C17.919 19.3789 17.3467 19.616 16.75 19.616H3.25C2.65326 19.616 2.08097 19.3789 1.65901 18.957C1.23705 18.535 1 17.9627 1 17.366V11.741M19 11.741H16.091C15.9425 11.7404 15.7953 11.7693 15.658 11.826C15.5207 11.8826 15.396 11.9659 15.291 12.071L12.58 14.786C12.475 14.8911 12.3503 14.9743 12.213 15.031C12.0757 15.0876 11.9285 15.1165 11.78 15.116H8.216C8.06747 15.1165 7.92031 15.0876 7.783 15.031C7.64569 14.9743 7.52096 14.8911 7.416 14.786L4.7 12.071C4.59504 11.9659 4.47031 11.8826 4.333 11.826C4.19569 11.7693 4.04853 11.7404 3.9 11.741H1" stroke="#3F3F46" stroke-width="2" stroke-linecap="round" stroke-linejoin="round"/>
</svg>
