<svg width="22" height="24" viewBox="0 0 22 24" fill="none" xmlns="http://www.w3.org/2000/svg">
<path d="M21.4884 23.9999H17.959C17.959 23.9999 15.7917 23.0802 14.8807 22.0613C14.6823 21.8396 14.4695 21.6111 14.2441 21.3895C15.0458 20.864 16.5802 20.9921 17.068 20.832C18.7392 20.2839 19.8781 22.9239 21.5468 23.7632C21.5716 23.7763 21.5913 23.7973 21.6028 23.8229C21.6143 23.8485 21.6169 23.8772 21.6102 23.9044C21.6035 23.9317 21.5878 23.9559 21.5657 23.9732C21.5437 23.9905 21.5164 23.9999 21.4884 23.9999Z" fill="#949C79"/>
<path d="M16.5137 23.9997C16.5282 23.9996 16.5422 23.9946 16.5534 23.9854C16.5646 23.9762 16.5723 23.9634 16.5751 23.9492C16.5779 23.935 16.5758 23.9203 16.569 23.9075C16.5622 23.8947 16.5512 23.8846 16.5379 23.879C16.0679 23.6866 15.1839 23.2469 14.4605 22.4378C13.4221 21.2763 12.4235 20.457 11.4277 20.4868C10.432 20.5166 10.5524 20.7944 9.63791 20.0249C8.44295 19.0195 6.54378 19.4485 3.0918 22.5585C2.64637 22.9598 1.31555 23.4626 0.468899 23.7556C0.440901 23.7654 0.417271 23.7847 0.402196 23.8103C0.387121 23.8358 0.381573 23.8659 0.386537 23.8951C0.3915 23.9244 0.406655 23.9509 0.429314 23.97C0.451973 23.9892 0.480675 23.9997 0.510333 23.9997H16.5137Z" fill="#949C79"/>
<path d="M15.7132 1.66037C15.6904 1.56796 15.6471 1.48189 15.5864 1.40854C15.5258 1.33519 15.4494 1.27647 15.3629 1.23674C15.2764 1.19701 15.1821 1.17729 15.087 1.17906C14.9918 1.18083 14.8983 1.20404 14.8133 1.24696C13.6945 1.81048 11.5251 3.11015 10.6474 5.07028C9.64118 7.31782 10.2959 9.02947 10.7656 9.75119C10.7958 9.79771 11.6675 7.40163 11.8303 7.01541C11.8199 6.82079 11.7659 6.20447 11.4939 5.70594C11.4579 5.64408 11.4458 5.57122 11.4598 5.50106C11.4738 5.4309 11.513 5.36828 11.57 5.32498C11.6024 5.30202 11.6392 5.28613 11.6782 5.27836C11.7171 5.2706 11.7572 5.27112 11.7959 5.27991C11.8347 5.28869 11.8711 5.30554 11.9029 5.32935C11.9346 5.35316 11.961 5.38339 11.9803 5.41809C12.0992 5.63691 12.1912 5.86926 12.2545 6.11012C12.4632 5.69802 12.7147 5.30906 13.0049 4.94968C13.0503 4.89345 13.1149 4.85612 13.1863 4.84496C13.2577 4.83379 13.3307 4.8496 13.3911 4.88929C13.4233 4.91173 13.4505 4.94066 13.471 4.97422C13.4914 5.00778 13.5046 5.04524 13.5098 5.0842C13.5149 5.12316 13.5119 5.16277 13.5009 5.20049C13.4898 5.23821 13.4711 5.27321 13.4457 5.30326C13.0676 5.75214 12.7094 6.39633 12.3847 7.15597C12.3787 7.17624 12.3705 7.19576 12.3601 7.21417C12.307 7.33973 12.2549 7.46831 12.2038 7.59989C12.671 7.4015 13.1694 7.28675 13.6763 7.26088C13.7134 7.25976 13.7503 7.26595 13.785 7.27911C13.8197 7.29226 13.8515 7.31213 13.8785 7.33757C13.9056 7.363 13.9273 7.39352 13.9426 7.42736C13.9578 7.46121 13.9662 7.49772 13.9673 7.53482C13.9685 7.57192 13.9623 7.60888 13.9491 7.64359C13.936 7.67829 13.9161 7.71007 13.8907 7.7371C13.8652 7.76413 13.8347 7.78588 13.8009 7.80112C13.767 7.81636 13.7305 7.82478 13.6934 7.8259C13.6814 7.82628 12.4817 7.87299 11.889 8.47882C11.194 9.93759 10.7092 11.1613 10.4165 12.8979C10.0147 10.3411 9.35108 8.31383 8.32663 6.39639C8.19032 6.11639 8.03011 5.84867 7.8478 5.5962C7.79971 5.52573 7.73222 5.47073 7.65349 5.43786C7.52486 5.38513 7.3082 5.34332 6.96599 5.39976C6.92726 5.40616 6.88762 5.40442 6.8496 5.39465C6.81158 5.38489 6.77602 5.3673 6.74517 5.34303C6.71433 5.31875 6.68888 5.28831 6.67045 5.25365C6.65203 5.21899 6.64102 5.18088 6.63815 5.14173C6.63467 5.06974 6.65808 4.99903 6.70383 4.94334C6.74958 4.88765 6.8144 4.85095 6.88569 4.84038C7.06423 4.81001 7.24578 4.80124 7.42642 4.81427C7.19639 4.39364 6.95098 3.97539 6.68756 3.55565C6.64829 3.49556 6.63262 3.42308 6.64355 3.35214C6.65448 3.28119 6.69123 3.21679 6.74676 3.1713C6.77793 3.14712 6.81382 3.12973 6.85211 3.12025C6.89041 3.11078 6.93027 3.10943 6.96912 3.1163C7.00797 3.12316 7.04495 3.13809 7.07769 3.16012C7.11042 3.18215 7.13817 3.21079 7.15916 3.24419C7.25961 3.40384 7.35648 3.56324 7.45203 3.72258C7.4843 3.51404 7.5311 3.30802 7.59209 3.10601C7.61451 3.03452 7.6644 2.97485 7.7308 2.94014C7.79721 2.90543 7.87468 2.89852 7.94618 2.92094C8.01767 2.94335 8.07734 2.99324 8.11205 3.05964C8.14676 3.12605 8.15366 3.20352 8.13125 3.27502C8.04832 3.54127 7.87122 4.32878 8.04543 4.76988C8.29028 5.22906 8.51679 5.69162 8.72528 6.1631C8.7392 6.14183 8.75142 6.1195 8.76182 6.0963C9.02587 5.49788 9.50363 3.98136 8.47523 2.41869C7.58111 1.06 5.84046 0.326347 4.9498 0.0253155C4.88131 0.00216349 4.80849 -0.00524215 4.73674 0.00364993C4.665 0.012542 4.59619 0.0375027 4.53543 0.0766737C4.47467 0.115845 4.42353 0.168217 4.38581 0.229891C4.3481 0.291565 4.32478 0.360952 4.3176 0.432886C4.22142 1.37974 4.16768 3.30019 5.06468 4.66322C5.78603 5.7593 6.84903 6.17472 7.63906 6.32231C9.2036 9.12916 9.95797 12.1403 10.2343 16.7616C9.90465 16.1056 9.4969 15.4919 9.01991 14.9338C8.81644 14.6638 8.54491 14.411 8.27383 14.1517C8.14735 14.0309 7.99342 13.9425 7.82526 13.8943C7.49102 13.7983 6.96448 13.7196 6.52853 13.9811C6.47385 14.0163 6.40894 14.0322 6.34419 14.0261C6.27945 14.02 6.21862 13.9924 6.17144 13.9476C6.14105 13.9175 6.11791 13.8808 6.10376 13.8404C6.0896 13.8 6.08481 13.7569 6.08973 13.7143C6.09465 13.6718 6.10916 13.631 6.13216 13.5948C6.15517 13.5587 6.18607 13.5283 6.22254 13.5059C6.54629 13.3132 6.9198 13.2205 7.29609 13.2395C6.82549 12.8454 6.32536 12.4879 5.80009 12.1702C5.73794 12.1343 5.69125 12.0766 5.66898 12.0084C5.64671 11.9401 5.65043 11.8661 5.67943 11.8004C5.69635 11.7647 5.72056 11.733 5.75051 11.7072C5.78045 11.6815 5.81547 11.6623 5.85329 11.6509C5.89111 11.6395 5.93089 11.6362 5.97008 11.6411C6.00926 11.6461 6.04698 11.6592 6.08078 11.6796C6.37581 11.8577 6.66006 12.0457 6.93353 12.2435C6.84907 11.9078 6.80568 11.563 6.80433 11.2169C6.80436 11.1419 6.8341 11.0699 6.88705 11.0168C6.93999 10.9636 7.01183 10.9336 7.08684 10.9333C7.12412 10.9335 7.16101 10.941 7.19538 10.9555C7.22976 10.9699 7.26096 10.991 7.2872 11.0175C7.31343 11.0439 7.33419 11.0753 7.34829 11.1099C7.36238 11.1444 7.36954 11.1813 7.36935 11.2186C7.3776 11.8029 7.51496 12.3782 7.77158 12.9032C8.00881 13.1077 8.23465 13.3185 8.44911 13.5355C8.47539 13.5545 8.49812 13.578 8.51628 13.6048C8.79765 13.8937 9.06225 14.1985 9.30876 14.5176C9.31804 14.4833 9.32435 14.4482 9.3276 14.4128C9.40061 13.5624 9.34926 11.4883 7.41907 9.99396C5.73524 8.69045 3.2308 8.56847 1.98939 8.59892C1.89512 8.60111 1.80256 8.62453 1.7186 8.66744C1.63464 8.71035 1.56144 8.77165 1.50445 8.84676C1.44746 8.92188 1.40814 9.00889 1.38943 9.1013C1.37071 9.19372 1.37308 9.28916 1.39636 9.38053C1.6989 10.5693 2.47939 12.9075 4.15769 14.2068C5.76613 15.452 7.43684 15.3331 8.41521 15.0947C9.573 16.3898 10.2753 17.8454 10.3305 19.2C10.3305 19.2076 10.3327 19.2147 10.3336 19.2222C10.3442 19.6605 10.3519 20.1122 10.3567 20.5771C10.3607 20.65 10.3933 20.7184 10.4473 20.7675C10.5013 20.8166 10.5725 20.8424 10.6455 20.8394H10.6482C10.7216 20.8418 10.7929 20.8151 10.8465 20.765C10.9001 20.7149 10.9317 20.6455 10.9342 20.5722C10.9144 18.6425 10.8463 16.949 10.7167 15.4326C10.7081 15.3319 10.7176 14.8755 10.72 14.7107C10.7416 13.1907 11.1901 11.7191 11.8569 10.0518C12.8497 9.85164 14.6598 9.25799 15.5516 7.26615C16.4272 5.31281 16.0095 2.86192 15.7132 1.66037Z" fill="#949C79"/>
</svg>
