<svg width="24" height="25" viewBox="0 0 24 25" fill="none" xmlns="http://www.w3.org/2000/svg">
<path fill-rule="evenodd" clip-rule="evenodd" d="M15.9488 4.51294C16.2276 4.23414 16.5586 4.01299 16.9229 3.86211C17.2871 3.71122 17.6775 3.63357 18.0718 3.63357C18.4661 3.63357 18.8565 3.71122 19.2208 3.86211C19.585 4.01299 19.916 4.23414 20.1948 4.51294C20.4736 4.79174 20.6948 5.12272 20.8457 5.48698C20.9965 5.85125 21.0742 6.24166 21.0742 6.63594C21.0742 7.03022 20.9965 7.42064 20.8457 7.7849C20.6948 8.14917 20.4736 8.48015 20.1948 8.75894L15.6948 13.2589C15.1322 13.8214 14.3693 14.1373 13.5738 14.1373C12.7783 14.1373 12.0154 13.8214 11.4528 13.2589C11.1699 12.9857 10.791 12.8345 10.3977 12.8379C10.0044 12.8413 9.62821 12.9991 9.3501 13.2772C9.07198 13.5553 8.91423 13.9315 8.91081 14.3248C8.90739 14.7181 9.05859 15.097 9.33182 15.3799C10.457 16.5048 11.9828 17.1367 13.5738 17.1367C15.1648 17.1367 16.6907 16.5048 17.8158 15.3799L22.3158 10.8799C23.4088 9.74833 24.0135 8.23271 23.9999 6.65953C23.9862 5.08635 23.3552 3.58148 22.2427 2.46903C21.1303 1.35658 19.6254 0.725567 18.0522 0.711897C16.479 0.698226 14.9634 1.30299 13.8318 2.39594L11.5818 4.64594C11.4281 4.78168 11.3039 4.94748 11.2168 5.1331C11.1298 5.31873 11.0817 5.52024 11.0755 5.72519C11.0693 5.93013 11.1053 6.13416 11.1811 6.32468C11.2569 6.5152 11.3709 6.68815 11.5162 6.83286C11.6614 6.97757 11.8348 7.09096 12.0256 7.16604C12.2164 7.24111 12.4206 7.27627 12.6255 7.26934C12.8304 7.26241 13.0317 7.21355 13.217 7.12576C13.4023 7.03797 13.5677 6.91313 13.7028 6.75894L15.9488 4.51294ZM8.44882 12.0129C9.01141 11.4505 9.77433 11.1346 10.5698 11.1346C11.3653 11.1346 12.1282 11.4505 12.6908 12.0129C12.8292 12.1562 12.9947 12.2705 13.1777 12.3491C13.3607 12.4277 13.5576 12.4691 13.7567 12.4708C13.9559 12.4725 14.1534 12.4346 14.3378 12.3592C14.5221 12.2838 14.6896 12.1724 14.8304 12.0315C14.9713 11.8907 15.0826 11.7232 15.1581 11.5389C15.2335 11.3545 15.2714 11.157 15.2697 10.9578C15.268 10.7587 15.2266 10.5618 15.148 10.3788C15.0694 10.1958 14.9551 10.0303 14.8118 9.89194C13.6867 8.76711 12.1608 8.13522 10.5698 8.13522C8.97884 8.13522 7.45299 8.76711 6.32782 9.89194L1.82782 14.3919C1.25476 14.9454 0.797669 15.6075 0.483215 16.3395C0.168761 17.0715 0.00324319 17.8589 -0.00367971 18.6555C-0.0106026 19.4522 0.141208 20.2423 0.442893 20.9797C0.744578 21.717 1.1901 22.387 1.75345 22.9503C2.31681 23.5137 2.98672 23.9592 3.7241 24.2609C4.46148 24.5626 5.25155 24.7144 6.04823 24.7074C6.84491 24.7005 7.63223 24.535 8.36425 24.2206C9.09627 23.9061 9.75834 23.449 10.3118 22.8759L12.5618 20.6259C12.716 20.4908 12.8409 20.3255 12.9286 20.1402C13.0164 19.9549 13.0653 19.7535 13.0722 19.5486C13.0792 19.3437 13.044 19.1395 12.9689 18.9487C12.8938 18.7579 12.7805 18.5845 12.6357 18.4393C12.491 18.294 12.3181 18.18 12.1276 18.1042C11.937 18.0284 11.733 17.9925 11.5281 17.9986C11.3231 18.0048 11.1216 18.0529 10.936 18.14C10.7504 18.227 10.5846 18.3513 10.4488 18.5049L8.19882 20.7549C7.92029 21.034 7.58952 21.2555 7.2254 21.4067C6.86127 21.5579 6.47093 21.6359 6.07665 21.6363C5.68237 21.6367 5.29188 21.5594 4.92748 21.4089C4.56307 21.2583 4.23188 21.0375 3.95282 20.7589C3.67376 20.4804 3.4523 20.1496 3.30107 19.7855C3.14985 19.4214 3.07182 19.031 3.07145 18.6368C3.07108 18.2425 3.14837 17.852 3.29891 17.4876C3.44945 17.1232 3.67029 16.792 3.94882 16.5129L8.44882 12.0129Z" fill="#3F3F46"/>
</svg>
