<svg width="27" height="26" viewBox="0 0 27 26" fill="none" xmlns="http://www.w3.org/2000/svg">
<path d="M15.808 10.4969C14.8079 9.49707 13.4517 8.93539 12.0375 8.93539C10.6234 8.93539 9.26711 9.49707 8.26702 10.4969L2.93302 15.8309C2.42455 16.3231 2.01911 16.9115 1.74034 17.5619C1.46156 18.2124 1.31502 18.9118 1.30926 19.6194C1.30349 20.327 1.43862 21.0287 1.70676 21.6836C1.9749 22.3385 2.3707 22.9334 2.87108 23.4338C3.37147 23.9342 3.96643 24.33 4.62132 24.5981C5.2762 24.8663 5.9779 25.0014 6.68552 24.9956C7.39315 24.9899 8.09256 24.8433 8.74298 24.5646C9.39341 24.2858 9.98185 23.8804 10.474 23.3719L11.943 21.9039M10.932 15.3719C11.9321 16.3717 13.2884 16.9334 14.7025 16.9334C16.1167 16.9334 17.4729 16.3717 18.473 15.3719L23.806 10.0389C24.7793 9.03341 25.3183 7.68569 25.3069 6.28638C25.2955 4.88708 24.7346 3.54832 23.7451 2.55883C22.7556 1.56933 21.4168 1.0084 20.0175 0.997003C18.6182 0.985604 17.2705 1.52465 16.265 2.49789L14.8 3.96389" stroke="#3F3F46" stroke-width="2" stroke-linecap="round" stroke-linejoin="round"/>
</svg>
