<svg width="25" height="30" viewBox="0 0 25 30" fill="none" xmlns="http://www.w3.org/2000/svg">
<path fill-rule="evenodd" clip-rule="evenodd" d="M3.51395 4.47302C4.62491 3.34381 5.94845 2.44575 7.40822 1.83062C8.868 1.21549 10.4351 0.895466 12.0192 0.889016C13.6033 0.882565 15.1729 1.18981 16.6377 1.79304C18.1024 2.39626 19.4332 3.28352 20.5533 4.40363C21.6734 5.52375 22.5607 6.85456 23.1639 8.3193C23.7672 9.78403 24.0744 11.3537 24.068 12.9378C24.0615 14.5219 23.7415 16.089 23.1263 17.5487C22.5112 19.0085 21.6131 20.3321 20.4839 21.443L11.9999 29.929L3.51395 21.444C1.26368 19.1936 -0.000488281 16.1415 -0.000488281 12.959C-0.000488281 9.77656 1.26368 6.72343 3.51395 4.47302ZM11.9999 16.387C12.7931 16.3861 13.5614 16.1101 14.1739 15.6062C14.7864 15.1022 15.2052 14.4015 15.3589 13.6234C15.5126 12.8453 15.3917 12.0379 15.0169 11.3389C14.642 10.6399 14.0364 10.0926 13.3032 9.79009C12.57 9.48761 11.7546 9.44874 10.9959 9.68011C10.2372 9.91148 9.58228 10.3988 9.14265 11.0589C8.70301 11.7191 8.50591 12.5113 8.58492 13.3005C8.66393 14.0897 9.01417 14.8271 9.57595 15.387C10.2195 16.0284 11.0914 16.3881 11.9999 16.387Z" fill="#3F3F46"/>
</svg>
