<svg width="24" height="24" viewBox="0 0 24 24" fill="none" xmlns="http://www.w3.org/2000/svg">
<path d="M0.935359 13.126L18.0601 5.8471C18.1311 5.81679 18.2096 5.80858 18.2853 5.82355C18.361 5.83853 18.4305 5.876 18.4846 5.93104C18.5387 5.98608 18.575 6.05612 18.5887 6.13209C18.6024 6.20807 18.5929 6.28642 18.5614 6.35691L11.0647 23.2893C11.0313 23.3635 10.9753 23.4253 10.9046 23.4656C10.8339 23.506 10.7522 23.5228 10.6713 23.5137C10.5904 23.5045 10.5145 23.4699 10.4546 23.4148C10.3946 23.3598 10.3537 23.2871 10.3378 23.2073L8.86273 15.6313C8.84822 15.5563 8.8116 15.4872 8.75753 15.4332C8.70347 15.3791 8.63444 15.3425 8.55937 15.328L1.01102 13.8607C0.928808 13.8462 0.853611 13.8052 0.796756 13.7441C0.739902 13.683 0.704511 13.605 0.69596 13.5219C0.687408 13.4389 0.706123 13.3553 0.749325 13.2839C0.792527 13.2125 0.857842 13.157 0.935359 13.126Z" fill="#3F3F46"/>
</svg>
