<svg width="27" height="30" viewBox="0 0 27 30" fill="none" xmlns="http://www.w3.org/2000/svg">
<path d="M21.7902 21.4851L15.4262 27.8501C14.8637 28.4119 14.1012 28.7274 13.3062 28.7274C12.5112 28.7274 11.7487 28.4119 11.1862 27.8501L4.81919 21.4851C3.14102 19.8068 1.9982 17.6686 1.53522 15.3409C1.07225 13.0131 1.30993 10.6003 2.2182 8.40766C3.12647 6.21498 4.66454 4.34087 6.63791 3.02232C8.61129 1.70377 10.9313 1 13.3047 1C15.678 1 17.9981 1.70377 19.9715 3.02232C21.9448 4.34087 23.4829 6.21498 24.3912 8.40766C25.2995 10.6003 25.5371 13.0131 25.0742 15.3409C24.6112 17.6686 23.4684 19.8068 21.7902 21.4851Z" stroke="#3F3F46" stroke-width="2" stroke-linecap="round" stroke-linejoin="round"/>
<path d="M15.6522 15.0481C16.1952 14.5051 16.5332 13.7907 16.6085 13.0266C16.6838 12.2624 16.4918 11.4958 16.0652 10.8573C15.6386 10.2188 15.0039 9.74799 14.2691 9.52505C13.5343 9.30211 12.7449 9.34084 12.0355 9.63465C11.3261 9.92846 10.7405 10.4592 10.3785 11.1363C10.0164 11.8135 9.90043 12.5953 10.0502 13.3484C10.1999 14.1015 10.6062 14.7794 11.1997 15.2666C11.7933 15.7537 12.5374 16.02 13.3052 16.0201C13.7411 16.0201 14.1727 15.9343 14.5754 15.7675C14.9781 15.6007 15.344 15.3563 15.6522 15.0481Z" stroke="#3F3F46" stroke-width="2" stroke-linecap="round" stroke-linejoin="round"/>
</svg>
