<svg width="25" height="25" viewBox="0 0 25 25" fill="none" xmlns="http://www.w3.org/2000/svg">
<path d="M1.71003 13.0109L18.8376 5.7291C18.9086 5.6988 18.9871 5.6906 19.0628 5.70557C19.1385 5.72054 19.208 5.75799 19.2621 5.81304C19.3162 5.86808 19.3525 5.93816 19.3662 6.01413C19.3799 6.0901 19.3704 6.16844 19.3389 6.23893L11.8422 23.1713C11.8088 23.2456 11.7528 23.3073 11.6821 23.3477C11.6113 23.388 11.5297 23.4048 11.4488 23.3957C11.3679 23.3865 11.292 23.3519 11.232 23.2969C11.1721 23.2418 11.1312 23.1691 11.1153 23.0893L9.63528 15.5098C9.62077 15.4347 9.58413 15.3657 9.53007 15.3117C9.47601 15.2576 9.407 15.221 9.33194 15.2065L1.78993 13.7385C1.70999 13.7225 1.63724 13.6814 1.5822 13.6212C1.52716 13.5611 1.49269 13.485 1.48379 13.4039C1.47489 13.3229 1.49202 13.2411 1.53269 13.1704C1.57337 13.0998 1.63548 13.0439 1.71003 13.0109Z" stroke="#3F3F46" stroke-width="2"/>
</svg>
