<svg width="26" height="29" viewBox="0 0 26 29" fill="none" xmlns="http://www.w3.org/2000/svg">
<path d="M13 19V22M4 28H22C22.7956 28 23.5587 27.6839 24.1213 27.1213C24.6839 26.5587 25 25.7956 25 25V16C25 15.2044 24.6839 14.4413 24.1213 13.8787C23.5587 13.3161 22.7956 13 22 13H4C3.20435 13 2.44129 13.3161 1.87868 13.8787C1.31607 14.4413 1 15.2044 1 16V25C1 25.7956 1.31607 26.5587 1.87868 27.1213C2.44129 27.6839 3.20435 28 4 28ZM19 13V7C19 5.4087 18.3679 3.88258 17.2426 2.75736C16.1174 1.63214 14.5913 1 13 1C11.4087 1 9.88258 1.63214 8.75736 2.75736C7.63214 3.88258 7 5.4087 7 7V13H19Z" stroke="#3F3F46" stroke-width="2" stroke-linecap="round" stroke-linejoin="round"/>
</svg>
