<svg width="24" height="29" viewBox="0 0 24 29" fill="none" xmlns="http://www.w3.org/2000/svg">
<path d="M12 0.708008C9.72683 0.708008 7.54676 1.61102 5.93939 3.2184C4.33201 4.82577 3.429 7.00584 3.429 9.27901V12.708C2.51957 12.708 1.64739 13.0693 1.00433 13.7123C0.361268 14.3554 0 15.2276 0 16.137V24.708C0 25.6174 0.361268 26.4896 1.00433 27.1327C1.64739 27.7757 2.51957 28.137 3.429 28.137H20.571C21.4804 28.137 22.3526 27.7757 22.9957 27.1327C23.6387 26.4896 24 25.6174 24 24.708V16.137C24 15.2276 23.6387 14.3554 22.9957 13.7123C22.3526 13.0693 21.4804 12.708 20.571 12.708H6.857V9.27901C6.85689 8.02709 7.31342 6.81812 8.14101 5.87875C8.96859 4.93939 10.1104 4.33414 11.3524 4.17649C12.5943 4.01884 13.8511 4.31961 14.8872 5.0224C15.9232 5.7252 16.6673 6.78177 16.98 7.99401C17.103 8.42382 17.389 8.78861 17.7771 9.01063C18.1651 9.23266 18.6245 9.29438 19.0574 9.18264C19.4903 9.07089 19.8625 8.79453 20.0946 8.41242C20.3267 8.03031 20.4004 7.57267 20.3 7.13701C19.8244 5.2972 18.7512 3.66748 17.2489 2.50381C15.7466 1.34015 13.9003 0.708479 12 0.708008Z" fill="#3F3F46"/>
</svg>
