<svg width="24" height="29" viewBox="0 0 24 29" fill="none" xmlns="http://www.w3.org/2000/svg">
<path fill-rule="evenodd" clip-rule="evenodd" d="M3.429 12.7085V9.27951C3.429 7.0062 4.33207 4.82601 5.93953 3.21854C7.547 1.61107 9.7272 0.708008 12.0005 0.708008C14.2738 0.708008 16.454 1.61107 18.0615 3.21854C19.6689 4.82601 20.572 7.0062 20.572 9.27951V12.7085C21.4813 12.7088 22.3532 13.0702 22.996 13.7132C23.6389 14.3562 24 15.2283 24 16.1375V24.7085C24 25.6179 23.6387 26.4901 22.9957 27.1332C22.3526 27.7762 21.4804 28.1375 20.571 28.1375H3.429C2.51957 28.1375 1.64739 27.7762 1.00433 27.1332C0.361268 26.4901 0 25.6179 0 24.7085V16.1375C0 15.2281 0.361268 14.3559 1.00433 13.7128C1.64739 13.0698 2.51957 12.7085 3.429 12.7085ZM17.143 9.27951V12.7085H6.857V9.27951C6.857 7.9155 7.39885 6.60736 8.36335 5.64286C9.32785 4.67836 10.636 4.13651 12 4.13651C13.364 4.13651 14.6722 4.67836 15.6367 5.64286C16.6012 6.60736 17.143 7.9155 17.143 9.27951Z" fill="#3F3F46"/>
</svg>
