<svg width="27" height="29" viewBox="0 0 27 29" fill="none" xmlns="http://www.w3.org/2000/svg">
<path d="M7.69385 13V7C7.69385 5.4087 8.32599 3.88258 9.45121 2.75736C10.5764 1.63214 12.1025 1 13.6938 1C15.2851 1 16.8113 1.63214 17.9365 2.75736C19.0617 3.88258 19.6938 5.4087 19.6938 7M13.6938 19V22M4.69385 28H22.6938C23.4895 28 24.2526 27.6839 24.8152 27.1213C25.3778 26.5587 25.6938 25.7956 25.6938 25V16C25.6938 15.2044 25.3778 14.4413 24.8152 13.8787C24.2526 13.3161 23.4895 13 22.6938 13H4.69385C3.8982 13 3.13514 13.3161 2.57253 13.8787C2.00992 14.4413 1.69385 15.2044 1.69385 16V25C1.69385 25.7956 2.00992 26.5587 2.57253 27.1213C3.13514 27.6839 3.8982 28 4.69385 28Z" stroke="#3F3F46" stroke-width="2" stroke-linecap="round" stroke-linejoin="round"/>
</svg>
