<svg width="23" height="20" viewBox="0 0 23 20" fill="none" xmlns="http://www.w3.org/2000/svg">
<path d="M14.2209 5.66715V3.44515C14.2143 2.84937 13.9713 2.28061 13.5454 1.86392C13.1196 1.44724 12.5456 1.21675 11.9499 1.22315H4.00486C3.40926 1.21702 2.83558 1.44762 2.40992 1.86428C1.98427 2.28093 1.74146 2.84955 1.73486 3.44515V16.7792C1.74146 17.3748 1.98427 17.9434 2.40992 18.36C2.83558 18.7767 3.40926 19.0073 4.00486 19.0012H11.9499C12.5455 19.0073 13.1191 18.7767 13.5448 18.36C13.9705 17.9434 14.2133 17.3748 14.2199 16.7792V14.5562" stroke="#2C3E50" stroke-width="2" stroke-linecap="round" stroke-linejoin="round"/>
<path d="M5.84387 10.1122H21.7349M21.7349 10.1122L18.3299 6.70715M21.7349 10.1122L18.3299 13.5172" stroke="#2C3E50" stroke-width="2" stroke-linecap="round" stroke-linejoin="round"/>
</svg>
