<svg width="23" height="23" viewBox="0 0 23 23" fill="none" xmlns="http://www.w3.org/2000/svg">
<path d="M1.56494 18.9449V9.02291C1.56486 8.65712 1.65509 8.29696 1.82762 7.97441C2.00014 7.65186 2.24963 7.37689 2.55394 7.17391L10.3319 1.98991C10.6971 1.74617 11.1264 1.61609 11.5654 1.61609C12.0045 1.61609 12.4337 1.74617 12.7989 1.98991L20.5769 7.17391C20.8811 7.37701 21.1304 7.65202 21.3027 7.97457C21.4751 8.29711 21.5651 8.65721 21.5649 9.02291V18.9449M1.56494 18.9449C1.56494 19.5342 1.79904 20.0994 2.21575 20.5161C2.63246 20.9328 3.19763 21.1669 3.78694 21.1669H19.3429C19.6347 21.1669 19.9237 21.1094 20.1933 20.9978C20.4628 20.8861 20.7078 20.7224 20.9141 20.5161C21.1205 20.3098 21.2841 20.0648 21.3958 19.7952C21.5075 19.5256 21.5649 19.2367 21.5649 18.9449M1.56494 18.9449L9.06494 13.9449M21.5649 18.9449L14.0649 13.9449M9.06494 13.9449L1.56494 8.94491M9.06494 13.9449L10.3319 14.7889C10.6971 15.0327 11.1264 15.1627 11.5654 15.1627C12.0045 15.1627 12.4337 15.0327 12.7989 14.7889L14.0659 13.9449L21.5659 8.94491" stroke="#3F3F46" stroke-width="2" stroke-linecap="round" stroke-linejoin="round"/>
</svg>
