<svg width="24" height="23" viewBox="0 0 24 23" fill="none" xmlns="http://www.w3.org/2000/svg">
<path fill-rule="evenodd" clip-rule="evenodd" d="M1.69984 6.43999C1.29008 6.6961 0.952194 7.05222 0.717956 7.47486C0.483718 7.8975 0.360827 8.37278 0.36084 8.85599V20.098C0.36084 20.4721 0.434531 20.8426 0.577707 21.1883C0.720883 21.5339 0.930739 21.848 1.19529 22.1125C1.45985 22.3771 1.77392 22.5869 2.11957 22.7301C2.46523 22.8733 2.8357 22.947 3.20984 22.947H20.3038C20.678 22.947 21.0484 22.8733 21.3941 22.7301C21.7398 22.5869 22.0538 22.3771 22.3184 22.1125C22.5829 21.848 22.7928 21.5339 22.936 21.1883C23.0791 20.8426 23.1528 20.4721 23.1528 20.098V8.85599C23.1529 8.37278 23.03 7.8975 22.7957 7.47486C22.5615 7.05222 22.2236 6.6961 21.8138 6.43999L13.2668 1.09799C12.814 0.814979 12.2908 0.664917 11.7568 0.664917C11.2229 0.664917 10.6996 0.814979 10.2468 1.09799L1.69984 6.43999ZM5.42484 9.89199C5.11054 9.69449 4.73157 9.62743 4.36858 9.70508C4.00559 9.78273 3.68722 9.99896 3.48122 10.3078C3.27522 10.6166 3.19786 10.9936 3.26558 11.3585C3.3333 11.7235 3.54077 12.0476 3.84384 12.262L10.9658 17.007C11.1999 17.1631 11.475 17.2464 11.7563 17.2464C12.0377 17.2464 12.3127 17.1631 12.5468 17.007L19.6688 12.259C19.8301 12.1577 19.9693 12.0251 20.0785 11.8691C20.1876 11.713 20.2643 11.5367 20.3041 11.3505C20.344 11.1643 20.3461 10.972 20.3103 10.785C20.2746 10.598 20.2018 10.42 20.0961 10.2616C19.9904 10.1032 19.8541 9.96763 19.6952 9.86281C19.5362 9.75798 19.3578 9.68608 19.1706 9.65134C18.9834 9.61661 18.7912 9.61974 18.6052 9.66056C18.4192 9.70137 18.2433 9.77905 18.0878 9.88899L11.7608 14.112L5.42484 9.89199Z" fill="#3F3F46"/>
</svg>
