<svg width="22" height="19" viewBox="0 0 22 19" fill="none" xmlns="http://www.w3.org/2000/svg">
<path d="M0.999023 4.94897L9.76602 10.793C10.1312 11.0367 10.5605 11.1668 10.9995 11.1668C11.4386 11.1668 11.8678 11.0367 12.233 10.793L20.999 4.94897M3.22102 17.172H18.777C19.0689 17.172 19.3579 17.1145 19.6276 17.0027C19.8972 16.891 20.1422 16.7272 20.3486 16.5208C20.5549 16.3144 20.7186 16.0693 20.8302 15.7996C20.9418 15.5299 20.9992 15.2408 20.999 14.949V3.83797C20.999 3.54617 20.9415 3.25723 20.8299 2.98764C20.7182 2.71806 20.5545 2.47311 20.3482 2.26678C20.1419 2.06044 19.8969 1.89677 19.6273 1.78511C19.3578 1.67344 19.0688 1.61597 18.777 1.61597H3.22102C2.63171 1.61597 2.06654 1.85007 1.64983 2.26678C1.23313 2.68348 0.999023 3.24866 0.999023 3.83797V14.949C0.999023 15.5383 1.23313 16.1035 1.64983 16.5202C2.06654 16.9369 2.63171 17.172 3.22102 17.172Z" stroke="#3F3F46" stroke-width="2" stroke-linecap="round" stroke-linejoin="round"/>
</svg>
