<svg width="28" height="22" viewBox="0 0 28 22" fill="none" xmlns="http://www.w3.org/2000/svg">
<path d="M0.272949 4.18001L13.9959 11.547L27.7229 4.18001C27.6793 3.25299 27.2984 2.37387 26.6519 1.70801C26.3453 1.39323 25.9791 1.14269 25.5745 0.970997C25.17 0.799304 24.7354 0.709902 24.2959 0.708008H3.70295C3.26351 0.709902 2.82886 0.799304 2.42435 0.970997C2.01984 1.14269 1.65358 1.39323 1.34695 1.70801C0.69933 2.37337 0.317347 3.25257 0.272949 4.18001Z" fill="#3F3F46"/>
<path d="M27.729 7.67505L14 14.59L0.270997 7.67505V17.844C0.270385 18.7597 0.631613 19.6385 1.276 20.289C1.59364 20.6097 1.97165 20.8644 2.3882 21.0382C2.80475 21.2121 3.25161 21.3018 3.703 21.302H24.297C24.7484 21.3018 25.1952 21.2121 25.6118 21.0382C26.0283 20.8644 26.4064 20.6097 26.724 20.289C27.3684 19.6385 27.7296 18.7597 27.729 17.844V7.67505Z" fill="#3F3F46"/>
</svg>
