<svg width="26" height="24" viewBox="0 0 26 24" fill="none" xmlns="http://www.w3.org/2000/svg">
<path fill-rule="evenodd" clip-rule="evenodd" d="M16.0442 0.708008L9.95619 6.15301V23.615L16.0432 18.17L16.0442 0.708008ZM3.4252 3.03201C3.20495 2.83832 2.93528 2.70954 2.6462 2.66001C2.35155 2.60733 2.0482 2.63391 1.7672 2.73701C1.49625 2.83465 1.25914 3.00823 1.0842 3.23701C0.917978 3.45454 0.827067 3.72025 0.825195 3.99401V17.607C0.82732 17.7898 0.868168 17.97 0.945046 18.1358C1.02192 18.3017 1.13308 18.4493 1.2712 18.569L6.9132 23.615V6.15301L3.4252 3.03201ZM24.7252 5.75401L19.0872 0.708008V18.17L22.5772 21.291C22.7975 21.4847 23.0671 21.6134 23.3562 21.663C23.6508 21.7156 23.9542 21.689 24.2352 21.586C24.5061 21.4884 24.7432 21.3148 24.9182 21.086C25.0834 20.8685 25.1736 20.6032 25.1752 20.33V6.71701C25.1727 6.53377 25.1313 6.35315 25.0537 6.18713C24.9761 6.0211 24.8642 5.87347 24.7252 5.75401Z" fill="#3F3F46"/>
</svg>
