<svg width="26" height="24" viewBox="0 0 26 24" fill="none" xmlns="http://www.w3.org/2000/svg">
<path d="M9 22.333L1.737 18.7C1.51575 18.5894 1.32963 18.4194 1.19947 18.2091C1.06932 17.9988 1.00025 17.7564 1 17.509V3.157C1.00006 2.92982 1.05817 2.70643 1.16883 2.50803C1.27949 2.30962 1.43902 2.14279 1.63228 2.02337C1.82554 1.90395 2.04611 1.8359 2.27306 1.82569C2.5 1.81547 2.72579 1.86343 2.929 1.965L9 5M9 22.333V5M9 22.333L17 18.333M9 5L17 1M17 18.333L23.071 21.368C23.2742 21.4696 23.5 21.5175 23.7269 21.5073C23.9539 21.4971 24.1745 21.429 24.3677 21.3096C24.561 21.1902 24.7205 21.0234 24.8312 20.825C24.9418 20.6266 24.9999 20.4032 25 20.176V5.824C24.9998 5.5765 24.9308 5.33393 24.8006 5.12342C24.6705 4.91291 24.4843 4.74276 24.263 4.632L17 1M17 18.333V1" stroke="#3F3F46" stroke-width="2" stroke-linecap="round" stroke-linejoin="round"/>
</svg>
