<svg width="18" height="23" viewBox="0 0 18 23" fill="none" xmlns="http://www.w3.org/2000/svg">
<path d="M8.74 0C3.90729 0 0 3.87583 0 8.66962C0 14.4324 5.29541 20.2461 7.60894 22.541C8.22588 23.153 9.20271 23.153 9.76824 22.541C12.1846 20.2461 17.48 14.4324 17.48 8.66962C17.48 3.87583 13.5727 0 8.74 0ZM8.74 12.6984C6.47788 12.6984 4.62706 10.8625 4.62706 8.61862C4.62706 6.37472 6.47788 4.5388 8.74 4.5388C11.0021 4.5388 12.8529 6.37472 12.8529 8.61862C12.8529 10.8625 11.0021 12.6984 8.74 12.6984Z" fill="#F2A62A"/>
</svg>
