<svg width="40" height="40" viewBox="0 0 40 40" fill="none" xmlns="http://www.w3.org/2000/svg">
<g clip-path="url(#clip0_152_3427)">
<path d="M24.3798 24.38L7.99985 32L15.6198 15.62L31.9998 8M19.9998 0C17.3734 0 14.7727 0.517315 12.3462 1.52241C9.91967 2.5275 7.71488 4.00069 5.85771 5.85786C2.10698 9.60859 -0.000152588 14.6957 -0.000152588 20C-0.000152588 25.3043 2.10698 30.3914 5.85771 34.1421C7.71488 35.9993 9.91967 37.4725 12.3462 38.4776C14.7727 39.4827 17.3734 40 19.9998 40C25.3042 40 30.3913 37.8929 34.142 34.1421C37.8927 30.3914 39.9998 25.3043 39.9998 20C39.9998 17.3736 39.4825 14.7728 38.4774 12.3463C37.4723 9.91982 35.9992 7.71504 34.142 5.85786C32.2848 4.00069 30.08 2.5275 27.6535 1.52241C25.227 0.517315 22.6263 0 19.9998 0ZM19.9998 17.8C19.4164 17.8 18.8568 18.0318 18.4442 18.4444C18.0316 18.8569 17.7998 19.4165 17.7998 20C17.7998 20.5835 18.0316 21.1431 18.4442 21.5556C18.8568 21.9682 19.4164 22.2 19.9998 22.2C20.5833 22.2 21.1429 21.9682 21.5555 21.5556C21.9681 21.1431 22.1998 20.5835 22.1998 20C22.1998 19.4165 21.9681 18.8569 21.5555 18.4444C21.1429 18.0318 20.5833 17.8 19.9998 17.8Z" fill="#F4F2DB"/>
</g>
<defs>
<clipPath id="clip0_152_3427">
<rect width="40" height="40" fill="white"/>
</clipPath>
</defs>
</svg>
