<svg width="24" height="22" viewBox="0 0 24 22" fill="none" xmlns="http://www.w3.org/2000/svg">
<path fill-rule="evenodd" clip-rule="evenodd" d="M2.91741e-07 2.35096C2.91741e-07 2.12588 0.0443342 1.903 0.130471 1.69504C0.216607 1.48709 0.34286 1.29814 0.502019 1.13898C0.823457 0.817544 1.25942 0.636963 1.714 0.636963H22.286C22.7407 0.636963 23.1768 0.817597 23.4983 1.13913C23.8199 1.46066 24.0005 1.89675 24.0005 2.35146C24.0005 2.80618 23.8199 3.24227 23.4983 3.5638C23.1768 3.88533 22.7407 4.06596 22.286 4.06596H1.714C1.48883 4.06596 1.26587 4.0216 1.05785 3.9354C0.849832 3.8492 0.660838 3.72286 0.501666 3.56359C0.342493 3.40433 0.216262 3.21526 0.130184 3.00719C0.044106 2.79912 -0.000131079 2.57613 2.91741e-07 2.35096ZM2.91741e-07 10.922C2.91741e-07 10.4674 0.180582 10.0314 0.502019 9.70998C0.823457 9.38854 1.25942 9.20796 1.714 9.20796H22.286C22.7407 9.20796 23.1768 9.3886 23.4983 9.71013C23.8199 10.0317 24.0005 10.4677 24.0005 10.9225C24.0005 11.3772 23.8199 11.8133 23.4983 12.1348C23.1768 12.4563 22.7407 12.637 22.286 12.637H1.714C1.48891 12.637 1.26603 12.5926 1.05808 12.5065C0.850129 12.4204 0.661179 12.2941 0.502019 12.1349C0.180582 11.8135 2.91741e-07 11.3775 2.91741e-07 10.923V10.922ZM2.91741e-07 19.493C2.91741e-07 19.0384 0.180582 18.6024 0.502019 18.281C0.823457 17.9595 1.25942 17.779 1.714 17.779H22.286C22.7407 17.779 23.1768 17.9596 23.4983 18.2811C23.8199 18.6027 24.0005 19.0387 24.0005 19.4935C24.0005 19.9482 23.8199 20.3843 23.4983 20.7058C23.1768 21.0273 22.7407 21.208 22.286 21.208H1.714C1.48891 21.208 1.26603 21.1636 1.05808 21.0775C0.850129 20.9914 0.661179 20.8651 0.502019 20.7059C0.180582 20.3845 2.91741e-07 19.9475 2.91741e-07 19.493Z" fill="#3F3F46"/>
</svg>
