<svg width="25" height="21" viewBox="0 0 25 21" fill="none" xmlns="http://www.w3.org/2000/svg">
<path fill-rule="evenodd" clip-rule="evenodd" d="M0.589844 1.99598C0.589844 1.7709 0.634178 1.54802 0.720315 1.34006C0.806451 1.13211 0.932703 0.943161 1.09186 0.784001C1.4133 0.462564 1.84926 0.281982 2.30384 0.281982H22.8758C23.3306 0.281982 23.7666 0.462617 24.0882 0.784148C24.4097 1.10568 24.5903 1.54177 24.5903 1.99648C24.5903 2.4512 24.4097 2.88729 24.0882 3.20882C23.7666 3.53035 23.3306 3.71098 22.8758 3.71098H2.30384C2.07867 3.71098 1.85571 3.66662 1.64769 3.58042C1.43968 3.49422 1.25068 3.36788 1.09151 3.20861C0.932337 3.04934 0.806105 2.86028 0.720028 2.65221C0.63395 2.44414 0.589713 2.22115 0.589844 1.99598ZM0.589844 10.567C0.589844 10.1124 0.770426 9.67644 1.09186 9.355C1.4133 9.03356 1.84926 8.85298 2.30384 8.85298H22.8758C23.3306 8.85298 23.7666 9.03362 24.0882 9.35515C24.4097 9.67668 24.5903 10.1128 24.5903 10.5675C24.5903 11.0222 24.4097 11.4583 24.0882 11.7798C23.7666 12.1013 23.3306 12.282 22.8758 12.282H2.30384C2.07876 12.282 1.85588 12.2376 1.64792 12.1515C1.43997 12.0654 1.25102 11.9391 1.09186 11.78C0.770426 11.4585 0.589844 11.0226 0.589844 10.568V10.567ZM0.589844 19.138C0.589844 18.6834 0.770426 18.2474 1.09186 17.926C1.4133 17.6046 1.84926 17.424 2.30384 17.424H12.5898C13.0446 17.424 13.4806 17.6046 13.8022 17.9261C14.1237 18.2477 14.3043 18.6838 14.3043 19.1385C14.3043 19.5932 14.1237 20.0293 13.8022 20.3508C13.4806 20.6723 13.0446 20.853 12.5898 20.853H2.30384C2.07876 20.853 1.85588 20.8086 1.64792 20.7225C1.43997 20.6364 1.25102 20.5101 1.09186 20.351C0.770426 20.0295 0.589844 19.5926 0.589844 19.138Z" fill="#3F3F46"/>
</svg>
