<svg width="25" height="15" viewBox="0 0 25 15" fill="none" xmlns="http://www.w3.org/2000/svg">
<path fill-rule="evenodd" clip-rule="evenodd" d="M0.181153 2.42396C0.181153 1.96938 0.361734 1.53342 0.683172 1.21198C1.00461 0.890543 1.44057 0.709961 1.89515 0.709961H22.4672C22.9219 0.709961 23.358 0.890595 23.6795 1.21213C24.001 1.53366 24.1817 1.96975 24.1817 2.42446C24.1817 2.87917 24.001 3.31526 23.6795 3.6368C23.358 3.95833 22.9219 4.13896 22.4672 4.13896H1.89515C1.66998 4.13896 1.44702 4.09459 1.239 4.0084C1.03098 3.9222 0.841991 3.79585 0.682818 3.63659C0.523645 3.47732 0.397414 3.28826 0.311336 3.08019C0.225258 2.87212 0.181021 2.64913 0.181153 2.42396ZM0.181153 12.71C0.181153 12.2554 0.361734 11.8194 0.683172 11.498C1.00461 11.1765 1.44057 10.996 1.89515 10.996H22.4672C22.9219 10.996 23.358 11.1766 23.6795 11.4981C24.001 11.8197 24.1817 12.2557 24.1817 12.7105C24.1817 13.1652 24.001 13.6013 23.6795 13.9228C23.358 14.2443 22.9219 14.425 22.4672 14.425H1.89515C1.66998 14.425 1.44702 14.3806 1.239 14.2944C1.03098 14.2082 0.841991 14.0819 0.682818 13.9226C0.523645 13.7633 0.397414 13.5743 0.311336 13.3662C0.225258 13.1581 0.181021 12.9351 0.181153 12.71Z" fill="#3F3F46"/>
</svg>
