<svg width="24" height="21" viewBox="0 0 24 21" fill="none" xmlns="http://www.w3.org/2000/svg">
<path fill-rule="evenodd" clip-rule="evenodd" d="M2.91741e-07 1.73304C2.91741e-07 1.50796 0.0443342 1.28508 0.130471 1.07712C0.216607 0.869172 0.34286 0.680221 0.502019 0.521062C0.823457 0.199625 1.25942 0.019043 1.714 0.019043H22.286C22.7407 0.019043 23.1768 0.199677 23.4983 0.521208C23.8199 0.842739 24.0005 1.27883 24.0005 1.73354C24.0005 2.18826 23.8199 2.62435 23.4983 2.94588C23.1768 3.26741 22.7407 3.44804 22.286 3.44804H1.714C1.48883 3.44804 1.26587 3.40368 1.05785 3.31748C0.849832 3.23128 0.660838 3.10494 0.501666 2.94567C0.342493 2.78641 0.216262 2.59734 0.130184 2.38927C0.044106 2.1812 -0.000131079 1.95821 2.91741e-07 1.73304ZM2.91741e-07 10.304C2.91741e-07 9.84946 0.180582 9.4135 0.502019 9.09206C0.823457 8.77062 1.25942 8.59004 1.714 8.59004H22.286C22.7407 8.59004 23.1768 8.77068 23.4983 9.09221C23.8199 9.41374 24.0005 9.84983 24.0005 10.3045C24.0005 10.7593 23.8199 11.1953 23.4983 11.5169C23.1768 11.8384 22.7407 12.019 22.286 12.019H1.714C1.48891 12.019 1.26603 11.9747 1.05808 11.8886C0.850129 11.8024 0.661179 11.6762 0.502019 11.517C0.180582 11.1956 2.91741e-07 10.7596 2.91741e-07 10.305V10.304ZM10.286 18.875C10.2863 18.4206 10.467 17.9849 10.7884 17.6637C11.1098 17.3425 11.5456 17.162 12 17.162H22.286C22.7407 17.162 23.1768 17.3427 23.4983 17.6642C23.8199 17.9857 24.0005 18.4218 24.0005 18.8765C24.0005 19.3313 23.8199 19.7673 23.4983 20.0889C23.1768 20.4104 22.7407 20.591 22.286 20.591H12C11.5454 20.591 11.1095 20.4105 10.788 20.089C10.4666 19.7676 10.286 19.3316 10.286 18.877V18.875Z" fill="#3F3F46"/>
</svg>
