<svg width="28" height="28" viewBox="0 0 28 28" fill="none" xmlns="http://www.w3.org/2000/svg">
<path d="M6.632 26.757H9.995C10.5473 26.757 10.995 26.3092 10.995 25.757L10.995 2.28196C10.995 1.72967 10.5473 1.28196 9.995 1.28196H6.632C6.07971 1.28196 5.632 1.72967 5.632 2.28196L5.632 25.757C5.632 26.3092 6.07971 26.757 6.632 26.757Z" stroke="#2C3E50" stroke-width="1.5" stroke-linecap="round" stroke-linejoin="round"/>
<path d="M26.4139 21.3779V17.8049C26.4139 17.2526 25.9662 16.8049 25.4139 16.8049H1.93894C1.38666 16.8049 0.93894 17.2526 0.93894 17.8049V21.3779C0.93894 21.9302 1.38666 22.3779 1.93894 22.3779H25.4139C25.9662 22.3779 26.4139 21.9302 26.4139 21.3779Z" stroke="#2C3E50" stroke-width="1.5" stroke-linecap="round" stroke-linejoin="round"/>
<path d="M11.995 26.757H15.358C15.9103 26.757 16.358 26.3092 16.358 25.757L16.358 2.28196C16.358 1.72967 15.9103 1.28196 15.358 1.28196H11.995C11.4427 1.28196 10.995 1.72967 10.995 2.28196L10.995 25.757C10.995 26.3092 11.4427 26.757 11.995 26.757Z" stroke="#2C3E50" stroke-width="1.5" stroke-linecap="round" stroke-linejoin="round"/>
<path d="M26.4139 15.8049V12.2319C26.4139 11.6796 25.9662 11.2319 25.4139 11.2319L1.93894 11.2319C1.38666 11.2319 0.93894 11.6796 0.93894 12.2319V15.8049C0.93894 16.3572 1.38666 16.8049 1.93894 16.8049H25.4139C25.9662 16.8049 26.4139 16.3572 26.4139 15.8049Z" stroke="#2C3E50" stroke-width="1.5" stroke-linecap="round" stroke-linejoin="round"/>
<path d="M17.359 26.757H20.722C21.2743 26.757 21.722 26.3092 21.722 25.757L21.722 2.28196C21.722 1.72967 21.2743 1.28196 20.722 1.28196H17.359C16.8067 1.28196 16.359 1.72967 16.359 2.28196L16.359 25.757C16.359 26.3092 16.8067 26.757 17.359 26.757Z" stroke="#2C3E50" stroke-width="1.5" stroke-linecap="round" stroke-linejoin="round"/>
<path d="M26.4139 10.233V6.66003C26.4139 6.10775 25.9662 5.66003 25.4139 5.66003L1.93894 5.66003C1.38666 5.66003 0.93894 6.10775 0.93894 6.66003V10.233C0.93894 10.7853 1.38666 11.233 1.93894 11.233L25.4139 11.233C25.9662 11.233 26.4139 10.7853 26.4139 10.233Z" stroke="#2C3E50" stroke-width="1.5" stroke-linecap="round" stroke-linejoin="round"/>
</svg>
