<svg width="22" height="30" viewBox="0 0 22 30" fill="none" xmlns="http://www.w3.org/2000/svg">
<path d="M20.5922 13.333C20.5922 15.877 19.5816 18.3167 17.7828 20.1156C15.9839 21.9144 13.5442 22.925 11.0002 22.925M11.0002 22.925C8.45625 22.925 6.01648 21.9144 4.21763 20.1156C2.41879 18.3167 1.4082 15.877 1.4082 13.333M11.0002 22.925V28.406M11.0002 28.406H5.5192M11.0002 28.406H16.4812M11.0002 17.444C9.9099 17.444 8.86425 17.0109 8.09329 16.2399C7.32233 15.469 6.8892 14.4233 6.8892 13.333V5.111C6.8892 4.0207 7.32233 2.97505 8.09329 2.20408C8.86425 1.43312 9.9099 1 11.0002 1C12.0905 1 13.1362 1.43312 13.9071 2.20408C14.6781 2.97505 15.1112 4.0207 15.1112 5.111V13.333C15.1112 13.8729 15.0049 14.4074 14.7983 14.9062C14.5917 15.405 14.2889 15.8582 13.9071 16.2399C13.5254 16.6217 13.0722 16.9245 12.5734 17.1311C12.0746 17.3377 11.5401 17.444 11.0002 17.444Z" stroke="#3F3F46" stroke-width="2" stroke-linecap="round" stroke-linejoin="round"/>
</svg>
