<svg width="23" height="30" viewBox="0 0 23 30" fill="none" xmlns="http://www.w3.org/2000/svg">
<path fill-rule="evenodd" clip-rule="evenodd" d="M6.95802 5.52101C6.95802 4.24452 7.4651 3.02032 8.36771 2.1177C9.27032 1.21509 10.4945 0.708008 11.771 0.708008C13.0475 0.708008 14.2717 1.21509 15.1743 2.1177C16.0769 3.02032 16.584 4.24452 16.584 5.52101V11.938C16.584 13.2145 16.0769 14.4387 15.1743 15.3413C14.2717 16.2439 13.0475 16.751 11.771 16.751C10.4945 16.751 9.27032 16.2439 8.36771 15.3413C7.4651 14.4387 6.95802 13.2145 6.95802 11.938V5.52101ZM13.375 23.056C16.0482 22.6698 18.4926 21.3333 20.2605 19.2914C22.0284 17.2495 23.0014 14.6389 23.001 11.938C23.001 11.5125 22.832 11.1044 22.5311 10.8035C22.2302 10.5026 21.8221 10.3335 21.3965 10.3335C20.971 10.3335 20.5629 10.5026 20.262 10.8035C19.9611 11.1044 19.792 11.5125 19.792 11.938C19.792 14.0654 18.9469 16.1057 17.4426 17.6101C15.9383 19.1144 13.8979 19.9595 11.7705 19.9595C9.64308 19.9595 7.60278 19.1144 6.09846 17.6101C4.59414 16.1057 3.74902 14.0654 3.74902 11.938C3.74902 11.5126 3.58002 11.1046 3.27921 10.8038C2.97841 10.503 2.57042 10.334 2.14502 10.334C1.71961 10.334 1.31162 10.503 1.01082 10.8038C0.710008 11.1046 0.541016 11.5126 0.541016 11.938C0.540709 14.6388 1.51366 17.2492 3.28157 19.291C5.04948 21.3327 7.49395 22.669 10.167 23.055V26.376H5.35402C4.92848 26.376 4.52036 26.5451 4.21946 26.846C3.91856 27.1469 3.74952 27.555 3.74952 27.9805C3.74952 28.406 3.91856 28.8142 4.21946 29.1151C4.52036 29.416 4.92848 29.585 5.35402 29.585H18.188C18.6136 29.585 19.0217 29.416 19.3226 29.1151C19.6235 28.8142 19.7925 28.406 19.7925 27.9805C19.7925 27.555 19.6235 27.1469 19.3226 26.846C19.0217 26.5451 18.6136 26.376 18.188 26.376H13.375V23.056Z" fill="#3F3F46"/>
</svg>
