<svg width="19" height="20" viewBox="0 0 19 20" fill="none" xmlns="http://www.w3.org/2000/svg">
<path d="M3 18.519H13C14.1046 18.519 15 17.6236 15 16.519L15 6.51904C15 5.41447 14.1046 4.51904 13 4.51904L3 4.51904C1.89543 4.51904 1 5.41447 1 6.51904L1 16.519C1 17.6236 1.89543 18.519 3 18.519Z" stroke="#2C3E50" stroke-width="1.5" stroke-linecap="round" stroke-linejoin="round"/>
<path d="M4 4.28904V3.51904C4 2.98861 4.21071 2.4799 4.58579 2.10483C4.96086 1.72976 5.46957 1.51904 6 1.51904L16 1.51904C16.5304 1.51904 17.0391 1.72976 17.4142 2.10483C17.7893 2.4799 18 2.98861 18 3.51904V13.519C18 14.0495 17.7893 14.5582 17.4142 14.9333C17.0391 15.3083 16.5304 15.519 16 15.519H15.12" stroke="#2C3E50" stroke-width="1.5" stroke-linecap="round" stroke-linejoin="round"/>
</svg>
