<svg width="17" height="18" viewBox="0 0 17 18" fill="none" xmlns="http://www.w3.org/2000/svg">
<path d="M3 16.519H11C12.1046 16.519 13 15.6236 13 14.519L13 6.51904C13 5.41447 12.1046 4.51904 11 4.51904L3 4.51904C1.89543 4.51904 1 5.41447 1 6.51904L1 14.519C1 15.6236 1.89543 16.519 3 16.519Z" stroke="#2C3E50" stroke-width="1.5" stroke-linecap="round" stroke-linejoin="round"/>
<path d="M4 4.46404V3.51904C4 2.98861 4.21071 2.4799 4.58579 2.10483C4.96086 1.72976 5.46957 1.51904 6 1.51904L14 1.51904C14.5304 1.51904 15.0391 1.72976 15.4142 2.10483C15.7893 2.4799 16 2.98861 16 3.51904L16 11.519C16 12.0495 15.7893 12.5582 15.4142 12.9333C15.0391 13.3083 14.5304 13.519 14 13.519H13.144" stroke="#2C3E50" stroke-width="1.5" stroke-linecap="round" stroke-linejoin="round"/>
</svg>
