<svg width="24" height="25" viewBox="0 0 24 25" fill="none" xmlns="http://www.w3.org/2000/svg">
<path d="M23.999 17.322C21.674 18.373 19.0839 18.6908 16.5737 18.2329C14.0636 17.775 11.7525 16.5632 9.94832 14.7589C8.14414 12.9546 6.93248 10.6434 6.47473 8.13325C6.01697 5.62307 6.33485 3.033 7.38602 0.708008C5.53482 1.54437 3.91415 2.81736 2.66308 4.41776C1.41201 6.01816 0.567879 7.89819 0.20312 9.89654C-0.161639 11.8949 -0.0361387 13.9519 0.568853 15.8911C1.17384 17.8303 2.24026 19.5938 3.67662 21.0302C5.11297 22.4666 6.87637 23.5332 8.81552 24.1383C10.7547 24.7434 12.8117 24.869 14.8101 24.5044C16.8084 24.1397 18.6885 23.2957 20.289 22.0447C21.8895 20.7938 23.1625 19.1732 23.999 17.322Z" fill="#3F3F46"/>
</svg>
