<svg width="27" height="26" viewBox="0 0 27 26" fill="none" xmlns="http://www.w3.org/2000/svg">
<path d="M18.1813 17.76C20.5599 18.2456 23.0288 18.0217 25.2813 17.116C24.5167 19.0153 23.2932 20.6954 21.7202 22.006C20.1473 23.3167 18.274 24.217 16.268 24.6263C14.2619 25.0357 12.1856 24.9414 10.2249 24.3519C8.26425 23.7623 6.48027 22.696 5.03263 21.2481C3.58498 19.8003 2.51882 18.0162 1.92953 16.0554C1.34024 14.0947 1.2462 12.0184 1.65582 10.0124C2.06545 8.00637 2.96596 6.13319 4.2768 4.56042C5.58763 2.98766 7.2679 1.76437 9.16727 1C8.48977 2.68447 8.19082 4.49727 8.29158 6.31008C8.39233 8.12289 8.89033 9.89139 9.75033 11.4904C10.6103 13.0894 11.8113 14.4799 13.2682 15.5633C14.7251 16.6467 16.4024 17.3966 18.1813 17.76Z" stroke="#3F3F46" stroke-width="2" stroke-linecap="round" stroke-linejoin="round"/>
</svg>
