<svg width="24" height="29" viewBox="0 0 24 29" fill="none" xmlns="http://www.w3.org/2000/svg">
<path fill-rule="evenodd" clip-rule="evenodd" d="M8.571 4.13751C7.20699 4.13751 5.89885 4.67936 4.93435 5.64386C3.96985 6.60836 3.428 7.9165 3.428 9.28051V16.1375C3.428 18.4108 4.33107 20.591 5.93853 22.1985C7.546 23.8059 9.7262 24.709 11.9995 24.709C14.2728 24.709 16.453 23.8059 18.0605 22.1985C19.6679 20.591 20.571 18.4108 20.571 16.1375V9.27951C20.571 8.82479 20.7516 8.3887 21.0732 8.06717C21.3947 7.74564 21.8308 7.56501 22.2855 7.56501C22.7402 7.56501 23.1763 7.74564 23.4978 8.06717C23.8194 8.3887 24 8.82479 24 9.27951V16.1365C24 19.3191 22.7357 22.3714 20.4853 24.6218C18.2348 26.8722 15.1826 28.1365 12 28.1365C8.8174 28.1365 5.76515 26.8722 3.51472 24.6218C1.26428 22.3714 0 19.3191 0 16.1365V9.27951C0 7.0062 0.903066 4.82601 2.51053 3.21854C4.118 1.61107 6.2982 0.708008 8.5715 0.708008C10.8448 0.708008 13.025 1.61107 14.6325 3.21854C16.2399 4.82601 17.143 7.0062 17.143 9.27951V16.1365C17.143 17.5005 16.6012 18.8087 15.6367 19.7732C14.6722 20.7377 13.364 21.2795 12 21.2795C10.636 21.2795 9.32785 20.7377 8.36335 19.7732C7.39885 18.8087 6.857 17.5005 6.857 16.1365V9.27951C6.857 8.82479 7.03763 8.3887 7.35917 8.06717C7.6807 7.74564 8.11679 7.56501 8.5715 7.56501C9.02621 7.56501 9.4623 7.74564 9.78383 8.06717C10.1054 8.3887 10.286 8.82479 10.286 9.27951V16.1365C10.286 16.5912 10.4666 17.0273 10.7882 17.3488C11.1097 17.6704 11.5458 17.851 12.0005 17.851C12.4552 17.851 12.8913 17.6704 13.2128 17.3488C13.5344 17.0273 13.715 16.5912 13.715 16.1365V9.27951C13.715 7.9155 13.1732 6.60736 12.2087 5.64286C11.2442 4.67836 9.93601 4.13651 8.572 4.13651L8.571 4.13751Z" fill="#3F3F46"/>
</svg>
