<svg width="24" height="25" viewBox="0 0 24 25" fill="none" xmlns="http://www.w3.org/2000/svg">
<path d="M13.341 1.53603C13.2163 1.28721 13.0248 1.07799 12.788 0.931777C12.5512 0.785567 12.2783 0.70813 12 0.70813C11.7217 0.70813 11.4488 0.785567 11.212 0.931777C10.9752 1.07799 10.7837 1.28721 10.659 1.53603L0.15899 22.536C0.0284929 22.7965 -0.0233445 23.0893 0.00980703 23.3787C0.0429585 23.6681 0.159664 23.9416 0.345674 24.1658C0.531683 24.39 0.778947 24.5552 1.05727 24.6411C1.3356 24.7271 1.63294 24.7302 1.91299 24.65L9.41299 22.506C9.72636 22.4163 10.002 22.2269 10.1981 21.9665C10.3942 21.7062 10.5002 21.389 10.5 21.063V14.207C10.5 13.8092 10.658 13.4277 10.9393 13.1464C11.2206 12.8651 11.6022 12.707 12 12.707C12.3978 12.707 12.7793 12.8651 13.0606 13.1464C13.342 13.4277 13.5 13.8092 13.5 14.207V21.064C13.4998 21.39 13.6058 21.7072 13.8019 21.9675C13.998 22.2279 14.2736 22.4173 14.587 22.507L22.087 24.649C22.3669 24.7292 22.664 24.7261 22.9422 24.6403C23.2204 24.5545 23.4675 24.3896 23.6536 24.1656C23.8396 23.9417 23.9565 23.6685 23.99 23.3794C24.0234 23.0902 23.972 22.7975 23.842 22.537L13.342 1.53703L13.341 1.53603Z" fill="#3F3F46"/>
</svg>
