<svg width="27" height="29" viewBox="0 0 27 29" fill="none" xmlns="http://www.w3.org/2000/svg">
<path d="M17.944 6.751L8.36498 16.33C8.08532 16.5979 7.86198 16.9189 7.70804 17.2743C7.5541 17.6297 7.47266 18.0122 7.46851 18.3994C7.46435 18.7867 7.53756 19.1709 7.68384 19.5294C7.83012 19.888 8.04652 20.2138 8.32036 20.4876C8.5942 20.7615 8.91997 20.9779 9.27855 21.1241C9.63713 21.2704 10.0213 21.3436 10.4086 21.3395C10.7958 21.3353 11.1783 21.2539 11.5337 21.0999C11.889 20.946 12.2101 20.7227 12.478 20.443L21.807 10.864C22.8715 9.76761 23.4619 8.2964 23.4507 6.76827C23.4394 5.24014 22.8273 3.7778 21.7468 2.69722C20.6662 1.61664 19.2038 1.00459 17.6757 0.993322C16.1476 0.982056 14.6764 1.57247 13.58 2.637L4.24998 12.211C3.42065 13.0173 2.75984 13.9803 2.30598 15.0442C1.85211 16.1081 1.61423 17.2516 1.60617 18.4082C1.59811 19.5648 1.82002 20.7115 2.25901 21.7816C2.69801 22.8518 3.34532 23.8239 4.16333 24.6417C4.98134 25.4594 5.95373 26.1064 7.02398 26.5451C8.09423 26.9837 9.241 27.2053 10.3976 27.1968C11.5542 27.1884 12.6977 26.9501 13.7614 26.4959C14.8251 26.0417 15.788 25.3806 16.594 24.551L25.694 15.471" stroke="#3F3F46" stroke-width="2" stroke-linecap="round" stroke-linejoin="round"/>
</svg>
