<svg width="27" height="27" viewBox="0 0 27 27" fill="none" xmlns="http://www.w3.org/2000/svg">
<path d="M10.6382 9.2226V17.2226M15.9712 9.2226V17.2226M25.3052 13.2226C25.3053 15.9989 24.3428 18.6893 22.5816 20.8355C20.8205 22.9816 18.3697 24.4507 15.6468 24.9925C12.9239 25.5342 10.0974 25.1151 7.64886 23.8065C5.20035 22.4978 3.28134 20.3807 2.21881 17.8158C1.15627 15.2509 1.01595 12.3969 1.82176 9.74019C2.62757 7.08343 4.32964 4.78827 6.63797 3.24577C8.9463 1.70327 11.7181 1.00888 14.481 1.28091C17.2439 1.55293 19.827 2.77455 21.7902 4.7376C24.0407 6.98792 25.305 10.0401 25.3052 13.2226Z" stroke="#3F3F46" stroke-width="2" stroke-linecap="round" stroke-linejoin="round"/>
</svg>
