<svg width="24" height="23" viewBox="0 0 24 23" fill="none" xmlns="http://www.w3.org/2000/svg">
<path d="M1.7749 16.337L7.6359 10.476C8.11522 9.99688 8.76519 9.72773 9.4429 9.72773C10.1206 9.72773 10.7706 9.99688 11.2499 10.476L17.1109 16.337M14.5549 13.781L16.5819 11.754C17.0612 11.2749 17.7112 11.0057 18.3889 11.0057C19.0666 11.0057 19.7166 11.2749 20.1959 11.754L22.2229 13.781M14.5559 6.112H14.5689M4.3309 21.45H19.6679C20.3458 21.45 20.9959 21.1807 21.4753 20.7014C21.9546 20.222 22.2239 19.5719 22.2239 18.894V3.556C22.2239 2.87811 21.9546 2.22798 21.4753 1.74864C20.9959 1.26929 20.3458 1 19.6679 1H4.3309C3.65301 1 3.00288 1.26929 2.52354 1.74864C2.04419 2.22798 1.7749 2.87811 1.7749 3.556V18.893C1.77477 19.2287 1.84079 19.5612 1.96918 19.8714C2.09757 20.1817 2.28582 20.4636 2.52318 20.701C2.76054 20.9385 3.04236 21.1268 3.35253 21.2553C3.66271 21.3839 3.99516 21.45 4.3309 21.45Z" stroke="#3F3F46" stroke-width="2" stroke-linecap="round" stroke-linejoin="round"/>
</svg>
