<svg width="24" height="22" viewBox="0 0 24 22" fill="none" xmlns="http://www.w3.org/2000/svg">
<path fill-rule="evenodd" clip-rule="evenodd" d="M3 0.708008C2.20435 0.708008 1.44129 1.02408 0.87868 1.58669C0.316071 2.1493 0 2.91236 0 3.70801V18.708C0 19.5037 0.316071 20.2667 0.87868 20.8293C1.44129 21.3919 2.20435 21.708 3 21.708H21C21.7956 21.708 22.5587 21.3919 23.1213 20.8293C23.6839 20.2667 24 19.5037 24 18.708V3.70801C24 2.91236 23.6839 2.1493 23.1213 1.58669C22.5587 1.02408 21.7956 0.708008 21 0.708008H3ZM21 18.708H3L9 6.70801L13.5 15.708L16.5 9.70801L21 18.708Z" fill="#3F3F46"/>
</svg>
