<svg width="26" height="27" viewBox="0 0 26 27" fill="none" xmlns="http://www.w3.org/2000/svg">
<path d="M12.8349 10.259L16.0349 12.391C16.1721 12.4823 16.2846 12.6061 16.3624 12.7513C16.4402 12.8966 16.4809 13.0588 16.4809 13.2235C16.4809 13.3883 16.4402 13.5505 16.3624 13.6957C16.2846 13.841 16.1721 13.9647 16.0349 14.056L12.8349 16.188C12.6843 16.2885 12.5093 16.3462 12.3284 16.355C12.1476 16.3638 11.9678 16.3233 11.8081 16.2379C11.6485 16.1525 11.5151 16.0254 11.422 15.87C11.329 15.7147 11.2799 15.5371 11.2799 15.356V11.093C11.2795 10.9118 11.3284 10.7339 11.4213 10.5783C11.5141 10.4227 11.6476 10.2953 11.8073 10.2096C11.967 10.124 12.1469 10.0833 12.3279 10.092C12.5089 10.1007 12.6842 10.1585 12.8349 10.259Z" stroke="#3F3F46" stroke-width="2" stroke-linecap="round" stroke-linejoin="round"/>
<path d="M24.086 17.815C25.2255 15.0626 25.3005 11.9847 24.2963 9.18003C23.2922 6.37536 21.2807 4.04445 18.6532 2.64069C16.0257 1.23692 12.97 0.860667 10.0804 1.58511C7.19081 2.30955 4.674 4.08289 3.01949 6.56019C1.36498 9.0375 0.691075 12.0417 1.12885 14.9883C1.56662 17.935 3.08477 20.6135 5.38801 22.5028C7.69125 24.3921 10.6149 25.3572 13.5903 25.2103C16.5656 25.0634 19.38 23.815 21.486 21.708C22.5998 20.5936 23.4833 19.2708 24.086 17.815Z" stroke="#3F3F46" stroke-width="2" stroke-linecap="round" stroke-linejoin="round"/>
</svg>
