<svg width="25" height="22" viewBox="0 0 25 22" fill="none" xmlns="http://www.w3.org/2000/svg">
<path d="M20.1242 15.043L18.5992 19.214C18.4923 19.5393 18.2856 19.8227 18.0084 20.0238C17.7312 20.2249 17.3976 20.3334 17.0552 20.334H6.76518C6.49031 20.3344 6.21994 20.2642 5.9799 20.1303C5.73987 19.9964 5.5382 19.8031 5.39418 19.569C5.319 19.46 5.26067 19.3403 5.22118 19.214L2.0442 9.43201C1.95371 9.1548 1.93937 8.85834 2.0027 8.5737C2.06603 8.28906 2.20469 8.02668 2.40419 7.814C2.47281 7.73973 2.54886 7.6727 2.63118 7.61398L10.9532 1.57098C11.2314 1.36901 11.5664 1.26025 11.9102 1.26025C12.254 1.26025 12.589 1.36901 12.8672 1.57098L17.0552 4.383" stroke="#3F3F46" stroke-width="2" stroke-miterlimit="10" stroke-linecap="round"/>
<path d="M20.8812 5.13794V8.25794M20.8812 8.25794V11.3779M20.8812 8.25794H24.0012M20.8812 8.25794H17.7612" stroke="#3F3F46" stroke-width="2" stroke-linecap="round" stroke-linejoin="round"/>
</svg>
