<svg width="23" height="23" viewBox="0 0 23 23" fill="none" xmlns="http://www.w3.org/2000/svg">
<path d="M16.9891 17.172H19.2111C19.503 17.172 19.792 17.1145 20.0617 17.0027C20.3313 16.891 20.5763 16.7272 20.7826 16.5208C20.989 16.3144 21.1526 16.0693 21.2643 15.7996C21.3759 15.5299 21.4332 15.2408 21.4331 14.949V10.505C21.4331 10.2132 21.3756 9.92423 21.264 9.65464C21.1523 9.38506 20.9886 9.14011 20.7823 8.93378C20.576 8.72744 20.331 8.56377 20.0614 8.45211C19.7918 8.34044 19.5029 8.28297 19.2111 8.28297H3.65511C3.06579 8.28297 2.50062 8.51707 2.08391 8.93378C1.66721 9.35048 1.43311 9.91566 1.43311 10.505V14.949C1.43311 15.5383 1.66721 16.1035 2.08391 16.5202C2.50062 16.9369 3.06579 17.171 3.65511 17.171H5.87711M8.10011 21.616H14.7671C15.0589 21.616 15.3478 21.5585 15.6174 21.4468C15.887 21.3352 16.132 21.1715 16.3383 20.9652C16.5446 20.7588 16.7083 20.5139 16.82 20.2443C16.9316 19.9747 16.9891 19.6858 16.9891 19.394V14.949C16.9891 14.6572 16.9316 14.3682 16.82 14.0986C16.7083 13.8291 16.5446 13.5841 16.3383 13.3778C16.132 13.1714 15.887 13.0078 15.6174 12.8961C15.3478 12.7844 15.0589 12.727 14.7671 12.727H8.10011C7.51079 12.727 6.94562 12.9611 6.52891 13.3778C6.11221 13.7945 5.87811 14.3597 5.87811 14.949V19.393C5.87797 19.6848 5.93535 19.9739 6.04696 20.2436C6.15857 20.5133 6.32222 20.7584 6.52856 20.9648C6.73491 21.1712 6.9799 21.335 7.24955 21.4467C7.5192 21.5585 7.80822 21.616 8.10011 21.616ZM16.9891 8.28297V3.83797C16.9891 3.54609 16.9316 3.25706 16.8199 2.98741C16.7081 2.71776 16.5444 2.47277 16.3379 2.26642C16.1315 2.06008 15.8864 1.89643 15.6167 1.78482C15.347 1.67321 15.058 1.61584 14.7661 1.61597H8.10011C7.80822 1.61584 7.51918 1.67321 7.24948 1.78482C6.97977 1.89643 6.73471 2.06008 6.52827 2.26642C6.32183 2.47277 6.15807 2.71776 6.04634 2.98741C5.93461 3.25706 5.87711 3.54609 5.87711 3.83797V8.28297H16.9891Z" stroke="#3F3F46" stroke-width="2" stroke-linecap="round" stroke-linejoin="round"/>
</svg>
