<svg width="19" height="19" viewBox="0 0 19 19" fill="none" xmlns="http://www.w3.org/2000/svg">
<path d="M1.38477 1.61786V6.61786H1.96677M1.96677 6.61786C2.62999 4.97526 3.81964 3.59925 5.34915 2.70561C6.87866 1.81198 8.66152 1.45127 10.4181 1.68005C12.1747 1.90883 13.8057 2.71417 15.0553 3.96976C16.3049 5.22535 17.1024 6.86018 17.3228 8.61786M1.96677 6.61786H6.38477M17.3848 17.6179V12.6179H16.8038M16.8038 12.6179C16.1408 14.2609 14.9512 15.6375 13.4215 16.5315C11.8918 17.4255 10.1087 17.7864 8.35172 17.5576C6.59478 17.3288 4.96351 16.5232 3.71382 15.2672C2.46414 14.0112 1.66675 12.3759 1.44677 10.6179M16.8038 12.6179H12.3848" stroke="#FFFFFF" stroke-width="2" stroke-linecap="round" stroke-linejoin="round"/>
</svg>
