<svg width="28" height="28" viewBox="0 0 28 28" fill="none" xmlns="http://www.w3.org/2000/svg">
<path d="M14 1.34375C7.01016 1.34375 1.34375 7.01016 1.34375 14C1.34375 20.9898 7.01016 26.6562 14 26.6562C20.9898 26.6562 26.6562 20.9898 26.6562 14C26.6562 7.01016 20.9898 1.34375 14 1.34375ZM21.7561 21.7561C19.8329 23.6735 17.2647 24.8063 14.5519 24.9336C11.8391 25.061 9.17611 24.1738 7.08174 22.4449C4.98737 20.7161 3.61168 18.2694 3.22272 15.5816C2.83376 12.8939 3.4594 10.1576 4.97774 7.9059C6.49607 5.65422 8.79832 4.04849 11.4359 3.40156C14.0735 2.75464 16.8575 3.11287 19.2453 4.40646C21.6332 5.70004 23.454 7.83631 24.3528 10.399C25.2516 12.9617 25.1642 15.7673 24.1074 18.269C23.5567 19.5726 22.7581 20.7568 21.7561 21.7561Z" fill="#F6F6F6"/>
<path d="M8.51562 12.1016C8.51562 11.5191 8.98782 11.0469 9.57031 11.0469C10.1528 11.0469 10.625 11.5191 10.625 12.1016C10.625 12.6841 10.1528 13.1562 9.57031 13.1562C8.98782 13.1562 8.51562 12.6841 8.51562 12.1016ZM17.375 12.1016C17.375 11.5191 17.8472 11.0469 18.4297 11.0469C19.0122 11.0469 19.4844 11.5191 19.4844 12.1016C19.4844 12.6841 19.0122 13.1562 18.4297 13.1562C17.8472 13.1562 17.375 12.6841 17.375 12.1016ZM14 15.6875C12.7697 15.6889 11.5901 16.1783 10.7201 17.0482C10.0507 17.7177 9.6066 18.5704 9.43681 19.4886C9.35205 19.9469 9.7375 20.3281 10.2036 20.3281C10.6693 20.3281 11.0353 19.9431 11.1665 19.4962C11.3046 19.0259 11.5589 18.5928 11.9118 18.2399C12.4656 17.6861 13.2168 17.375 14 17.375C14.7832 17.375 15.5344 17.6861 16.0882 18.2399C16.4411 18.5928 16.6954 19.0259 16.8335 19.4962C16.9647 19.9431 17.3307 20.3281 17.7964 20.3281C18.2625 20.3281 18.648 19.9469 18.5632 19.4886C18.3934 18.5704 17.9493 17.7177 17.2799 17.0482C16.4099 16.1783 15.2303 15.6889 14 15.6875Z" fill="#F6F6F6"/>
</svg>
