<svg width="33" height="25" viewBox="0 0 33 25" fill="none" xmlns="http://www.w3.org/2000/svg">
<path d="M19.4767 5.25915L19.9602 3.19771C20.009 2.98091 20.0938 2.77384 20.2111 2.5851C20.3253 2.3977 20.4709 2.23139 20.6416 2.09348C20.7865 1.97279 20.958 1.8882 21.142 1.84664C21.2925 1.81212 21.4504 1.83387 21.5859 1.90778L24.4648 3.70151C24.5965 3.78193 24.6943 3.9078 24.7397 4.05537C24.7956 4.23549 24.8081 4.42632 24.7761 4.6122C24.742 4.82898 24.6708 5.03825 24.5656 5.23083C24.4608 5.42678 24.3239 5.60377 24.1605 5.75444L22.4338 6.96528L19.4767 5.25915ZM17.494 21.8553L24.0562 10.9792C24.3981 10.4111 24.5747 9.75891 24.5661 9.09591C24.5744 8.84458 24.5186 8.59527 24.4041 8.3714C24.2895 8.14752 24.12 7.95643 23.9114 7.81605L18.0007 4.40355C17.7748 4.29305 17.5246 4.24176 17.2734 4.25451C17.0223 4.26725 16.7785 4.34361 16.5649 4.47641C15.9865 4.80051 15.5099 5.27958 15.1889 5.85974L8.62675 16.7358C8.28483 17.3039 8.10821 17.9561 8.11676 18.6191C8.10832 18.8705 8.16394 19.12 8.27839 19.344C8.39285 19.568 8.56238 19.7593 8.77105 19.8998L14.6825 23.3128C14.909 23.4229 15.1598 23.4735 15.4113 23.4599C15.6628 23.4463 15.9066 23.369 16.12 23.2351C16.6972 22.9117 17.173 22.4339 17.494 21.8553Z" stroke="#3F3F46" stroke-width="2" stroke-linecap="round" stroke-linejoin="round"/>
<path d="M1.42578 16.7613C1.99322 15.9284 2.7686 15.2583 3.67499 14.8177C4.58138 14.377 5.58726 14.1811 6.59277 14.2493C10.3828 14.2493 12.5327 18.2733 16.5497 18.2733C20.5667 18.2733 21.8098 14.2493 25.8838 14.2493C29.9578 14.2493 31.3148 16.7613 31.3148 16.7613" stroke="#3F3F46" stroke-width="2"/>
<path d="M1.42578 22.1773C1.99322 21.3444 2.7686 20.6744 3.67499 20.2337C4.58138 19.7931 5.58726 19.5972 6.59277 19.6653C10.3828 19.6653 12.5327 23.6893 16.5497 23.6893C20.5667 23.6893 21.8098 19.6653 25.8838 19.6653C29.9578 19.6653 31.3148 22.1773 31.3148 22.1773" stroke="#3F3F46" stroke-width="2"/>
</svg>
