<svg width="25" height="25" viewBox="0 0 25 25" fill="none" xmlns="http://www.w3.org/2000/svg">
<path fill-rule="evenodd" clip-rule="evenodd" d="M9.6569 3.70904C8.26894 3.70944 6.92405 4.19102 5.85132 5.07175C4.77859 5.95248 4.04439 7.17788 3.77377 8.5392C3.50315 9.90052 3.71287 11.3136 4.36719 12.5376C5.02151 13.7617 6.07996 14.721 7.36224 15.2522C8.64452 15.7834 10.0713 15.8536 11.3996 15.4509C12.7278 15.0482 13.8754 14.1974 14.6467 13.0436C15.4181 11.8897 15.7655 10.5041 15.6299 9.12275C15.4943 7.74143 14.884 6.44986 13.9029 5.46804C13.3455 4.91019 12.6836 4.46771 11.955 4.16588C11.2264 3.86406 10.4455 3.70882 9.6569 3.70904ZM0.649902 9.71604C0.649778 8.29853 0.984221 6.90101 1.62603 5.63712C2.26784 4.37323 3.1989 3.27867 4.34348 2.44245C5.48806 1.60623 6.81386 1.05197 8.21303 0.824736C9.61221 0.597502 11.0453 0.703714 12.3957 1.13474C13.746 1.56576 14.9756 2.30942 15.9844 3.30524C16.9932 4.30105 17.7528 5.52091 18.2012 6.86561C18.6497 8.2103 18.7745 9.64186 18.5654 11.0439C18.3563 12.4459 17.8192 13.7787 16.9979 14.934L24.2289 22.165C24.5104 22.4466 24.6686 22.8284 24.6686 23.2265C24.6686 23.6247 24.5104 24.0065 24.2289 24.288C23.9474 24.5696 23.5655 24.7277 23.1674 24.7277C22.7693 24.7277 22.3874 24.5696 22.1059 24.288L14.8759 17.058C13.5284 18.016 11.9432 18.5847 10.2941 18.7016C8.64487 18.8186 6.99531 18.4794 5.52611 17.7211C4.05691 16.9629 2.82476 15.8148 1.96466 14.4028C1.10455 12.9909 0.649691 11.3694 0.649902 9.71604Z" fill="#3F3F46"/>
</svg>
