<svg width="26" height="25" viewBox="0 0 26 25" fill="none" xmlns="http://www.w3.org/2000/svg">
<path d="M24.2322 23.927L16.5902 16.285M19.1372 9.91604C19.1381 11.979 18.4237 13.9785 17.1156 15.5737C15.8075 17.1689 13.9867 18.2611 11.9635 18.6643C9.94029 19.0674 7.83991 18.7565 6.02028 17.7845C4.20065 16.8125 2.77438 15.2396 1.98454 13.3338C1.1947 11.428 1.09017 9.30732 1.68876 7.3331C2.28735 5.35889 3.55202 3.65333 5.26724 2.5071C6.98246 1.36087 9.04209 0.844888 11.0951 1.0471C13.1482 1.24931 15.0675 2.1572 16.5262 3.61604C18.1968 5.28719 19.1359 7.55305 19.1372 9.91604Z" stroke="#3F3F46" stroke-width="2" stroke-linecap="round" stroke-linejoin="round"/>
</svg>
