<svg width="24" height="25" viewBox="0 0 24 25" fill="none" xmlns="http://www.w3.org/2000/svg">
<path d="M7.99618 14.3852C8.2494 13.8773 8.38121 13.3176 8.38121 12.7502C8.38121 12.1827 8.2494 11.623 7.99618 11.1152M7.99618 14.3852C7.62788 15.1215 7.02176 15.712 6.27601 16.0608C5.53026 16.4097 4.68856 16.4966 3.88728 16.3073C3.086 16.1181 2.37207 15.6639 1.86116 15.0183C1.35024 14.3727 1.07227 13.5735 1.07227 12.7502C1.07227 11.9269 1.35024 11.1276 1.86116 10.482C2.37207 9.83642 3.086 9.38221 3.88728 9.193C4.68856 9.00379 5.53026 9.09065 6.27601 9.43952C7.02176 9.78838 7.62788 10.3788 7.99618 11.1152M7.99618 14.3852L16.0722 18.4232M7.99618 11.1152L16.0722 7.07417M16.0722 18.4232C15.6951 19.1801 15.592 20.0443 15.7806 20.8686C15.9691 21.6929 16.4376 22.4264 17.1062 22.9441C17.7748 23.4619 18.6022 23.7318 19.4475 23.708C20.2928 23.6842 21.1037 23.3681 21.7421 22.8136C22.3805 22.2591 22.8069 21.5004 22.9488 20.6667C23.0906 19.8331 22.9391 18.9761 22.52 18.2416C22.1009 17.5071 21.4402 16.9406 20.6503 16.6386C19.8605 16.3366 18.9904 16.3177 18.1882 16.5852C17.7319 16.7372 17.3101 16.9779 16.947 17.2933C16.5839 17.6087 16.2866 17.9927 16.0722 18.4232ZM16.0722 7.07417C16.4508 7.83029 17.0799 8.43175 17.8522 8.77604C18.6246 9.12034 19.4924 9.18619 20.3078 8.96235C21.1233 8.73852 21.8359 8.23886 22.3243 7.54851C22.8126 6.85816 23.0465 6.01984 22.986 5.17639C22.9256 4.33293 22.5745 3.53654 21.9927 2.92291C21.4109 2.30927 20.6343 1.91637 19.7952 1.81113C18.9562 1.7059 18.1066 1.89485 17.3913 2.3458C16.6759 2.79674 16.1391 3.48177 15.8722 4.28417C15.7207 4.73956 15.6603 5.22035 15.6946 5.69906C15.729 6.17778 15.8572 6.64504 16.0722 7.07417Z" stroke="#DCD8B7" stroke-width="2" stroke-linecap="round" stroke-linejoin="round"/>
</svg>
