<svg width="24" height="24" viewBox="0 0 24 24" fill="none" xmlns="http://www.w3.org/2000/svg">
<path d="M19.2719 9.43499C20.1577 9.43498 21.0225 9.16534 21.7514 8.66192C22.4803 8.1585 23.0386 7.44515 23.3522 6.61672C23.6659 5.78828 23.7199 4.88401 23.5072 4.02412C23.2944 3.16423 22.825 2.38947 22.1612 1.80285C21.4975 1.21622 20.6709 0.845523 19.7914 0.740035C18.9119 0.634548 18.0211 0.79927 17.2375 1.2123C16.4539 1.62533 15.8145 2.26711 15.4045 3.05229C14.9944 3.83748 14.8331 4.72888 14.9419 5.60799L7.7569 9.20199C7.1405 8.60744 6.36278 8.2074 5.52064 8.05171C4.6785 7.89602 3.80917 7.99155 3.02094 8.32641C2.23271 8.66127 1.56042 9.22066 1.08785 9.93488C0.615267 10.6491 0.363281 11.4866 0.363281 12.343C0.363281 13.1994 0.615267 14.0369 1.08785 14.7511C1.56042 15.4653 2.23271 16.0247 3.02094 16.3596C3.80917 16.6944 4.6785 16.79 5.52064 16.6343C6.36278 16.4786 7.1405 16.0785 7.7569 15.484L14.9419 19.077C14.8146 20.0984 15.0524 21.1319 15.6135 21.9948C16.1745 22.8578 17.0226 23.4946 18.0077 23.7927C18.9929 24.0908 20.0518 24.0311 20.9971 23.6239C21.9425 23.2168 22.7135 22.4886 23.1738 21.5679C23.6341 20.6473 23.7541 19.5936 23.5126 18.593C23.2711 17.5925 22.6836 16.7095 21.854 16.1002C21.0244 15.4909 20.0061 15.1946 18.9791 15.2635C17.9522 15.3325 16.9826 15.7623 16.2419 16.477L9.0569 12.884C9.10092 12.5267 9.10092 12.1653 9.0569 11.808L16.2439 8.21299C17.0558 8.99878 18.142 9.43715 19.2719 9.43499Z" fill="#3F3F46"/>
</svg>
