<svg width="17" height="21" viewBox="0 0 17 21" fill="none" xmlns="http://www.w3.org/2000/svg">
<path d="M7.72539 11.1999L6.32539 9.7999C6.12539 9.5999 5.89206 9.4999 5.62539 9.4999C5.35872 9.4999 5.12539 9.5999 4.92539 9.7999C4.72539 9.9999 4.62539 10.2376 4.62539 10.5129C4.62539 10.7882 4.72539 11.0256 4.92539 11.2249L7.02539 13.3499C7.22539 13.5499 7.45872 13.6499 7.72539 13.6499C7.99206 13.6499 8.22539 13.5499 8.42539 13.3499L12.6754 9.0999C12.8754 8.8999 12.9754 8.66257 12.9754 8.3879C12.9754 8.11323 12.8754 7.87557 12.6754 7.6749C12.4754 7.47424 12.2381 7.37424 11.9634 7.3749C11.6887 7.37557 11.4511 7.47557 11.2504 7.6749L7.72539 11.1999ZM8.77539 20.3999C8.65872 20.3999 8.55039 20.3916 8.45039 20.3749C8.35039 20.3582 8.25039 20.3332 8.15039 20.2999C5.90039 19.5499 4.10872 18.1626 2.77539 16.1379C1.44206 14.1132 0.775391 11.9339 0.775391 9.5999V4.8749C0.775391 4.45824 0.896391 4.08324 1.13839 3.7499C1.38039 3.41657 1.69272 3.1749 2.07539 3.0249L8.07539 0.774902C8.30872 0.691569 8.54206 0.649902 8.77539 0.649902C9.00872 0.649902 9.24206 0.691569 9.47539 0.774902L15.4754 3.0249C15.8587 3.1749 16.1714 3.41657 16.4134 3.7499C16.6554 4.08324 16.7761 4.45824 16.7754 4.8749V9.5999C16.7754 11.9332 16.1087 14.1126 14.7754 16.1379C13.4421 18.1632 11.6504 19.5506 9.40039 20.2999C9.30039 20.3332 9.20039 20.3582 9.10039 20.3749C9.00039 20.3916 8.89206 20.3999 8.77539 20.3999Z" fill="#949C79"/>
</svg>
