<svg width="24" height="26" viewBox="0 0 24 26" fill="none" xmlns="http://www.w3.org/2000/svg">
<path fill-rule="evenodd" clip-rule="evenodd" d="M12 0.708008C8.7674 3.60874 4.59187 5.2376 0.248968 5.29201C-0.452145 9.47124 0.341438 13.7639 2.49038 17.4162C4.63932 21.0685 8.00624 23.8471 12 25.264C15.509 24.0221 18.5469 21.7234 20.6959 18.6841C22.8448 15.6448 23.9991 12.0143 24 8.29201C24.0001 7.28684 23.9169 6.28339 23.751 5.29201C19.4081 5.2376 15.2325 3.60874 12 0.708008ZM13.5 18.792C13.4998 19.139 13.3793 19.4753 13.1591 19.7434C12.9388 20.0116 12.6324 20.1951 12.292 20.2626C11.9516 20.3302 11.5983 20.2776 11.2923 20.1139C10.9864 19.9502 10.7466 19.6855 10.6139 19.3648C10.4813 19.0442 10.4639 18.6874 10.5647 18.3554C10.6656 18.0233 10.8784 17.7365 11.1671 17.5438C11.4557 17.3511 11.8022 17.2645 12.1475 17.2986C12.4928 17.3327 12.8157 17.4855 13.061 17.731C13.2002 17.8704 13.3107 18.0358 13.386 18.2178C13.4613 18.3999 13.5001 18.595 13.5 18.792ZM13.5 8.29201C13.5 7.89418 13.3419 7.51265 13.0606 7.23135C12.7793 6.95004 12.3978 6.79201 12 6.79201C11.6021 6.79201 11.2206 6.95004 10.9393 7.23135C10.658 7.51265 10.5 7.89418 10.5 8.29201V12.792C10.5 13.1898 10.658 13.5714 10.9393 13.8527C11.2206 14.134 11.6021 14.292 12 14.292C12.3978 14.292 12.7793 14.134 13.0606 13.8527C13.3419 13.5714 13.5 13.1898 13.5 12.792V8.29201Z" fill="#3F3F46"/>
</svg>
