<svg width="23" height="25" viewBox="0 0 23 25" fill="none" xmlns="http://www.w3.org/2000/svg">
<path d="M8.79195 11.053V18.593M13.818 11.053V18.593M1.25195 6.026H21.358M20.101 6.026L19.012 21.284C18.9669 21.9181 18.6832 22.5116 18.218 22.9449C17.7528 23.3782 17.1407 23.6191 16.505 23.619H6.10495C5.46922 23.6191 4.85709 23.3782 4.39188 22.9449C3.92668 22.5116 3.64298 21.9181 3.59795 21.284L2.50895 6.026H20.101ZM15.075 6.026V2.257C15.075 1.92362 14.9425 1.6039 14.7068 1.36817C14.4711 1.13243 14.1513 1 13.818 1H8.79195C8.45858 1 8.13885 1.13243 7.90312 1.36817C7.66739 1.6039 7.53495 1.92362 7.53495 2.257V6.027L15.075 6.026Z" stroke="#3F3F46" stroke-width="2" stroke-linecap="round" stroke-linejoin="round"/>
</svg>
