<svg width="24" height="27" viewBox="0 0 24 27" fill="none" xmlns="http://www.w3.org/2000/svg">
<path fill-rule="evenodd" clip-rule="evenodd" d="M10.38 0.708008C10.0787 0.708533 9.78348 0.793026 9.52753 0.952003C9.27158 1.11098 9.065 1.33815 8.93098 1.60801L7.75598 3.94901H2.27698C2.06079 3.94364 1.8457 3.98158 1.6444 4.0606C1.44309 4.13963 1.25963 4.25813 1.10483 4.40914C0.950019 4.56015 0.826993 4.74061 0.742995 4.93989C0.658996 5.13917 0.615723 5.35325 0.615723 5.56951C0.615723 5.78577 0.658996 5.99984 0.742995 6.19913C0.826993 6.39841 0.950019 6.57887 1.10483 6.72987C1.25963 6.88088 1.44309 6.99939 1.6444 7.07841C1.8457 7.15744 2.06079 7.19538 2.27698 7.19001V23.396C2.27685 23.8217 2.36058 24.2433 2.5234 24.6366C2.68622 25.0299 2.92493 25.3873 3.22589 25.6884C3.52686 25.9894 3.88419 26.2283 4.27747 26.3912C4.67075 26.5541 5.09228 26.638 5.51798 26.638H18.483C18.9086 26.638 19.33 26.5542 19.7233 26.3913C20.1165 26.2284 20.4738 25.9897 20.7747 25.6887C21.0757 25.3878 21.3144 25.0305 21.4773 24.6373C21.6402 24.2441 21.724 23.8226 21.724 23.397V7.19001C22.1468 7.1795 22.5488 7.00416 22.8441 6.70141C23.1394 6.39865 23.3047 5.99245 23.3047 5.56951C23.3047 5.14656 23.1394 4.74037 22.8441 4.43761C22.5488 4.13485 22.1468 3.95951 21.724 3.94901H16.243L15.07 1.60801C14.936 1.33815 14.7294 1.11098 14.4734 0.952003C14.2175 0.793026 13.9223 0.708533 13.621 0.708008H10.38ZM7.13798 10.432C7.13261 10.2158 7.17055 10.0007 7.24958 9.79942C7.3286 9.59812 7.44711 9.41466 7.59811 9.25985C7.74912 9.10505 7.92958 8.98202 8.12886 8.89802C8.32814 8.81402 8.54222 8.77075 8.75848 8.77075C8.97474 8.77075 9.18882 8.81402 9.3881 8.89802C9.58738 8.98202 9.76784 9.10505 9.91885 9.25985C10.0699 9.41466 10.1884 9.59812 10.2674 9.79942C10.3464 10.0007 10.3844 10.2158 10.379 10.432V20.156C10.3685 20.5788 10.1931 20.9808 9.89038 21.2761C9.58762 21.5714 9.18143 21.7367 8.75848 21.7367C8.33554 21.7367 7.92934 21.5714 7.62658 21.2761C7.32383 20.9808 7.14849 20.5788 7.13798 20.156V10.432ZM15.238 8.81101C14.8081 8.81101 14.3958 8.98179 14.0918 9.28579C13.7878 9.58978 13.617 10.0021 13.617 10.432V20.156C13.6275 20.5788 13.8028 20.9808 14.1056 21.2761C14.4083 21.5714 14.8145 21.7367 15.2375 21.7367C15.6604 21.7367 16.0666 21.5714 16.3694 21.2761C16.6721 20.9808 16.8475 20.5788 16.858 20.156V10.432C16.8588 10.0023 16.6889 9.58979 16.3857 9.28526C16.0825 8.98073 15.6707 8.80907 15.241 8.80801L15.238 8.81101Z" fill="#3F3F46"/>
</svg>
