<svg width="20" height="22" viewBox="0 0 20 22" fill="none" xmlns="http://www.w3.org/2000/svg">
<path d="M7.66696 9.88899V16.5559M12.111 9.88899V16.5559M1 5.44405H18.778M17.6665 5.44405L16.7036 18.9354C16.6638 19.4961 16.4129 20.0209 16.0016 20.404C15.5903 20.7871 15.049 21.0001 14.4869 21H5.29108C4.72896 21.0001 4.18771 20.7871 3.77637 20.404C3.36503 20.0209 3.11418 19.4961 3.07436 18.9354L2.11145 5.44405H17.6665ZM13.2225 5.44405V2.11146C13.2225 1.81668 13.1054 1.53398 12.8969 1.32554C12.6885 1.1171 12.4058 1 12.111 1H7.66696C7.37219 1 7.08948 1.1171 6.88104 1.32554C6.67261 1.53398 6.55551 1.81668 6.55551 2.11146V5.44494L13.2225 5.44405Z" stroke="#FBD57E" stroke-width="2" stroke-linecap="round" stroke-linejoin="round"/>
</svg>
