<svg width="27" height="26" viewBox="0 0 27 26" fill="none" xmlns="http://www.w3.org/2000/svg">
<path d="M4.13318 20.7385C6.93291 19.1616 10.0919 18.3331 13.3052 18.3331C16.5184 18.3331 19.6774 19.1616 22.4772 20.7385M17.3052 10.3325C17.3042 11.2577 16.9826 12.1539 16.395 12.8686C15.8074 13.5833 14.9902 14.0722 14.0826 14.252C13.1751 14.4319 12.2332 14.2915 11.4175 13.8549C10.6018 13.4183 9.96267 12.7124 9.60899 11.8574C9.2553 11.0025 9.20892 10.0513 9.47776 9.16605C9.7466 8.28075 10.314 7.51602 11.0834 7.00211C11.8527 6.4882 12.7765 6.25689 13.6972 6.34757C14.618 6.43826 15.4789 6.84533 16.1332 7.49946C16.5052 7.8714 16.8003 8.31308 17.0014 8.79921C17.2025 9.28534 17.3057 9.80637 17.3052 10.3325ZM25.3052 12.9995C25.3053 15.7757 24.3428 18.4662 22.5816 20.6123C20.8205 22.7585 18.3697 24.2276 15.6468 24.7693C12.9239 25.3111 10.0974 24.8919 7.64886 23.5833C5.20035 22.2747 3.28134 20.1576 2.21881 17.5927C1.15627 15.0278 1.01595 12.1738 1.82176 9.51704C2.62757 6.86029 4.32964 4.56512 6.63797 3.02263C8.9463 1.48013 11.7181 0.785735 14.481 1.05776C17.2439 1.32979 19.827 2.5514 21.7902 4.51446C24.0407 6.76478 25.305 9.81692 25.3052 12.9995Z" stroke="#3F3F46" stroke-width="2" stroke-linecap="round" stroke-linejoin="round"/>
</svg>
