<svg width="16" height="20" viewBox="0 0 16 20" fill="none" xmlns="http://www.w3.org/2000/svg">
<path d="M6.95 10.6999L5.55 9.2999C5.35 9.0999 5.11667 8.9999 4.85 8.9999C4.58333 8.9999 4.35 9.0999 4.15 9.2999C3.95 9.4999 3.85 9.73757 3.85 10.0129C3.85 10.2882 3.95 10.5256 4.15 10.7249L6.25 12.8499C6.45 13.0499 6.68333 13.1499 6.95 13.1499C7.21667 13.1499 7.45 13.0499 7.65 12.8499L11.9 8.5999C12.1 8.3999 12.2 8.16257 12.2 7.8879C12.2 7.61323 12.1 7.37557 11.9 7.1749C11.7 6.97424 11.4627 6.87424 11.188 6.8749C10.9133 6.87557 10.6757 6.97557 10.475 7.1749L6.95 10.6999ZM8 19.8999C7.88333 19.8999 7.775 19.8916 7.675 19.8749C7.575 19.8582 7.475 19.8332 7.375 19.7999C5.125 19.0499 3.33333 17.6626 2 15.6379C0.666667 13.6132 0 11.4339 0 9.0999V4.3749C0 3.95824 0.121 3.58324 0.363 3.2499C0.605 2.91657 0.917333 2.6749 1.3 2.5249L7.3 0.274902C7.53333 0.191569 7.76667 0.149902 8 0.149902C8.23333 0.149902 8.46667 0.191569 8.7 0.274902L14.7 2.5249C15.0833 2.6749 15.396 2.91657 15.638 3.2499C15.88 3.58324 16.0007 3.95824 16 4.3749V9.0999C16 11.4332 15.3333 13.6126 14 15.6379C12.6667 17.6632 10.875 19.0506 8.625 19.7999C8.525 19.8332 8.425 19.8582 8.325 19.8749C8.225 19.8916 8.11667 19.8999 8 19.8999Z" fill="#A5B639"/>
</svg>
