<svg width="26" height="20" viewBox="0 0 26 20" fill="none" xmlns="http://www.w3.org/2000/svg">
<path d="M1.59606e-07 3.84101C1.59606e-07 3.01008 0.330083 2.21319 0.917635 1.62564C1.50519 1.03809 2.30208 0.708008 3.133 0.708008H12.533C13.3639 0.708008 14.1608 1.03809 14.7484 1.62564C15.3359 2.21319 15.666 3.01008 15.666 3.84101V16.374C15.6661 16.7855 15.5852 17.193 15.4278 17.5733C15.2704 17.9535 15.0397 18.299 14.7487 18.59C14.4578 18.8811 14.1124 19.1119 13.7322 19.2694C13.352 19.4269 12.9445 19.508 12.533 19.508H3.133C2.72148 19.508 2.314 19.4269 1.93382 19.2694C1.55364 19.1119 1.20822 18.8811 0.917281 18.59C0.626342 18.299 0.395588 17.9535 0.238198 17.5733C0.0808093 17.193 -0.000131189 16.7855 1.59606e-07 16.374V3.84101ZM19.666 5.57401C19.406 5.70406 19.1873 5.90389 19.0343 6.15113C18.8814 6.39837 18.8003 6.68329 18.8 6.97401V13.241C18.8003 13.5317 18.8814 13.8166 19.0343 14.0639C19.1873 14.3111 19.406 14.511 19.666 14.641L22.8 16.208C23.0388 16.3272 23.304 16.3835 23.5706 16.3715C23.8372 16.3594 24.0963 16.2795 24.3234 16.1393C24.5504 15.9991 24.7379 15.8032 24.868 15.5702C24.9982 15.3372 25.0667 15.0749 25.067 14.808V5.40801C25.0667 5.14114 24.9982 4.87878 24.868 4.6458C24.7379 4.41282 24.5504 4.21693 24.3234 4.07671C24.0963 3.93649 23.8372 3.85658 23.5706 3.84456C23.304 3.83253 23.0388 3.8888 22.8 4.00801L19.666 5.57401Z" fill="#3F3F46"/>
</svg>
