<svg width="26" height="18" viewBox="0 0 26 18" fill="none" xmlns="http://www.w3.org/2000/svg">
<path d="M17 6.333L23.071 3.3C23.2741 3.19846 23.4998 3.15051 23.7267 3.16068C23.9536 3.17085 24.1741 3.23881 24.3673 3.35811C24.5605 3.47741 24.7201 3.6441 24.8308 3.84237C24.9415 4.04064 24.9998 4.26391 25 4.491V13.51C24.9996 13.737 24.9412 13.9602 24.8304 14.1583C24.7196 14.3564 24.5601 14.523 24.3669 14.6422C24.1737 14.7613 23.9532 14.8292 23.7264 14.8393C23.4997 14.8495 23.2741 14.8015 23.071 14.7L17 11.667V6.333ZM3.667 17H14.333C14.6832 17 15.03 16.931 15.3536 16.797C15.6772 16.663 15.9712 16.4665 16.2189 16.2189C16.4665 15.9712 16.663 15.6772 16.797 15.3536C16.931 15.03 17 14.6832 17 14.333V3.667C17 3.31676 16.931 2.96996 16.797 2.64638C16.663 2.32281 16.4665 2.0288 16.2189 1.78115C15.9712 1.53349 15.6772 1.33704 15.3536 1.20301C15.03 1.06898 14.6832 1 14.333 1H3.667C2.95967 1 2.28131 1.28099 1.78115 1.78115C1.28099 2.28131 1 2.95967 1 3.667V14.333C1 14.6832 1.06898 15.03 1.20301 15.3536C1.33704 15.6772 1.53349 15.9712 1.78115 16.2189C2.0288 16.4665 2.32281 16.663 2.64638 16.797C2.96996 16.931 3.31676 17 3.667 17Z" stroke="#3F3F46" stroke-width="2" stroke-linecap="round" stroke-linejoin="round"/>
</svg>
