<svg width="21" height="27" viewBox="0 0 21 27" fill="none" xmlns="http://www.w3.org/2000/svg">
<path d="M2.16783 1.93511C1.98076 2.15401 1.87918 2.43318 1.88183 2.72111V17.2651C1.87918 17.553 1.98076 17.8322 2.16783 18.0511L9.58183 25.1811C10.2664 25.3888 10.9972 25.3888 11.6818 25.1811L19.1818 18.0511C19.3689 17.8322 19.4705 17.553 19.4678 17.2651V2.72111C19.4705 2.43318 19.3689 2.15401 19.1818 1.93511C19.0966 1.83467 18.9908 1.75368 18.8716 1.69762C18.7524 1.64155 18.6225 1.61171 18.4908 1.61011H2.85883C2.72712 1.61178 2.59729 1.64165 2.4781 1.69771C2.3589 1.75377 2.2531 1.83472 2.16783 1.93511Z" stroke="#3F3F46" stroke-width="2" stroke-linecap="round" stroke-linejoin="round"/>
</svg>
