<svg width="24" height="21" viewBox="0 0 24 21" fill="none" xmlns="http://www.w3.org/2000/svg">
<path fill-rule="evenodd" clip-rule="evenodd" d="M11.177 1.29494C11.4207 1.39585 11.6289 1.56677 11.7754 1.78607C11.9219 2.00537 12.0001 2.26321 12 2.52694V18.5269C12.0002 18.7907 11.9221 19.0486 11.7756 19.268C11.6292 19.4873 11.4209 19.6583 11.1772 19.7593C10.9336 19.8602 10.6654 19.8866 10.4067 19.8351C10.148 19.7836 9.91043 19.6565 9.724 19.4699L4.781 14.5269H1.333C1.15786 14.5269 0.984444 14.4924 0.822652 14.4254C0.66086 14.3583 0.513867 14.26 0.390073 14.1362C0.26628 14.0123 0.168112 13.8652 0.101182 13.7034C0.0342511 13.5415 -0.00013101 13.3681 3.75129e-07 13.1929V7.85994C3.75129e-07 7.50641 0.140441 7.16736 0.390427 6.91737C0.640413 6.66738 0.979467 6.52694 1.333 6.52694H4.781L9.724 1.58394C9.91044 1.39745 10.148 1.27045 10.4067 1.21901C10.6653 1.16756 10.9334 1.19399 11.177 1.29494ZM18.209 1.09494C18.459 0.845002 18.798 0.70459 19.1515 0.70459C19.505 0.70459 19.844 0.845002 20.094 1.09494C21.3333 2.33236 22.3165 3.80199 22.9873 5.41974C23.6582 7.03749 24.0034 8.77162 24.0034 10.5229C24.0034 12.2743 23.6582 14.0084 22.9873 15.6262C22.3165 17.2439 21.3333 18.7135 20.094 19.9509C19.8403 20.1776 19.5095 20.2987 19.1695 20.2894C18.8294 20.2802 18.5057 20.1412 18.2648 19.901C18.0238 19.6608 17.8838 19.3376 17.8734 18.9976C17.8631 18.6575 17.9831 18.3264 18.209 18.0719C20.2091 16.0714 21.3327 13.3583 21.3327 10.5294C21.3327 7.70056 20.2091 4.98751 18.209 2.98694C17.9591 2.73696 17.8186 2.39794 17.8186 2.04444C17.8186 1.69095 17.9591 1.35192 18.209 1.10194V1.09494ZM14.437 4.87194C14.5608 4.74789 14.7079 4.64946 14.8698 4.58231C15.0317 4.51516 15.2052 4.48059 15.3805 4.48059C15.5558 4.48059 15.7293 4.51516 15.8912 4.58231C16.0531 4.64946 16.2002 4.74789 16.324 4.87194C17.0671 5.61484 17.6565 6.49683 18.0587 7.46755C18.4608 8.43828 18.6678 9.47871 18.6678 10.5294C18.6678 11.5802 18.4608 12.6206 18.0587 13.5913C17.6565 14.5621 17.0671 15.4441 16.324 16.1869C16.2001 16.3108 16.053 16.4091 15.8911 16.4762C15.7292 16.5432 15.5557 16.5778 15.3805 16.5778C15.2053 16.5778 15.0318 16.5432 14.8699 16.4762C14.708 16.4091 14.5609 16.3108 14.437 16.1869C14.3131 16.063 14.2148 15.9159 14.1478 15.7541C14.0807 15.5922 14.0462 15.4187 14.0462 15.2434C14.0462 15.0682 14.0807 14.8947 14.1478 14.7328C14.2148 14.5709 14.3131 14.4238 14.437 14.2999C14.933 13.8053 15.3266 13.2176 15.5951 12.5706C15.8636 11.9236 16.0018 11.23 16.0018 10.5294C16.0018 9.82893 15.8636 9.13529 15.5951 8.48828C15.3266 7.84127 14.933 7.2536 14.437 6.75894C14.3129 6.63513 14.2145 6.48806 14.1474 6.32617C14.0802 6.16427 14.0456 5.99072 14.0456 5.81544C14.0456 5.64017 14.0802 5.46662 14.1474 5.30472C14.2145 5.14282 14.3129 4.99576 14.437 4.87194Z" fill="#3F3F46"/>
</svg>
