<svg width="24" height="21" viewBox="0 0 24 21" fill="none" xmlns="http://www.w3.org/2000/svg">
<path fill-rule="evenodd" clip-rule="evenodd" d="M11.826 0.815465C12.0831 0.922184 12.3028 1.10255 12.4576 1.33387C12.6124 1.56519 12.6954 1.83713 12.696 2.11546V19.0485C12.6963 19.3276 12.6138 19.6005 12.459 19.8327C12.3042 20.065 12.0839 20.2461 11.8262 20.3531C11.5684 20.4602 11.2847 20.4884 11.0109 20.4341C10.7371 20.3799 10.4855 20.2457 10.288 20.0485L5.058 14.8185H1.411C1.03695 14.8185 0.678211 14.6699 0.413626 14.4055C0.149041 14.1411 0.000265094 13.7825 0 13.4085V7.76246C0 7.38824 0.148659 7.02935 0.413272 6.76474C0.677886 6.50012 1.03678 6.35146 1.411 6.35146H5.059L10.289 1.12146C10.4863 0.924049 10.7378 0.789602 11.0116 0.735133C11.2853 0.680664 11.5681 0.70862 11.826 0.815465ZM15.931 6.76446C16.1956 6.49999 16.5544 6.35142 16.9285 6.35142C17.3026 6.35142 17.6614 6.49999 17.926 6.76446L19.75 8.58846L21.574 6.76446C21.7039 6.62884 21.8597 6.52053 22.032 6.44588C22.2044 6.37122 22.3899 6.33174 22.5777 6.32973C22.7656 6.32773 22.9519 6.36324 23.1258 6.43419C23.2997 6.50515 23.4577 6.61011 23.5905 6.74292C23.7234 6.87574 23.8283 7.03374 23.8993 7.20765C23.9702 7.38157 24.0057 7.5679 24.0037 7.75572C24.0017 7.94354 23.9622 8.12907 23.8876 8.30143C23.8129 8.47379 23.7046 8.62951 23.569 8.75946L21.745 10.5835L23.569 12.4085C23.8243 12.6749 23.965 13.0307 23.9611 13.3997C23.9572 13.7687 23.8088 14.1215 23.5479 14.3824C23.287 14.6433 22.9342 14.7916 22.5653 14.7956C22.1963 14.7995 21.8404 14.6588 21.574 14.4035L19.75 12.5785L17.926 14.4025C17.6589 14.6537 17.3045 14.791 16.9379 14.7854C16.5713 14.7798 16.2212 14.6318 15.9619 14.3726C15.7025 14.1134 15.5543 13.7634 15.5485 13.3968C15.5428 13.0302 15.6799 12.6757 15.931 12.4085L17.755 10.5845L15.931 8.76046C15.6665 8.49587 15.518 8.13707 15.518 7.76296C15.518 7.38886 15.6665 7.03006 15.931 6.76546V6.76446Z" fill="#3F3F46"/>
</svg>
