<svg width="26" height="23" viewBox="0 0 26 23" fill="none" xmlns="http://www.w3.org/2000/svg">
<path d="M3.03085 15.5769H5.18585L11.5789 21.3859C11.7666 21.563 12.0004 21.6839 12.2535 21.7348C12.5065 21.7856 12.7688 21.7644 13.0105 21.6735C13.2521 21.5827 13.4634 21.4258 13.6202 21.2208C13.7771 21.0158 13.8733 20.7709 13.8979 20.5139V3.23689C13.8733 2.97991 13.7771 2.73499 13.6202 2.52998C13.4634 2.32497 13.2521 2.16811 13.0105 2.07725C12.7688 1.98639 12.5065 1.96518 12.2535 2.01603C12.0004 2.06688 11.7666 2.18775 11.5789 2.36489L5.18585 8.17289H3.03085C2.67724 8.17048 2.33526 8.29908 2.07085 8.53389C1.94769 8.64285 1.84867 8.77636 1.78013 8.92583C1.71159 9.07531 1.67505 9.23746 1.67285 9.40189V14.3379C1.6746 14.5033 1.71112 14.6665 1.78003 14.8169C1.84894 14.9673 1.94871 15.1015 2.07285 15.2109C2.336 15.4471 2.67727 15.5774 3.03085 15.5769Z" stroke="#3F3F46" stroke-width="2" stroke-linecap="round" stroke-linejoin="round"/>
<path d="M22.0348 11.8749L24.3258 14.1659M22.0348 11.8749L19.7438 14.1659M22.0348 11.8749L24.3258 9.58386M22.0348 11.8749L19.7438 9.58386" stroke="#3F3F46" stroke-width="2" stroke-linecap="round" stroke-linejoin="round"/>
</svg>
