<svg width="26" height="22" viewBox="0 0 26 22" fill="none" xmlns="http://www.w3.org/2000/svg">
<path d="M17.3631 6.51106C17.9362 7.08402 18.3908 7.76428 18.701 8.51298C19.0112 9.26168 19.1709 10.0641 19.1709 10.8746C19.1709 11.685 19.0112 12.4874 18.701 13.2361C18.3908 13.9848 17.9362 14.6651 17.3631 15.2381M20.8531 3.02106C22.9358 5.104 24.1059 7.92896 24.1059 10.8746C24.1059 13.8202 22.9358 16.6451 20.8531 18.7281M5.08407 14.5771H3.12707C2.79979 14.5771 2.48592 14.447 2.2545 14.2156C2.02308 13.9842 1.89307 13.6703 1.89307 13.3431V8.40206C1.89307 8.07478 2.02308 7.76091 2.2545 7.52949C2.48592 7.29807 2.79979 7.16806 3.12707 7.16806H5.08407L10.8931 1.36406C11.0656 1.19137 11.2855 1.07372 11.5248 1.026C11.7642 0.978287 12.0124 1.00264 12.238 1.09599C12.4635 1.18933 12.6563 1.34748 12.792 1.55041C12.9276 1.75335 13 1.99196 13.0001 2.23606V19.5141C13 19.7582 12.9276 19.9968 12.792 20.1997C12.6563 20.4026 12.4635 20.5608 12.238 20.6541C12.0124 20.7475 11.7642 20.7718 11.5248 20.7241C11.2855 20.6764 11.0656 20.5588 10.8931 20.3861L5.08407 14.5771Z" stroke="#3F3F46" stroke-width="2" stroke-linecap="round" stroke-linejoin="round"/>
</svg>
