<svg width="26" height="20" viewBox="0 0 26 20" fill="none" xmlns="http://www.w3.org/2000/svg">
<path fill-rule="evenodd" clip-rule="evenodd" d="M23.3142 7.74892C21.9369 6.37143 20.3017 5.27874 18.5021 4.53324C16.7025 3.78774 14.7736 3.40403 12.8257 3.40403C10.8777 3.40403 8.94888 3.78774 7.14925 4.53324C5.34963 5.27874 3.71447 6.37143 2.33717 7.74892C2.08277 7.99361 1.74255 8.12876 1.38959 8.12533C1.03663 8.1219 0.699099 7.98017 0.449508 7.73058C0.199916 7.48098 0.0581805 7.14345 0.0547512 6.79049C0.0513219 6.43753 0.186472 6.09731 0.431167 5.84292C2.05882 4.21504 3.9912 2.92373 6.11795 2.04272C8.2447 1.16171 10.5242 0.708252 12.8262 0.708252C15.1282 0.708252 17.4076 1.16171 19.5344 2.04272C21.6611 2.92373 23.5935 4.21504 25.2212 5.84292C25.4741 6.0958 25.6161 6.43879 25.6161 6.79642C25.6161 7.15405 25.4741 7.49703 25.2212 7.74992C24.9683 8.0028 24.6253 8.14487 24.2677 8.14487C23.91 8.14487 23.5671 8.0018 23.3142 7.74892ZM19.5012 11.5619C18.6247 10.6852 17.584 9.98981 16.4387 9.51535C15.2934 9.04088 14.0659 8.79668 12.8262 8.79668C11.5865 8.79668 10.3589 9.04088 9.21361 9.51535C8.06831 9.98981 7.02768 10.6852 6.15117 11.5619C5.89828 11.8148 5.5553 11.9569 5.19767 11.9569C4.84004 11.9569 4.49705 11.8148 4.24417 11.5619C3.99128 11.309 3.84921 10.966 3.84921 10.6084C3.84921 10.2508 3.99128 9.9078 4.24417 9.65492C5.3711 8.52797 6.70897 7.63403 8.18139 7.02412C9.6538 6.41422 11.2319 6.10031 12.8257 6.10031C14.4194 6.10031 15.9975 6.41422 17.4699 7.02412C18.9424 7.63403 20.2802 8.52797 21.4072 9.65492C21.6601 9.9078 21.8021 10.2508 21.8021 10.6084C21.8021 10.966 21.6601 11.309 21.4072 11.5619C21.1543 11.8148 20.8113 11.9569 20.4537 11.9569C20.096 11.9569 19.7541 11.8148 19.5012 11.5619ZM15.6852 15.3789C14.9266 14.6205 13.8978 14.1944 12.8252 14.1944C11.7525 14.1944 10.7237 14.6205 9.96517 15.3789C9.83989 15.5042 9.69116 15.6036 9.52747 15.6714C9.36378 15.7392 9.18834 15.7741 9.01117 15.7741C8.83399 15.7741 8.65855 15.7392 8.49487 15.6714C8.33118 15.6036 8.18245 15.5042 8.05717 15.3789C7.93189 15.2536 7.83251 15.1049 7.76471 14.9412C7.69691 14.7775 7.66201 14.6021 7.66201 14.4249C7.66201 14.2477 7.69691 14.0723 7.76471 13.9086C7.83251 13.7449 7.93189 13.5962 8.05717 13.4709C8.68324 12.8447 9.42656 12.3479 10.2447 12.0089C11.0628 11.67 11.9396 11.4955 12.8252 11.4955C13.7107 11.4955 14.5876 11.67 15.4057 12.0089C16.2238 12.3479 16.9671 12.8447 17.5932 13.4709C17.8462 13.7239 17.9883 14.0671 17.9883 14.4249C17.9883 14.7827 17.8462 15.1259 17.5932 15.3789C17.3402 15.6319 16.997 15.7741 16.6392 15.7741C16.2813 15.7741 15.9382 15.6319 15.6852 15.3789ZM11.4772 18.2379C11.477 18.0608 11.5118 17.8854 11.5795 17.7218C11.6472 17.5581 11.7464 17.4094 11.8716 17.2841C11.9968 17.1588 12.1455 17.0594 12.3091 16.9916C12.4727 16.9238 12.6481 16.8889 12.8252 16.8889H12.8382C13.1962 16.8889 13.5396 17.0311 13.7928 17.2843C14.0459 17.5375 14.1882 17.8809 14.1882 18.2389C14.1882 18.597 14.0459 18.9403 13.7928 19.1935C13.5396 19.4467 13.1962 19.5889 12.8382 19.5889H12.8252C12.6481 19.589 12.4727 19.5543 12.309 19.4866C12.1453 19.4189 11.9966 19.3196 11.8713 19.1945C11.7461 19.0693 11.6467 18.9206 11.5789 18.757C11.5111 18.5934 11.4762 18.418 11.4762 18.2409L11.4772 18.2379Z" fill="#3F3F46"/>
</svg>
