<svg width="24" height="24" viewBox="0 0 24 24" fill="none" xmlns="http://www.w3.org/2000/svg">
<path fill-rule="evenodd" clip-rule="evenodd" d="M11.9995 24C14.7757 24.0001 17.4662 23.0376 19.6123 21.2765C21.7585 19.5153 23.2276 17.0645 23.7693 14.3416C24.3111 11.6187 23.8919 8.79219 22.5833 6.34368C21.2747 3.89518 19.1576 1.97617 16.5927 0.913633C14.0278 -0.148903 11.1738 -0.289221 8.51704 0.516586C5.86029 1.32239 3.56512 3.02447 2.02263 5.3328C0.48013 7.64112 -0.214265 10.4129 0.057761 13.1758C0.329787 15.9387 1.5514 18.5218 3.51446 20.485C5.76478 22.7355 8.81692 23.9999 11.9995 24ZM10.0595 7.939C9.77655 7.66577 9.39765 7.51457 9.00435 7.51799C8.61106 7.52141 8.23484 7.67916 7.95673 7.95728C7.67862 8.23539 7.52086 8.61161 7.51745 9.0049C7.51403 9.3982 7.66522 9.7771 7.93846 10.06L9.87846 12L7.93846 13.94C7.79519 14.0784 7.68092 14.2439 7.6023 14.4269C7.52369 14.6099 7.48231 14.8067 7.48058 15.0059C7.47885 15.2051 7.5168 15.4026 7.59222 15.5869C7.66764 15.7713 7.77902 15.9388 7.91986 16.0796C8.0607 16.2204 8.22818 16.3318 8.41253 16.4072C8.59687 16.4827 8.79439 16.5206 8.99356 16.5189C9.19273 16.5171 9.38956 16.4758 9.57256 16.3972C9.75557 16.3185 9.92109 16.2043 10.0595 16.061L11.9995 14.121L13.9395 16.061C14.2224 16.3342 14.6013 16.4854 14.9946 16.482C15.3879 16.4786 15.7641 16.3208 16.0422 16.0427C16.3203 15.7646 16.4781 15.3884 16.4815 14.9951C16.4849 14.6018 16.3337 14.2229 16.0605 13.94L14.1205 12L16.0605 10.061C16.1998 9.92174 16.3103 9.75639 16.3858 9.5744C16.4612 9.39242 16.5 9.19736 16.5001 9.00036C16.5001 8.80336 16.4614 8.60828 16.386 8.42626C16.3107 8.24424 16.2002 8.07884 16.061 7.9395C15.9217 7.80017 15.7563 7.68963 15.5744 7.6142C15.3924 7.53877 15.1973 7.49992 15.0003 7.49988C14.8033 7.49983 14.6082 7.53859 14.4262 7.61393C14.2442 7.68928 14.0788 7.79974 13.9395 7.939L11.9995 9.879L10.0595 7.939Z" fill="#505E41"/>
</svg>
