<svg width="24" height="25" viewBox="0 0 24 25" fill="none" xmlns="http://www.w3.org/2000/svg">
<path fill-rule="evenodd" clip-rule="evenodd" d="M11.9999 24.708C14.7762 24.7081 17.4666 23.7456 19.6128 21.9845C21.759 20.2233 23.2281 17.7725 23.7698 15.0496C24.3116 12.3267 23.8924 9.5002 22.5838 7.05169C21.2752 4.60319 19.1581 2.68418 16.5932 1.62164C14.0283 0.559105 11.1743 0.418786 8.51753 1.22459C5.86078 2.0304 3.56561 3.73247 2.02312 6.0408C0.480618 8.34913 -0.213776 11.1209 0.0582493 13.8838C0.330275 16.6467 1.55189 19.2298 3.51494 21.193C5.76527 23.4435 8.8174 24.7079 11.9999 24.708ZM10.0599 8.64701C9.77704 8.37377 9.39814 8.22258 9.00484 8.226C8.61155 8.22942 8.23533 8.38717 7.95722 8.66528C7.6791 8.9434 7.52135 9.31961 7.51793 9.71291C7.51452 10.1062 7.66571 10.4851 7.93894 10.768L9.87894 12.708L7.93894 14.648C7.79568 14.7864 7.68141 14.9519 7.60279 15.1349C7.52418 15.3179 7.4828 15.5147 7.48107 15.7139C7.47934 15.9131 7.51729 16.1106 7.59271 16.2949C7.66813 16.4793 7.77951 16.6468 7.92035 16.7876C8.06119 16.9284 8.22867 17.0398 8.41301 17.1152C8.59736 17.1907 8.79488 17.2286 8.99405 17.2269C9.19322 17.2252 9.39005 17.1838 9.57305 17.1052C9.75606 17.0266 9.92157 16.9123 10.0599 16.769L11.9999 14.829L13.9399 16.769C14.2228 17.0422 14.6018 17.1934 14.995 17.19C15.3883 17.1866 15.7646 17.0289 16.0427 16.7507C16.3208 16.4726 16.4785 16.0964 16.482 15.7031C16.4854 15.3098 16.3342 14.9309 16.0609 14.648L14.1209 12.708L16.0609 10.769C16.2003 10.6297 16.3108 10.4644 16.3862 10.2824C16.4617 10.1004 16.5005 9.90536 16.5006 9.70836C16.5006 9.51136 16.4619 9.31629 16.3865 9.13426C16.3112 8.95224 16.2007 8.78684 16.0614 8.64751C15.9222 8.50818 15.7568 8.39764 15.5748 8.32221C15.3929 8.24678 15.1978 8.20793 15.0008 8.20788C14.8038 8.20784 14.6087 8.24659 14.4267 8.32194C14.2447 8.39728 14.0793 8.50774 13.9399 8.64701L11.9999 10.587L10.0599 8.64701Z" fill="#3F3F46"/>
</svg>
