<svg width="27" height="27" viewBox="0 0 27 27" fill="none" xmlns="http://www.w3.org/2000/svg">
<path d="M11.0269 15.8896L13.6939 13.2226M13.6939 13.2226L16.3609 10.5556M13.6939 13.2226L11.0269 10.5556M13.6939 13.2226L16.3609 15.8896M25.6939 13.2226C25.694 15.9989 24.7315 18.6893 22.9703 20.8355C21.2092 22.9816 18.7583 24.4507 16.0354 24.9925C13.3125 25.5342 10.486 25.1151 8.03753 23.8065C5.58903 22.4978 3.67002 20.3807 2.60748 17.8158C1.54494 15.2509 1.40463 12.3969 2.21043 9.74019C3.01624 7.08343 4.71831 4.78827 7.02664 3.24577C9.33497 1.70327 12.1067 1.00888 14.8696 1.28091C17.6326 1.55293 20.2157 2.77455 22.1789 4.7376C24.4293 6.98792 25.6937 10.0401 25.6939 13.2226Z" stroke="#3F3F46" stroke-width="2" stroke-linecap="round" stroke-linejoin="round"/>
</svg>
