<svg width="24" height="24" viewBox="0 0 24 24" fill="none" xmlns="http://www.w3.org/2000/svg">
<path fill-rule="evenodd" clip-rule="evenodd" d="M1.14584 0.825201C1.50212 0.46919 1.98517 0.269207 2.48884 0.269207C2.9925 0.269207 3.47556 0.46919 3.83184 0.825201L11.9898 8.9802L20.1448 0.825201C20.3194 0.640832 20.5291 0.493315 20.7616 0.391364C20.9941 0.289413 21.2447 0.235096 21.4986 0.231623C21.7525 0.22815 22.0044 0.27559 22.2397 0.371142C22.4749 0.466693 22.6886 0.608418 22.8681 0.787943C23.0476 0.967468 23.1893 1.18115 23.2849 1.41637C23.3804 1.65159 23.4279 1.90358 23.4244 2.15744C23.4209 2.4113 23.3666 2.66189 23.2647 2.89441C23.1627 3.12693 23.0152 3.33666 22.8308 3.5112L14.6758 11.6662L22.8308 19.8212C23.1711 20.1806 23.3577 20.6586 23.3509 21.1534C23.3441 21.6483 23.1445 22.121 22.7946 22.4709C22.4446 22.8209 21.9719 23.0205 21.4771 23.0273C20.9822 23.034 20.5042 22.8475 20.1448 22.5072L11.9898 14.3572L3.83284 22.5082C3.47344 22.8485 2.99547 23.035 2.5006 23.0283C2.00574 23.0215 1.53305 22.8219 1.18309 22.4719C0.833137 22.122 0.633543 21.6493 0.626772 21.1544C0.620001 20.6596 0.806589 20.1816 1.14684 19.8222L9.30184 11.6672L1.14584 3.5112C0.789827 3.15492 0.589844 2.67187 0.589844 2.1682C0.589844 1.66454 0.789827 1.18148 1.14584 0.825201Z" fill="#3F3F46"/>
</svg>
