<svg width="22" height="23" viewBox="0 0 22 23" fill="none" xmlns="http://www.w3.org/2000/svg">
<path d="M12.11 9.39423H5.44303M20.999 21.6162L14.332 14.9492M16.555 9.39423C16.555 11.1937 15.931 12.9375 14.7894 14.3285C13.6477 15.7195 12.0591 16.6716 10.2942 17.0226C8.5293 17.3736 6.69728 17.1018 5.11031 16.2535C3.52333 15.4051 2.2796 14.0328 1.59101 12.3703C0.902424 10.7078 0.811596 8.85793 1.334 7.13595C1.85641 5.41397 2.95972 3.9264 4.45596 2.9267C5.9522 1.927 7.74878 1.47703 9.53959 1.65345C11.3304 1.82987 13.0046 2.62177 14.277 3.89423C15.7356 5.353 16.555 7.33137 16.555 9.39423Z" stroke="#3F3F46" stroke-width="2" stroke-linecap="round" stroke-linejoin="round"/>
</svg>
