<svg width="23" height="23" viewBox="0 0 23 23" fill="none" xmlns="http://www.w3.org/2000/svg">
<path d="M9.34294 9.39423H6.00894M21.5649 21.6162L14.8979 14.9492M17.1209 9.39423C17.1209 11.1937 16.4969 12.9375 15.3553 14.3285C14.2136 15.7195 12.625 16.6716 10.8601 17.0226C9.09522 17.3736 7.2632 17.1018 5.67623 16.2535C4.08925 15.4051 2.84551 14.0328 2.15693 12.3703C1.46834 10.7078 1.37751 8.85793 1.89992 7.13595C2.42233 5.41397 3.52564 3.9264 5.02188 2.9267C6.51811 1.927 8.31469 1.47703 10.1055 1.65345C11.8963 1.82987 13.5705 2.62177 14.8429 3.89423C16.3015 5.353 17.1209 7.33137 17.1209 9.39423Z" stroke="#3F3F46" stroke-width="2" stroke-linecap="round" stroke-linejoin="round"/>
</svg>
